<svg width="39" height="33" fill="none" xmlns="http://www.w3.org/2000/svg"><path d="M9.52 12.78L6.5 14.34v-2.5l3.56-1.96h2.18v14H9.52v-11.1zm5.117 8.94v-3.8l1.26-1.26-1.06-1.06v-3.56l2.16-2.16h6.04l2.16 2.16v3.56l-1.06 1.06 1.26 1.26v3.8l-2.16 2.16h-6.44l-2.16-2.16zm7.14-6.08l.7-.7V12.9l-.7-.7h-3.52l-.7.7v2.04l.7.7h3.52zm.2 5.92l.7-.7v-2.24l-.7-.7h-3.92l-.7.7v2.24l.7.7h3.92z" fill="#fff"/><path fill-rule="evenodd" clip-rule="evenodd" d="M36 15.88v-3h-2v3h-3v2h3v3h2v-3h3v-2h-3z" fill="#fff"/><path fill="#fff" fill-opacity=".2" d="M34 2.881h2v6h-2zm0 22h2v6h-2zm-34-22h2v28H0zm0-.001v-2h36v2z"/><path fill="#fff" fill-opacity=".2" d="M0 32.88v-2h36v2z"/></svg>