<svg width="134" height="18" viewBox="0 0 134 18" fill="none" xmlns="http://www.w3.org/2000/svg">
<path d="M0 6.02238H3.86718C5.59748 6.02238 6.20802 6.07254 6.71592 6.2706C7.18014 6.48047 7.57173 6.818 7.8428 7.24194C8.11388 7.66587 8.25269 8.15783 8.24227 8.65765C8.24227 9.65182 7.937 10.1496 6.91987 10.6473C7.44015 10.8086 7.88926 11.1372 8.19412 11.5798C8.49898 12.0223 8.64163 12.5526 8.59885 13.0845C8.59885 14.7256 7.27646 15.8201 5.34221 15.8201H0V14.2279H0.763173V7.61332H0V6.02238ZM2.84874 7.61332V10.0004H4.83299C5.54485 10.0505 6.2067 9.55279 6.25802 8.857V8.75797C6.25802 8.11491 5.60011 7.6146 4.67904 7.6146L2.84874 7.61332ZM2.84874 11.5424V14.2279H4.98562C5.80011 14.278 6.51197 13.7301 6.5646 12.9353V12.8851C6.5646 12.0402 5.85275 11.4923 4.7843 11.4923L2.85137 11.5424H2.84874ZM17.0451 13.3829C16.6885 15.024 15.3148 16.0181 13.4832 16.0181C11.3463 16.0181 9.76861 14.377 9.76861 12.089C9.76861 9.80101 11.3476 8.15992 13.4832 8.15992C14.0679 8.15527 14.6445 8.29413 15.1602 8.56377C15.6758 8.83341 16.114 9.2252 16.4345 9.70327C16.9635 10.5379 17.2289 11.5064 17.1977 12.4877H11.7015C11.9055 14.4272 13.1779 14.5211 13.5332 14.5211C13.883 14.5343 14.2274 14.4341 14.513 14.2361C14.7985 14.0382 15.0091 13.7536 15.1121 13.4266L17.0451 13.3764V13.3829ZM15.1121 11.1965C15.1111 10.8011 14.95 10.4222 14.6639 10.1426C14.3779 9.86308 13.9903 9.70557 13.5858 9.70456H13.5345C13.1204 9.71283 12.7219 9.86074 12.4066 10.1232C12.0912 10.3858 11.8784 10.7467 11.8042 11.145L15.1108 11.1952L15.1121 11.1965ZM23.4044 10.9457H26.915V15.8188H25.79V14.2754C25.5805 14.6228 25.3238 14.9408 25.0268 15.2207C24.3896 15.7577 23.5786 16.057 22.7373 16.0657C20.3965 16.0657 18.5648 13.8279 18.5648 10.9431C18.5648 8.05832 20.403 5.77544 22.6926 5.77544C23.9649 5.72529 25.0834 6.41851 25.6939 7.4667V5.92335H26.7624V9.05635H25.6426C25.5405 8.62571 25.3502 8.21973 25.0834 7.86282C24.8254 7.54441 24.5019 7.28247 24.1338 7.09394C23.7657 6.9054 23.3612 6.79448 22.9465 6.76833C21.7254 6.76833 19.8938 7.81267 19.8938 10.8466C19.8938 13.2337 21.2162 14.9738 22.9465 14.9738C23.6072 14.9448 24.2383 14.6981 24.7372 14.2738C25.2361 13.8494 25.5733 13.2725 25.6939 12.6369C25.7364 12.3737 25.7535 12.1072 25.7452 11.8408H23.3531L23.4044 10.9405V10.9457ZM35.4625 15.869H33.2743V14.5211C33.0217 14.977 32.6465 15.3569 32.1893 15.6199C31.732 15.8828 31.21 16.0187 30.6796 16.013C29.4072 16.112 28.2887 15.1127 28.1861 13.8742V13.725C28.1861 12.2832 29.4585 11.5862 32.5112 11.2878L33.223 11.2376V10.4917C33.223 9.64668 32.5651 9.09879 31.4927 9.09879C30.4203 9.09879 29.869 9.45376 29.6624 10.4479H28.4927C28.5922 9.85215 28.8973 9.30756 29.3572 8.90459C29.9164 8.45702 30.6796 8.26152 31.3927 8.26152C32.9717 8.26152 34.2875 8.95732 34.2875 10.8479V14.9751H35.356L35.4573 15.8754L35.4625 15.869ZM33.2743 11.99L32.5625 12.089C30.2216 12.3874 29.4585 12.7848 29.4585 13.7301C29.4815 14.1228 29.6584 14.4917 29.9524 14.7602C30.2465 15.0287 30.6351 15.1762 31.0375 15.1719C31.5832 15.1544 32.1055 14.9509 32.514 14.5967C32.9225 14.2426 33.1915 13.7599 33.2743 13.2324V11.99ZM38.6679 9.75214C39.0244 9.25441 39.685 8.20879 41.11 8.20879C42.1271 8.20879 42.689 8.70652 42.8903 9.75214C43.0813 9.4061 43.3209 9.08791 43.6022 8.80684C44.0448 8.40332 44.6246 8.17425 45.2298 8.16378C46.3996 8.16378 47.0615 8.90973 47.0615 10.2023V14.9262H48.1299V15.8265H45.9943V10.5971C45.9943 9.55279 45.6377 9.05378 44.8746 9.05378C43.5522 9.05378 42.839 10.5971 42.839 11.1424V14.9224H43.9588V15.8227H41.7219V10.4479C41.7219 9.50263 41.3653 9.10522 40.6021 9.10522C39.4324 9.10522 38.5665 10.547 38.5665 11.244V14.9738H39.6863V15.8741H36.3783V14.9738H37.5007V9.20554H36.381V8.30525H38.6179L38.6692 9.747L38.6679 9.75214ZM49.301 5.57481H51.4379V9.90133C51.7431 9.35473 52.6076 8.26024 53.9313 8.26024C55.6616 8.26024 56.984 10.0004 56.984 12.1894C56.984 14.2279 55.559 15.9693 53.9313 15.9693C52.5576 15.9693 51.8958 15.069 51.4379 14.4774V15.8702H49.251V14.97H50.3194V6.46995H49.3023V5.56966L49.301 5.57481ZM51.4379 12.6858C51.4351 13.2729 51.6588 13.8395 52.0643 14.2726C52.4699 14.7057 53.0275 14.9735 53.626 15.0227C54.9484 15.0227 55.7629 13.8793 55.7629 12.0389C55.7629 10.1984 54.8984 9.10522 53.626 9.10522C52.5063 9.10522 51.3892 10.2987 51.3892 11.3932L51.4405 12.6858H51.4379ZM57.6327 5.57481H59.8209V14.9738H60.838V15.8741H57.5867V14.9738H58.7064V6.41851H57.6327V5.57481ZM68.3211 13.7803C68.2218 14.2065 68.0115 14.6003 67.7105 14.9237C67.4098 15.2702 67.0348 15.5479 66.6121 15.737C66.1894 15.9261 65.7293 16.0221 65.2644 16.0181C63.1789 16.0181 61.7025 14.4272 61.7025 12.1392C61.7025 9.95278 63.1776 8.26024 65.0605 8.26024C66.9434 8.26024 68.4737 9.70198 68.4737 12.3347H62.9289C63.0302 13.4292 63.2855 14.0748 63.7934 14.5725C64.1855 14.9166 64.6915 15.1107 65.2184 15.1191C66.0829 15.1191 66.6434 14.7217 67.05 13.8266L68.3224 13.7764L68.3211 13.7803ZM67.2013 11.4923C67.2023 10.7905 66.9293 10.1148 66.4381 9.60295C66.0816 9.30457 65.6237 9.10522 65.1658 9.15538C64.6989 9.17941 64.2515 9.34579 63.8864 9.63114C63.5213 9.9165 63.2569 10.3065 63.1302 10.7463C63.0789 10.9945 62.9776 11.244 62.9776 11.4923H67.2013ZM73.1593 6.02238H75.6015L78.4002 14.278H79.1634V15.869H76.8739L76.216 13.7301H72.6462L71.9883 15.869H69.6448V14.278H70.408L73.1593 6.02238ZM74.3804 7.86282L73.058 12.2357H75.6989L74.3804 7.86282ZM79.0568 8.35927H82.1069V9.8023H81.3437L82.4121 14.2279L83.6859 8.35927H85.6701L86.9425 14.1275L87.9596 9.80102H87.1964V8.35927H90.2491V9.8023H89.5912L87.9636 15.8201H85.9227L84.6503 10.6486L83.4293 15.8201H81.3977L79.7187 9.8023H79.0608V8.35927H79.0568ZM97.4756 14.4272H98.1335V15.869H95.7453V14.9687C95.1861 15.6645 94.3203 16.013 93.4045 16.013C91.8781 16.013 90.7084 15.0188 90.7084 13.6761C90.7084 11.4897 93.2518 11.2389 95.694 11.0408C95.694 9.89748 95.2874 9.54893 94.3203 9.54893C93.3531 9.54893 92.9979 9.99651 92.9466 10.6923V10.7425L91.115 10.6923C91.2163 9.2004 92.4373 8.25509 94.2729 8.25509C96.4098 8.25509 97.5295 9.20039 97.5295 10.8904L97.4782 14.4208L97.4756 14.4272ZM95.644 12.3347C93.8637 12.4839 92.6926 12.6331 92.6926 13.6774C92.6926 14.2742 93.2018 14.6716 93.965 14.6716C94.4068 14.6726 94.8322 14.5084 95.1539 14.2125C95.4757 13.9167 95.6694 13.5117 95.6953 13.0806V12.3347H95.644ZM101.744 9.55279C102.253 8.60749 102.813 8.21008 103.677 8.21008C103.968 8.21853 104.257 8.25166 104.542 8.30911V10.0505C104.238 9.99273 103.93 9.95961 103.62 9.95149C103.168 9.9189 102.721 10.0632 102.378 10.3526C102.034 10.642 101.822 11.0528 101.789 11.4948V14.3796H102.71V15.8214H99.1493V14.377H99.9125V9.8023H99.1493V8.35927H101.744V9.55279ZM112.225 13.3829C111.868 15.024 110.494 16.0181 108.663 16.0181C106.526 16.0181 104.948 14.377 104.948 12.089C104.948 9.80101 106.527 8.15992 108.663 8.15992C109.247 8.15527 109.824 8.29413 110.34 8.56377C110.855 8.83341 111.293 9.2252 111.614 9.70327C112.143 10.5379 112.408 11.5064 112.377 12.4877H106.882C107.086 14.4272 108.357 14.5262 108.714 14.5262C109.064 14.5394 109.408 14.4392 109.694 14.2413C109.979 14.0434 110.19 13.7588 110.293 13.4317L112.226 13.3816L112.225 13.3829ZM110.24 11.1965C110.239 10.8011 110.078 10.4222 109.792 10.1426C109.506 9.86308 109.118 9.70557 108.714 9.70456H108.663C108.248 9.71288 107.85 9.86098 107.534 10.1237C107.219 10.3865 107.006 10.7478 106.932 11.1463L110.239 11.1965H110.24ZM131.757 1.59425C131.964 1.58214 132.168 1.64484 132.332 1.77045C132.401 1.83072 132.455 1.9053 132.491 1.98875C132.526 2.07219 132.543 2.16239 132.538 2.25275C132.541 2.39338 132.505 2.53214 132.433 2.65402C132.356 2.77386 132.233 2.85896 132.092 2.89067V2.8971C132.158 2.90749 132.22 2.93162 132.275 2.96783C132.32 2.99914 132.358 3.03946 132.387 3.08616C132.415 3.13373 132.436 3.18536 132.449 3.23921C132.462 3.29735 132.472 3.35617 132.479 3.4154C132.479 3.47714 132.487 3.54402 132.489 3.60189C132.492 3.66434 132.498 3.72661 132.508 3.78838C132.517 3.84773 132.531 3.90624 132.55 3.96329C132.568 4.01492 132.597 4.06253 132.634 4.10348H132.239C132.214 4.07341 132.197 4.0369 132.191 3.99802C132.182 3.94831 132.176 3.89801 132.175 3.84754C132.175 3.79267 132.172 3.73351 132.167 3.67006C132.165 3.60747 132.158 3.54513 132.146 3.48357C132.135 3.42183 132.124 3.36396 132.109 3.30866C132.096 3.25674 132.073 3.20781 132.041 3.16461C132.009 3.12247 131.967 3.0885 131.918 3.06558C131.855 3.03831 131.786 3.02555 131.717 3.02828H130.882V4.10348H130.539V1.59425H131.757ZM131.829 2.73504C131.896 2.72462 131.961 2.701 132.018 2.66559C132.074 2.63153 132.119 2.58413 132.15 2.52798C132.185 2.45857 132.202 2.3816 132.199 2.30419C132.204 2.19132 132.165 2.08072 132.091 1.99424C132.045 1.95103 131.99 1.91799 131.93 1.89736C131.87 1.87672 131.806 1.86897 131.742 1.87463H130.892V2.75176H131.605C131.68 2.75203 131.754 2.74644 131.828 2.73504H131.829Z" fill="white"/>
<path d="M131.505 5.37344C131.012 5.37344 130.53 5.2305 130.12 4.9627C129.71 4.69489 129.39 4.31425 129.202 3.86891C129.013 3.42357 128.963 2.93353 129.06 2.46076C129.156 1.98798 129.393 1.55372 129.742 1.21287C130.091 0.872016 130.535 0.639895 131.019 0.545855C131.502 0.451815 132.004 0.500079 132.459 0.684546C132.915 0.869012 133.304 1.1814 133.578 1.58219C133.852 1.98299 133.999 2.4542 133.999 2.93623C133.997 3.5821 133.734 4.20102 133.266 4.65772C132.799 5.11442 132.166 5.37174 131.505 5.37344ZM131.505 0.897723C131.093 0.897723 130.689 1.01728 130.347 1.24127C130.004 1.46527 129.736 1.78364 129.578 2.15613C129.421 2.52862 129.379 2.93849 129.46 3.33392C129.54 3.72936 129.739 4.09258 130.03 4.37767C130.322 4.66276 130.694 4.85691 131.098 4.93557C131.503 5.01423 131.922 4.97386 132.303 4.81957C132.684 4.66528 133.01 4.404 133.239 4.06877C133.468 3.73354 133.591 3.33941 133.591 2.93623C133.59 2.39579 133.37 1.87769 132.979 1.49554C132.588 1.11339 132.058 0.898404 131.505 0.897723Z" fill="white"/>
<path d="M113.293 14.8812H114.243V15.7905H113.293V14.8812ZM115.092 13.0935C115.092 11.4549 116.125 10.3257 117.617 10.3257C119.083 10.3257 120.135 11.4948 120.135 13.0935C120.135 14.7654 119.093 15.9114 117.59 15.9114C116.088 15.9114 115.092 14.7757 115.092 13.0935ZM117.592 15.2413C118.634 15.2413 119.258 14.422 119.258 13.0729C119.258 11.8035 118.6 10.9945 117.592 10.9945C116.6 10.9945 115.986 11.8035 115.986 13.1128C115.98 14.4516 116.583 15.2413 117.585 15.2413H117.592ZM122.288 11.644C122.551 11.0845 122.697 10.9148 122.946 10.6845C123.224 10.4489 123.579 10.318 123.947 10.3154C124.146 10.3224 124.344 10.3426 124.541 10.3759V11.1656C124.349 11.1251 124.154 11.1019 123.958 11.0961C122.466 11.0961 122.292 12.6047 122.292 12.6845V15.1616H123.233V15.7905H120.713V15.1616H121.502V11.0459H120.685V10.4029H122.291L122.288 11.644ZM128.85 14.4722C128.349 15.1616 127.797 15.3918 127.195 15.3918C125.879 15.3918 124.966 14.3333 124.966 12.8041C124.966 11.3559 125.855 10.327 127.102 10.327C128.114 10.327 128.564 10.9559 128.85 11.3662V10.4029H130.399V11.0459H129.631V15.4625C129.631 16.7615 128.783 17.501 127.291 17.501C126.381 17.501 125.604 17.1152 125.237 16.4824C125.145 16.3132 125.069 16.1357 125.012 15.9525H125.901C126.229 16.5956 126.617 16.8412 127.349 16.8412C128.279 16.8412 128.841 16.3718 128.841 15.5924L128.85 14.4722ZM128.85 12.3938C128.85 11.8048 128.114 10.9649 127.271 10.9649C126.371 10.9649 125.823 11.6839 125.823 12.853C125.823 14.0413 126.385 14.7616 127.326 14.7616C128.134 14.7616 128.849 13.9899 128.849 13.3623L128.85 12.3938Z" fill="white"/>
</svg>
