<svg width="118" height="32" viewBox="0 0 118 32" fill="none" xmlns="http://www.w3.org/2000/svg">
<path d="M90.1952 22.6272C90.8612 20.5003 91.5387 18.3733 92.2162 16.2463C92.8937 14.1194 93.5712 11.9924 94.2372 9.86545C94.3291 9.50341 94.5128 9.36765 94.9262 9.36765C96.0898 9.39781 97.2534 9.38776 98.417 9.3777C98.9988 9.37267 99.5806 9.36765 100.162 9.36765C100.484 9.36765 100.576 9.4129 100.438 9.72968L96.3041 22.6272C96.2352 22.6951 96.1663 22.6866 96.0974 22.6781L96.0704 22.675C96.0564 22.6735 96.0425 22.6725 96.0285 22.6725H90.5167C90.4798 22.6725 90.4461 22.6757 90.4149 22.6787C90.3297 22.687 90.2624 22.6935 90.1952 22.6272Z" fill="white"/>
<path d="M32.7342 12.9428C32.4586 13.8026 32.229 14.572 31.9993 15.3413C31.9534 15.5223 31.8615 15.6128 31.6319 15.6128H29.2434C29.3102 15.4044 29.377 15.1987 29.4431 14.995C29.6498 14.3584 29.8503 13.7408 30.0242 13.1238C30.0702 12.9428 30.208 12.9428 30.3458 12.9428H32.7342Z" fill="white"/>
<path d="M11.0042 14.7858C10.9149 15.0548 10.8239 15.3289 10.7329 15.6128H13.1213C13.2591 15.6128 13.3969 15.5676 13.4429 15.3866C13.5967 14.841 13.7711 14.3157 13.9523 13.7699C14.0417 13.5008 14.1327 13.2267 14.2237 12.9428H11.8352C11.6974 12.9428 11.5596 12.9881 11.5137 13.1691C11.3599 13.7146 11.1854 14.24 11.0042 14.7858Z" fill="white"/>
<path fill-rule="evenodd" clip-rule="evenodd" d="M58.6402 24.8447C58.6875 24.8913 58.6982 24.9499 58.7101 25.0143C58.7213 25.075 58.7334 25.1409 58.778 25.2068C58.9158 27.2432 59.7426 28.9629 61.3961 30.2753C62.9578 31.5424 64.7951 31.995 66.7701 31.995H91.9868C92.1937 31.995 92.4006 31.9962 92.6073 31.9975C93.6395 32.0038 94.6664 32.01 95.6613 31.8592C98.8307 31.4067 101.403 29.868 103.516 27.56C104.135 26.878 104.61 26.139 105.078 25.4108L105.079 25.4093C105.201 25.22 105.322 25.0314 105.445 24.8447L109.303 24.8447C112.151 24.9805 114.999 22.763 115.78 20.1383C115.989 19.3947 116.203 18.6512 116.417 17.9064L116.418 17.9046C116.908 16.202 117.399 14.4929 117.847 12.7618C118.536 10.137 116.836 7.69327 114.126 7.28598C113.337 7.17086 112.567 7.18386 111.792 7.19694C111.362 7.20419 110.931 7.21147 110.494 7.19696C110.399 5.90117 110.122 4.69389 109.395 3.57511C107.787 1.08611 105.353 0 102.459 0H75.3594C71.593 0 68.5615 1.4934 65.9893 4.16342C65.1219 5.06302 64.4814 6.14144 63.8422 7.22095C63.8387 7.21246 63.8348 7.20395 63.8305 7.19545H8.34469C5.54284 7.2407 2.92472 9.18665 2.18981 11.9019C1.50083 14.3909 0.811843 16.8799 0.1688 19.3689C-0.152724 20.5003 -0.0149279 21.6316 0.582187 22.6725C1.45489 24.2112 2.87878 24.8447 4.6242 24.8447H58.6402ZM103.561 2.53426C105.49 2.67002 107.328 4.20868 107.695 6.29038C107.925 7.69327 107.557 8.91515 107.144 10.2275C106.501 12.2414 105.869 14.2439 105.238 16.2464C104.606 18.2489 103.975 20.2514 103.332 22.2652C102.872 23.6681 102.137 24.8447 101.081 25.9309C100.162 26.8359 99.1978 27.6505 98.0495 28.1936C97.0849 28.6461 96.0744 29.0534 94.972 29.0987C94.8358 29.1658 94.7247 29.1582 94.6015 29.1499C94.5586 29.1469 94.5142 29.1439 94.4668 29.1439H87.7607C87.714 29.1439 87.6673 29.1468 87.6214 29.1497C87.4866 29.1582 87.3582 29.1662 87.2554 29.0987C85.1426 29.0082 83.1675 27.2432 83.0756 25.3425C83.0004 25.219 83.0073 25.082 83.0142 24.9463C83.0198 24.8333 83.0255 24.7212 82.9838 24.6185V24.3017C83.0255 24.1783 83.0198 24.0548 83.0141 23.9314C83.0073 23.7833 83.0005 23.6352 83.0756 23.4871C83.1153 22.7832 83.3608 22.1131 83.6046 21.4476L83.6051 21.4462C83.6433 21.342 83.6814 21.2379 83.7187 21.1339C84.0061 20.2214 84.291 19.309 84.5758 18.3971L84.5783 18.3892C85.5214 15.369 86.4627 12.355 87.4851 9.36769C88.7253 5.74733 91.3893 3.57511 95.1557 2.62477C95.2246 2.60214 95.305 2.60214 95.3854 2.60214C95.4658 2.60214 95.5462 2.60214 95.6151 2.57951C95.7069 2.53426 95.7988 2.53426 95.9366 2.53426H103.378C103.378 2.489 103.469 2.489 103.561 2.53426ZM87.3933 2.98678C86.888 4.61594 86.3828 6.2451 85.8775 7.82901C85.8086 8.07791 85.7282 8.3155 85.6479 8.55309C85.5676 8.79051 85.4871 9.02842 85.4182 9.27716C85.2804 9.34504 85.1426 9.33655 85.0048 9.32807C84.9589 9.32524 84.913 9.32241 84.867 9.32241H73.384C73.3316 9.32241 73.2791 9.31502 73.2266 9.30763C73.0953 9.28916 72.9641 9.27069 72.8329 9.36766C72.5113 10.3406 72.2013 11.3249 71.8913 12.3092C71.5812 13.2935 71.2712 14.2778 70.9497 15.2508C70.5592 16.45 70.1803 17.6379 69.8014 18.8258C69.4224 20.0138 69.0435 21.2017 68.6531 22.401C68.6162 22.7276 68.7862 22.705 68.9497 22.6832C68.9901 22.6778 69.0301 22.6725 69.0664 22.6725H73.8434C73.9888 22.6725 74.1343 22.68 74.2786 22.6874C74.6357 22.7059 74.9861 22.7239 75.3132 22.6272C75.4203 22.2956 75.5223 21.964 75.6243 21.6324C75.8284 20.9687 76.0328 20.3042 76.2778 19.6404C76.3696 19.3689 76.3237 19.2784 76.0022 19.2784H73.4759C73.2003 19.2784 73.0166 19.2784 73.1544 18.9164C73.7974 16.9704 74.3946 15.0697 74.9917 13.1238C75.0835 12.8523 75.2213 12.807 75.451 12.807H84.224C84.5914 12.807 84.6833 12.8975 84.5455 13.2596C84.1341 14.5107 83.7367 15.7687 83.3396 17.0256L83.3392 17.027C82.7167 18.9973 82.0951 20.9651 81.4221 22.8988C80.5954 25.2973 78.9877 27.1074 76.6911 28.3293C75.9103 28.7366 75.0835 29.0986 74.1649 29.0986C74.0257 29.1672 73.8603 29.1579 73.7083 29.1493C73.6596 29.1466 73.6124 29.1439 73.5678 29.1439H66.1268C66.0822 29.1439 66.0349 29.1466 65.9863 29.1493C65.8343 29.1579 65.6688 29.1672 65.5297 29.0986C63.6465 28.9629 61.9011 27.3337 61.6255 25.4783C61.3958 24.1659 61.7633 22.944 62.1767 21.7222C62.4336 20.9085 62.6887 20.0947 62.9438 19.281L62.9443 19.2795C63.9658 16.0211 64.9877 12.7618 66.1268 9.50343C67.321 6.01883 69.9391 3.93712 73.5218 3.03203C73.5907 3.0094 73.6596 3.0094 73.7285 3.0094C73.7974 3.0094 73.8663 3.0094 73.9352 2.98678C74.0665 2.93506 74.1977 2.94244 74.3289 2.94983C74.4274 2.95537 74.5258 2.96092 74.6242 2.94152H86.888C87.0258 2.89627 87.2555 2.85101 87.3933 2.98678ZM39.479 15.6024C39.2295 15.6075 38.9728 15.6128 38.7054 15.6128C38.7128 15.5762 38.7203 15.5419 38.7273 15.5095C38.7638 15.3414 38.7898 15.2215 38.7513 15.0698C39.2107 13.5764 39.67 12.1282 40.1752 10.6348C40.313 10.3181 40.2671 10.2275 39.8996 10.2275C39.687 10.2275 39.4693 10.2325 39.2499 10.2375C38.8059 10.2476 38.3549 10.2578 37.9246 10.2275C37.649 10.2275 37.5571 10.3633 37.4653 10.5896C37.2126 11.4268 36.9485 12.2527 36.6844 13.0786C36.4203 13.9045 36.1562 14.7304 35.9036 15.5676C35.4902 16.88 36.0414 17.8303 37.4193 18.1471C37.6949 18.1923 37.7408 18.2829 37.649 18.5091C37.4653 19.1427 37.2815 19.7762 37.0519 20.4098C36.96 20.7719 36.96 20.8624 37.3734 20.8624C38.0164 20.8171 38.6595 20.8171 39.3025 20.8624C39.6241 20.9076 39.7159 20.7719 39.8078 20.5003C39.8996 20.1835 40.003 19.8668 40.1063 19.55C40.2097 19.2333 40.313 18.9163 40.4049 18.5996C40.4508 18.3734 40.5886 18.2376 40.8642 18.1923C42.38 17.9208 43.5283 17.1062 44.0335 15.6581C44.3918 14.6534 44.7004 13.6488 45.0091 12.6442C45.2149 11.9744 45.4207 11.3046 45.6411 10.6348C45.7789 10.3181 45.6411 10.2728 45.3655 10.2728C45.1512 10.2728 44.9368 10.2778 44.7225 10.2829C44.2938 10.2929 43.8651 10.303 43.4364 10.2728C43.1149 10.2728 42.9771 10.3633 42.8852 10.6801C42.6556 11.4268 42.4144 12.1735 42.1733 12.9201C41.9321 13.6669 41.691 14.4136 41.4613 15.1603C41.3695 15.5223 41.2317 15.6128 40.8642 15.6128C40.4112 15.5831 39.9581 15.5925 39.479 15.6024ZM16.0033 19.5154C15.8552 19.973 15.7054 20.4355 15.5557 20.9076C18.2197 20.9076 20.8379 20.9076 23.456 20.8171C23.6397 20.8171 23.7316 20.7718 23.7775 20.5908L25.2933 15.8391C25.3392 15.6128 25.2933 15.5223 25.0177 15.5223C24.7863 15.5223 24.5601 15.5274 24.3356 15.5325C23.8916 15.5425 23.4543 15.5524 22.9967 15.5223C22.6751 15.477 22.5833 15.6581 22.4914 15.8843C22.387 16.2701 22.2677 16.6413 22.1505 17.0062C22.0615 17.2832 21.9736 17.5569 21.8943 17.8303C21.8024 18.1018 21.7106 18.1923 21.435 18.1923H19.5058C19.1843 18.1923 19.1384 18.1471 19.2302 17.8303C19.391 17.3551 19.5403 16.8686 19.6896 16.3821C19.8388 15.8956 19.9881 15.4092 20.1489 14.934C20.4978 13.7652 20.8732 12.5965 21.255 11.4079C21.3758 11.0317 21.4972 10.6536 21.6187 10.2728C21.355 10.2728 21.0965 10.2779 20.8414 10.283C20.3414 10.293 19.8547 10.3027 19.368 10.2728C19.0006 10.2728 18.8628 10.4085 18.7709 10.7253C18.1738 12.7165 17.5308 14.7076 16.8878 16.6988C16.6091 17.6444 16.3096 18.5694 16.0033 19.5154ZM54.6897 16.0653H52.3472C52.0257 16.0653 51.9797 16.2464 51.9338 16.4726C51.5204 17.785 51.153 19.0974 50.7855 20.4098C50.6936 20.7266 50.5558 20.9076 50.1884 20.9076C49.5453 20.8623 48.9023 20.8623 48.2593 20.9076C47.9837 20.9076 47.9377 20.8171 47.9837 20.5908C48.1124 20.1594 48.2376 19.7245 48.3632 19.2881L48.3641 19.2849C48.6862 18.1655 49.0113 17.0358 49.4076 15.9296C49.9128 14.4814 51.3826 13.4858 52.9443 13.4406H55.7921C56.9863 13.4858 57.8131 14.4814 57.5375 15.6128C57.3111 16.6445 56.9975 17.659 56.6826 18.6776C56.4865 19.3121 56.2899 19.9481 56.1136 20.5908C56.0677 20.8171 55.9299 20.8623 55.7002 20.8623C55.4877 20.8623 55.2701 20.8574 55.0509 20.8524C54.6069 20.8423 54.1555 20.832 53.7252 20.8623C53.3577 20.8623 53.3118 20.7266 53.4036 20.4098C53.5874 19.7762 53.7826 19.1313 53.9778 18.4865C54.173 17.8416 54.3682 17.1967 54.5519 16.5631C54.5719 16.5237 54.5832 16.4671 54.5972 16.397C54.6153 16.3063 54.6379 16.193 54.6897 16.0653ZM49.913 13.3949C50.2344 12.4899 50.5559 11.585 50.8774 10.5895H47.5703C47.4325 10.5895 47.2947 10.5895 47.2488 10.7706C46.9273 11.7207 46.6057 12.6714 46.2383 13.6668H49.5913C49.8209 13.6668 49.8671 13.5306 49.913 13.3949ZM31.0543 20.937C30.757 20.9799 30.4499 21.0242 30.2998 20.8171C30.179 20.6386 30.2964 20.3623 30.4172 20.0782C30.4801 19.9302 30.5439 19.78 30.5754 19.6405C30.6672 19.2784 30.7591 18.9617 30.8969 18.6449C30.9887 18.3734 30.8969 18.2828 30.6213 18.2828H28.6922C28.4166 18.2828 28.2788 18.3734 28.2328 18.5996C28.0862 19.1416 27.9102 19.6547 27.7283 20.185C27.6824 20.3189 27.6361 20.454 27.5898 20.5908C27.5439 20.8171 27.452 20.9529 27.1764 20.9529H25.1095C24.7879 20.9529 24.7879 20.8171 24.8798 20.5908C25.1192 19.844 25.3547 19.101 25.5897 18.3595C26.1664 16.5401 26.7401 14.7302 27.3601 12.8976C27.8654 11.4042 29.4271 10.3633 31.0347 10.3633H33.4231C35.0308 10.3633 35.9035 11.4494 35.4442 12.9428C34.8148 15.022 34.1555 17.0718 33.4905 19.1395L33.49 19.1411L33.4891 19.1439L33.4882 19.1466C33.329 19.6419 33.1694 20.1381 33.0098 20.6361C32.9179 20.9076 32.7801 20.9981 32.5504 20.9529C32.313 20.886 32.0755 20.8932 31.801 20.9016C31.7039 20.9045 31.6021 20.9076 31.494 20.9076C31.3667 20.8919 31.2119 20.9143 31.0543 20.937ZM15.0504 10.2728H12.7079C12.2486 10.2728 11.8008 10.2841 11.3529 10.2954C10.9051 10.3067 10.4572 10.318 9.99793 10.318C9.76827 10.318 9.63047 10.3633 9.53861 10.5896C9.01039 12.2413 8.48218 13.9044 7.95396 15.5676L7.95355 15.5688C7.42547 17.2315 6.89739 18.8942 6.36931 20.5456C6.27744 20.8623 6.41524 20.9076 6.69083 20.9076C6.90518 20.9076 7.11953 20.9026 7.33388 20.8975C7.76256 20.8875 8.19129 20.8774 8.61997 20.9076C8.98743 20.9076 9.07929 20.7718 9.17115 20.5003C9.2324 20.3042 9.29874 20.1081 9.36509 19.912C9.49778 19.5198 9.63048 19.1276 9.72234 18.7354C9.8142 18.3281 9.952 18.1471 10.4113 18.1923C10.8417 18.2226 11.2926 18.2124 11.7366 18.2023C11.9559 18.1973 12.1738 18.1923 12.3864 18.1923C13.994 18.1923 15.5098 17.1967 16.0609 15.7033C16.4284 14.753 16.7499 13.7574 17.0255 12.7618C17.393 11.3589 16.5662 10.2728 15.0504 10.2728Z" fill="white"/>
</svg>
