<svg width="76" height="25" viewBox="0 0 76 25" fill="none" xmlns="http://www.w3.org/2000/svg">
<path d="M63.4507 4.01843C64.5669 4.01843 65.4599 3.12545 65.4599 2.00922C65.4599 1.00461 64.5669 0.111623 63.4507 0C62.3345 0 61.4415 0.892985 61.4415 2.00922C61.4415 3.12545 62.3345 4.01843 63.4507 4.01843Z" fill="white"/>
<path fill-rule="evenodd" clip-rule="evenodd" d="M7.30345 0.110291H0.60606C0.494436 0.110291 0.382812 0.221914 0.382812 0.333538V13.2818C0.382812 13.3934 0.494436 13.5051 0.60606 13.5051H2.83852C3.06177 13.5051 3.17339 13.3934 3.17339 13.2818V8.25878H6.52208C6.52208 8.25878 9.20104 13.0586 9.31266 13.1702C9.42428 13.2818 9.53591 13.3934 9.64753 13.3934H12.2149C12.4381 13.3934 12.4381 13.1702 12.3265 13.0586C12.2149 12.8353 9.31266 7.81229 9.31266 7.81229C10.2056 7.70066 10.8754 7.25417 11.3219 6.58443C11.7684 6.02632 11.9916 5.13333 11.9916 4.12872C11.9916 2.78925 11.6568 1.78464 10.8754 1.1149C10.094 0.445161 8.86617 0.110291 7.30345 0.110291ZM3.17339 2.45438H6.63371C7.63832 2.45438 8.30805 2.67762 8.5313 2.78925C8.86617 3.12412 9.08942 3.57061 9.08942 4.12872C9.08942 4.79846 8.86617 5.24496 8.5313 5.4682C8.19643 5.69145 7.5267 5.80307 6.63371 5.80307H3.17339V2.45438Z" fill="white"/>
<path d="M4.62557 21.5456C4.62557 22.3269 4.40232 22.9967 3.95583 23.4432C3.62096 23.6664 3.17447 23.778 2.61635 23.778C1.94661 23.778 1.3885 23.5548 1.05363 22.9967C0.718761 22.5502 0.607136 21.9921 0.607136 21.4339C0.607136 20.7642 0.830382 20.0945 1.16525 19.648C1.38849 19.4247 1.61175 19.2015 1.83499 19.0899C2.05823 18.9782 2.39311 18.8666 2.72798 18.8666C3.06285 18.8666 3.39771 18.8666 3.73258 18.9782C4.06745 19.0899 4.2907 19.2015 4.40232 19.4247C4.40232 19.4247 4.51395 19.5363 4.51395 19.648C4.51395 19.6954 4.51395 19.7227 4.50538 19.7469C4.49379 19.7798 4.46651 19.807 4.40232 19.8712C4.34651 19.8712 4.31861 19.8991 4.2907 19.927C4.26279 19.9549 4.23489 19.9828 4.17908 19.9828C4.06745 19.9828 4.06745 19.9828 3.95583 19.8712C3.84421 19.8154 3.76049 19.7596 3.67677 19.7038C3.59305 19.648 3.50934 19.5922 3.39771 19.5363C3.21336 19.5363 3.06284 19.5025 2.92753 19.4721C2.81705 19.4473 2.7167 19.4247 2.61635 19.4247C2.05824 19.4247 1.72337 19.648 1.3885 20.0945C1.16525 20.4293 1.05363 20.8758 1.05363 21.3223C1.05363 21.9921 1.27688 22.5502 1.61175 22.885C1.83499 23.1083 2.16986 23.2199 2.50473 23.2199C2.72798 23.2199 2.95122 23.2199 3.28609 23.1083C3.84421 22.885 4.06745 22.4385 4.06745 21.7688V21.5456H3.17447C3.06284 21.5456 2.95122 21.4339 2.95122 21.3223C2.95122 21.0991 3.06284 20.9874 3.17447 20.9874H4.2907C4.51394 20.9874 4.62557 21.2107 4.62557 21.5456Z" fill="white"/>
<path fill-rule="evenodd" clip-rule="evenodd" d="M18.9136 23.5536C18.9136 23.6653 18.802 23.7769 18.6904 23.7769C18.643 23.7769 18.6157 23.7769 18.5914 23.7683C18.5586 23.7567 18.5313 23.7295 18.4671 23.6653L18.3555 23.5536L18.0206 22.7723H15.7882L15.4533 23.6653C15.4533 23.7769 15.3417 23.8885 15.1184 23.8885C14.8952 23.8885 14.8952 23.7769 14.8952 23.6653V23.442L16.4579 19.312C16.4579 19.2003 16.5695 19.0887 16.6812 19.0887C16.7453 19.0245 16.7726 18.9972 16.8055 18.9857C16.8297 18.9771 16.857 18.9771 16.9044 18.9771C17.016 18.9771 17.1277 18.9771 17.1277 19.0887C17.2393 19.2003 17.2393 19.2003 17.2393 19.312L18.802 23.442C18.9136 23.442 18.9136 23.5536 18.9136 23.5536ZM17.909 22.2142L17.016 19.6468L16.1231 22.2142H17.909Z" fill="white"/>
<path d="M34.2046 23.8896C34.4279 23.8896 34.5395 23.6664 34.5395 23.4432L33.6465 19.3131C33.6465 19.0899 33.6465 19.0899 33.5349 18.9782C33.4233 18.8666 33.3116 18.8666 33.2 18.8666C33.1442 18.8666 33.1163 18.8945 33.0884 18.9224C33.0605 18.9503 33.0326 18.9782 32.9768 18.9782C32.9768 18.9782 32.8652 19.0899 32.8652 19.2015L31.8605 22.7734L30.7443 19.4247C30.7443 19.3131 30.7443 19.2015 30.6327 19.2015C30.5211 19.0899 30.4094 19.0899 30.2978 19.0899C30.1862 19.0899 30.0746 19.0899 29.963 19.2015C29.963 19.2573 29.9351 19.3131 29.9072 19.3689C29.8793 19.4247 29.8513 19.4805 29.8513 19.5363L29.1816 23.5548V23.6664C29.1816 23.8896 29.1816 24.0013 29.4048 24.0013C29.6281 24.0013 29.7397 23.8896 29.7397 23.6664L30.2978 19.7596L31.4141 23.6664C31.5257 23.778 31.6373 23.8896 31.7489 23.8896C31.9722 23.8896 32.0838 23.778 32.0838 23.6664L33.3116 19.7596L33.8698 23.6664C33.8997 23.6963 33.9216 23.7262 33.9419 23.754C33.9974 23.8298 34.0412 23.8896 34.2046 23.8896Z" fill="white"/>
<path d="M45.8134 23.4432C45.8134 23.6664 45.7018 23.778 45.4786 23.778C45.2553 23.778 45.1437 23.6664 45.1437 23.4432V19.2015C45.1437 18.9782 45.2553 18.8666 45.4786 18.8666C45.7018 18.8666 45.8134 18.9782 45.8134 19.2015V23.4432Z" fill="white"/>
<path d="M60.2131 23.8885C60.3247 23.8885 60.4363 23.7769 60.4363 23.5536V19.312C60.4363 19.0887 60.3247 18.9771 60.1014 18.9771C59.9898 18.9771 59.8782 18.9771 59.8782 19.0887C59.814 19.1529 59.7867 19.1802 59.7751 19.213C59.7666 19.2373 59.7666 19.2645 59.7666 19.312V22.7723L57.1992 19.2003C57.0876 19.0887 56.976 18.9771 56.8644 18.9771C56.7528 18.9771 56.6411 19.0887 56.6411 19.312V23.5536C56.6411 23.7769 56.7528 23.8885 56.976 23.8885C57.1992 23.8885 57.3109 23.7769 57.3109 23.5536V19.9817L59.8782 23.6653C59.9898 23.7769 60.1014 23.8885 60.2131 23.8885Z" fill="white"/>
<path d="M75.2808 21.5456C75.2808 22.3269 75.0575 22.9967 74.611 23.4432C74.2762 23.6664 73.8297 23.778 73.2715 23.778C72.6018 23.778 72.0437 23.5548 71.7088 22.9967C71.3739 22.5502 71.2623 21.9921 71.2623 21.4339C71.2623 20.7642 71.4856 20.0945 71.8204 19.648C72.0437 19.4247 72.267 19.2015 72.4902 19.0899C72.7134 18.9782 73.0483 18.8666 73.3832 18.8666C73.718 18.8666 74.0529 18.8666 74.3878 18.9782C74.7226 19.0899 74.9459 19.2015 75.0575 19.4247C75.0575 19.4247 75.1691 19.5363 75.1691 19.648C75.1691 19.6954 75.1691 19.7227 75.1606 19.7469C75.149 19.7798 75.1217 19.807 75.0575 19.8712C75.0017 19.8712 74.9738 19.8991 74.9459 19.927C74.918 19.9549 74.8901 19.9828 74.8343 19.9828C74.7226 19.9828 74.7227 19.9828 74.611 19.8712C74.4994 19.8154 74.4157 19.7596 74.332 19.7038C74.2483 19.648 74.1645 19.5922 74.0529 19.5363C73.8297 19.4247 73.718 19.4247 73.3832 19.4247C72.8251 19.4247 72.4902 19.648 72.1553 20.0945C71.9321 20.4293 71.8204 20.8758 71.8204 21.3223C71.8204 21.9921 72.0437 22.5502 72.3786 22.885C72.6018 23.1083 72.9367 23.2199 73.2715 23.2199C73.4948 23.2199 73.718 23.2199 74.0529 23.1083C74.611 22.885 74.8343 22.4385 74.8343 21.7688V21.5456H73.9413C73.8297 21.5456 73.718 21.4339 73.718 21.3223C73.718 21.0991 73.8297 20.9874 73.9413 20.9874H75.0575C75.0575 20.9874 75.2808 21.2107 75.2808 21.5456Z" fill="white"/>
<path d="M22.5956 2.45438C21.591 2.45438 20.8096 2.67762 20.2515 3.23574C19.6934 3.79385 19.4701 4.57522 19.3585 5.57982H26.9489C27.0605 5.57982 27.1721 5.57982 27.1721 5.80307V7.70066C27.1721 7.92391 27.0605 8.03553 26.8373 8.03553H19.3585C19.4701 9.15176 19.6934 10.0447 20.1399 10.4912C20.5864 11.0494 21.4793 11.2726 22.3723 11.2726H26.9489C27.0605 11.2726 27.1721 11.4958 27.1721 11.6075V13.3934C27.1721 13.6167 27.0605 13.7283 26.8373 13.7283H22.484C21.4793 13.7283 20.5864 13.6167 20.0282 13.5051C19.4701 13.2818 18.912 13.0586 18.3539 12.6121C17.6842 12.054 17.126 11.3842 16.7912 10.4912C16.3447 9.26339 16.2331 8.25878 16.2331 7.03092C16.2331 4.68684 16.7912 2.90087 17.7958 1.78464C18.8004 0.668407 20.3631 0.110291 22.5956 0.110291H27.0605C27.1721 0.110291 27.2838 0.110291 27.2838 0.333538V2.23113C27.2838 2.45438 27.1721 2.45438 27.0605 2.45438H22.5956Z" fill="white"/>
<path d="M34.5389 13.1702C35.097 13.3934 36.1016 13.5051 37.3294 13.5051H40.6781C40.9014 13.5051 40.9014 13.3934 40.9014 13.2818V11.4959C40.9014 11.2726 40.7898 11.2726 40.6781 11.2726H37.5527C36.8829 11.2726 36.3248 11.161 35.99 11.0494C35.5435 10.9377 35.2086 10.7145 34.9854 10.3796C34.8737 10.1564 34.7621 9.9331 34.6505 9.59826C34.5389 9.26339 34.5389 8.70527 34.5389 7.92391C34.5389 7.92391 34.6505 0.445161 34.6505 0.333538C34.6505 0.221914 34.5389 0.110291 34.4272 0.110291H32.0832C31.9715 0.110291 31.8599 0.221914 31.8599 0.333538L31.7483 8.03553C31.7483 9.04012 31.7483 9.93314 31.9715 10.4912C32.0832 11.0494 32.418 11.6075 32.8645 12.054C33.4226 12.6121 33.9808 12.947 34.5389 13.1702Z" fill="white"/>
<path fill-rule="evenodd" clip-rule="evenodd" d="M50.1658 0.110291H52.7332C52.8448 0.110291 52.9564 0.221914 52.9564 0.333538C52.9564 0.445161 58.3143 12.947 58.426 13.0586C58.5376 13.2818 58.426 13.3934 58.0911 13.3934H55.747C55.5238 13.3934 55.4121 13.2818 55.3005 13.0586C55.1889 12.8353 54.1843 10.1564 54.1843 10.1564H48.3799C48.3799 10.1564 47.3753 12.8353 47.2636 13.0586C47.2432 13.0995 47.2264 13.1367 47.2114 13.1702C47.1445 13.319 47.1111 13.3934 46.9288 13.3934H44.4731C44.3614 13.3934 44.2498 13.2818 44.2498 13.0586C44.3614 13.0586 49.831 0.445161 49.831 0.445161C49.831 0.333538 49.9426 0.110291 50.1658 0.110291ZM51.2821 2.78925L49.2729 7.92391H53.2913L51.2821 2.78925Z" fill="white"/>
<path d="M75.6164 2.00922C75.6164 3.12545 74.7234 4.01843 73.6071 4.01843C72.4909 4.01843 71.5979 3.12545 71.5979 2.00922C71.5979 0.892985 72.4909 0 73.6071 0C74.7234 0 75.6164 1.00461 75.6164 2.00922Z" fill="white"/>
<path d="M63.4515 13.6208C64.5678 13.6208 65.4607 12.7278 65.4607 11.6116C65.4607 10.4954 64.5678 9.60238 63.4515 9.60238C62.3353 9.60238 61.4423 10.4954 61.4423 11.6116C61.4423 12.7278 62.3353 13.6208 63.4515 13.6208Z" fill="white"/>
<path d="M75.6156 11.6116C75.6156 12.7278 74.7226 13.6208 73.6064 13.6208C72.4901 13.6208 71.5971 12.7278 71.5971 11.6116C71.5971 10.4954 72.4901 9.60238 73.6064 9.60238C74.7226 9.60238 75.6156 10.4954 75.6156 11.6116Z" fill="white"/>
<path d="M68.4731 8.81886C69.5893 8.81886 70.4823 7.92588 70.4823 6.80965C70.4823 5.69342 69.5893 4.80043 68.4731 4.80043C67.3569 4.80043 66.4639 5.69342 66.4639 6.80965C66.4639 7.92588 67.3569 8.81886 68.4731 8.81886Z" fill="white"/>
</svg>
