<svg width="44" height="14" viewBox="0 0 44 14" fill="none" xmlns="http://www.w3.org/2000/svg">
<path d="M26.413 13.9196H26.0957V12.4423H26.4068V12.6215C26.5322 12.5156 26.6817 12.4414 26.8423 12.4052C27.042 12.419 27.2259 12.5182 27.3462 12.6772C27.4584 12.5122 27.6436 12.4109 27.8439 12.4052C28.1276 12.3943 28.3765 12.5916 28.4287 12.8688V13.9134H28.1239V12.9986C28.1211 12.9168 28.0837 12.84 28.0209 12.7871C27.9581 12.7342 27.8758 12.71 27.7942 12.7204C27.6155 12.7014 27.4525 12.8229 27.4209 12.9986V13.9196H27.1036V12.9924C27.0877 12.8294 26.9511 12.7043 26.7863 12.7019C26.413 12.7019 26.4068 12.9986 26.4068 12.9986L26.413 13.9196Z" fill="white"/>
<path d="M36.1054 12.4052C35.9448 12.4414 35.7953 12.5156 35.6699 12.6216V12.4423H35.3339V13.9196H35.6512V12.9986C35.6512 12.9986 35.6512 12.7019 36.0307 12.7019C36.0897 12.7002 36.148 12.7152 36.1987 12.7452L36.3045 12.4547C36.2416 12.4264 36.1742 12.4097 36.1054 12.4052Z" fill="white"/>
<path d="M40.5974 12.4052C40.4368 12.4414 40.2873 12.5156 40.1619 12.6216V12.4423H39.8508V13.9196H40.1681V12.9986C40.1681 12.9986 40.1681 12.7019 40.5476 12.7019C40.6066 12.7002 40.6648 12.7152 40.7156 12.7452L40.8213 12.4547C40.7542 12.427 40.6824 12.4124 40.6098 12.4114L40.5974 12.4052Z" fill="white"/>
<path d="M29.4688 12.399C29.2674 12.407 29.0775 12.4943 28.941 12.6415C28.8045 12.7888 28.7325 12.9839 28.7409 13.184C28.7267 13.6073 29.0556 13.9642 29.4812 13.9875C29.6604 13.9761 29.8309 13.9066 29.9665 13.7897V13.9381H30.2776V12.4423H29.9603V12.6277C29.83 12.491 29.6518 12.4091 29.4626 12.399H29.4688ZM29.531 12.7019C29.735 12.6866 29.9276 12.797 30.0166 12.98C30.1055 13.1631 30.0726 13.3815 29.9337 13.5307C29.7948 13.6799 29.5781 13.7295 29.3875 13.6556C29.1969 13.5818 29.0712 13.3996 29.0706 13.1963C29.0656 13.0701 29.1113 12.947 29.1976 12.8543C29.284 12.7615 29.4039 12.7067 29.531 12.7019Z" fill="white"/>
<path d="M38.6197 12.399C38.4184 12.407 38.2285 12.4943 38.092 12.6415C37.9554 12.7888 37.8834 12.9839 37.8918 13.184C37.8778 13.6096 38.2103 13.9675 38.6384 13.9875C38.8176 13.9761 38.988 13.9066 39.1237 13.7897V13.9381H39.4348V12.4423H39.1175V12.6277C38.9871 12.491 38.809 12.4091 38.6197 12.399ZM38.682 12.7019C38.886 12.6866 39.0786 12.797 39.1675 12.98C39.2565 13.1631 39.2236 13.3815 39.0847 13.5307C38.9457 13.6799 38.7291 13.7295 38.5385 13.6556C38.3479 13.5818 38.2222 13.3996 38.2216 13.1963C38.2165 13.0701 38.2622 12.947 38.3486 12.8543C38.4349 12.7615 38.5549 12.7067 38.682 12.7019Z" fill="white"/>
<path d="M41.6366 12.3991C41.2271 12.4288 40.9156 12.7766 40.9336 13.1841C40.9187 13.5984 41.2333 13.9516 41.649 13.9876C41.8282 13.9761 41.9986 13.9067 42.1343 13.7898V13.9381H42.4454V11.8613H42.1281V12.6278C41.9977 12.4911 41.8196 12.4092 41.6304 12.3991H41.6366ZM41.6988 12.7019C41.9028 12.6867 42.0954 12.797 42.1843 12.9801C42.2733 13.1631 42.2404 13.3816 42.1015 13.5308C41.9626 13.68 41.7459 13.7296 41.5553 13.6557C41.3647 13.5819 41.239 13.3997 41.2384 13.1964C41.2334 13.0702 41.279 12.9471 41.3654 12.8543C41.4518 12.7616 41.5717 12.7068 41.6988 12.7019Z" fill="white"/>
<path d="M31.2425 13.9875C31.0216 13.9755 30.8073 13.9074 30.6204 13.7897L30.7573 13.5796C30.9104 13.65 31.0745 13.6939 31.2425 13.7094C31.3732 13.7094 31.5972 13.6661 31.5972 13.5363C31.5972 13.4065 31.2239 13.3571 31.2239 13.3571C31.2239 13.3571 30.664 13.3571 30.664 12.8935C30.664 12.603 30.9439 12.4237 31.2861 12.4237C31.5019 12.4498 31.7119 12.5103 31.9082 12.603L31.7527 12.844C31.6069 12.7847 31.4544 12.7432 31.2985 12.7204C31.1679 12.7204 31.0061 12.7761 31.0061 12.8935C31.0061 13.2087 31.9394 12.8935 31.9394 13.5116C31.9394 13.9257 31.5598 13.9999 31.255 13.9999L31.2425 13.9875Z" fill="white"/>
<path d="M32.4345 12.0159V12.4485H32.1608V12.7514H32.4407V13.4931C32.4329 13.6314 32.4861 13.7663 32.5865 13.8625C32.6869 13.9587 32.8245 14.0066 32.9633 13.9938C33.1168 13.9757 33.2673 13.9383 33.4113 13.8825L33.2868 13.5611C33.2169 13.62 33.1295 13.6547 33.038 13.66C32.7891 13.66 32.7953 13.4931 32.7953 13.4931V12.7514H33.3117V12.4424H32.7829V12.0097L32.4345 12.0159Z" fill="white"/>
<path d="M34.3282 12.4176C33.9172 12.4538 33.6021 12.7958 33.6021 13.2057C33.6021 13.6155 33.9172 13.9576 34.3282 13.9937C34.5341 13.9661 34.7315 13.8944 34.9068 13.7836L34.7637 13.5302C34.6347 13.6198 34.4848 13.6752 34.3282 13.6909C34.0991 13.698 33.906 13.5226 33.8927 13.2953H34.9814C34.9814 13.2953 35.0934 12.4176 34.3282 12.4176ZM34.2846 12.7081H34.322C34.4208 12.703 34.5175 12.7385 34.5893 12.8063C34.661 12.8741 34.7016 12.9682 34.7015 13.0666H33.9238C33.9203 12.9705 33.9571 12.8773 34.0256 12.8093C34.094 12.7413 34.1879 12.7046 34.2846 12.7081Z" fill="white"/>
<path d="M37.5622 13.5302L37.7053 13.8207C37.5551 13.9195 37.3812 13.9771 37.2014 13.9876C36.9859 13.9976 36.7756 13.9204 36.6184 13.7736C36.4613 13.6269 36.3708 13.423 36.3677 13.2088C36.3492 12.9866 36.4323 12.768 36.5939 12.6134C36.7556 12.4588 36.9786 12.3847 37.2014 12.4114C37.3933 12.4195 37.5798 12.477 37.7426 12.5783L37.5809 12.8688C37.4843 12.7556 37.3373 12.6977 37.1889 12.7143C36.9404 12.7422 36.7526 12.951 36.7526 13.1995C36.7526 13.4479 36.9404 13.6568 37.1889 13.6847C37.3337 13.675 37.4713 13.6186 37.5809 13.524L37.5622 13.5302Z" fill="white"/>
<path d="M43.3295 5.56288C43.3295 8.63517 40.8226 11.1258 37.7302 11.1258C34.6378 11.1258 32.1309 8.63517 32.1309 5.56288C32.1309 2.49058 34.6378 0 37.7302 0C40.8226 0 43.3295 2.49058 43.3295 5.56288Z" fill="white"/>
<path d="M36.3959 5.56288C36.3959 8.63517 33.889 11.1258 30.7966 11.1258C27.7042 11.1258 25.1973 8.63517 25.1973 5.56288C25.1973 2.49058 27.7042 0 30.7966 0C32.2816 0 33.7058 0.586087 34.7559 1.62933C35.8059 2.67257 36.3959 4.08751 36.3959 5.56288Z" fill="#EFEFEF"/>
<path d="M34.2428 1.1543C32.8823 2.21594 32.0879 3.8395 32.0879 5.55824C32.0879 7.27699 32.8823 8.90054 34.2428 9.96218C35.6034 8.90054 36.3978 7.27699 36.3978 5.55824C36.3978 3.8395 35.6034 2.21594 34.2428 1.1543Z" fill="#F7F7F7"/>
<path d="M10.9995 3.67282L9.50637 10.5658H7.71957L9.21272 3.67282H10.9995ZM18.5549 8.12312L19.5005 5.53206L20.043 8.12312H18.5549ZM20.5457 10.5658H22.218L20.7747 3.67282H19.2367C18.9036 3.66678 18.6002 3.8625 18.4702 4.1673L15.7975 10.5708H17.6838L18.0571 9.54227H20.3616L20.5457 10.5658ZM15.8572 8.31597C15.8572 6.49629 13.3239 6.39739 13.3438 5.5815C13.3438 5.33427 13.5876 5.08703 14.1053 5.00296C14.7129 4.94477 15.3251 5.05069 15.8771 5.30954L16.1907 3.82611C15.6543 3.62614 15.0863 3.52234 14.5134 3.51953C12.7366 3.51953 11.4923 4.45409 11.4823 5.79907C11.4823 6.78803 12.3732 7.34679 13.0551 7.67809C13.737 8.00939 13.9908 8.23191 13.9858 8.53354C13.9858 8.99835 13.4284 9.20108 12.9108 9.21097C12.2696 9.22464 11.6355 9.07483 11.0692 8.77583L10.7457 10.2889C11.3806 10.5328 12.0558 10.6569 12.7366 10.6548C14.6229 10.6548 15.8572 9.73017 15.8622 8.29619L15.8572 8.31597ZM8.43629 3.67282L5.52465 10.5708H3.62835L2.19493 5.06725C2.16672 4.80885 2.00697 4.58293 1.77187 4.46893C1.20841 4.19863 0.613183 3.9993 0 3.87556L0.0447944 3.67776H3.09579C3.50768 3.67771 3.85826 3.97565 3.922 4.37992L4.67853 8.37036L6.54496 3.67776L8.43629 3.67282Z" fill="white"/>
</svg>
