<svg width="54" height="14" viewBox="0 0 54 14" fill="none" xmlns="http://www.w3.org/2000/svg">
<g clip-path="url(#clip0_30072_395522)">
<path d="M4.93582 0.279785H25.9358C26.3335 0.279785 26.6558 0.602138 26.6558 0.999783V12.9998C26.6558 13.3974 26.3335 13.7198 25.9358 13.7198H4.93582C4.53817 13.7198 4.21582 13.3974 4.21582 12.9998V0.999783C4.21582 0.602138 4.53817 0.279785 4.93582 0.279785Z" fill="white" stroke="white"/>
<mask id="path-2-inside-1_30072_395522" fill="white">
<path d="M12.6329 5.47119L10.1387 10.693L7.64551 5.47119H8.74988L10.1387 8.44976L11.5294 5.47119H12.6329Z"/>
</mask>
<path d="M12.6329 5.47119L10.1387 10.693L7.64551 5.47119H8.74988L10.1387 8.44976L11.5294 5.47119H12.6329Z" fill="white"/>
<path d="M12.6329 5.47119L13.5353 5.90221L14.2188 4.47119H12.6329V5.47119ZM10.1387 10.693L9.23627 11.1238L10.1385 13.0135L11.041 11.124L10.1387 10.693ZM7.64551 5.47119V4.47119H6.05991L6.74309 5.90206L7.64551 5.47119ZM8.74988 5.47119L9.65621 5.04861L9.38698 4.47119H8.74988V5.47119ZM10.1387 8.44976L9.23236 8.87235L10.138 10.8148L11.0448 8.87284L10.1387 8.44976ZM11.5294 5.47119V4.47119H10.8927L10.6233 5.04812L11.5294 5.47119ZM11.7306 5.04018L9.23634 10.2619L11.041 11.124L13.5353 5.90221L11.7306 5.04018ZM11.0411 10.2621L8.54792 5.04033L6.74309 5.90206L9.23627 11.1238L11.0411 10.2621ZM7.64551 6.47119H8.74988V4.47119H7.64551V6.47119ZM7.84356 5.89378L9.23236 8.87235L11.045 8.02718L9.65621 5.04861L7.84356 5.89378ZM11.0448 8.87284L12.4355 5.89427L10.6233 5.04812L9.23259 8.02669L11.0448 8.87284ZM11.5294 6.47119H12.6329V4.47119H11.5294V6.47119Z" fill="white" mask="url(#path-2-inside-1_30072_395522)"/>
<mask id="path-4-inside-2_30072_395522" fill="white">
<path d="M12.633 3.20166H7.64697V4.11568H12.633V3.20166Z"/>
</mask>
<path d="M12.633 3.20166H7.64697V4.11568H12.633V3.20166Z" fill="white"/>
<path d="M12.633 3.20166H13.633V2.20166H12.633V3.20166ZM7.64697 3.20166V2.20166H6.64697V3.20166H7.64697ZM7.64697 4.11568H6.64697V5.11568H7.64697V4.11568ZM12.633 4.11568V5.11568H13.633V4.11568H12.633ZM12.633 2.20166H7.64697V4.20166H12.633V2.20166ZM6.64697 3.20166V4.11568H8.64697V3.20166H6.64697ZM7.64697 5.11568H12.633V3.11568H7.64697V5.11568ZM13.633 4.11568V3.20166H11.633V4.11568H13.633Z" fill="white" mask="url(#path-4-inside-2_30072_395522)"/>
<path d="M19.1968 10.0657V3.70166H19.2091V10.0657H19.1968Z" fill="white" stroke="white"/>
<path d="M21.8693 5.47085V5.88483V5.97085V6.38483V10.0656H21.857V6.38483V5.97085V5.88483V5.47085V4.61572H21.8693V5.47085Z" fill="white" stroke="white"/>
<mask id="path-8-inside-3_30072_395522" fill="white">
<path d="M15.2241 5.41943C13.7684 5.41943 12.5884 6.58241 12.5884 8.01725C12.5884 9.45202 13.7684 10.615 15.2241 10.615C16.6798 10.615 17.8598 9.45202 17.8598 8.01725C17.8598 6.58241 16.6798 5.41943 15.2241 5.41943ZM15.2241 9.63962C14.3201 9.63962 13.5874 8.91336 13.5874 8.01725C13.5874 7.12113 14.3203 6.39487 15.2241 6.39487C16.1281 6.39487 16.8608 7.12113 16.8608 8.01725C16.8608 8.91336 16.128 9.63962 15.2241 9.63962Z"/>
</mask>
<path d="M15.2241 5.41943C13.7684 5.41943 12.5884 6.58241 12.5884 8.01725C12.5884 9.45202 13.7684 10.615 15.2241 10.615C16.6798 10.615 17.8598 9.45202 17.8598 8.01725C17.8598 6.58241 16.6798 5.41943 15.2241 5.41943ZM15.2241 9.63962C14.3201 9.63962 13.5874 8.91336 13.5874 8.01725C13.5874 7.12113 14.3203 6.39487 15.2241 6.39487C16.1281 6.39487 16.8608 7.12113 16.8608 8.01725C16.8608 8.91336 16.128 9.63962 15.2241 9.63962Z" fill="white"/>
<path d="M15.2241 4.41943C13.2299 4.41943 11.5884 6.01649 11.5884 8.01725H13.5884C13.5884 7.14833 14.307 6.41943 15.2241 6.41943V4.41943ZM11.5884 8.01725C11.5884 10.0179 13.2299 11.615 15.2241 11.615V9.61503C14.307 9.61503 13.5884 8.8861 13.5884 8.01725H11.5884ZM15.2241 11.615C17.2184 11.615 18.8598 10.0179 18.8598 8.01725H16.8598C16.8598 8.88611 16.1412 9.61503 15.2241 9.61503V11.615ZM18.8598 8.01725C18.8598 6.01651 17.2184 4.41943 15.2241 4.41943V6.41943C16.1412 6.41943 16.8598 7.14832 16.8598 8.01725H18.8598ZM15.2241 8.63962C14.8641 8.63962 14.5874 8.35281 14.5874 8.01725H12.5874C12.5874 9.4739 13.7761 10.6396 15.2241 10.6396V8.63962ZM14.5874 8.01725C14.5874 7.68177 14.8642 7.39487 15.2241 7.39487V5.39487C13.7764 5.39487 12.5874 6.5605 12.5874 8.01725H14.5874ZM15.2241 7.39487C15.5841 7.39487 15.8608 7.68166 15.8608 8.01725H17.8608C17.8608 6.56061 16.6721 5.39487 15.2241 5.39487V7.39487ZM15.8608 8.01725C15.8608 8.35277 15.584 8.63962 15.2241 8.63962V10.6396C16.6719 10.6396 17.8608 9.47395 17.8608 8.01725H15.8608Z" fill="white" mask="url(#path-8-inside-3_30072_395522)"/>
<mask id="path-10-inside-4_30072_395522" fill="white">
<path d="M31.1865 5.13077V1.71484H32.5304C32.9035 1.71484 33.1857 1.78969 33.377 1.93939C33.5683 2.08909 33.6639 2.31044 33.6639 2.60347V2.62257C33.6639 3.00477 33.479 3.24842 33.1091 3.35354C33.5651 3.44589 33.793 3.71344 33.793 4.15614V4.17527C33.793 4.48739 33.691 4.72467 33.4869 4.88712C33.2861 5.04954 32.988 5.13077 32.5926 5.13077H31.1865ZM31.9422 4.59569H32.4731C32.8429 4.59569 33.0278 4.43484 33.0278 4.11314V4.09404C33.0278 3.9348 32.98 3.81537 32.8843 3.73574C32.7919 3.65612 32.642 3.61629 32.4348 3.61629H31.9422V4.59569ZM31.9422 3.11944H32.4061C32.591 3.11944 32.7233 3.08439 32.8031 3.01432C32.886 2.94427 32.9274 2.83279 32.9274 2.67989V2.6608C32.9274 2.51747 32.8843 2.41237 32.7983 2.34547C32.7154 2.2786 32.5831 2.24514 32.4013 2.24514H31.9422V3.11944Z"/>
</mask>
<path d="M31.1865 5.13077V1.71484H32.5304C32.9035 1.71484 33.1857 1.78969 33.377 1.93939C33.5683 2.08909 33.6639 2.31044 33.6639 2.60347V2.62257C33.6639 3.00477 33.479 3.24842 33.1091 3.35354C33.5651 3.44589 33.793 3.71344 33.793 4.15614V4.17527C33.793 4.48739 33.691 4.72467 33.4869 4.88712C33.2861 5.04954 32.988 5.13077 32.5926 5.13077H31.1865ZM31.9422 4.59569H32.4731C32.8429 4.59569 33.0278 4.43484 33.0278 4.11314V4.09404C33.0278 3.9348 32.98 3.81537 32.8843 3.73574C32.7919 3.65612 32.642 3.61629 32.4348 3.61629H31.9422V4.59569ZM31.9422 3.11944H32.4061C32.591 3.11944 32.7233 3.08439 32.8031 3.01432C32.886 2.94427 32.9274 2.83279 32.9274 2.67989V2.6608C32.9274 2.51747 32.8843 2.41237 32.7983 2.34547C32.7154 2.2786 32.5831 2.24514 32.4013 2.24514H31.9422V3.11944Z" fill="white"/>
<path d="M31.1865 5.13077H30.1865V6.13077H31.1865V5.13077ZM31.1865 1.71484V0.714844H30.1865V1.71484H31.1865ZM33.1091 3.35354L32.8357 2.39164L32.9106 4.33364L33.1091 3.35354ZM33.4869 4.88712L32.8641 4.10472L32.8582 4.10952L33.4869 4.88712ZM31.9422 4.59569H30.9422V5.59569H31.9422V4.59569ZM32.8843 3.73574L32.2318 4.49347L32.2381 4.49893L32.2445 4.50428L32.8843 3.73574ZM31.9422 3.61629V2.61629H30.9422V3.61629H31.9422ZM31.9422 3.11944H30.9422V4.11944H31.9422V3.11944ZM32.8031 3.01432L32.1576 2.25057L32.1502 2.25678L32.143 2.26313L32.8031 3.01432ZM32.7983 2.34547L32.1703 3.12372L32.1774 3.12944L32.1846 3.13503L32.7983 2.34547ZM31.9422 2.24514V1.24514H30.9422V2.24514H31.9422ZM32.1865 5.13077V1.71484H30.1865V5.13077H32.1865ZM31.1865 2.71484H32.5304V0.714844H31.1865V2.71484ZM32.5304 2.71484C32.6531 2.71484 32.7274 2.72747 32.7655 2.73756C32.8016 2.74714 32.7909 2.75055 32.7607 2.72692L33.9932 1.15187C33.5538 0.808003 33.0136 0.714844 32.5304 0.714844V2.71484ZM32.7607 2.72692C32.7455 2.71506 32.7281 2.69839 32.7114 2.67684C32.6948 2.65527 32.6825 2.63354 32.6742 2.61433C32.6576 2.57589 32.6639 2.56471 32.6639 2.60347H34.6639C34.6639 2.07355 34.4774 1.53076 33.9932 1.15187L32.7607 2.72692ZM32.6639 2.60347V2.62257H34.6639V2.60347H32.6639ZM32.6639 2.62257C32.6639 2.65074 32.6592 2.57897 32.7287 2.4874C32.7977 2.39641 32.8665 2.3829 32.8357 2.39164L33.3825 4.31545C33.7216 4.21907 34.0678 4.03116 34.3218 3.69652C34.5762 3.3613 34.6639 2.9766 34.6639 2.62257H32.6639ZM32.9106 4.33364C32.9903 4.34978 32.933 4.35662 32.8609 4.27205C32.8271 4.23231 32.8075 4.19183 32.7981 4.16259C32.7897 4.13613 32.793 4.13037 32.793 4.15614H34.793C34.793 3.76056 34.6881 3.33265 34.3832 2.97487C34.0832 2.62277 33.6839 2.44966 33.3076 2.37345L32.9106 4.33364ZM32.793 4.15614V4.17527H34.793V4.15614H32.793ZM32.793 4.17527C32.793 4.22319 32.7853 4.22159 32.7979 4.19229C32.8041 4.17774 32.8137 4.16056 32.8269 4.14327C32.8401 4.12602 32.8535 4.1132 32.8641 4.10474L34.1098 5.66949C34.5999 5.27935 34.793 4.72534 34.793 4.17527H32.793ZM32.8582 4.10952C32.8844 4.08833 32.891 4.09381 32.8499 4.10502C32.8065 4.11684 32.7249 4.13077 32.5926 4.13077V6.13077C33.1014 6.13077 33.6641 6.0299 34.1157 5.66471L32.8582 4.10952ZM32.5926 4.13077H31.1865V6.13077H32.5926V4.13077ZM31.9422 5.59569H32.4731V3.59569H31.9422V5.59569ZM32.4731 5.59569C32.7806 5.59569 33.1979 5.53182 33.5454 5.22955C33.9196 4.90409 34.0278 4.46724 34.0278 4.11314H32.0278C32.0278 4.08074 32.0436 3.88517 32.2328 3.72056C32.3954 3.57913 32.5354 3.59569 32.4731 3.59569V5.59569ZM34.0278 4.11314V4.09404H32.0278V4.11314H34.0278ZM34.0278 4.09404C34.0278 3.72749 33.9089 3.28756 33.5241 2.96721L32.2445 4.50428C32.1603 4.43418 32.0993 4.34584 32.0636 4.25677C32.0304 4.17382 32.0278 4.11247 32.0278 4.09404H34.0278ZM33.5369 2.97802C33.1732 2.66479 32.728 2.61629 32.4348 2.61629V4.61629C32.4788 4.61629 32.4773 4.621 32.4458 4.61262C32.413 4.60391 32.3266 4.57519 32.2318 4.49347L33.5369 2.97802ZM32.4348 2.61629H31.9422V4.61629H32.4348V2.61629ZM30.9422 3.61629V4.59569H32.9422V3.61629H30.9422ZM31.9422 4.11944H32.4061V2.11944H31.9422V4.11944ZM32.4061 4.11944C32.67 4.11944 33.107 4.07847 33.4632 3.76551L32.143 2.26313C32.248 2.17087 32.3465 2.13748 32.388 2.12648C32.4287 2.1157 32.4402 2.11944 32.4061 2.11944V4.11944ZM33.4486 3.77806C33.837 3.44979 33.9274 3.00188 33.9274 2.67989H31.9274C31.9274 2.66371 31.9349 2.43875 32.1576 2.25057L33.4486 3.77806ZM33.9274 2.67989V2.6608H31.9274V2.67989H33.9274ZM33.9274 2.6608C33.9274 2.31377 33.8141 1.86851 33.4119 1.55591L32.1846 3.13503C32.0838 3.05667 32.0116 2.95566 31.9697 2.8535C31.9309 2.7588 31.9274 2.68641 31.9274 2.6608H33.9274ZM33.4262 1.56723C33.0777 1.286 32.6649 1.24514 32.4013 1.24514V3.24514C32.435 3.24514 32.4271 3.24867 32.3918 3.23973C32.356 3.23068 32.2681 3.20265 32.1703 3.12372L33.4262 1.56723ZM32.4013 1.24514H31.9422V3.24514H32.4013V1.24514ZM30.9422 2.24514V3.11944H32.9422V2.24514H30.9422Z" fill="white" mask="url(#path-10-inside-4_30072_395522)"/>
<mask id="path-12-inside-5_30072_395522" fill="white">
<path d="M34.9033 5.18373C34.6578 5.18373 34.457 5.12162 34.3008 4.9974C34.1445 4.87317 34.0664 4.68685 34.0664 4.43842C34.0664 3.90335 34.5 3.6358 35.3673 3.6358H35.6495V3.53547C35.6495 3.37942 35.6192 3.26475 35.5586 3.1915C35.498 3.11505 35.3928 3.07685 35.2429 3.07685C34.991 3.07685 34.8492 3.1947 34.8173 3.43037H34.1621C34.1812 3.1469 34.2928 2.93352 34.4968 2.7902C34.7009 2.64688 34.964 2.5752 35.286 2.5752C35.9842 2.5752 36.3333 2.88415 36.3333 3.50205V5.13118H35.659V4.83018C35.49 5.06587 35.2381 5.18373 34.9033 5.18373ZM35.109 4.7012C35.2653 4.7012 35.3944 4.66137 35.4964 4.58175C35.5984 4.50212 35.6495 4.39385 35.6495 4.25688V4.04667H35.3816C35.1712 4.04667 35.0118 4.07375 34.9033 4.1279C34.7982 4.18205 34.7455 4.2728 34.7455 4.4002C34.7455 4.60087 34.8667 4.7012 35.109 4.7012Z"/>
</mask>
<path d="M34.9033 5.18373C34.6578 5.18373 34.457 5.12162 34.3008 4.9974C34.1445 4.87317 34.0664 4.68685 34.0664 4.43842C34.0664 3.90335 34.5 3.6358 35.3673 3.6358H35.6495V3.53547C35.6495 3.37942 35.6192 3.26475 35.5586 3.1915C35.498 3.11505 35.3928 3.07685 35.2429 3.07685C34.991 3.07685 34.8492 3.1947 34.8173 3.43037H34.1621C34.1812 3.1469 34.2928 2.93352 34.4968 2.7902C34.7009 2.64688 34.964 2.5752 35.286 2.5752C35.9842 2.5752 36.3333 2.88415 36.3333 3.50205V5.13118H35.659V4.83018C35.49 5.06587 35.2381 5.18373 34.9033 5.18373ZM35.109 4.7012C35.2653 4.7012 35.3944 4.66137 35.4964 4.58175C35.5984 4.50212 35.6495 4.39385 35.6495 4.25688V4.04667H35.3816C35.1712 4.04667 35.0118 4.07375 34.9033 4.1279C34.7982 4.18205 34.7455 4.2728 34.7455 4.4002C34.7455 4.60087 34.8667 4.7012 35.109 4.7012Z" fill="white"/>
<path d="M34.3008 4.9974L34.9233 4.21477L34.9231 4.21466L34.3008 4.9974ZM35.6495 3.6358V4.6358H36.6495V3.6358H35.6495ZM35.5586 3.1915L34.7749 3.81263L34.7814 3.82083L34.788 3.8289L35.5586 3.1915ZM34.8173 3.43037V4.43037H35.6909L35.8082 3.56459L34.8173 3.43037ZM34.1621 3.43037L33.1643 3.36296L33.0922 4.43037H34.1621V3.43037ZM34.4968 2.7902L33.9221 1.97186L33.9221 1.97187L34.4968 2.7902ZM36.3333 5.13118V6.13118H37.3333V5.13118H36.3333ZM35.659 5.13118H34.659V6.13118H35.659V5.13118ZM35.659 4.83018H36.659V1.71867L34.8462 4.24758L35.659 4.83018ZM35.4964 4.58175L36.1117 5.3701L36.1119 5.36993L35.4964 4.58175ZM35.6495 4.04667H36.6495V3.04667H35.6495V4.04667ZM34.9033 4.1279L34.4567 3.2331L34.4455 3.23883L34.9033 4.1279ZM34.9033 4.18373C34.8643 4.18373 34.8542 4.17877 34.864 4.18178C34.8689 4.18331 34.8777 4.18652 34.8889 4.19238C34.9003 4.19828 34.912 4.20581 34.9233 4.21477L33.6783 5.78003C34.0492 6.07506 34.4853 6.18373 34.9033 6.18373V4.18373ZM34.9231 4.21466C34.9783 4.25857 35.0221 4.31781 35.0472 4.37782C35.0698 4.43174 35.0664 4.45948 35.0664 4.43842H33.0664C33.0664 4.90974 33.2261 5.42047 33.6784 5.78014L34.9231 4.21466ZM35.0664 4.43842C35.0664 4.44182 35.0648 4.49352 35.0275 4.5626C34.989 4.63388 34.9396 4.67339 34.9167 4.6875C34.9005 4.69749 34.9186 4.68211 34.9996 4.66546C35.0794 4.64905 35.1988 4.6358 35.3673 4.6358V2.6358C34.8633 2.6358 34.3166 2.7077 33.8665 2.98541C33.337 3.31213 33.0664 3.84515 33.0664 4.43842H35.0664ZM35.3673 4.6358H35.6495V2.6358H35.3673V4.6358ZM36.6495 3.6358V3.53547H34.6495V3.6358H36.6495ZM36.6495 3.53547C36.6495 3.28518 36.6072 2.89025 36.3291 2.5541L34.788 3.8289C34.7061 3.72984 34.6729 3.63685 34.6599 3.58789C34.6474 3.5404 34.6495 3.51824 34.6495 3.53547H36.6495ZM36.3423 2.57037C36.0083 2.14891 35.5315 2.07685 35.2429 2.07685V4.07685C35.2385 4.07685 35.1798 4.077 35.0929 4.04545C34.9976 4.01085 34.8759 3.94005 34.7749 3.81263L36.3423 2.57037ZM35.2429 2.07685C34.9687 2.07685 34.6152 2.14136 34.3087 2.39598C33.9942 2.65717 33.8658 3.00425 33.8263 3.29616L35.8082 3.56459C35.8006 3.62081 35.7591 3.79113 35.5865 3.93449C35.4219 4.07126 35.2652 4.07685 35.2429 4.07685V2.07685ZM34.8173 2.43037H34.1621V4.43037H34.8173V2.43037ZM35.1598 3.49778C35.1617 3.46976 35.1652 3.48487 35.1463 3.5211C35.1371 3.53869 35.1248 3.55677 35.11 3.57349C35.0953 3.5901 35.0815 3.60156 35.0716 3.60852L33.9221 1.97187C33.4344 2.3144 33.2006 2.82561 33.1643 3.36296L35.1598 3.49778ZM35.0716 3.60853C35.0717 3.60845 35.0738 3.60697 35.079 3.60455C35.0844 3.60207 35.0943 3.59807 35.11 3.59378C35.1421 3.58505 35.1982 3.5752 35.286 3.5752V1.5752C34.818 1.5752 34.3375 1.6801 33.9221 1.97186L35.0716 3.60853ZM35.286 3.5752C35.39 3.5752 35.4437 3.58707 35.4613 3.59227C35.4756 3.59649 35.4484 3.59084 35.4088 3.55578C35.3898 3.53893 35.3725 3.51931 35.3584 3.49842C35.3444 3.47777 35.3363 3.46019 35.3321 3.44904C35.3242 3.42817 35.3333 3.43928 35.3333 3.50205H37.3333C37.3333 3.00512 37.1873 2.45902 36.7342 2.05804C36.3044 1.67768 35.7612 1.5752 35.286 1.5752V3.5752ZM35.3333 3.50205V5.13118H37.3333V3.50205H35.3333ZM36.3333 4.13118H35.659V6.13118H36.3333V4.13118ZM36.659 5.13118V4.83018H34.659V5.13118H36.659ZM34.8462 4.24758C34.85 4.24238 34.8587 4.23158 34.8735 4.21919C34.8884 4.20665 34.9046 4.1966 34.9196 4.18957C34.9506 4.17507 34.9537 4.18373 34.9033 4.18373V6.18373C35.5033 6.18373 36.084 5.95372 36.4718 5.41277L34.8462 4.24758ZM35.109 5.7012C35.4406 5.7012 35.7997 5.61352 36.1117 5.3701L34.8812 3.7934C34.9302 3.75518 34.982 3.73004 35.0284 3.71574C35.0728 3.70204 35.1025 3.7012 35.109 3.7012V5.7012ZM36.1119 5.36993C36.4722 5.0886 36.6495 4.6814 36.6495 4.25688H34.6495C34.6495 4.1991 34.6609 4.11159 34.7066 4.01453C34.7532 3.91574 34.8189 3.84207 34.881 3.79356L36.1119 5.36993ZM36.6495 4.25688V4.04667H34.6495V4.25688H36.6495ZM35.6495 3.04667H35.3816V5.04667H35.6495V3.04667ZM35.3816 3.04667C35.1144 3.04667 34.771 3.0763 34.4567 3.23317L35.3499 5.02262C35.3198 5.03768 35.2967 5.04561 35.2844 5.04934C35.272 5.05309 35.2671 5.05364 35.2717 5.05286C35.2761 5.05211 35.2873 5.05048 35.3064 5.04908C35.3253 5.04769 35.3502 5.04667 35.3816 5.04667V3.04667ZM34.4455 3.23883C34.2453 3.34193 34.054 3.50365 33.9198 3.73508C33.7881 3.96234 33.7455 4.19794 33.7455 4.4002H35.7455C35.7455 4.47505 35.7293 4.60158 35.6501 4.73808C35.5686 4.87874 35.4562 4.96802 35.3611 5.01696L34.4455 3.23883ZM33.7455 4.4002C33.7455 4.70959 33.848 5.10585 34.1986 5.39618C34.5131 5.65659 34.8748 5.7012 35.109 5.7012V3.7012C35.1142 3.7012 35.1543 3.70138 35.2161 3.71844C35.2802 3.73615 35.3762 3.77463 35.4742 3.85573C35.7036 4.04572 35.7455 4.29148 35.7455 4.4002H33.7455Z" fill="white" mask="url(#path-12-inside-5_30072_395522)"/>
<mask id="path-14-inside-6_30072_395522" fill="white">
<path d="M36.8804 5.13118V2.63252H37.5738V3.02907C37.6408 2.8953 37.7428 2.787 37.8799 2.7042C38.0202 2.6182 38.1892 2.5752 38.3869 2.5752C38.6452 2.5752 38.8492 2.65642 38.999 2.81885C39.1521 2.9781 39.2286 3.21857 39.2286 3.54025V5.13118H38.5351V3.6406C38.5351 3.4686 38.5001 3.3428 38.4299 3.26317C38.3598 3.18035 38.2482 3.13895 38.0951 3.13895C37.9389 3.13895 37.8129 3.18672 37.7173 3.28227C37.6216 3.37465 37.5738 3.51 37.5738 3.68837V5.13118H36.8804Z"/>
</mask>
<path d="M36.8804 5.13118V2.63252H37.5738V3.02907C37.6408 2.8953 37.7428 2.787 37.8799 2.7042C38.0202 2.6182 38.1892 2.5752 38.3869 2.5752C38.6452 2.5752 38.8492 2.65642 38.999 2.81885C39.1521 2.9781 39.2286 3.21857 39.2286 3.54025V5.13118H38.5351V3.6406C38.5351 3.4686 38.5001 3.3428 38.4299 3.26317C38.3598 3.18035 38.2482 3.13895 38.0951 3.13895C37.9389 3.13895 37.8129 3.18672 37.7173 3.28227C37.6216 3.37465 37.5738 3.51 37.5738 3.68837V5.13118H36.8804Z" fill="white"/>
<path d="M36.8804 5.13118H35.8804V6.13118H36.8804V5.13118ZM36.8804 2.63252V1.63252H35.8804V2.63252H36.8804ZM37.5738 2.63252H38.5738V1.63252H37.5738V2.63252ZM37.5738 3.02907H36.5738L38.468 3.47676L37.5738 3.02907ZM37.8799 2.7042L38.3969 3.56019L38.4026 3.55674L37.8799 2.7042ZM38.999 2.81885L38.2641 3.49695L38.271 3.50443L38.278 3.51177L38.999 2.81885ZM39.2286 5.13118V6.13118H40.2286V5.13118H39.2286ZM38.5351 5.13118H37.5351V6.13118H38.5351V5.13118ZM38.4299 3.26317L37.6666 3.90928L37.6731 3.91686L37.6796 3.92431L38.4299 3.26317ZM37.7173 3.28227L38.412 4.00159L38.4181 3.99571L38.424 3.98973L37.7173 3.28227ZM37.5738 5.13118V6.13118H38.5738V5.13118H37.5738ZM37.8804 5.13118V2.63252H35.8804V5.13118H37.8804ZM36.8804 3.63252H37.5738V1.63252H36.8804V3.63252ZM36.5738 2.63252V3.02907H38.5738V2.63252H36.5738ZM38.468 3.47676C38.4582 3.49641 38.4445 3.51619 38.4284 3.53327C38.4126 3.55 38.4002 3.55822 38.3969 3.56017L37.3629 1.84822C37.0759 2.02156 36.8372 2.26661 36.6796 2.58138L38.468 3.47676ZM38.4026 3.55674C38.3928 3.56272 38.3836 3.56731 38.3755 3.5707C38.3674 3.57406 38.3615 3.5758 38.3585 3.57657C38.3525 3.57809 38.3603 3.5752 38.3869 3.5752V1.5752C38.0421 1.5752 37.6839 1.6514 37.3573 1.85165L38.4026 3.55674ZM38.3869 3.5752C38.4112 3.5752 38.3982 3.57891 38.3638 3.56521C38.3259 3.55013 38.2898 3.52491 38.2641 3.49695L39.734 2.14074C39.3626 1.7382 38.873 1.5752 38.3869 1.5752V3.5752ZM38.278 3.51177C38.2574 3.49032 38.2424 3.4692 38.2323 3.45158C38.2224 3.43435 38.2187 3.42327 38.2183 3.42193C38.218 3.42086 38.2207 3.42908 38.2234 3.44914C38.2261 3.46924 38.2286 3.4991 38.2286 3.54025H40.2286C40.2286 3.07733 40.1195 2.54154 39.72 2.12592L38.278 3.51177ZM38.2286 3.54025V5.13118H40.2286V3.54025H38.2286ZM39.2286 4.13118H38.5351V6.13118H39.2286V4.13118ZM39.5351 5.13118V3.6406H37.5351V5.13118H39.5351ZM39.5351 3.6406C39.5351 3.36731 39.4854 2.94838 39.1802 2.60203L37.6796 3.92431C37.5947 3.82793 37.5593 3.73529 37.5455 3.68578C37.5324 3.63863 37.5351 3.61843 37.5351 3.6406H39.5351ZM39.1931 2.61707C38.8646 2.22894 38.4166 2.13895 38.0951 2.13895V4.13895C38.0797 4.13895 37.855 4.13176 37.6666 3.90928L39.1931 2.61707ZM38.0951 2.13895C37.7185 2.13895 37.3231 2.26257 37.0105 2.57481L38.424 3.98973C38.3723 4.04144 38.3078 4.08335 38.2382 4.10977C38.1713 4.13515 38.1191 4.13895 38.0951 4.13895V2.13895ZM37.0226 2.56296C36.6722 2.90138 36.5738 3.3347 36.5738 3.68837H38.5738C38.5738 3.68838 38.5738 3.69053 38.5735 3.69465C38.5732 3.69877 38.5726 3.70508 38.5714 3.71336C38.5689 3.72984 38.5636 3.75499 38.5526 3.7862C38.529 3.85288 38.4844 3.93162 38.412 4.00159L37.0226 2.56296ZM36.5738 3.68837V5.13118H38.5738V3.68837H36.5738ZM37.5738 4.13118H36.8804V6.13118H37.5738V4.13118Z" fill="white" mask="url(#path-14-inside-6_30072_395522)"/>
<mask id="path-16-inside-7_30072_395522" fill="white">
<path d="M39.7759 5.1309V1.5H40.4693V3.6881L41.2728 2.63225H42.0093L41.1007 3.7693L42.0811 5.1309H41.2967L40.4693 3.95085V5.1309H39.7759Z"/>
</mask>
<path d="M39.7759 5.1309V1.5H40.4693V3.6881L41.2728 2.63225H42.0093L41.1007 3.7693L42.0811 5.1309H41.2967L40.4693 3.95085V5.1309H39.7759Z" fill="white"/>
<path d="M39.7759 5.1309H38.7759V6.1309H39.7759V5.1309ZM39.7759 1.5V0.5H38.7759V1.5H39.7759ZM40.4693 1.5H41.4693V0.5H40.4693V1.5ZM40.4693 3.6881H39.4693V6.65349L41.2651 4.29369L40.4693 3.6881ZM41.2728 2.63225V1.63225H40.7772L40.477 2.02667L41.2728 2.63225ZM42.0093 2.63225L42.7905 3.25654L44.0885 1.63225H42.0093V2.63225ZM41.1007 3.7693L40.3195 3.14502L39.8457 3.73783L40.2892 4.35364L41.1007 3.7693ZM42.0811 5.1309V6.1309H44.0335L42.8926 4.54656L42.0811 5.1309ZM41.2967 5.1309L40.4779 5.705L40.7766 6.1309H41.2967V5.1309ZM40.4693 3.95085L41.2881 3.37675L39.4693 0.782777V3.95085H40.4693ZM40.4693 5.1309V6.1309H41.4693V5.1309H40.4693ZM40.7759 5.1309V1.5H38.7759V5.1309H40.7759ZM39.7759 2.5H40.4693V0.5H39.7759V2.5ZM39.4693 1.5V3.6881H41.4693V1.5H39.4693ZM41.2651 4.29369L42.0686 3.23783L40.477 2.02667L39.6735 3.08252L41.2651 4.29369ZM41.2728 3.63225H42.0093V1.63225H41.2728V3.63225ZM41.2281 2.00797L40.3195 3.14502L41.8819 4.39358L42.7905 3.25654L41.2281 2.00797ZM40.2892 4.35364L41.2696 5.71524L42.8926 4.54656L41.9122 3.18496L40.2892 4.35364ZM42.0811 4.1309H41.2967V6.1309H42.0811V4.1309ZM42.1155 4.5568L41.2881 3.37675L39.6505 4.52495L40.4779 5.705L42.1155 4.5568ZM39.4693 3.95085V5.1309H41.4693V3.95085H39.4693ZM40.4693 4.1309H39.7759V6.1309H40.4693V4.1309Z" fill="white" mask="url(#path-16-inside-7_30072_395522)"/>
<mask id="path-18-inside-8_30072_395522" fill="white">
<path d="M32.1096 11.1596V8.34565H31.1865V7.74365H33.8122V8.34565H32.8891V11.1596H32.1096Z"/>
</mask>
<path d="M32.1096 11.1596V8.34565H31.1865V7.74365H33.8122V8.34565H32.8891V11.1596H32.1096Z" fill="white"/>
<path d="M32.1096 11.1596H31.1096V12.1596H32.1096V11.1596ZM32.1096 8.34565H33.1096V7.34565H32.1096V8.34565ZM31.1865 8.34565H30.1865V9.34565H31.1865V8.34565ZM31.1865 7.74365V6.74365H30.1865V7.74365H31.1865ZM33.8122 7.74365H34.8122V6.74365H33.8122V7.74365ZM33.8122 8.34565V9.34565H34.8122V8.34565H33.8122ZM32.8891 8.34565V7.34565H31.8891V8.34565H32.8891ZM32.8891 11.1596V12.1596H33.8891V11.1596H32.8891ZM33.1096 11.1596V8.34565H31.1096V11.1596H33.1096ZM32.1096 7.34565H31.1865V9.34565H32.1096V7.34565ZM32.1865 8.34565V7.74365H30.1865V8.34565H32.1865ZM31.1865 8.74365H33.8122V6.74365H31.1865V8.74365ZM32.8122 7.74365V8.34565H34.8122V7.74365H32.8122ZM33.8122 7.34565H32.8891V9.34565H33.8122V7.34565ZM31.8891 8.34565V11.1596H33.8891V8.34565H31.8891ZM32.8891 10.1596H32.1096V12.1596H32.8891V10.1596Z" fill="white" mask="url(#path-18-inside-8_30072_395522)"/>
<mask id="path-20-inside-9_30072_395522" fill="white">
<path d="M34.0151 11.1594V8.66075H34.7086V9.13849C34.868 8.79773 35.1374 8.62569 35.5168 8.62256V9.26751C35.249 9.26432 35.0466 9.31365 34.9095 9.41557C34.7756 9.51436 34.7086 9.67838 34.7086 9.9077V11.1594H34.0151Z"/>
</mask>
<path d="M34.0151 11.1594V8.66075H34.7086V9.13849C34.868 8.79773 35.1374 8.62569 35.5168 8.62256V9.26751C35.249 9.26432 35.0466 9.31365 34.9095 9.41557C34.7756 9.51436 34.7086 9.67838 34.7086 9.9077V11.1594H34.0151Z" fill="white"/>
<path d="M34.0151 11.1594H33.0151V12.1594H34.0151V11.1594ZM34.0151 8.66075V7.66075H33.0151V8.66075H34.0151ZM34.7086 8.66075H35.7086V7.66075H34.7086V8.66075ZM34.7086 9.13849H33.7086L35.6143 9.56227L34.7086 9.13849ZM35.5168 8.62256H36.5168V7.61426L35.5086 7.62259L35.5168 8.62256ZM35.5168 9.26751L35.5049 10.2674L36.5168 10.2795V9.26751H35.5168ZM34.9095 9.41557L35.5031 10.2203L35.5059 10.2182L34.9095 9.41557ZM34.7086 11.1594V12.1594H35.7086V11.1594H34.7086ZM35.0151 11.1594V8.66075H33.0151V11.1594H35.0151ZM34.0151 9.66075H34.7086V7.66075H34.0151V9.66075ZM33.7086 8.66075V9.13849H35.7086V8.66075H33.7086ZM35.6143 9.56227C35.6221 9.5457 35.6241 9.5462 35.6159 9.5561C35.6069 9.56682 35.591 9.58231 35.5683 9.5968C35.5456 9.61127 35.5256 9.61877 35.5135 9.62202C35.5025 9.62498 35.5047 9.62269 35.5251 9.62252L35.5086 7.62259C35.1665 7.62542 34.8127 7.7064 34.4921 7.91102C34.1711 8.11596 33.9484 8.4035 33.8028 8.7147L35.6143 9.56227ZM34.5168 8.62256V9.26751H36.5168V8.62256H34.5168ZM35.5288 8.26758C35.1583 8.26317 34.7006 8.32485 34.313 8.61295L35.5059 10.2182C35.4463 10.2625 35.4019 10.2735 35.401 10.2737C35.4002 10.2739 35.4079 10.272 35.4259 10.2702C35.4438 10.2684 35.4698 10.267 35.5049 10.2674L35.5288 8.26758ZM34.3158 8.61087C33.8379 8.96343 33.7086 9.48972 33.7086 9.9077H35.7086C35.7086 9.88628 35.7122 9.92305 35.6846 9.99062C35.6534 10.0672 35.5936 10.1535 35.5031 10.2203L34.3158 8.61087ZM33.7086 9.9077V11.1594H35.7086V9.9077H33.7086ZM34.7086 10.1594H34.0151V12.1594H34.7086V10.1594Z" fill="white" mask="url(#path-20-inside-9_30072_395522)"/>
<mask id="path-22-inside-10_30072_395522" fill="white">
<path d="M36.5528 11.2121C36.3073 11.2121 36.1064 11.1499 35.9502 11.0257C35.7939 10.9015 35.7158 10.7152 35.7158 10.4667C35.7158 9.93167 36.1494 9.6641 37.0166 9.6641H37.2988V9.56375C37.2988 9.40773 37.2686 9.29304 37.208 9.2198C37.1474 9.14336 37.0422 9.10516 36.8923 9.10516C36.6404 9.10516 36.4986 9.22299 36.4667 9.45869H35.8115C35.8306 9.17522 35.9422 8.9618 36.1462 8.8185C36.3503 8.6752 36.6133 8.60352 36.9354 8.60352C37.6337 8.60352 37.9828 8.91247 37.9828 9.53037V11.1595H37.3084V10.8585C37.1395 11.0942 36.8876 11.2121 36.5528 11.2121ZM36.7584 10.7295C36.9147 10.7295 37.0438 10.6897 37.1458 10.6101C37.2479 10.5304 37.2988 10.4222 37.2988 10.2852V10.075H37.031C36.8206 10.075 36.6612 10.1021 36.5528 10.1562C36.4476 10.2103 36.3949 10.3011 36.3949 10.4285C36.3949 10.6291 36.5161 10.7295 36.7584 10.7295Z"/>
</mask>
<path d="M36.5528 11.2121C36.3073 11.2121 36.1064 11.1499 35.9502 11.0257C35.7939 10.9015 35.7158 10.7152 35.7158 10.4667C35.7158 9.93167 36.1494 9.6641 37.0166 9.6641H37.2988V9.56375C37.2988 9.40773 37.2686 9.29304 37.208 9.2198C37.1474 9.14336 37.0422 9.10516 36.8923 9.10516C36.6404 9.10516 36.4986 9.22299 36.4667 9.45869H35.8115C35.8306 9.17522 35.9422 8.9618 36.1462 8.8185C36.3503 8.6752 36.6133 8.60352 36.9354 8.60352C37.6337 8.60352 37.9828 8.91247 37.9828 9.53037V11.1595H37.3084V10.8585C37.1395 11.0942 36.8876 11.2121 36.5528 11.2121ZM36.7584 10.7295C36.9147 10.7295 37.0438 10.6897 37.1458 10.6101C37.2479 10.5304 37.2988 10.4222 37.2988 10.2852V10.075H37.031C36.8206 10.075 36.6612 10.1021 36.5528 10.1562C36.4476 10.2103 36.3949 10.3011 36.3949 10.4285C36.3949 10.6291 36.5161 10.7295 36.7584 10.7295Z" fill="white"/>
<path d="M35.9502 11.0257L36.5726 10.243L36.5725 10.2429L35.9502 11.0257ZM37.2988 9.6641V10.6641H38.2988V9.6641H37.2988ZM37.208 9.2198L36.4243 9.84098L36.4308 9.84916L36.4375 9.85719L37.208 9.2198ZM36.4667 9.45869V10.4587H37.3404L37.4576 9.59289L36.4667 9.45869ZM35.8115 9.45869L34.8137 9.39128L34.7416 10.4587H35.8115V9.45869ZM37.9828 11.1595V12.1595H38.9828V11.1595H37.9828ZM37.3084 11.1595H36.3084V12.1595H37.3084V11.1595ZM37.3084 10.8585H38.3084V7.7469L36.4956 10.2759L37.3084 10.8585ZM37.2988 10.075H38.2988V9.07497H37.2988V10.075ZM36.5528 10.1562L36.1061 9.2614L36.0952 9.26701L36.5528 10.1562ZM36.5528 10.2121C36.5138 10.2121 36.5037 10.2071 36.5135 10.2101C36.5184 10.2116 36.5272 10.2148 36.5384 10.2207C36.5497 10.2266 36.5614 10.2341 36.5726 10.243L35.3277 11.8083C35.6987 12.1034 36.1347 12.2121 36.5528 12.2121V10.2121ZM36.5725 10.2429C36.6277 10.2868 36.6715 10.3461 36.6966 10.4061C36.7192 10.4601 36.7158 10.4878 36.7158 10.4667H34.7158C34.7158 10.9381 34.8755 11.4488 35.3279 11.8085L36.5725 10.2429ZM36.7158 10.4667C36.7158 10.4701 36.7143 10.5218 36.6769 10.5909C36.6384 10.6622 36.589 10.7017 36.5661 10.7158C36.55 10.7258 36.5681 10.7104 36.649 10.6938C36.7288 10.6774 36.8482 10.6641 37.0166 10.6641V8.6641C36.5127 8.6641 35.966 8.73601 35.5159 9.01374C34.9864 9.34047 34.7158 9.87349 34.7158 10.4667H36.7158ZM37.0166 10.6641H37.2988V8.6641H37.0166V10.6641ZM38.2988 9.6641V9.56375H36.2988V9.6641H38.2988ZM38.2988 9.56375C38.2988 9.31387 38.2567 8.91873 37.9785 8.5824L36.4375 9.85719C36.3554 9.75801 36.3222 9.6649 36.3093 9.61597C36.2967 9.56852 36.2988 9.54641 36.2988 9.56375H38.2988ZM37.9917 8.59861C37.6576 8.1772 37.1809 8.10516 36.8923 8.10516V10.1052C36.8879 10.1052 36.8292 10.1053 36.7423 10.0738C36.6471 10.0392 36.5253 9.9684 36.4243 9.84098L37.9917 8.59861ZM36.8923 8.10516C36.6181 8.10516 36.2646 8.16965 35.9581 8.42427C35.6436 8.68548 35.5152 9.03259 35.4757 9.32449L37.4576 9.59289C37.45 9.64909 37.4086 9.81943 37.2359 9.9628C37.0712 10.0996 36.9146 10.1052 36.8923 10.1052V8.10516ZM36.4667 8.45869H35.8115V10.4587H36.4667V8.45869ZM36.8092 9.5261C36.8111 9.49807 36.8146 9.51316 36.7957 9.54938C36.7865 9.56696 36.7743 9.58505 36.7594 9.60179C36.7447 9.61841 36.7309 9.62988 36.7209 9.63687L35.5715 8.00013C35.0838 8.34268 34.85 8.854 34.8137 9.39128L36.8092 9.5261ZM36.7209 9.63687C36.7211 9.63677 36.7232 9.63529 36.7284 9.63286C36.7338 9.63038 36.7437 9.62639 36.7594 9.6221C36.7915 9.61337 36.8476 9.60352 36.9354 9.60352V7.60352C36.4673 7.60352 35.9869 7.70843 35.5715 8.00013L36.7209 9.63687ZM36.9354 9.60352C37.0394 9.60352 37.0931 9.61539 37.1107 9.62059C37.125 9.62481 37.0978 9.61916 37.0582 9.5841C37.0392 9.56725 37.0219 9.54763 37.0078 9.52674C36.9938 9.50609 36.9857 9.48851 36.9815 9.47736C36.9736 9.45649 36.9828 9.4676 36.9828 9.53037H38.9828C38.9828 9.03344 38.8368 8.48734 38.3836 8.08636C37.9538 7.706 37.4106 7.60352 36.9354 7.60352V9.60352ZM36.9828 9.53037V11.1595H38.9828V9.53037H36.9828ZM37.9828 10.1595H37.3084V12.1595H37.9828V10.1595ZM38.3084 11.1595V10.8585H36.3084V11.1595H38.3084ZM36.4956 10.2759C36.4994 10.2707 36.5081 10.2599 36.5229 10.2475C36.5378 10.235 36.5539 10.2249 36.5689 10.2179C36.5999 10.2034 36.6031 10.2121 36.5528 10.2121V12.2121C37.1529 12.2121 37.7335 11.9819 38.1212 11.4411L36.4956 10.2759ZM36.7584 11.7295C37.09 11.7295 37.4491 11.6419 37.7611 11.3984L36.5306 9.82173C36.5796 9.78349 36.6314 9.75833 36.6778 9.74403C36.7222 9.73033 36.7519 9.7295 36.7584 9.7295V11.7295ZM37.7611 11.3984C38.122 11.1167 38.2988 10.7092 38.2988 10.2852H36.2988C36.2988 10.2277 36.3101 10.1403 36.3559 10.0431C36.4025 9.94412 36.4683 9.87031 36.5306 9.82173L37.7611 11.3984ZM38.2988 10.2852V10.075H36.2988V10.2852H38.2988ZM37.2988 9.07497H37.031V11.075H37.2988V9.07497ZM37.031 9.07497C36.7638 9.07497 36.4203 9.10463 36.1061 9.26147L36.9995 11.0509C36.9692 11.066 36.9461 11.0739 36.9338 11.0776C36.9214 11.0814 36.9165 11.0819 36.9211 11.0812C36.9255 11.0804 36.9367 11.0788 36.9558 11.0774C36.9748 11.076 36.9996 11.075 37.031 11.075V9.07497ZM36.0952 9.26701C35.8949 9.3701 35.7035 9.53185 35.5693 9.76332C35.4375 9.99062 35.3949 10.2263 35.3949 10.4285H37.3949C37.3949 10.5033 37.3787 10.6299 37.2995 10.7664C37.218 10.9071 37.1055 10.9964 37.0104 11.0453L36.0952 9.26701ZM35.3949 10.4285C35.3949 10.7379 35.4974 11.1341 35.848 11.4245C36.1625 11.6849 36.5242 11.7295 36.7584 11.7295V9.7295C36.7636 9.7295 36.8037 9.72968 36.8655 9.74674C36.9297 9.76446 37.0257 9.80295 37.1236 9.88403C37.353 10.074 37.3949 10.3197 37.3949 10.4285H35.3949Z" fill="white" mask="url(#path-22-inside-10_30072_395522)"/>
<mask id="path-24-inside-11_30072_395522" fill="white">
<path d="M38.5298 11.1595V8.6608H39.2232V9.0574C39.2902 8.92361 39.3922 8.81531 39.5293 8.73248C39.6696 8.64652 39.8386 8.60352 40.0363 8.60352C40.2946 8.60352 40.4986 8.68472 40.6485 8.84717C40.8015 9.00638 40.878 9.2469 40.878 9.56856V11.1595H40.1845V9.66892C40.1845 9.49688 40.1495 9.37111 40.0794 9.29148C40.0092 9.20865 39.8976 9.16727 39.7445 9.16727C39.5884 9.16727 39.4624 9.21504 39.3667 9.31057C39.2711 9.40297 39.2232 9.53832 39.2232 9.71668V11.1595H38.5298Z"/>
</mask>
<path d="M38.5298 11.1595V8.6608H39.2232V9.0574C39.2902 8.92361 39.3922 8.81531 39.5293 8.73248C39.6696 8.64652 39.8386 8.60352 40.0363 8.60352C40.2946 8.60352 40.4986 8.68472 40.6485 8.84717C40.8015 9.00638 40.878 9.2469 40.878 9.56856V11.1595H40.1845V9.66892C40.1845 9.49688 40.1495 9.37111 40.0794 9.29148C40.0092 9.20865 39.8976 9.16727 39.7445 9.16727C39.5884 9.16727 39.4624 9.21504 39.3667 9.31057C39.2711 9.40297 39.2232 9.53832 39.2232 9.71668V11.1595H38.5298Z" fill="white"/>
<path d="M38.5298 11.1595H37.5298V12.1595H38.5298V11.1595ZM38.5298 8.6608V7.6608H37.5298V8.6608H38.5298ZM39.2232 8.6608H40.2232V7.6608H39.2232V8.6608ZM39.2232 9.0574H38.2232L40.1174 9.50506L39.2232 9.0574ZM39.5293 8.73248L40.0465 9.58842L40.0518 9.58513L39.5293 8.73248ZM40.6485 8.84717L39.9135 9.5252L39.9204 9.53277L39.9276 9.54019L40.6485 8.84717ZM40.878 11.1595V12.1595H41.878V11.1595H40.878ZM40.1845 11.1595H39.1845V12.1595H40.1845V11.1595ZM40.0794 9.29148L39.3164 9.93788L39.3225 9.94515L39.3288 9.95229L40.0794 9.29148ZM39.3667 9.31057L40.0615 10.0298L40.0675 10.024L40.0734 10.0181L39.3667 9.31057ZM39.2232 11.1595V12.1595H40.2232V11.1595H39.2232ZM39.5298 11.1595V8.6608H37.5298V11.1595H39.5298ZM38.5298 9.6608H39.2232V7.6608H38.5298V9.6608ZM38.2232 8.6608V9.0574H40.2232V8.6608H38.2232ZM40.1174 9.50506C40.1076 9.5247 40.0939 9.54447 40.0779 9.56155C40.0621 9.57826 40.0496 9.58647 40.0464 9.5884L39.0122 7.87657C38.7253 8.04992 38.4866 8.29494 38.329 8.60973L40.1174 9.50506ZM40.0518 9.58513C40.0421 9.59109 40.0329 9.59567 40.0248 9.59904C40.0167 9.60239 40.0109 9.60413 40.0078 9.60489C40.0019 9.60641 40.0098 9.60352 40.0363 9.60352V7.60352C39.6915 7.60352 39.3334 7.67973 39.0068 7.87983L40.0518 9.58513ZM40.0363 9.60352C40.0607 9.60352 40.0477 9.60723 40.0133 9.59354C39.9754 9.57848 39.9393 9.55323 39.9135 9.5252L41.3835 8.16914C41.012 7.7664 40.5222 7.60352 40.0363 7.60352V9.60352ZM39.9276 9.54019C39.9069 9.51868 39.8919 9.4975 39.8818 9.47983C39.8718 9.46256 39.8681 9.45146 39.8677 9.45013C39.8674 9.44906 39.8701 9.45729 39.8728 9.47737C39.8756 9.4975 39.878 9.52738 39.878 9.56856H41.878C41.878 9.10592 41.7691 8.56988 41.3694 8.15415L39.9276 9.54019ZM39.878 9.56856V11.1595H41.878V9.56856H39.878ZM40.878 10.1595H40.1845V12.1595H40.878V10.1595ZM41.1845 11.1595V9.66892H39.1845V11.1595H41.1845ZM41.1845 9.66892C41.1845 9.39556 41.1348 8.9769 40.8299 8.63066L39.3288 9.95229C39.244 9.85597 39.2087 9.76343 39.1949 9.71397C39.1818 9.66688 39.1845 9.64672 39.1845 9.66892H41.1845ZM40.8424 8.64507C40.5138 8.25724 40.066 8.16727 39.7445 8.16727V10.1673C39.7291 10.1673 39.5046 10.1601 39.3164 9.93788L40.8424 8.64507ZM39.7445 8.16727C39.3681 8.16727 38.9726 8.29082 38.66 8.60305L40.0734 10.0181C40.0216 10.0699 39.9571 10.1117 39.8875 10.1381C39.8207 10.1635 39.7686 10.1673 39.7445 10.1673V8.16727ZM38.6719 8.59136C38.3216 8.92976 38.2232 9.36299 38.2232 9.71668H40.2232C40.2232 9.71669 40.2232 9.71884 40.2229 9.72296C40.2226 9.72709 40.222 9.7334 40.2208 9.74167C40.2183 9.75816 40.213 9.7833 40.202 9.8145C40.1784 9.88116 40.1339 9.95985 40.0615 10.0298L38.6719 8.59136ZM38.2232 9.71668V11.1595H40.2232V9.71668H38.2232ZM39.2232 10.1595H38.5298V12.1595H39.2232V10.1595Z" fill="white" mask="url(#path-24-inside-11_30072_395522)"/>
<mask id="path-26-inside-12_30072_395522" fill="white">
<path d="M42.3327 11.2121C41.9947 11.2121 41.7316 11.1404 41.5435 10.997C41.3554 10.8537 41.255 10.6467 41.2422 10.376H41.8879C41.9038 10.4938 41.9452 10.5829 42.0122 10.6435C42.0792 10.7008 42.1844 10.7295 42.328 10.7295C42.5892 10.7295 42.72 10.6387 42.72 10.4572C42.72 10.3743 42.6817 10.3107 42.6052 10.2661C42.5287 10.2215 42.398 10.1865 42.2129 10.161C41.8751 10.11 41.636 10.0272 41.4957 9.91257C41.3586 9.79788 41.29 9.62115 41.29 9.38225C41.29 9.13378 41.3857 8.94271 41.577 8.80892C41.7715 8.67195 42.006 8.60352 42.28 8.60352C42.9114 8.60352 43.2557 8.86151 43.313 9.37744H42.677C42.6387 9.17679 42.508 9.07649 42.2847 9.07649C42.1732 9.07649 42.0854 9.10035 42.0217 9.14817C41.9612 9.19594 41.931 9.25804 41.931 9.33448C41.931 9.41412 41.9645 9.47303 42.0315 9.51122C42.1015 9.54947 42.229 9.58128 42.414 9.60676C42.7519 9.65452 42.9975 9.73416 43.1504 9.84565C43.3067 9.95715 43.3847 10.1387 43.3847 10.3903C43.3847 10.6578 43.2925 10.8617 43.1074 11.0018C42.9257 11.1419 42.6674 11.2121 42.3327 11.2121Z"/>
</mask>
<path d="M42.3327 11.2121C41.9947 11.2121 41.7316 11.1404 41.5435 10.997C41.3554 10.8537 41.255 10.6467 41.2422 10.376H41.8879C41.9038 10.4938 41.9452 10.5829 42.0122 10.6435C42.0792 10.7008 42.1844 10.7295 42.328 10.7295C42.5892 10.7295 42.72 10.6387 42.72 10.4572C42.72 10.3743 42.6817 10.3107 42.6052 10.2661C42.5287 10.2215 42.398 10.1865 42.2129 10.161C41.8751 10.11 41.636 10.0272 41.4957 9.91257C41.3586 9.79788 41.29 9.62115 41.29 9.38225C41.29 9.13378 41.3857 8.94271 41.577 8.80892C41.7715 8.67195 42.006 8.60352 42.28 8.60352C42.9114 8.60352 43.2557 8.86151 43.313 9.37744H42.677C42.6387 9.17679 42.508 9.07649 42.2847 9.07649C42.1732 9.07649 42.0854 9.10035 42.0217 9.14817C41.9612 9.19594 41.931 9.25804 41.931 9.33448C41.931 9.41412 41.9645 9.47303 42.0315 9.51122C42.1015 9.54947 42.229 9.58128 42.414 9.60676C42.7519 9.65452 42.9975 9.73416 43.1504 9.84565C43.3067 9.95715 43.3847 10.1387 43.3847 10.3903C43.3847 10.6578 43.2925 10.8617 43.1074 11.0018C42.9257 11.1419 42.6674 11.2121 42.3327 11.2121Z" fill="white"/>
<path d="M41.5435 10.997L42.1497 10.2017L42.1495 10.2016L41.5435 10.997ZM41.2422 10.376V9.37597H40.1937L40.2433 10.4233L41.2422 10.376ZM41.8879 10.376L42.8788 10.2417L42.7615 9.37597H41.8879V10.376ZM42.0122 10.6435L41.3416 11.3854L41.3518 11.3945L41.3621 11.4034L42.0122 10.6435ZM42.6052 10.2661L42.1013 11.1298L42.1017 11.1301L42.6052 10.2661ZM42.2129 10.161L42.0636 11.1499L42.0765 11.1516L42.2129 10.161ZM41.4957 9.91257L40.854 10.6796L40.8629 10.6869L41.4957 9.91257ZM41.577 8.80892L42.15 9.62849L42.1528 9.6265L41.577 8.80892ZM43.313 9.37744V10.3774H44.43L44.3069 9.26718L43.313 9.37744ZM42.677 9.37744L41.6946 9.56469L41.8496 10.3774H42.677V9.37744ZM42.0217 9.14817L41.4215 8.34834L41.4116 8.35576L41.4019 8.36342L42.0217 9.14817ZM42.0315 9.51122L41.5361 10.3799L41.544 10.3844L41.552 10.3888L42.0315 9.51122ZM42.414 9.60676L42.5539 8.61659L42.5504 8.61611L42.414 9.60676ZM43.1504 9.84565L42.5615 10.6539L42.5696 10.6596L43.1504 9.84565ZM43.1074 11.0018L42.5037 10.2045L42.4967 10.21L43.1074 11.0018ZM42.3327 10.2121C42.1225 10.2121 42.1028 10.166 42.1497 10.2017L40.9374 11.7924C41.3604 12.1148 41.8669 12.2121 42.3327 12.2121V10.2121ZM42.1495 10.2016C42.1612 10.2104 42.1759 10.2237 42.1908 10.2419C42.2058 10.26 42.2179 10.2793 42.2268 10.2978C42.2452 10.3356 42.2422 10.3526 42.2411 10.3287L40.2433 10.4233C40.2678 10.9408 40.4784 11.4427 40.9375 11.7925L42.1495 10.2016ZM41.2422 11.376H41.8879V9.37597H41.2422V11.376ZM40.8969 10.5102C40.9343 10.7864 41.0501 11.1219 41.3416 11.3854L42.6827 9.90161C42.8403 10.044 42.8733 10.2012 42.8788 10.2417L40.8969 10.5102ZM41.3621 11.4034C41.6938 11.6871 42.0856 11.7295 42.328 11.7295V9.7295C42.3188 9.7295 42.3491 9.72815 42.4042 9.74316C42.4613 9.75871 42.5601 9.79622 42.6622 9.8836L41.3621 11.4034ZM42.328 11.7295C42.5436 11.7295 42.8831 11.6976 43.1924 11.4827C43.5678 11.222 43.72 10.8222 43.72 10.4572H41.72C41.72 10.3826 41.7337 10.2691 41.7939 10.1436C41.8565 10.0132 41.95 9.91061 42.0515 9.8401C42.2301 9.716 42.3736 9.7295 42.328 9.7295V11.7295ZM43.72 10.4572C43.72 9.9894 43.4666 9.61066 43.1087 9.40209L42.1017 11.1301C42.0225 11.0839 41.9168 11 41.834 10.8622C41.7493 10.7211 41.72 10.5758 41.72 10.4572H43.72ZM43.1092 9.40237C42.8515 9.252 42.5518 9.19821 42.3494 9.17034L42.0765 11.1516C42.1082 11.156 42.1336 11.1602 42.1534 11.164C42.1734 11.1679 42.1855 11.1708 42.191 11.1723C42.1969 11.1739 42.192 11.1729 42.179 11.1679C42.1722 11.1653 42.1621 11.1612 42.1495 11.1552C42.1369 11.1493 42.1205 11.141 42.1013 11.1298L43.1092 9.40237ZM42.3623 9.1722C42.2343 9.15288 42.1531 9.13149 42.1075 9.11569C42.0582 9.09863 42.0793 9.09802 42.1285 9.13823L40.8629 10.6869C41.2183 10.9773 41.6808 11.092 42.0636 11.1498L42.3623 9.1722ZM42.1374 9.14558C42.2062 9.20319 42.2508 9.27304 42.2738 9.33232C42.2941 9.38489 42.29 9.40882 42.29 9.38225H40.29C40.29 9.81165 40.4197 10.3162 40.854 10.6796L42.1374 9.14558ZM42.29 9.38225C42.29 9.38814 42.2882 9.43584 42.256 9.50022C42.2226 9.56692 42.1777 9.60909 42.15 9.62848L41.004 7.98937C40.5254 8.32398 40.29 8.832 40.29 9.38225H42.29ZM42.1528 9.6265C42.1539 9.62578 42.1794 9.60352 42.28 9.60352V7.60352C41.8325 7.60352 41.3891 7.71812 41.0012 7.99134L42.1528 9.6265ZM42.28 9.60352C42.3721 9.60352 42.4234 9.61318 42.4441 9.61867C42.4629 9.62364 42.4452 9.62201 42.4122 9.59729C42.396 9.58517 42.3793 9.56974 42.3637 9.55134C42.3482 9.53298 42.3366 9.51495 42.3286 9.49939C42.3124 9.46824 42.3158 9.45821 42.3191 9.48769L44.3069 9.26718C44.2546 8.79586 44.0496 8.32501 43.6114 7.99671C43.2021 7.69003 42.715 7.60352 42.28 7.60352V9.60352ZM43.313 8.37744H42.677V10.3774H43.313V8.37744ZM43.6593 9.19018C43.6057 8.90888 43.4626 8.59129 43.1589 8.35832C42.8662 8.13372 42.5391 8.07649 42.2847 8.07649V10.0765C42.2535 10.0765 42.1035 10.0694 41.9415 9.94512C41.7686 9.81246 41.71 9.64534 41.6946 9.56469L43.6593 9.19018ZM42.2847 8.07649C42.042 8.07649 41.716 8.12734 41.4215 8.34834L42.6219 9.948C42.4549 10.0734 42.3044 10.0765 42.2847 10.0765V8.07649ZM41.4019 8.36342C41.1036 8.599 40.931 8.94912 40.931 9.33448H42.931C42.931 9.4316 42.9108 9.54905 42.8527 9.66837C42.7948 9.78744 42.7155 9.8745 42.6415 9.93292L41.4019 8.36342ZM40.931 9.33448C40.931 9.75874 41.1447 10.1567 41.5361 10.3799L42.5268 8.64253C42.6274 8.69991 42.7417 8.79693 42.8255 8.94419C42.9083 9.08985 42.931 9.23155 42.931 9.33448H40.931ZM41.552 10.3888C41.7986 10.5235 42.0912 10.5717 42.2776 10.5974L42.5504 8.61611C42.5164 8.61142 42.4886 8.60693 42.4663 8.60285C42.4439 8.59874 42.4295 8.59548 42.4218 8.59356C42.4136 8.59151 42.4171 8.59199 42.4291 8.59625C42.4354 8.5985 42.4456 8.60231 42.4587 8.60801C42.4717 8.61366 42.4896 8.62201 42.5109 8.63367L41.552 10.3888ZM42.274 10.5969C42.4029 10.6151 42.4895 10.6362 42.543 10.6535C42.5992 10.6717 42.595 10.6782 42.5615 10.6538L43.7394 9.03749C43.386 8.77995 42.9432 8.67162 42.5539 8.6166L42.274 10.5969ZM42.5696 10.6596C42.4943 10.6059 42.4384 10.5323 42.4075 10.4604C42.3803 10.3973 42.3847 10.3645 42.3847 10.3903H44.3847C44.3847 9.92663 44.2295 9.38719 43.7313 9.03166L42.5696 10.6596ZM42.3847 10.3903C42.3847 10.4093 42.3816 10.3818 42.4046 10.331C42.4297 10.2756 42.4684 10.2313 42.5037 10.2046L43.7111 11.799C44.1868 11.4388 44.3847 10.9157 44.3847 10.3903H42.3847ZM42.4967 10.21C42.5253 10.1878 42.5388 10.1881 42.5155 10.1944C42.49 10.2013 42.4327 10.2121 42.3327 10.2121V12.2121C42.7908 12.2121 43.2973 12.1182 43.7182 11.7936L42.4967 10.21Z" fill="white" mask="url(#path-26-inside-12_30072_395522)"/>
<mask id="path-28-inside-13_30072_395522" fill="white">
<path d="M43.892 11.1595V9.15301H43.562V8.66094H43.892V8.37427C43.892 8.08761 43.9702 7.87106 44.1265 7.72456C44.2828 7.57482 44.5028 7.5 44.7865 7.5C44.9203 7.5 45.04 7.5159 45.1453 7.54777V8.06851C45.0655 8.03984 44.981 8.0255 44.8918 8.0255C44.6845 8.0255 44.5808 8.13538 44.5808 8.35518V8.66094H45.126V9.15301H44.5808V11.1595H43.892Z"/>
</mask>
<path d="M43.892 11.1595V9.15301H43.562V8.66094H43.892V8.37427C43.892 8.08761 43.9702 7.87106 44.1265 7.72456C44.2828 7.57482 44.5028 7.5 44.7865 7.5C44.9203 7.5 45.04 7.5159 45.1453 7.54777V8.06851C45.0655 8.03984 44.981 8.0255 44.8918 8.0255C44.6845 8.0255 44.5808 8.13538 44.5808 8.35518V8.66094H45.126V9.15301H44.5808V11.1595H43.892Z" fill="white"/>
<path d="M43.892 11.1595H42.892V12.1595H43.892V11.1595ZM43.892 9.15301H44.892V8.15301H43.892V9.15301ZM43.562 9.15301H42.562V10.153H43.562V9.15301ZM43.562 8.66094V7.66094H42.562V8.66094H43.562ZM43.892 8.66094V9.66094H44.892V8.66094H43.892ZM44.1265 7.72456L44.8104 8.45422L44.8185 8.44652L44.1265 7.72456ZM45.1453 7.54777H46.1453V6.80563L45.435 6.59064L45.1453 7.54777ZM45.1453 8.06851L44.8072 9.00961L46.1453 9.4904V8.06851H45.1453ZM44.5808 8.66094H43.5808V9.66094H44.5808V8.66094ZM45.126 8.66094H46.126V7.66094H45.126V8.66094ZM45.126 9.15301V10.153H46.126V9.15301H45.126ZM44.5808 9.15301V8.15301H43.5808V9.15301H44.5808ZM44.5808 11.1595V12.1595H45.5808V11.1595H44.5808ZM44.892 11.1595V9.15301H42.892V11.1595H44.892ZM43.892 8.15301H43.562V10.153H43.892V8.15301ZM44.562 9.15301V8.66094H42.562V9.15301H44.562ZM43.562 9.66094H43.892V7.66094H43.562V9.66094ZM44.892 8.66094V8.37427H42.892V8.66094H44.892ZM44.892 8.37427C44.892 8.31953 44.8997 8.31289 44.8912 8.33644C44.8867 8.34894 44.8783 8.3679 44.864 8.39015C44.8494 8.41265 44.8313 8.43457 44.8104 8.45417L43.4427 6.99495C43.0233 7.388 42.892 7.9083 42.892 8.37427H44.892ZM44.8185 8.44652C44.8024 8.46191 44.7852 8.47485 44.7682 8.48495C44.7515 8.49494 44.7382 8.50032 44.7308 8.50283C44.717 8.50752 44.7308 8.5 44.7865 8.5V6.5C44.3279 6.5 43.8294 6.62425 43.4346 7.0026L44.8185 8.44652ZM44.7865 8.5C44.8429 8.5 44.8622 8.5069 44.8556 8.50489L45.435 6.59064C45.2178 6.52491 44.9977 6.5 44.7865 6.5V8.5ZM44.1453 7.54777V8.06851H46.1453V7.54777H44.1453ZM45.4834 7.12741C45.2896 7.05777 45.0902 7.0255 44.8918 7.0255V9.0255C44.8718 9.0255 44.8414 9.02191 44.8072 9.00961L45.4834 7.12741ZM44.8918 7.0255C44.6186 7.0255 44.234 7.10074 43.9313 7.42158C43.6387 7.73156 43.5808 8.10498 43.5808 8.35518H45.5808C45.5808 8.38557 45.5747 8.59416 45.3858 8.79425C45.1868 9.0052 44.9577 9.0255 44.8918 9.0255V7.0255ZM43.5808 8.35518V8.66094H45.5808V8.35518H43.5808ZM44.5808 9.66094H45.126V7.66094H44.5808V9.66094ZM44.126 8.66094V9.15301H46.126V8.66094H44.126ZM45.126 8.15301H44.5808V10.153H45.126V8.15301ZM43.5808 9.15301V11.1595H45.5808V9.15301H43.5808ZM44.5808 10.1595H43.892V12.1595H44.5808V10.1595Z" fill="white" mask="url(#path-28-inside-13_30072_395522)"/>
<mask id="path-30-inside-14_30072_395522" fill="white">
<path d="M46.5636 11.2121C46.1778 11.2121 45.8636 11.0989 45.6213 10.8728C45.3791 10.6435 45.2578 10.333 45.2578 9.94119V9.903C45.2578 9.51441 45.3791 9.2007 45.6213 8.9618C45.8668 8.72296 46.1745 8.60352 46.5443 8.60352C46.895 8.60352 47.1853 8.7102 47.4148 8.92361C47.6476 9.13697 47.764 9.45388 47.764 9.87432V10.0655H45.9608C45.9705 10.2724 46.0295 10.4333 46.1378 10.5479C46.2463 10.6626 46.3946 10.7199 46.5825 10.7199C46.8823 10.7199 47.056 10.6037 47.104 10.3712H47.7591C47.7178 10.6419 47.5933 10.8505 47.386 10.997C47.1788 11.1404 46.9048 11.2121 46.5636 11.2121ZM45.9705 9.64024H47.0895C47.0673 9.26756 46.8856 9.08125 46.5443 9.08125C46.3881 9.08125 46.259 9.13064 46.1571 9.22937C46.0581 9.32491 45.9961 9.46188 45.9705 9.64024Z"/>
</mask>
<path d="M46.5636 11.2121C46.1778 11.2121 45.8636 11.0989 45.6213 10.8728C45.3791 10.6435 45.2578 10.333 45.2578 9.94119V9.903C45.2578 9.51441 45.3791 9.2007 45.6213 8.9618C45.8668 8.72296 46.1745 8.60352 46.5443 8.60352C46.895 8.60352 47.1853 8.7102 47.4148 8.92361C47.6476 9.13697 47.764 9.45388 47.764 9.87432V10.0655H45.9608C45.9705 10.2724 46.0295 10.4333 46.1378 10.5479C46.2463 10.6626 46.3946 10.7199 46.5825 10.7199C46.8823 10.7199 47.056 10.6037 47.104 10.3712H47.7591C47.7178 10.6419 47.5933 10.8505 47.386 10.997C47.1788 11.1404 46.9048 11.2121 46.5636 11.2121ZM45.9705 9.64024H47.0895C47.0673 9.26756 46.8856 9.08125 46.5443 9.08125C46.3881 9.08125 46.259 9.13064 46.1571 9.22937C46.0581 9.32491 45.9961 9.46188 45.9705 9.64024Z" fill="white"/>
<path d="M45.6213 10.8728L44.9338 11.5991L44.939 11.6038L45.6213 10.8728ZM45.6213 8.9618L44.924 8.24502L44.9192 8.24978L45.6213 8.9618ZM47.4148 8.92361L46.7337 9.65592L46.7391 9.66082L47.4148 8.92361ZM47.764 10.0655V11.0655H48.764V10.0655H47.764ZM45.9608 10.0655V9.06545H44.9126L44.9619 10.1125L45.9608 10.0655ZM46.1378 10.5479L45.4107 11.2345L45.4114 11.2353L46.1378 10.5479ZM47.104 10.3712V9.37116H46.2893L46.1247 10.169L47.104 10.3712ZM47.7591 10.3712L48.7476 10.5218L48.923 9.37116H47.7591V10.3712ZM47.386 10.997L47.9549 11.8195L47.9632 11.8136L47.386 10.997ZM45.9705 9.64024L44.9806 9.49852L44.8172 10.6402H45.9705V9.64024ZM47.0895 9.64024V10.6402H48.1509L48.0877 9.58069L47.0895 9.64024ZM46.1571 9.22937L46.8514 9.94898L46.8526 9.94783L46.1571 9.22937ZM46.5636 10.2121C46.3866 10.2121 46.3306 10.1669 46.3037 10.1418L44.939 11.6038C45.3965 12.0309 45.9689 12.2121 46.5636 12.2121V10.2121ZM46.3088 10.1466C46.3008 10.139 46.2578 10.1101 46.2578 9.94119H44.2578C44.2578 10.5559 44.4573 11.148 44.9339 11.599L46.3088 10.1466ZM46.2578 9.94119V9.903H44.2578V9.94119H46.2578ZM46.2578 9.903C46.2578 9.74089 46.2992 9.69775 46.3235 9.67383L44.9192 8.24978C44.4589 8.70365 44.2578 9.28793 44.2578 9.903H46.2578ZM46.3186 9.67857C46.3617 9.63665 46.4122 9.60352 46.5443 9.60352V7.60352C45.9369 7.60352 45.3719 7.80928 44.924 8.24504L46.3186 9.67857ZM46.5443 9.60352C46.6751 9.60352 46.712 9.63561 46.7338 9.6559L48.0958 8.19133C47.6586 7.78478 47.115 7.60352 46.5443 7.60352V9.60352ZM46.7391 9.66082C46.7297 9.65222 46.731 9.64704 46.7381 9.66619C46.7471 9.69087 46.764 9.75406 46.764 9.87432H48.764C48.764 9.27074 48.5921 8.64616 48.0904 8.18641L46.7391 9.66082ZM46.764 9.87432V10.0655H48.764V9.87432H46.764ZM47.764 9.06545H45.9608V11.0655H47.764V9.06545ZM44.9619 10.1125C44.9793 10.482 45.0926 10.8976 45.4107 11.2345L46.8649 9.86138C46.9116 9.91087 46.9381 9.96127 46.9512 9.99691C46.9631 10.0295 46.9607 10.0408 46.9597 10.0184L44.9619 10.1125ZM45.4114 11.2353C45.7446 11.5873 46.1766 11.7199 46.5825 11.7199V9.71992C46.5899 9.71992 46.6312 9.72109 46.691 9.74422C46.7544 9.76876 46.8155 9.80918 46.8641 9.86063L45.4114 11.2353ZM46.5825 11.7199C46.8484 11.7199 47.1853 11.6702 47.4937 11.4639C47.829 11.2396 48.0141 10.9087 48.0834 10.5733L46.1247 10.169C46.1336 10.1259 46.1543 10.06 46.2006 9.98721C46.2482 9.91227 46.3112 9.84873 46.3817 9.80155C46.5163 9.7115 46.6164 9.71992 46.5825 9.71992V11.7199ZM47.104 11.3712H47.7591V9.37116H47.104V11.3712ZM46.7705 10.2205C46.7686 10.233 46.7668 10.2375 46.7674 10.2359C46.768 10.234 46.7705 10.2276 46.7759 10.2186C46.7813 10.2094 46.788 10.2006 46.7952 10.1929C46.8022 10.1853 46.8075 10.1813 46.8088 10.1804L47.9632 11.8136C48.4107 11.4973 48.6689 11.0383 48.7476 10.5218L46.7705 10.2205ZM46.8172 10.1746C46.8268 10.1679 46.7718 10.2121 46.5636 10.2121V12.2121C47.0378 12.2121 47.5308 12.1128 47.9549 11.8194L46.8172 10.1746ZM45.9705 10.6402H47.0895V8.64024H45.9705V10.6402ZM48.0877 9.58069C48.0684 9.25709 47.9711 8.84954 47.6524 8.52276C47.3199 8.18189 46.897 8.08125 46.5443 8.08125V10.0813C46.5329 10.0813 46.3714 10.0738 46.2207 9.91922C46.0837 9.77877 46.0884 9.65072 46.0913 9.69979L48.0877 9.58069ZM46.5443 8.08125C46.1567 8.08125 45.7694 8.21284 45.4615 8.51092L46.8526 9.94783C46.8093 9.98974 46.7528 10.0273 46.6876 10.0523C46.6242 10.0765 46.5725 10.0813 46.5443 10.0813V8.08125ZM45.4627 8.50976C45.1594 8.80241 45.0277 9.16983 44.9806 9.49852L46.9604 9.78197C46.9644 9.75393 46.9567 9.8474 46.8514 9.94898L45.4627 8.50976Z" fill="white" mask="url(#path-30-inside-14_30072_395522)"/>
<mask id="path-32-inside-15_30072_395522" fill="white">
<path d="M48.1704 11.1594V8.66075H48.8639V9.13849C49.0234 8.79773 49.2927 8.62569 49.6722 8.62256V9.26751C49.4044 9.26432 49.2019 9.31365 49.0647 9.41557C48.9309 9.51436 48.8639 9.67838 48.8639 9.9077V11.1594H48.1704Z"/>
</mask>
<path d="M48.1704 11.1594V8.66075H48.8639V9.13849C49.0234 8.79773 49.2927 8.62569 49.6722 8.62256V9.26751C49.4044 9.26432 49.2019 9.31365 49.0647 9.41557C48.9309 9.51436 48.8639 9.67838 48.8639 9.9077V11.1594H48.1704Z" fill="white"/>
<path d="M48.1704 11.1594H47.1704V12.1594H48.1704V11.1594ZM48.1704 8.66075V7.66075H47.1704V8.66075H48.1704ZM48.8639 8.66075H49.8639V7.66075H48.8639V8.66075ZM48.8639 9.13849H47.8639L49.7696 9.56239L48.8639 9.13849ZM49.6722 8.62256H50.6722V7.61426L49.6639 7.62259L49.6722 8.62256ZM49.6722 9.26751L49.6602 10.2674L50.6722 10.2795V9.26751H49.6722ZM49.0647 9.41557L49.6588 10.2199L49.6608 10.2184L49.0647 9.41557ZM48.8639 11.1594V12.1594H49.8639V11.1594H48.8639ZM49.1704 11.1594V8.66075H47.1704V11.1594H49.1704ZM48.1704 9.66075H48.8639V7.66075H48.1704V9.66075ZM47.8639 8.66075V9.13849H49.8639V8.66075H47.8639ZM49.7696 9.56239C49.7774 9.54576 49.7795 9.54621 49.7712 9.55608C49.7623 9.56678 49.7464 9.58227 49.7237 9.59678C49.701 9.61126 49.6809 9.61876 49.6688 9.62202C49.6578 9.62499 49.66 9.62269 49.6804 9.62252L49.6639 7.62259C49.3218 7.62542 48.968 7.7064 48.6474 7.91105C48.3264 8.11601 48.1038 8.40352 47.9582 8.71458L49.7696 9.56239ZM48.6722 8.62256V9.26751H50.6722V8.62256H48.6722ZM49.6841 8.26758C49.3136 8.26316 48.8561 8.3249 48.4685 8.61271L49.6608 10.2184C49.6014 10.2626 49.5571 10.2735 49.5563 10.2737C49.5556 10.2739 49.5633 10.272 49.5813 10.2702C49.5992 10.2684 49.6252 10.267 49.6602 10.2674L49.6841 8.26758ZM48.4705 8.61123C47.9934 8.96369 47.8639 9.48953 47.8639 9.9077H49.8639C49.8639 9.88639 49.8675 9.9231 49.84 9.99055C49.8088 10.067 49.7492 10.1531 49.6588 10.2199L48.4705 8.61123ZM47.8639 9.9077V11.1594H49.8639V9.9077H47.8639ZM48.8639 10.1594H48.1704V12.1594H48.8639V10.1594Z" fill="white" mask="url(#path-32-inside-15_30072_395522)"/>
</g>
<defs>
<clipPath id="clip0_30072_395522">
<rect width="52.64" height="14" fill="white" transform="translate(0.575684)"/>
</clipPath>
</defs>
</svg>
