<svg width="24" height="8" viewBox="0 0 24 8" fill="none" xmlns="http://www.w3.org/2000/svg">
<g clip-path="url(#clip0_1238_11338)">
<path fill-rule="evenodd" clip-rule="evenodd" d="M16.7395 1.96135C17.2668 1.96135 17.6942 1.53417 17.6942 1.0074C17.6942 0.480324 17.2668 0.0527344 16.7395 0.0527344C16.2128 0.0527344 15.7856 0.480324 15.7856 1.0074C15.7856 1.53417 16.2128 1.96135 16.7395 1.96135ZM9.428 2.47653C9.38492 2.58473 9.07487 3.46053 8.32502 4.36822V0.487093L6.32707 0.881965V7.91694H8.32502V5.74238C8.90369 6.61027 9.18943 7.91694 9.18943 7.91694H11.5826C11.3458 6.93284 10.3104 5.11827 10.3104 5.11827C11.2397 3.94002 11.6479 2.68453 11.7128 2.47653H9.428ZM14.6805 2.40309C12.891 2.46053 11.9826 3.2634 11.9826 4.8594V7.91694H13.9349V5.42361C13.9349 4.46791 14.06 4.05827 15.194 4.0192V2.43109C15.0032 2.39058 14.6805 2.40309 14.6805 2.40309ZM2.9763 3.2512C2.73159 3.23509 2.16502 3.19848 2.16502 2.68843C2.16502 2.07294 2.98071 2.07294 3.28666 2.07294C3.82461 2.07294 4.52133 2.23191 5.01887 2.38073C5.01887 2.38073 5.29641 2.47858 5.53261 2.57879L5.55456 2.58473V0.899093L5.52441 0.89017C4.93723 0.684734 4.25446 0.487093 2.98861 0.487093C0.806048 0.487093 0.0327148 1.75858 0.0327148 2.84781C0.0327148 3.47571 0.301843 4.95345 2.80143 5.12391C3.01333 5.13694 3.57569 5.16935 3.57569 5.69643C3.57569 6.13161 3.11528 6.38822 2.34092 6.38822C1.4923 6.38822 0.669125 6.17181 0.169125 5.96658V7.70268C0.917638 7.89889 1.76143 7.99694 2.75036 7.99694C4.88441 7.99694 5.8402 6.79397 5.8402 5.60166C5.8402 4.24976 4.77066 3.3714 2.9763 3.2512ZM15.7717 7.91694H17.7082V2.48268H15.7717V7.91694ZM21.3546 0.833555V7.91694H23.2914V0.487093L21.3546 0.833555ZM18.5285 0.833555L20.4635 0.487093V7.91694H18.5285V0.833555Z" fill="url(#paint0_linear_1238_11338)"/>
</g>
<defs>
<linearGradient id="paint0_linear_1238_11338" x1="6.32278" y1="0.0527344" x2="8.07047" y2="9.85147" gradientUnits="userSpaceOnUse">
<stop stop-color="white"/>
<stop offset="1" stop-color="white"/>
</linearGradient>
<clipPath id="clip0_1238_11338">
<rect width="23.2821" height="8" fill="white" transform="translate(0.0327148)"/>
</clipPath>
</defs>
</svg>
