<svg width="42" height="12" viewBox="0 0 42 12" fill="none" xmlns="http://www.w3.org/2000/svg">
<g clip-path="url(#clip0_1238_11342)">
<path fill-rule="evenodd" clip-rule="evenodd" d="M23.33 0.00471698C23.5425 0.00686754 23.6856 0.0580421 23.7408 0.0777773L23.7544 0.0825472C24.0928 0.188679 24.37 0.556604 24.3675 0.936321C24.3675 1.19575 24.2939 1.4316 24.2057 1.66745L23.8451 2.61557L23.4993 3.52123C23.4444 3.66436 23.3901 3.80691 23.3358 3.94946L23.3349 3.95165L23.3341 3.95394C23.2798 4.09646 23.2255 4.23898 23.1706 4.38208C23.0185 4.7783 22.8665 5.17689 22.7169 5.57311C22.6016 5.875 22.4888 6.17689 22.3759 6.47878L22.3654 6.50717C22.2293 6.87501 22.0938 7.241 21.8045 7.53302C21.542 7.79953 21.2379 8.00236 20.8822 8.13679C20.6223 8.23585 20.3525 8.25708 20.0778 8.25708L19.741 8.25737C19.4036 8.25781 19.0655 8.25826 18.7288 8.25472C18.6233 8.25472 18.5595 8.2901 18.5252 8.38208C18.4026 8.70519 18.2775 9.0283 18.1524 9.35142L18.0619 9.58721C17.9497 9.87961 17.8372 10.1728 17.7232 10.4646C17.6079 10.7665 17.4926 11.0684 17.3749 11.3679L17.3748 11.3681L17.3748 11.3682C17.3209 11.5025 17.2669 11.6369 17.2155 11.7759C17.1964 11.814 17.1826 11.8478 17.1663 11.8879C17.1552 11.915 17.143 11.945 17.1272 11.9811H15.4299L15.4552 11.9058C15.483 11.8226 15.5107 11.7396 15.5427 11.658C15.6003 11.5072 15.6585 11.357 15.7167 11.2069L15.7169 11.2063L15.7169 11.2061C15.7752 11.0559 15.8334 10.9056 15.891 10.7547C15.9387 10.6301 15.986 10.5054 16.0332 10.381L16.0332 10.381C16.0976 10.211 16.1619 10.0414 16.227 9.87264C16.2655 9.77357 16.3042 9.67449 16.3429 9.57541C16.4203 9.37732 16.4976 9.17923 16.5729 8.98113C16.6206 8.85647 16.6678 8.73181 16.715 8.60732C16.7795 8.43742 16.8438 8.26785 16.9089 8.09906C16.9677 7.94457 17.0272 7.79068 17.0867 7.63678C17.1462 7.48289 17.2057 7.32901 17.2645 7.17453L17.2648 7.17373C17.3751 6.8839 17.4854 6.59407 17.5981 6.30425L17.6953 6.05257C17.8149 5.74331 17.9341 5.43489 18.0518 5.125C18.107 4.98231 18.1622 4.83903 18.2174 4.69576C18.2726 4.55248 18.3278 4.4092 18.3829 4.26651C18.4406 4.11557 18.4982 3.96521 18.5559 3.81486C18.6135 3.66451 18.6711 3.51415 18.7288 3.36321C18.7852 3.21582 18.8416 3.06902 18.898 2.92222L18.8982 2.92168L18.8995 2.91836C18.9554 2.77281 19.0113 2.62726 19.0672 2.48113C19.1249 2.33019 19.1831 2.17983 19.2414 2.02948C19.2996 1.87912 19.3579 1.72877 19.4155 1.57783C19.5333 1.27359 19.651 0.96934 19.7687 0.662736C19.8521 0.443396 19.9331 0.221698 20.014 0C21.2354 0.00471698 22.1135 0.00471698 23.33 0.00471698ZM21.8879 1.38679V1.39151C21.8379 1.39151 21.7877 1.39278 21.7375 1.39405C21.6199 1.39702 21.5019 1.40001 21.385 1.38679C21.2501 1.37264 21.1839 1.41981 21.1422 1.5283C21.0637 1.73113 20.9877 1.9316 20.9117 2.13443C20.8528 2.28886 20.7946 2.44328 20.7364 2.5977C20.6781 2.75224 20.6198 2.90678 20.5609 3.06132C20.506 3.20331 20.4505 3.34587 20.395 3.48845L20.3942 3.49057L20.3934 3.49259C20.3378 3.63519 20.2823 3.77779 20.2274 3.91981L19.8668 4.86793C19.8232 4.9825 19.7799 5.09708 19.7365 5.21159L19.736 5.21279L19.7358 5.21349C19.633 5.48493 19.5304 5.75602 19.4253 6.02594C19.3444 6.23821 19.261 6.45283 19.1727 6.66274C19.1188 6.79245 19.1482 6.84198 19.3003 6.84198H20.3427C20.5021 6.84198 20.5438 6.8066 20.5977 6.65802C20.6713 6.45521 20.7471 6.2545 20.8228 6.05379L20.8234 6.05225C20.8611 5.95238 20.8988 5.8525 20.9362 5.75236C21.0114 5.55429 21.0888 5.35623 21.1662 5.15816L21.1662 5.15811C21.2049 5.05902 21.2436 4.95994 21.282 4.86085C21.4022 4.54953 21.5199 4.23585 21.6377 3.92217C21.6941 3.77359 21.7505 3.62441 21.8069 3.47524C21.8633 3.32606 21.9197 3.17689 21.9761 3.0283C22.0939 2.72406 22.2116 2.41981 22.3293 2.11321L22.3686 2.01353C22.4321 1.85268 22.4961 1.69049 22.555 1.5283C22.5918 1.42689 22.5476 1.37972 22.4397 1.38208C22.2533 1.38679 22.0694 1.38679 21.8879 1.38679ZM12.7069 11.9855H10.9655C10.9655 11.9171 10.9901 11.8558 11.017 11.7921L11.0773 11.6415L11.0773 11.6414L11.0773 11.6413L11.0774 11.6412C11.1755 11.396 11.2742 11.1495 11.3678 10.903C11.4455 10.7037 11.5212 10.5037 11.597 10.3034L11.597 10.3033L11.5971 10.3031L11.5971 10.3029L11.5972 10.3028C11.6648 10.1241 11.7325 9.94514 11.8019 9.76617C11.8649 9.60485 11.9294 9.44398 11.9938 9.28317L11.9938 9.28309L11.9939 9.28301L11.9939 9.28293C12.0773 9.0747 12.1607 8.86656 12.2409 8.65768L12.3255 8.43449C12.4534 8.09635 12.5809 7.75907 12.7217 7.42655C12.7707 7.31098 12.7462 7.27796 12.6162 7.28032C12.187 7.28975 11.7578 7.29211 11.331 7.27796C11.201 7.27324 11.147 7.30862 11.1053 7.4289C11.0612 7.55626 11.017 7.68126 10.968 7.80626C10.9091 7.95531 10.8495 8.10436 10.7898 8.25342C10.7003 8.47701 10.6109 8.7006 10.524 8.92419C10.424 9.17996 10.3269 9.4372 10.23 9.69427L10.23 9.69435L10.2299 9.69443L10.2299 9.69451C10.1534 9.89723 10.077 10.0998 9.99917 10.3015C9.92879 10.4814 9.85689 10.6609 9.78497 10.8404L9.78495 10.8405C9.67391 11.1177 9.56281 11.3951 9.45712 11.6742C9.44604 11.7028 9.433 11.7311 9.41994 11.7594C9.38675 11.8314 9.35341 11.9036 9.35165 11.9832H7.63477C7.66765 11.814 7.73471 11.6565 7.80194 11.4985C7.835 11.4209 7.8681 11.3431 7.8972 11.2638C7.96491 11.0791 8.03868 10.8963 8.11268 10.713L8.11269 10.713L8.1127 10.7129L8.11274 10.7128C8.15399 10.6106 8.1953 10.5083 8.23568 10.4053L8.58151 9.51381C8.63792 9.36876 8.69494 9.22431 8.75197 9.07985C8.809 8.93539 8.86602 8.79093 8.92243 8.64589C8.96004 8.54919 8.99737 8.45249 9.03471 8.3558L9.03481 8.35554C9.10945 8.16223 9.18409 7.96892 9.26091 7.7756C9.33327 7.59045 9.40685 7.40588 9.48044 7.22131C9.55401 7.03678 9.62759 6.85224 9.69994 6.66711C9.77966 6.46268 9.85795 6.25755 9.93635 6.0521L9.93647 6.05179C10.0028 5.87812 10.0691 5.70422 10.1365 5.53032C10.226 5.30163 10.3173 5.07295 10.4087 4.84427L10.4087 4.84419L10.4087 4.84412L10.4087 4.84405L10.4089 4.8437C10.5002 4.61502 10.5915 4.38635 10.681 4.15768C10.7599 3.95603 10.8374 3.75347 10.9149 3.5508L10.915 3.55064L10.9151 3.55044C11.0134 3.29336 11.1118 3.0361 11.2133 2.78032C11.3326 2.47529 11.4542 2.17025 11.5757 1.86522C11.6365 1.71271 11.6973 1.56019 11.7578 1.40768C12.0251 0.735508 12.5279 0.303904 13.2318 0.0798472C13.2382 0.0778154 13.2464 0.0747625 13.2565 0.0710237C13.3169 0.0487228 13.4433 0.00201697 13.6218 0.00201697H15.633C15.9004 -0.000341518 16.1947 0.0633377 16.2339 0.0774887C16.6411 0.228432 16.8373 0.551545 16.8594 0.940696C16.8716 1.16947 16.7931 1.37938 16.7073 1.58928C16.6368 1.76812 16.5691 1.94871 16.5013 2.12946L16.5012 2.12953L16.5012 2.12965L16.5011 2.1298L16.501 2.13017L16.5009 2.1305L16.5008 2.13065C16.4579 2.24509 16.415 2.35958 16.3713 2.47372C16.2953 2.67357 16.2173 2.87247 16.1393 3.07163L16.1392 3.07178L16.1391 3.07204L16.1389 3.07243C16.0937 3.18794 16.0484 3.30355 16.0034 3.41947C15.893 3.70482 15.7827 3.99253 15.6723 4.28023L15.6723 4.28032C15.5817 4.5175 15.4896 4.75323 15.3972 4.98979L15.3215 5.18362C15.2627 5.33561 15.2033 5.48759 15.1439 5.63957L15.1438 5.63971L15.1438 5.63985L15.1437 5.63999L15.1436 5.64013L15.1436 5.64027L15.1435 5.64041C15.0841 5.79239 15.0247 5.94437 14.9659 6.09636L14.916 6.22689L14.916 6.22691L14.916 6.22693C14.8541 6.3893 14.7918 6.55253 14.728 6.71428L14.7278 6.71462C14.6175 7.0046 14.5072 7.29458 14.3944 7.58457C14.3368 7.73312 14.2785 7.88168 14.2203 8.03023C14.162 8.17885 14.1038 8.32746 14.0461 8.47607C13.9984 8.60075 13.9511 8.72543 13.9039 8.84993C13.8395 9.01982 13.7752 9.18938 13.7101 9.35815L13.2686 10.4902C13.2311 10.5875 13.193 10.6847 13.155 10.7821L13.1548 10.7825L13.1547 10.7829L13.1545 10.7833C13.0709 10.9971 12.9872 11.2113 12.9081 11.4265C12.8879 11.4783 12.8662 11.529 12.8447 11.5793C12.7878 11.7125 12.7319 11.8434 12.7069 11.9855ZM11.7381 5.89824C11.7473 5.90145 11.7553 5.90492 11.7627 5.90811C11.777 5.91432 11.7889 5.91947 11.8019 5.91947C12.2679 5.92183 12.7339 5.92183 13.1999 5.92183C13.2637 5.92183 13.3079 5.89117 13.3299 5.83221C13.4624 5.48787 13.5973 5.14117 13.7322 4.79683L14.0706 3.92655C14.1884 3.6223 14.3061 3.31805 14.4238 3.01145C14.5023 2.80626 14.5833 2.59872 14.6642 2.39353C14.7108 2.27364 14.7583 2.15417 14.8057 2.03476C14.8731 1.86521 14.9404 1.69581 15.0051 1.5256C15.0566 1.39117 15.0223 1.35343 14.8751 1.35343L14.5659 1.35373H14.5659C14.2561 1.35417 13.9456 1.35461 13.6365 1.35107C13.5261 1.34872 13.4648 1.38881 13.4256 1.48787C13.2367 1.98551 13.043 2.48079 12.8492 2.97607C12.7585 3.20721 12.6671 3.43775 12.5757 3.66829C12.4844 3.89883 12.393 4.12938 12.3023 4.36051C12.133 4.78975 11.9662 5.219 11.8019 5.6506C11.7975 5.66108 11.7929 5.67156 11.7882 5.68209C11.7594 5.74744 11.7297 5.81497 11.7381 5.89824ZM4.73616 0.00585938H8.13805C8.30483 0.00585938 8.51577 0.0648216 8.55746 0.0789726C9.02347 0.236991 9.23441 0.689821 9.16083 1.1285C9.11014 1.43196 8.99186 1.71236 8.87359 1.99276C8.81445 2.13296 8.75531 2.27316 8.70462 2.41624C8.6211 2.65273 8.52586 2.88453 8.43061 3.11638L8.43057 3.11648C8.3748 3.25223 8.31903 3.388 8.26559 3.52473C8.19201 3.7134 8.11966 3.90266 8.04731 4.09192C7.97495 4.2812 7.9026 4.47047 7.82901 4.65916C7.67449 5.05539 7.51752 5.45161 7.35809 5.84312C7.26734 6.06246 7.15697 6.27001 6.99509 6.45397C6.77435 6.70869 6.50455 6.90208 6.21023 7.06718C6.15137 7.1002 6.11457 7.14265 6.10476 7.2134C6.06552 7.48227 6.01892 7.74878 5.97232 8.01529C5.91468 8.33015 5.85643 8.64501 5.79818 8.95987C5.73993 9.27472 5.68167 9.58958 5.62404 9.90444C5.52102 10.4728 5.42046 11.0412 5.32235 11.6096C5.30685 11.6958 5.29739 11.7842 5.28804 11.8718C5.28408 11.9089 5.28013 11.9458 5.27575 11.9823H3.50981C3.51177 11.9634 3.51295 11.9445 3.51413 11.9257C3.51589 11.8974 3.51766 11.8691 3.52207 11.8408C3.54562 11.7191 3.56995 11.5974 3.59428 11.4757C3.63078 11.2931 3.66727 11.1106 3.70112 10.928C3.73873 10.7299 3.77525 10.5315 3.81176 10.3332L3.81177 10.3331C3.8848 9.9364 3.95784 9.53965 4.03959 9.14501C4.05915 9.04993 4.07727 8.95438 4.09543 8.85858L4.09544 8.85853C4.11827 8.7381 4.14118 8.61726 4.16713 8.49642C4.22688 8.21637 4.28235 7.93494 4.3379 7.65319L4.3379 7.65318L4.3379 7.65317L4.33792 7.65306L4.39033 7.38793C4.40505 7.31246 4.37316 7.27472 4.29222 7.27472C4.18553 7.2759 4.07945 7.27767 3.97337 7.27944C3.86729 7.28121 3.76121 7.28298 3.65452 7.28416C3.58584 7.28416 3.55396 7.31718 3.53188 7.3785C3.50631 7.45084 3.47611 7.5223 3.44583 7.59395C3.42675 7.6391 3.40764 7.68433 3.38963 7.72991C3.33077 7.87849 3.27252 8.02707 3.21427 8.17565L3.2142 8.17582C3.15597 8.32436 3.09774 8.47289 3.03889 8.62142L2.70042 9.47755L2.60657 9.71261L2.60652 9.71274L2.60637 9.7131L2.60623 9.71346C2.52496 9.91687 2.44404 10.1194 2.3644 10.3219C2.32358 10.4266 2.28377 10.5315 2.24398 10.6365L2.24396 10.6365L2.24392 10.6366C2.17612 10.8154 2.10836 10.9941 2.03574 11.1709L1.98115 11.3033L1.98114 11.3033C1.88814 11.5282 1.7948 11.754 1.71689 11.9846H0V11.8431C0.0343378 11.836 0.0613174 11.8195 0.0711282 11.7842C0.106707 11.6622 0.155943 11.5458 0.205302 11.4292C0.234205 11.3609 0.26315 11.2925 0.289418 11.2228C0.362999 11.0271 0.439033 10.8337 0.517519 10.6403C0.560821 10.5327 0.604454 10.4255 0.648053 10.3183L0.648078 10.3183L0.648081 10.3182L0.648084 10.3182C0.723013 10.1341 0.79784 9.95015 0.870708 9.76529C0.985969 9.47759 1.09878 9.18754 1.21159 8.89748L1.2116 8.89746L1.21163 8.89737C1.2657 8.76132 1.3201 8.6256 1.37446 8.48996C1.46807 8.25641 1.56158 8.02312 1.65312 7.78888C1.70953 7.64619 1.76533 7.50292 1.82112 7.35964L1.82115 7.35958C1.87694 7.21632 1.93273 7.07306 1.98914 6.93039L1.98917 6.9303L1.98929 6.93001L1.98931 6.92995L1.98933 6.9299C2.14134 6.55034 2.29334 6.17079 2.44534 5.78888C2.50052 5.64973 2.5551 5.51057 2.60967 5.37142C2.66424 5.23227 2.71882 5.09312 2.774 4.95397C2.85127 4.76056 2.92853 4.56656 3.0058 4.37256C3.08305 4.17859 3.16031 3.98462 3.23756 3.79124C3.30869 3.61199 3.3792 3.43216 3.44972 3.25232C3.52023 3.07249 3.59075 2.89265 3.66188 2.71341L4.11808 1.57426C4.15249 1.48876 4.18733 1.40347 4.22215 1.31821L4.22224 1.318C4.30652 1.11166 4.39073 0.905457 4.46881 0.696897C4.49488 0.631873 4.52256 0.567043 4.55035 0.501961L4.55035 0.501956L4.55035 0.501951L4.55035 0.501945C4.61932 0.340416 4.68896 0.177332 4.73616 0.00585938ZM5.02295 5.96971H5.02301C5.16045 5.96875 5.29844 5.96778 5.43518 5.97284C5.54555 5.9752 5.61668 5.93274 5.65347 5.8384C5.74227 5.6138 5.82955 5.38773 5.9165 5.1625L5.98703 4.97991C6.04221 4.83844 6.09738 4.69756 6.15255 4.55667L6.15268 4.55633C6.20784 4.41549 6.26299 4.27465 6.31815 4.13322L6.3931 3.94483L6.39318 3.94463C6.48335 3.71812 6.57319 3.49243 6.66153 3.26529L6.66159 3.26512C6.77439 2.97509 6.8872 2.68505 7.00245 2.39501C7.03574 2.3122 7.06925 2.22938 7.10278 2.14651C7.18288 1.94852 7.26312 1.75018 7.34092 1.55067C7.38753 1.4351 7.34583 1.39029 7.22074 1.39029C6.8234 1.39265 6.42852 1.39265 6.03118 1.38793C5.9527 1.38793 5.911 1.41388 5.87421 1.4752C5.83793 1.53863 5.81385 1.60633 5.79003 1.67327C5.77843 1.70589 5.76689 1.73833 5.75403 1.77001L5.67837 1.95707L5.67832 1.9572C5.58838 2.17946 5.49877 2.4009 5.41065 2.62378C5.35301 2.76883 5.29721 2.91388 5.24142 3.05892C5.18562 3.20397 5.12982 3.34902 5.07218 3.49407C5.00972 3.65184 4.94544 3.80917 4.88111 3.96663C4.79638 4.17402 4.71155 4.38163 4.63069 4.59076C4.59829 4.67403 4.56609 4.75739 4.53388 4.84077L4.53388 4.84078L4.53387 4.8408L4.53387 4.84081C4.41009 5.16129 4.2862 5.48203 4.14996 5.79831C4.09846 5.91859 4.12789 5.96812 4.26524 5.96812C4.46636 5.97048 4.66258 5.97048 4.85879 5.97048C4.91332 5.97048 4.96804 5.9701 5.02284 5.96971H5.0229H5.02295ZM35.8686 0.0725435C35.8157 0.0533396 35.6797 0.00390625 35.3832 0.00390625H32.0132C31.9974 0.115134 31.9549 0.218487 31.9123 0.322233L31.9123 0.322244C31.889 0.379082 31.8656 0.436039 31.8465 0.494472C31.7981 0.64178 31.7412 0.786029 31.6842 0.930571L31.6842 0.930624C31.6545 1.00591 31.6248 1.08128 31.5963 1.15721C31.5498 1.28046 31.5029 1.40406 31.4559 1.52788L31.4557 1.52826L31.4554 1.52908L31.4551 1.52987L31.4551 1.52995C31.381 1.72531 31.3067 1.92121 31.2333 2.11711C31.1597 2.30899 31.0883 2.50086 31.0168 2.69273C30.9812 2.7886 30.9455 2.88446 30.9095 2.98032C30.8732 3.07594 30.8367 3.17156 30.8002 3.26724L30.7998 3.26827L30.7997 3.26859L30.7996 3.26893C30.7129 3.49601 30.626 3.72343 30.5416 3.95202C30.484 4.10532 30.4282 4.25862 30.3724 4.41192C30.3166 4.56523 30.2608 4.71853 30.2031 4.87183C30.1309 5.06369 30.0581 5.25438 29.9853 5.44507L29.9849 5.44599L29.9849 5.44609C29.9119 5.63714 29.8389 5.82819 29.7666 6.02041C29.7089 6.17375 29.6525 6.32708 29.5961 6.48041C29.5397 6.63368 29.4833 6.78695 29.4256 6.94023C29.3682 7.09293 29.3102 7.24505 29.2522 7.39717L29.2519 7.39791L29.2515 7.39895L29.2511 7.39999L29.2508 7.40073C29.1928 7.55285 29.1348 7.70497 29.0774 7.85768C28.9648 8.16118 28.8523 8.46234 28.7397 8.76349L28.7397 8.76362L28.7396 8.76375L28.7389 8.7657C28.6882 8.89935 28.6372 9.03301 28.5863 9.16666C28.4843 9.43395 28.3824 9.70124 28.2827 9.96853C28.2263 10.1218 28.1705 10.2752 28.1147 10.4285C28.0589 10.5818 28.0031 10.735 27.9467 10.8883C27.8387 11.1761 27.7308 11.4638 27.618 11.7492L27.6074 11.777L27.6074 11.777C27.5813 11.8451 27.5555 11.9123 27.5469 11.985H30.8776C31.2995 11.985 31.5301 11.9237 31.5742 11.9119C32.153 11.7468 32.5847 11.4025 32.8938 10.9072C32.9813 10.7669 33.036 10.6168 33.0916 10.464L33.1071 10.4214C33.1979 10.1669 33.293 9.91381 33.388 9.66107L33.388 9.66087L33.4726 9.43551L33.5236 9.3004C33.5875 9.13152 33.651 8.9635 33.713 8.794C33.7706 8.63833 33.8276 8.48325 33.8847 8.32817C33.9417 8.17311 33.9987 8.01805 34.0563 7.86239C34.1373 7.65013 34.2158 7.43551 34.2942 7.22089C34.3359 7.10654 34.3788 6.9922 34.4217 6.87786C34.4647 6.76343 34.5076 6.649 34.5493 6.53456C34.6046 6.38468 34.6592 6.2348 34.7138 6.08492C34.7683 5.93528 34.8228 5.78563 34.878 5.63598C34.9511 5.44026 35.0248 5.24454 35.0986 5.04883L35.1 5.04518L35.1013 5.04153C35.1751 4.84581 35.2488 4.6501 35.3219 4.45438C35.3911 4.27039 35.4576 4.08641 35.5242 3.90243C35.5685 3.77981 35.6128 3.65719 35.6579 3.53457C35.7806 3.20438 35.9032 2.87655 36.0259 2.54872C36.0612 2.45405 36.0971 2.35938 36.133 2.26463L36.1332 2.26403L36.1333 2.26384L36.1334 2.26367C36.2118 2.05662 36.2904 1.84921 36.3643 1.6407L36.3782 1.60324C36.4426 1.42932 36.5074 1.25431 36.5188 1.06287C36.5458 0.631265 36.3153 0.230321 35.8811 0.0770194L35.8686 0.0725435ZM30.727 10.6352C30.6709 10.6356 30.6148 10.636 30.5588 10.636C30.4897 10.636 30.4209 10.6362 30.3526 10.6365H30.3525H30.3524H30.3523H30.3523C30.2169 10.637 30.0833 10.6375 29.953 10.636C29.8156 10.6336 29.7862 10.6006 29.8303 10.4756C29.907 10.2546 29.9895 10.0347 30.0722 9.81431L30.0722 9.8142C30.1086 9.71719 30.1451 9.62009 30.1811 9.52277C30.262 9.30343 30.343 9.08645 30.4239 8.86947C30.5416 8.55828 30.6593 8.24472 30.7769 7.93117L30.7771 7.93079C30.8208 7.81607 30.8631 7.70066 30.9056 7.58494L30.9056 7.58492L30.9056 7.58486C30.9417 7.48649 30.9778 7.38788 31.015 7.28928C31.0733 7.13397 31.1316 6.97923 31.1899 6.82451L31.19 6.82427L31.1916 6.81994L31.1917 6.81956C31.2505 6.66344 31.3094 6.50731 31.3682 6.3506C31.4761 6.05815 31.584 5.7657 31.6944 5.4756C31.7717 5.26916 31.8496 5.06271 31.9275 4.85626L31.9276 4.85608L31.9276 4.8559C32.0054 4.64973 32.0832 4.44356 32.1604 4.2374C32.2078 4.10836 32.2544 3.97892 32.301 3.84941L32.3012 3.84886L32.3014 3.84844C32.368 3.66345 32.4346 3.47832 32.5038 3.294C32.5871 3.06843 32.673 2.84443 32.7589 2.62019L32.7589 2.62016L32.7593 2.61901C32.8224 2.45443 32.8855 2.28973 32.9477 2.12419L32.9645 2.07988C33.0373 1.88739 33.1096 1.69651 33.1734 1.50155C33.2052 1.40013 33.269 1.35296 33.3769 1.35296C33.5136 1.35296 33.6499 1.3527 33.7862 1.35244H33.7862C34.0584 1.35191 34.3303 1.35139 34.6033 1.35296C34.7186 1.35296 34.7554 1.40721 34.7137 1.5157C34.6487 1.68693 34.5833 1.85786 34.5181 2.0287L34.5172 2.03081L34.5164 2.03309C34.4024 2.33139 34.2885 2.62944 34.1765 2.92843C34.1029 3.12773 34.03 3.32761 33.957 3.52749C33.884 3.72737 33.8111 3.92725 33.7375 4.12655C33.6642 4.32279 33.5896 4.51904 33.5151 4.71529L33.5144 4.71712C33.4395 4.91413 33.3647 5.11114 33.2911 5.30815C33.2336 5.46229 33.1773 5.61761 33.121 5.77293L33.1206 5.77396C33.0642 5.92962 33.0078 6.08527 32.9502 6.23975C32.8839 6.42094 32.815 6.60213 32.7461 6.78332C32.7002 6.90402 32.6544 7.02472 32.6092 7.14541C32.5324 7.34981 32.4577 7.55421 32.3831 7.75861C32.3457 7.86082 32.3084 7.96302 32.2708 8.06522C32.2275 8.18168 32.1846 8.29778 32.1418 8.41366C32.0754 8.59346 32.0092 8.77274 31.9421 8.95202C31.8844 9.10548 31.8267 9.25836 31.769 9.41123C31.7114 9.56378 31.6539 9.71633 31.5963 9.86947C31.5583 9.9732 31.5209 10.0769 31.4835 10.1807C31.4461 10.2845 31.4087 10.3883 31.3706 10.4921C31.3338 10.5912 31.2652 10.6407 31.1474 10.6383C31.0073 10.6333 30.8671 10.6342 30.727 10.6352ZM29.0942 0.133438C29.1098 0.090324 29.1253 0.0472684 29.1409 0.00431162C28.5694 0.00431162 27.9979 0.00431162 27.4264 0.00195312C27.411 0.115951 27.3678 0.220689 27.3248 0.325087C27.3064 0.369722 27.2881 0.414294 27.2719 0.4595C27.164 0.754311 27.0536 1.04912 26.9433 1.34393C26.8844 1.49841 26.8249 1.6529 26.7654 1.80738C26.706 1.96186 26.6465 2.11634 26.5876 2.27082C26.5124 2.46739 26.4393 2.66396 26.3663 2.86052C26.3298 2.95877 26.2933 3.05701 26.2565 3.15525C26.172 3.38406 26.0851 3.61171 25.9983 3.839C25.9617 3.93503 25.925 4.03099 25.8886 4.12695C25.8465 4.23819 25.8048 4.34907 25.7632 4.45974C25.6981 4.63297 25.6331 4.80567 25.5673 4.97837C25.5094 5.12984 25.4512 5.28166 25.3928 5.4337C25.3004 5.67464 25.2077 5.91613 25.116 6.15761C25.0584 6.30856 25.0013 6.4595 24.9443 6.61044C24.8873 6.76139 24.8303 6.91233 24.7726 7.06327C24.7313 7.17133 24.6896 7.27907 24.6479 7.38672C24.5759 7.57278 24.5041 7.75859 24.4341 7.94535C24.3581 8.14581 24.2827 8.34687 24.2073 8.54792C24.1319 8.74899 24.0564 8.95006 23.9804 9.15054C23.9092 9.33811 23.8375 9.52568 23.7657 9.71325C23.694 9.90068 23.6223 10.0881 23.5512 10.2755C23.5051 10.3986 23.4583 10.5214 23.4115 10.6442C23.304 10.9263 23.1965 11.2083 23.0974 11.4925C23.0797 11.5437 23.0578 11.5937 23.0359 11.6438C22.9883 11.7528 22.9406 11.8618 22.9355 11.9831H24.6524C24.6475 11.943 24.6549 11.9053 24.6696 11.8675C24.6885 11.8187 24.7073 11.7699 24.7261 11.7213C24.7955 11.542 24.8645 11.3635 24.932 11.1836C24.9612 11.1053 24.9904 11.027 25.0196 10.9486C25.1303 10.6512 25.2413 10.353 25.3539 10.0562C25.4152 9.89464 25.4765 9.73249 25.5379 9.57035C25.5992 9.4082 25.6605 9.24606 25.7218 9.0845C25.7795 8.9335 25.8365 8.78249 25.8936 8.63149C25.9506 8.48061 26.0076 8.32972 26.0652 8.17884C26.1805 7.88167 26.2933 7.5845 26.4037 7.28497C26.4492 7.16262 26.4938 7.03942 26.5385 6.9161C26.5998 6.74703 26.6611 6.57771 26.725 6.40997C26.7708 6.2903 26.8169 6.17064 26.863 6.05091C26.9722 5.76713 27.0816 5.483 27.1885 5.19771C27.2392 5.06339 27.2889 4.92907 27.3384 4.79499C27.3968 4.63712 27.4551 4.47957 27.5147 4.32271C27.5407 4.25478 27.5667 4.18695 27.5926 4.11919C27.6892 3.86698 27.7855 3.61562 27.8802 3.3628C27.9881 3.07742 28.096 2.78969 28.2039 2.50195C28.2526 2.37345 28.3018 2.24494 28.351 2.11626C28.4182 1.94028 28.4856 1.76396 28.5522 1.58686C28.6724 1.27082 28.7926 0.952425 28.9103 0.636387C28.9727 0.469438 29.0336 0.300997 29.0942 0.133438Z" fill="white"/>
<path d="M34.168 11.9857C34.1704 11.8796 34.2244 11.7899 34.2587 11.6956C34.4476 11.198 34.6438 10.705 34.8376 10.2098C35.0338 9.7074 35.23 9.20504 35.4262 8.70268C35.6249 8.19796 35.8211 7.69089 36.0222 7.18617C36.2356 6.64372 36.4539 6.10363 36.6648 5.56117C36.7776 5.2758 36.8806 4.98806 36.9886 4.70032C36.9959 4.67674 37.0057 4.65551 37.0352 4.64844C37.1014 4.66966 37.0867 4.72863 37.0867 4.7758C37.0891 4.91023 37.0842 5.04231 37.0842 5.17674C37.0842 7.44796 37.0842 9.71683 37.0842 11.9881C36.1154 11.9857 35.1417 11.9857 34.168 11.9857Z" fill="white"/>
<path fill-rule="evenodd" clip-rule="evenodd" d="M41.7803 1.03693C41.7754 1.24447 41.7853 1.25155 41.9937 1.25391V1.25354C41.9937 0.838569 41.9937 0.421237 41.9962 0.00390625H41.7754C41.7763 0.0406705 41.7768 0.0771753 41.7773 0.113593C41.7784 0.186979 41.7795 0.26001 41.7828 0.334095C41.7877 0.508623 41.773 0.522774 41.5915 0.522774H38.8199H38.8199C38.7782 0.522774 38.7365 0.522774 38.6973 0.52985C38.6433 0.539284 38.6115 0.574661 38.6115 0.628906C38.6115 0.678435 38.6433 0.713812 38.6899 0.723246C38.7365 0.73268 38.7856 0.735038 38.8347 0.735038H41.459C41.65 0.735038 41.7311 0.727708 41.764 0.764031C41.7958 0.799081 41.7828 0.874777 41.7803 1.03693ZM41.9325 2.41409C41.9525 2.37371 41.9891 2.30005 41.9931 2.1982V2.19804C41.9931 1.92458 41.9931 1.81371 41.9956 1.52839C41.9482 1.52682 41.8998 1.52734 41.851 1.52787H41.851L41.851 1.52787C41.8265 1.52813 41.8019 1.52839 41.7773 1.52839H38.7874C38.7016 1.52839 38.6182 1.5449 38.6182 1.6416C38.6182 1.74066 38.7016 1.75717 38.785 1.75717C39.1872 1.75717 39.5919 1.75717 39.9966 1.75009C40.0824 1.74773 40.1217 1.78075 40.1266 1.85386C40.1303 1.91039 40.1298 1.96559 40.1294 2.02144V2.02145V2.02145V2.02145V2.02145V2.02146V2.02146L40.1294 2.0215C40.1292 2.0402 40.1291 2.05899 40.1291 2.07792C40.1266 2.37745 40.004 2.49537 39.6876 2.49537C39.5877 2.49537 39.4882 2.49511 39.3887 2.49485H39.3886C39.19 2.49432 38.9917 2.4938 38.7923 2.49537L38.783 2.49536C38.7039 2.49518 38.6109 2.49498 38.6133 2.60386C38.6133 2.70764 38.7065 2.70764 38.785 2.70764L39.0241 2.70793C39.2632 2.70837 39.5024 2.70882 39.7415 2.70528C39.9059 2.70292 40.0579 2.66754 40.1658 2.53311C40.1904 2.50245 40.2223 2.47415 40.2836 2.48122C40.3841 2.63217 40.5485 2.6982 40.7349 2.70292C40.9777 2.71235 41.2181 2.71471 41.4584 2.70292C41.6546 2.69349 41.8386 2.63924 41.922 2.43641C41.9242 2.43073 41.9279 2.42327 41.9325 2.41409ZM41.4241 2.50009H41.0316C40.9967 2.4979 40.957 2.49888 40.914 2.49994C40.8182 2.5023 40.706 2.50507 40.5926 2.47415C40.4528 2.43877 40.3792 2.34679 40.3473 2.22179C40.3212 2.11703 40.326 2.00855 40.3309 1.89965L40.3326 1.85858C40.3351 1.78547 40.3743 1.75245 40.4602 1.75481C40.7741 1.76047 41.0881 1.76009 41.402 1.75971L41.6375 1.75952C41.7601 1.75952 41.7871 1.78311 41.7846 1.90339L41.7773 2.17462C41.7675 2.37037 41.6644 2.47651 41.4609 2.49773C41.4486 2.50009 41.4363 2.50009 41.4241 2.50009ZM41.7022 6.08918C41.8003 6.08918 41.8984 6.08446 41.9941 6.0656V6.06555C41.9941 6.01132 41.9941 5.95709 41.9917 5.9005C41.5225 5.86602 41.0533 5.87793 40.5841 5.88983C40.2832 5.89747 39.9822 5.90511 39.6812 5.9005C39.6127 5.89897 39.5441 5.89943 39.4682 5.89994H39.4682H39.4682H39.4682H39.4682H39.4681H39.4681L39.468 5.89994C39.4271 5.90021 39.3841 5.9005 39.3378 5.9005C39.409 5.83682 39.4703 5.8038 39.5365 5.78258C39.7229 5.72639 39.9097 5.671 40.0965 5.61558L40.0966 5.61557L40.0966 5.61555L40.0967 5.61554L40.0967 5.61552L40.0968 5.61551L40.0969 5.61549L40.097 5.61544C40.3649 5.53599 40.633 5.4565 40.9002 5.37456C41.1422 5.30066 41.3842 5.22256 41.6262 5.14447C41.7472 5.10542 41.8682 5.06638 41.9892 5.02786V4.83918C41.9663 4.83724 41.9432 4.83493 41.9199 4.83262L41.9199 4.83262L41.9199 4.83262C41.8586 4.82651 41.7964 4.82031 41.7341 4.82031H38.8056C38.7663 4.82031 38.7247 4.82267 38.6854 4.83211C38.6388 4.8439 38.6094 4.87692 38.6094 4.92644C38.6094 4.97833 38.6437 5.00663 38.6903 5.01607C38.7394 5.0255 38.7884 5.0255 38.8375 5.0255C39.5806 5.03022 40.3238 5.02314 41.067 5.00899C41.0769 5.00864 41.0869 5.00802 41.0969 5.0074L41.097 5.0074L41.097 5.0074L41.097 5.0074L41.097 5.0074L41.0971 5.0074L41.0971 5.00739C41.1542 5.00387 41.2124 5.00028 41.2583 5.04437C41.246 5.08364 41.2185 5.08858 41.1926 5.09322L41.1926 5.09322L41.1926 5.09322L41.1926 5.09323C41.1874 5.09416 41.1823 5.09508 41.1774 5.09626L41.0823 5.12077L41.0822 5.12077C40.9686 5.1499 40.8544 5.17916 40.7432 5.21418C40.4182 5.3156 40.0926 5.41819 39.767 5.52079L39.767 5.5208L39.767 5.52081L39.7669 5.52082L39.7669 5.52083L39.7669 5.52084L39.7668 5.52085C39.4413 5.62343 39.1158 5.726 38.7909 5.82739C38.7784 5.83139 38.7654 5.83501 38.7524 5.83864C38.6734 5.86071 38.5932 5.88312 38.6143 5.99248C38.6354 6.0938 38.7198 6.09066 38.7976 6.08776C38.8104 6.08729 38.8229 6.08682 38.835 6.08682C39.7916 6.08918 40.7457 6.08918 41.7022 6.08918ZM41.9931 11.4892C41.9891 11.5911 41.9526 11.6647 41.9325 11.7051C41.928 11.7143 41.9243 11.7218 41.922 11.7274C41.8386 11.9303 41.6547 11.9845 41.4585 11.9939C41.2181 12.0057 40.9777 12.0034 40.7349 11.9939C40.5485 11.9892 40.3842 11.9232 40.2836 11.7722C40.2223 11.7652 40.1904 11.7935 40.1659 11.8241C40.058 11.9586 39.9059 11.9939 39.7416 11.9963C39.5024 11.9998 39.2633 11.9994 39.0242 11.999L38.785 11.9987C38.7065 11.9987 38.6133 11.9987 38.6133 11.8949C38.611 11.786 38.7039 11.7862 38.783 11.7864L38.7924 11.7864C38.9918 11.7848 39.1901 11.7853 39.3887 11.7859C39.4882 11.7861 39.5878 11.7864 39.6876 11.7864C40.004 11.7864 40.1266 11.6685 40.1291 11.3689C40.1291 11.35 40.1292 11.3312 40.1294 11.3125L40.1294 11.3125C40.1299 11.2566 40.1303 11.2014 40.1266 11.1449C40.1217 11.0718 40.0825 11.0388 39.9966 11.0411C39.592 11.0482 39.1873 11.0482 38.785 11.0482C38.7016 11.0482 38.6182 11.0317 38.6182 10.9326C38.6182 10.8359 38.7016 10.8194 38.7875 10.8194H41.7773C41.8019 10.8194 41.8265 10.8191 41.8511 10.8189H41.8511C41.8999 10.8184 41.9483 10.8178 41.9956 10.8194C41.9931 11.1024 41.9931 11.2156 41.9931 11.4891V11.4892ZM41.0317 11.7887H41.4241H41.4241C41.4364 11.7887 41.4487 11.7887 41.4609 11.7864C41.6645 11.7652 41.7675 11.659 41.7773 11.4633L41.7847 11.1921C41.7871 11.0718 41.7601 11.0482 41.6375 11.0482L41.402 11.0484C41.0881 11.0488 40.7741 11.0491 40.4602 11.0435C40.3744 11.0411 40.3351 11.0741 40.3327 11.1472L40.3309 11.1883C40.3261 11.2972 40.3212 11.4057 40.3474 11.5104C40.3793 11.6354 40.4528 11.7274 40.5927 11.7628C40.706 11.7937 40.8183 11.791 40.914 11.7886C40.957 11.7875 40.9967 11.7866 41.0317 11.7887ZM41.9204 7.48287C41.9406 7.44992 41.9907 7.36818 41.993 7.2927C41.9952 7.21888 41.9967 7.17392 41.9978 7.14211L41.9978 7.14204L41.9978 7.14203V7.14202C42.0004 7.06519 42.0004 7.06517 42.0004 6.92005C41.992 6.84147 41.955 6.78526 41.9337 6.75291L41.9337 6.7529C41.93 6.74739 41.9268 6.74257 41.9243 6.73845C41.8238 6.57336 41.657 6.52854 41.4755 6.51911C41.3363 6.51207 41.1996 6.51437 41.0604 6.51672H41.0604H41.0604H41.0604H41.0604L41.0585 6.51675C40.8108 6.51911 40.6072 6.60638 40.4552 6.80213C40.3767 6.90227 40.2966 7.0008 40.2163 7.0996C40.1585 7.17068 40.1006 7.24189 40.0431 7.31392C39.9622 7.41534 39.8641 7.48138 39.7292 7.50024C39.5084 7.5309 39.2877 7.53326 39.0694 7.5026C38.9026 7.47902 38.807 7.38232 38.7898 7.21958C38.7824 7.16062 38.7824 7.10166 38.7873 7.0427C38.7996 6.84458 38.9296 6.72666 39.1356 6.7243C39.1951 6.7243 39.2549 6.72456 39.3148 6.72482L39.315 6.72482H39.3151H39.3151H39.3152H39.3153C39.4354 6.72535 39.5558 6.72587 39.6752 6.7243C39.7463 6.7243 39.8224 6.71251 39.8248 6.62288C39.8273 6.53326 39.7537 6.51675 39.6801 6.51675C39.6221 6.51675 39.5639 6.51598 39.5056 6.51522H39.5055H39.5055H39.5055H39.5054C39.3592 6.51329 39.2124 6.51136 39.067 6.52147C38.8511 6.53798 38.6917 6.63704 38.6206 6.8493C38.5764 6.97666 38.5789 7.10402 38.5862 7.23373C38.6034 7.53326 38.7947 7.71251 39.1062 7.71723C39.2975 7.72194 39.4913 7.72194 39.6826 7.71723C39.8641 7.71487 40.0235 7.65826 40.1535 7.52619C40.259 7.41534 40.3546 7.29741 40.4454 7.17713C40.7887 6.72666 40.7937 6.7243 41.3774 6.72666C41.7012 6.72902 41.8017 6.82572 41.7993 7.13704C41.7968 7.39411 41.6913 7.49789 41.4191 7.5026C41.3541 7.50378 41.2885 7.50319 41.2229 7.5026C41.1573 7.50201 41.0917 7.50142 41.0267 7.5026C40.9555 7.50496 40.8893 7.51911 40.8893 7.60402C40.8893 7.69128 40.9506 7.71723 41.0291 7.71723C41.0817 7.71638 41.1342 7.71704 41.1868 7.71771C41.2814 7.7189 41.376 7.72009 41.4706 7.71251C41.6496 7.69836 41.8213 7.65826 41.917 7.48845L41.9204 7.48287ZM41.9941 3.87355L41.9939 3.87359L41.9939 3.87359L41.9938 3.8736L41.9938 3.87361C41.5132 3.96086 41.0325 4.0481 40.5519 4.13299C40.4293 4.15421 40.3066 4.17485 40.184 4.19549C40.0614 4.21612 39.9387 4.23676 39.8161 4.25799C39.683 4.28165 39.5499 4.3058 39.4166 4.32999L39.4158 4.33013L39.4158 4.33013L39.4158 4.33013L39.4158 4.33014L39.4157 4.33016C39.2569 4.35897 39.0978 4.38783 38.938 4.41601C38.8767 4.4278 38.8179 4.43723 38.7565 4.44195C38.6952 4.44667 38.6241 4.44903 38.6143 4.36884C38.6045 4.28629 38.6682 4.2627 38.7369 4.25091C38.8056 4.23794 38.8737 4.22615 38.9417 4.21436C39.0098 4.20256 39.0778 4.19077 39.1465 4.1778C39.3256 4.14478 39.3256 4.14478 39.3256 3.97497C39.3256 3.93789 39.3254 3.90067 39.3253 3.86338V3.86338V3.86337V3.86337C39.3248 3.7512 39.3243 3.63836 39.328 3.52686C39.3305 3.43488 39.2888 3.39242 39.1956 3.37827C39.0972 3.36587 38.9999 3.34939 38.9023 3.33285C38.8514 3.32423 38.8004 3.3156 38.7492 3.30752C38.6731 3.29572 38.6069 3.26506 38.6192 3.18252C38.6315 3.09054 38.7099 3.09525 38.7811 3.1094C39.2439 3.18903 39.705 3.27043 40.1674 3.35206L40.1674 3.35207L40.1675 3.35207L40.1675 3.35209L40.3827 3.39006C40.5282 3.41558 40.674 3.44008 40.8198 3.46458L40.8198 3.46458C41.1725 3.52388 41.5251 3.58314 41.8739 3.65657C41.9001 3.6613 41.9274 3.66182 41.9551 3.66234H41.9551C41.9688 3.6626 41.9827 3.66287 41.9965 3.66365C41.9941 3.73202 41.9941 3.80276 41.9941 3.87349V3.87355ZM41.3343 3.77214C41.3126 3.72411 41.2736 3.71861 41.2343 3.71306L41.219 3.71082L41.0257 3.67999C40.5721 3.60769 40.1171 3.53516 39.664 3.46082C39.5782 3.44667 39.5316 3.47733 39.5291 3.5528C39.5218 3.7061 39.5218 3.8594 39.5291 4.01271C39.5316 4.0811 39.5782 4.11176 39.6567 4.09761C39.8825 4.05962 40.1082 4.02212 40.3338 3.98467C40.5982 3.94075 40.8624 3.89688 41.1258 3.85233C41.141 3.84892 41.1565 3.84622 41.172 3.84351L41.1721 3.84351C41.2317 3.8331 41.2915 3.82267 41.3343 3.77214ZM41.7779 10.1851C41.7779 10.3927 41.7828 10.395 41.9937 10.4045V10.4042C41.9937 10.0906 41.9937 9.77703 41.9913 9.45637C41.9718 9.45444 41.9522 9.45215 41.9325 9.44985C41.88 9.44373 41.8265 9.4375 41.773 9.4375H38.7832C38.6409 9.4375 38.609 9.46816 38.6066 9.60259C38.6049 9.74716 38.6055 9.89068 38.606 10.0345C38.6063 10.1066 38.6066 10.1788 38.6066 10.2512L38.6068 10.2568C38.6091 10.3238 38.6116 10.3975 38.7047 10.3998C38.8078 10.4021 38.8077 10.3209 38.8077 10.2512L38.8077 10.2465V9.82193C38.8101 9.67807 38.8371 9.64976 38.9892 9.64976C39.1447 9.64875 39.3003 9.64904 39.4559 9.64933C39.6633 9.64972 39.8707 9.6501 40.0782 9.64741C40.1861 9.64741 40.2253 9.68986 40.2253 9.78656V10.2465C40.2253 10.3125 40.2302 10.3785 40.321 10.3809C40.4191 10.3833 40.4265 10.3149 40.4265 10.2441V9.7842C40.4265 9.69458 40.4608 9.64976 40.5638 9.64976C40.917 9.65448 41.2726 9.65212 41.6283 9.64976C41.7313 9.64741 41.7803 9.68042 41.7779 9.7842C41.7763 9.87373 41.7768 9.96222 41.7773 10.0511L41.7773 10.0511C41.7776 10.0957 41.7779 10.1403 41.7779 10.1851ZM41.9931 9.08629C41.7822 9.07685 41.7773 9.07449 41.7773 8.86695C41.7773 8.83621 41.7771 8.80562 41.777 8.7751C41.7765 8.68386 41.7761 8.59328 41.7797 8.50138C41.7847 8.39761 41.7479 8.35044 41.6326 8.35044C41.2769 8.35515 40.9213 8.35515 40.5657 8.35044C40.4602 8.34808 40.4259 8.39761 40.4259 8.48487C40.4242 8.58227 40.4248 8.67862 40.4253 8.77532C40.4256 8.8238 40.4259 8.87236 40.4259 8.92119C40.4259 8.99195 40.4234 9.0627 40.3228 9.0627C40.2223 9.0627 40.2223 8.98959 40.2223 8.91883V8.49431C40.2223 8.39289 40.1781 8.34808 40.0653 8.35044C39.7526 8.35398 39.4399 8.35353 39.1272 8.35309L38.8144 8.3528C38.8053 8.3528 38.7959 8.35299 38.7863 8.35319H38.7863C38.7077 8.35483 38.6177 8.3567 38.6133 8.25374C38.6111 8.14155 38.7057 8.14335 38.7872 8.1449H38.7873C38.7965 8.14508 38.8057 8.14525 38.8144 8.14525H41.7454C41.8288 8.14525 41.9073 8.15468 41.9882 8.16883C41.9931 8.47301 41.9931 8.77953 41.9931 9.08606V9.08629Z" fill="white"/>
</g>
<defs>
<clipPath id="clip0_1238_11342">
<rect width="42" height="12" fill="white"/>
</clipPath>
</defs>
</svg>
