<svg width="56" height="12" viewBox="0 0 56 12" fill="none" xmlns="http://www.w3.org/2000/svg">
<g clip-path="url(#clip0_1238_11360)">
<path d="M41.0467 5.87682V8.97907H40.0625V1.3179H42.6727C42.9842 1.31139 43.294 1.36665 43.5841 1.48048C43.8742 1.59432 44.1389 1.76447 44.3629 1.98114C44.5891 2.18464 44.7692 2.43422 44.8909 2.7131C45.0127 2.99198 45.0734 3.2937 45.0689 3.59797C45.0754 3.90387 45.0156 4.20756 44.8938 4.48822C44.7719 4.76887 44.5908 5.01986 44.3629 5.22398C43.9064 5.65921 43.343 5.87662 42.6727 5.87621H41.0467V5.87682ZM41.0467 2.2611V4.93545H42.6971C42.8781 4.94082 43.0581 4.90836 43.2258 4.84015C43.3935 4.77194 43.5451 4.66949 43.6709 4.53934C43.796 4.41766 43.8955 4.27212 43.9635 4.11132C44.0314 3.95052 44.0664 3.77773 44.0664 3.60317C44.0664 3.42861 44.0314 3.25582 43.9635 3.09502C43.8955 2.93422 43.796 2.78868 43.6709 2.66699C43.5466 2.5341 43.3956 2.42914 43.2277 2.35906C43.0598 2.28898 42.879 2.25538 42.6971 2.26049H41.0467V2.2611Z" fill="white"/>
<path d="M47.3364 3.56738C48.0638 3.56738 48.638 3.76177 49.059 4.15054C49.4799 4.53932 49.6902 5.07235 49.6898 5.74965V8.98027H48.7484V8.25284H48.7057C48.2981 8.8519 47.7561 9.15142 47.0796 9.15142C46.5022 9.15142 46.0191 8.98027 45.6303 8.63795C45.4437 8.48084 45.2946 8.28407 45.1937 8.062C45.0928 7.83992 45.0427 7.59814 45.0471 7.35426C45.0471 6.81185 45.2521 6.38049 45.6621 6.06018C46.0721 5.73987 46.6194 5.57931 47.304 5.57849C47.8884 5.57849 48.3697 5.68547 48.7478 5.89942V5.67446C48.7489 5.50821 48.713 5.34378 48.6427 5.19312C48.5724 5.04246 48.4695 4.90933 48.3413 4.80339C48.0811 4.56858 47.7419 4.44047 47.3914 4.44457C46.8417 4.44457 46.4066 4.67645 46.0863 5.14021L45.2195 4.59433C45.6963 3.9097 46.4019 3.56738 47.3364 3.56738ZM46.0631 7.37566C46.0624 7.50091 46.0917 7.62451 46.1485 7.73615C46.2053 7.8478 46.2879 7.94426 46.3895 8.0175C46.6072 8.18872 46.8773 8.27942 47.1542 8.27424C47.5695 8.27354 47.9676 8.10824 48.2613 7.81456C48.5873 7.50769 48.7503 7.14765 48.7503 6.73442C48.4434 6.48991 48.0155 6.36766 47.4666 6.36766C47.0668 6.36766 46.7335 6.46403 46.4665 6.65679C46.197 6.8524 46.0631 7.09019 46.0631 7.37566V7.37566Z" fill="white"/>
<path d="M55.0932 3.73926L51.8069 11.2916H50.791L52.0105 8.64906L49.8496 3.73926H50.9193L52.4812 7.50474H52.5026L54.0216 3.73926H55.0932Z" fill="white"/>
<path d="M37.0682 5.21034C37.0686 4.91042 37.0432 4.61102 36.9924 4.31543H32.8418V6.01051H35.2191C35.1704 6.28124 35.0675 6.53931 34.9164 6.76918C34.7653 6.99904 34.5693 7.19594 34.34 7.34799V8.44829H35.7588C36.5896 7.68236 37.0682 6.54966 37.0682 5.21034Z" fill="white"/>
<path d="M32.8425 9.51102C34.0302 9.51102 35.0303 9.12102 35.7595 8.44862L34.3408 7.34831C33.9459 7.61605 33.4373 7.76887 32.8425 7.76887C31.6945 7.76887 30.7202 6.99499 30.3717 5.95215H28.9102V7.08607C29.2765 7.81501 29.8382 8.42779 30.5326 8.856C31.227 9.2842 32.0267 9.51098 32.8425 9.51102V9.51102Z" fill="white"/>
<path d="M30.3716 5.95045C30.1874 5.40399 30.1874 4.81222 30.3716 4.26576V3.13184H28.9101C28.6019 3.74504 28.4414 4.42182 28.4414 5.1081C28.4414 5.79439 28.6019 6.47117 28.9101 7.08437L30.3716 5.95045Z" fill="white"/>
<path d="M32.8425 2.45044C33.4702 2.44019 34.0767 2.67734 34.5309 3.11063L35.7871 1.85445C34.9905 1.10629 33.9353 0.695534 32.8425 0.708297C32.0267 0.708334 31.227 0.935115 30.5326 1.36332C29.8382 1.79153 29.2765 2.40431 28.9102 3.13324L30.3717 4.26717C30.7202 3.22432 31.6945 2.45044 32.8425 2.45044Z" fill="white"/>
</g>
<g clip-path="url(#clip1_1238_11360)">
<path d="M4.71155 2.07243C4.40946 2.4299 3.92612 2.71185 3.44278 2.67157C3.38237 2.18823 3.619 1.67468 3.89591 1.35749C4.198 0.989955 4.72665 0.728147 5.15461 0.708008C5.20495 1.21149 5.0086 1.70489 4.71155 2.07243ZM5.14957 2.76723C4.44974 2.72695 3.8506 3.16498 3.51831 3.16498C3.18098 3.16498 2.67246 2.78737 2.11864 2.79744C1.39867 2.80751 0.729042 3.21532 0.361504 3.86481C-0.393712 5.16378 0.165148 7.08706 0.895189 8.14437C1.25266 8.66798 1.68061 9.24195 2.24451 9.22181C2.77819 9.20167 2.98965 8.87441 3.63411 8.87441C4.28359 8.87441 4.46988 9.22181 5.03377 9.21174C5.61781 9.20167 5.98534 8.68812 6.34281 8.16451C6.75063 7.5704 6.91678 6.9914 6.92685 6.96119C6.91678 6.95112 5.79906 6.52317 5.78899 5.23427C5.77892 4.15683 6.67007 3.64328 6.71035 3.61307C6.20687 2.86793 5.42145 2.78737 5.14957 2.76723ZM9.19249 1.30715V9.15636H10.4109V6.47282H12.0976C13.6382 6.47282 14.7207 5.41552 14.7207 3.88495C14.7207 2.35438 13.6583 1.30715 12.1378 1.30715H9.19249V1.30715ZM10.4109 2.33424H11.8156C12.8729 2.33424 13.4771 2.89813 13.4771 3.88998C13.4771 4.88183 12.8729 5.45076 11.8106 5.45076H10.4109V2.33424V2.33424ZM16.946 9.21677C17.7113 9.21677 18.4212 8.8291 18.7435 8.21485H18.7686V9.15636H19.8964V5.24937C19.8964 4.11655 18.9902 3.38651 17.5955 3.38651C16.3016 3.38651 15.345 4.12662 15.3097 5.14364H16.4073C16.4979 4.6603 16.946 4.34311 17.5603 4.34311C18.3054 4.34311 18.7233 4.69051 18.7233 5.32993V5.76292L17.2028 5.85354C15.788 5.93914 15.0228 6.51813 15.0228 7.52509C15.0228 8.54211 15.8132 9.21677 16.946 9.21677ZM17.2733 8.28534C16.6238 8.28534 16.211 7.97318 16.211 7.49488C16.211 7.00147 16.6087 6.71449 17.369 6.66918L18.7233 6.58359V7.02665C18.7233 7.76172 18.099 8.28534 17.2733 8.28534ZM21.4018 11.2911C22.59 11.2911 23.1489 10.838 23.6373 9.46348L25.777 3.46203H24.5385L23.1036 8.09905H23.0784L21.6435 3.46203H20.3697L22.4339 9.17649L22.3232 9.52389C22.1369 10.113 21.8348 10.3395 21.2961 10.3395C21.2004 10.3395 21.0141 10.3295 20.9386 10.3194V11.2609C21.0091 11.281 21.3112 11.2911 21.4018 11.2911Z" fill="white"/>
</g>
<defs>
<clipPath id="clip0_1238_11360">
<rect width="26.65" height="10.5831" fill="white" transform="translate(28.4414 0.708008)"/>
</clipPath>
<clipPath id="clip1_1238_11360">
<rect width="25.778" height="10.5831" fill="white" transform="translate(0 0.708008)"/>
</clipPath>
</defs>
</svg>
