<svg width="48" height="8" viewBox="0 0 48 8" fill="none" xmlns="http://www.w3.org/2000/svg">
<g clip-path="url(#clip0_1238_11378)">
<path d="M46.4469 0.608098C45.857 0.203932 44.9641 9.72185e-05 43.7938 9.72185e-05H40.7288L39.5893 6.18612H35.574L35.8321 4.78264H38.2508L38.5374 3.20632L36.1201 3.20979L36.3789 1.81258H38.8703L39.2018 0.000458316H34.1423L33.0605 5.86829H31.2038L32.2929 0.000149686H29.648L28.5663 5.86798H26.7576L27.8477 0.000149686H25.2043L24.0634 6.18618H20.0193L20.2749 4.7827H22.7034L22.9903 3.21532L20.5642 3.21288L20.8216 1.81289H23.3409L23.6703 0H7.90395L7.00656 4.90197L5.21944 0H2.47541L0.998535 8H3.61911L4.51303 2.96285L6.24722 8H15.6391L16.7811 1.81212H18.2499L17.108 8H41.82L42.5365 4.09398L43.6955 8H46.3175L45.1164 4.8083L45.3912 4.74917C45.9964 4.61943 46.4684 4.34082 46.7971 3.92309C47.1255 3.50153 47.2928 2.96031 47.2928 2.31019C47.2928 1.55332 47.0159 0.996461 46.4462 0.607634L46.4469 0.608098ZM13.3587 6.18612H9.34727L9.6064 4.78264H12.1225L12.4077 3.20184H9.91585L10.1559 1.81297H14.1614L13.3579 6.18611L13.3587 6.18612ZM44.2865 3.49147C44.0229 3.67582 43.6406 3.76555 43.1178 3.76555H42.5996L42.9971 1.61872H43.3783C43.8124 1.61872 44.1289 1.68829 44.3474 1.8302C44.5178 1.9415 44.7206 2.16168 44.7206 2.57802C44.72 3.08168 44.4841 3.35228 44.2858 3.49141L44.2865 3.49147Z" fill="white"/>
</g>
<defs>
<clipPath id="clip0_1238_11378">
<rect width="46.2945" height="8" fill="white" transform="translate(0.998535)"/>
</clipPath>
</defs>
</svg>
