<svg width="72" height="12" viewBox="0 0 72 12" fill="none" xmlns="http://www.w3.org/2000/svg">
<path d="M10.0024 5.0523C10.0106 4.51178 10.1318 4.10073 10.367 3.82006C10.49 3.70236 10.644 3.60367 10.8317 3.52219C11.0268 3.43527 11.2154 3.39453 11.3986 3.39453H13.6167C14.5955 3.40268 15.093 3.93414 15.1094 4.99073V8.24198C15.1021 8.61681 14.9545 8.94275 14.6675 9.21527C14.3849 9.50137 14.0468 9.64714 13.6532 9.65529H11.5553V11.9993H10.0034V5.0523H10.0024ZM13.5557 5.35832C13.5484 5.11296 13.4317 4.9862 13.2048 4.97715H11.9964C11.7102 4.99435 11.5626 5.15098 11.5553 5.44433V7.60459C11.5626 7.90698 11.7257 8.0609 12.0438 8.07086H13.1519C13.2668 8.07086 13.3625 8.02831 13.439 7.94139C13.5183 7.8762 13.5566 7.79291 13.5566 7.68969V5.35832H13.5557Z" fill="white"/>
<path d="M19.9247 5.32029C19.9319 5.08308 19.7943 4.96991 19.5064 4.97805H16.3806V3.39453H19.9001C20.9253 3.41083 21.4456 3.90336 21.463 4.87484V8.18856C21.4548 8.60776 21.3253 8.95362 21.0747 9.22795C20.8123 9.51224 20.4751 9.6562 20.0604 9.6562H17.9325C16.8973 9.64714 16.3724 9.17815 16.356 8.24379V6.96538C16.3642 5.99028 16.8663 5.49413 17.8587 5.47692H19.9237V5.32029H19.9247ZM17.9088 7.7576C17.9088 7.84813 17.9508 7.91966 18.0328 7.97308C18.1057 8.03827 18.1977 8.07177 18.3135 8.07177H19.5064C19.7761 8.07177 19.9155 7.96765 19.9237 7.7585V7.31577C19.9237 7.07403 19.7816 6.95271 19.4954 6.95271H18.3144C18.1594 6.95271 18.0519 6.97806 17.9927 7.02695C17.9371 7.08489 17.9088 7.19716 17.9088 7.36466V7.7576V7.7576Z" fill="white"/>
<path d="M25.8225 10.4139C25.9456 10.4057 26.0513 10.3623 26.1388 10.2835C26.2217 10.2102 26.2636 10.1251 26.2636 10.03V9.88331V9.65425H24.276C24.0163 9.65425 23.8094 9.62075 23.6545 9.55556C23.4923 9.4958 23.3283 9.38535 23.1651 9.22781C23.0093 9.06031 22.8981 8.88557 22.8307 8.70359C22.7596 8.537 22.7231 8.32423 22.7231 8.06982V3.39258H24.276V7.56733C24.276 7.90232 24.4136 8.06982 24.6916 8.06982H25.7879C25.9182 8.06982 26.0312 8.02726 26.126 7.94035C26.2171 7.86701 26.2636 7.78009 26.2636 7.67778V7.50667V3.39258H27.8028V10.2925C27.7946 10.8032 27.6625 11.2115 27.4082 11.5221C27.1494 11.8326 26.7976 11.9902 26.3474 11.9983H22.7241V10.4148H25.8225V10.4139Z" fill="white"/>
<path d="M29.0218 8.07072H31.7877C32.041 8.06167 32.1723 7.96117 32.1795 7.76832V7.62618C32.1795 7.58453 32.1668 7.53926 32.1431 7.48946C32.0811 7.36995 32.0055 7.31019 31.9153 7.31019H31.7494H30.5437C30.1373 7.30205 29.7901 7.16262 29.4975 6.89372C29.2023 6.64564 29.051 6.33962 29.0428 5.98108V4.79955C29.0583 3.87787 29.5623 3.40888 30.5556 3.39258H33.7634V4.97701H31.0459C30.726 4.97701 30.5656 5.07479 30.5656 5.26854V5.42246C30.5656 5.62346 30.7296 5.72395 31.0568 5.72395H32.4238C32.7883 5.7321 33.0981 5.87063 33.357 6.14043C33.6185 6.41296 33.7534 6.73618 33.7625 7.11191V8.26719C33.7534 8.59223 33.603 8.91545 33.3123 9.23958C33.1701 9.39802 33.0252 9.50667 32.8803 9.56914C32.73 9.62618 32.5258 9.65425 32.2652 9.65425H29.02V8.07072H29.0218Z" fill="white"/>
<path d="M38.4374 5.31925C38.4438 5.08203 38.3053 4.96886 38.0182 4.9761H34.8924V3.39258H38.4128C39.438 3.40797 39.9575 3.9005 39.9739 4.87289V8.18661C39.9657 8.60581 39.8354 8.95167 39.5866 9.226C39.3259 9.5103 38.9879 9.65335 38.5732 9.65335H36.4444C35.4091 9.6452 34.8842 9.1753 34.8696 8.24094V6.96253C34.8769 5.98742 35.3772 5.49127 36.3724 5.47407H38.4374V5.31925ZM36.4198 7.75655C36.4198 7.84709 36.4617 7.91862 36.5455 7.97204C36.6175 8.03723 36.7105 8.07073 36.8253 8.07073H38.0191C38.2898 8.07073 38.4283 7.96661 38.4365 7.75746V7.31472C38.4365 7.07299 38.2925 6.95167 38.0064 6.95167H36.8253C36.6704 6.95167 36.5638 6.97702 36.5045 7.02591C36.4498 7.08385 36.4198 7.19612 36.4198 7.36362V7.75655Z" fill="white"/>
<path d="M41.2358 2.49783C41.2458 2.07048 41.4044 1.72734 41.7151 1.4693C42.0168 1.20765 42.4123 1.07365 42.9026 1.06641H43.8886V2.59742H43.2917C42.9636 2.60376 42.7959 2.76039 42.7896 3.06188V3.39688H43.8886V4.98221H42.7887V9.65855H41.2349V2.49783H41.2358Z" fill="white"/>
<path d="M46.381 7.5293V7.62708C46.381 7.75474 46.4138 7.85434 46.4812 7.92767C46.5304 8.02184 46.596 8.06892 46.6826 8.06892H46.8786H49.8713V9.65335H46.4812C46.1723 9.65335 45.9308 9.62437 45.7604 9.56733C45.5735 9.50667 45.4068 9.40618 45.261 9.26856C45.0905 9.10106 44.9739 8.92994 44.9156 8.7543C44.8518 8.57141 44.8199 8.32786 44.8199 8.02546L44.8071 4.85478C44.8244 3.89688 45.3275 3.40888 46.3181 3.39258H48.4096C49.3765 3.40888 49.8668 3.91408 49.8822 4.9082V6.16126L46.381 7.5293ZM48.3029 5.28937V5.25225C48.3029 5.17076 48.2701 5.10195 48.2027 5.05035C48.1307 5.00055 48.0414 4.9761 47.9357 4.9761H46.8549C46.7163 4.9761 46.6052 5.01504 46.5186 5.09381C46.411 5.16714 46.3564 5.26221 46.3564 5.38172V6.0173L48.3029 5.28937Z" fill="white"/>
<path d="M53.1665 9.65788C52.9314 9.65788 52.7172 9.63615 52.5222 9.59722C52.319 9.56462 52.1148 9.46956 51.9071 9.31111C51.6938 9.12732 51.5471 8.91998 51.466 8.69183C51.3812 8.46729 51.3402 8.21378 51.3402 7.92677V4.97068C51.3311 4.72985 51.3557 4.51799 51.4122 4.33419C51.4651 4.1504 51.5744 3.97113 51.7403 3.79639C51.9289 3.61169 52.1221 3.48947 52.3254 3.4288C52.5213 3.37991 52.7418 3.35547 52.9888 3.35547H55.3673V3.72577H53.0435C52.6334 3.72577 52.3108 3.80997 52.0757 3.97747C51.8342 4.16036 51.7111 4.47543 51.7111 4.91998V7.87879C51.7111 8.08703 51.743 8.28893 51.8068 8.48449C51.8724 8.67734 51.9809 8.84484 52.1367 8.99242C52.3053 9.12008 52.4739 9.19975 52.6379 9.23234C52.8093 9.26946 52.9924 9.28667 53.1875 9.28667H55.4047V9.65788H53.1665Z" fill="white"/>
<path d="M61.8585 7.95108C61.8585 8.18829 61.8412 8.39834 61.8102 8.58123C61.7592 8.78132 61.6562 8.97507 61.4995 9.15796C61.1732 9.49839 60.7704 9.66498 60.2883 9.65593H58.4338C57.9517 9.65593 57.5617 9.51288 57.2591 9.22858C56.9502 8.94701 56.7935 8.55588 56.7935 8.05429V7.10183C56.8099 6.02622 57.3494 5.47575 58.411 5.45039H61.5004V5.03301C61.5004 4.68987 61.4001 4.38837 61.2015 4.12943C61.0748 3.96194 60.9253 3.84967 60.7549 3.79082C60.5836 3.74645 60.3904 3.72382 60.1753 3.72382H56.8053V3.35352H60.0004C60.2929 3.35352 60.5572 3.37434 60.7959 3.41418C60.919 3.43862 61.0301 3.4857 61.134 3.55451C61.2425 3.6197 61.3445 3.71658 61.4393 3.84152C61.7255 4.2082 61.8658 4.63192 61.8594 5.10997V7.95108H61.8585ZM61.4885 5.8207H58.3691C57.9955 5.82885 57.7039 5.94383 57.4924 6.16475C57.2746 6.38838 57.1671 6.69711 57.1671 7.08824V8.03166C57.1671 8.21545 57.1862 8.38204 57.2254 8.53234C57.2646 8.69078 57.363 8.83202 57.517 8.95425C57.7868 9.17607 58.0848 9.28562 58.411 9.28562H60.3011C61.0912 9.27747 61.4885 8.86462 61.4885 8.04343V5.8207V5.8207Z" fill="white"/>
<path d="M65.3458 3.72577C64.48 3.74207 64.0545 4.21106 64.0699 5.13365V9.65697H63.6981V5.13456C63.6808 3.94669 64.2495 3.35547 65.405 3.35547H65.8178V3.72487H65.3458V3.72577Z" fill="white"/>
<path d="M71.9999 7.90478C71.9671 9.09808 71.3301 9.68296 70.0916 9.65852H68.7137C68.4221 9.65852 68.1624 9.63317 67.9318 9.58609C67.6949 9.52452 67.468 9.38147 67.2501 9.15784C67.0861 8.95684 66.9804 8.75403 66.9385 8.54579C66.882 8.33846 66.8565 8.10668 66.8656 7.85498V5.16326C66.8811 3.95095 67.4962 3.34796 68.711 3.35792H71.6281V1.31445H71.9999V7.90478ZM71.629 3.72641H68.6891C68.4768 3.72641 68.2872 3.74995 68.1159 3.79431C67.9373 3.83506 67.7641 3.9428 67.6028 4.11844C67.4479 4.2787 67.3504 4.43714 67.3085 4.59558C67.2547 4.75584 67.2301 4.94778 67.2392 5.17141V8.05598C67.2392 8.53493 67.3786 8.86178 67.6621 9.03652C67.8015 9.118 67.9555 9.17957 68.1277 9.22031C68.3 9.26558 68.4904 9.28821 68.701 9.28821H69.9859C70.4653 9.28821 70.8589 9.17866 71.1606 8.95684C71.4641 8.74951 71.619 8.39097 71.629 7.88033V3.72641Z" fill="white"/>
<path d="M1.38106 3.15618C1.50318 3.10276 1.62529 3.06111 1.7465 3.03486C1.97068 1.97284 2.91753 1.17519 4.05394 1.17519C5.19035 1.17519 6.13811 1.97374 6.36139 3.03667C6.71042 3.10276 6.99839 3.2431 7.22349 3.45134C7.2326 3.24762 7.2244 3.05116 7.20071 2.86555C7.05672 1.25939 5.7016 0 4.04938 0C2.34796 0 0.963679 1.33907 0.891685 3.01403C0.881661 3.1589 0.878927 3.30919 0.883484 3.46673C1.02565 3.34631 1.18877 3.23948 1.38106 3.15618Z" fill="white"/>
<path d="M5.89966 3.39258H2.1086C1.92634 3.39258 1.73678 3.43423 1.54267 3.52114C1.35494 3.60263 1.20093 3.70132 1.0779 3.81811C0.841874 4.09878 0.721581 4.50983 0.713379 5.05035V7.99467C0.721581 8.5361 0.841874 8.94624 1.0779 9.226C1.20093 9.34461 1.35494 9.4442 1.54267 9.52569C1.73678 9.61079 1.92634 9.65335 2.1086 9.65335H5.89966C6.87841 9.64429 7.3769 9.11102 7.39239 8.05624V4.98878C7.3769 3.9331 6.87841 3.40163 5.89966 3.39258Z" fill="white"/>
</svg>
