<svg width="98" height="36" viewBox="0 0 98 36" fill="none" xmlns="http://www.w3.org/2000/svg">
<g clip-path="url(#clip0_400_15300)">
<path d="M51.2486 0.5H50.2614V34.7195H51.2486V28.1355H63.7189V24.149H54.124V19.558H62.3261V15.5414H54.124V11.1007H63.7189V7.08417H51.2486V0.5Z" fill="white" fill-opacity="0.65"/>
<path d="M12.4343 19.9933L8.89066 14.2576L4.34855 7.15542L4.30351 7.08411H0.538452V28.1354H4.71643V15.1962L7.83208 20.2375L12.8434 28.1354H16.6385V7.08411H12.4343V19.9933Z" fill="white"/>
<path d="M18.9882 28.1354H32.7872V24.1489H23.1925V19.558H31.3944V15.5413H23.1925V11.1007H32.7872V7.08411H18.9882V28.1354Z" fill="white"/>
<path d="M34.4801 11.1307H39.3039V28.1354H43.5079V11.1307H48.3016V7.08411H34.4801V11.1307Z" fill="white"/>
<path d="M77.7164 20.0273L74.1728 14.2951L69.6309 7.19298L69.5857 7.11792H65.8207V28.1693H69.9949V15.2298L73.1104 20.2712L78.1257 28.1693H81.9207V7.11792H77.7164V20.0273Z" fill="white" fill-opacity="0.65"/>
<path d="M83.64 7.11792V11.1645H88.4638V28.1693H92.6679V11.1645H97.4615V7.11792H83.64Z" fill="white" fill-opacity="0.65"/>
</g>
<defs>
<clipPath id="clip0_400_15300">
<rect width="96.9231" height="35" fill="white" transform="translate(0.538452 0.5)"/>
</clipPath>
</defs>
</svg>
