<svg width="56" height="12" viewBox="0 0 56 12" fill="none" xmlns="http://www.w3.org/2000/svg">
  <path fill-rule="evenodd" clip-rule="evenodd"
        d="M0.190339 1.55909L0.19034 1.55909C0.982614 3.3989 1.83186 5.37103 5.7854 5.49495L5.78516 5.4954C6.28661 5.51141 6.83673 5.49786 7.44415 5.44981C7.35671 4.22758 6.95911 3.21214 6.36327 2.425L6.36306 2.42339C4.89319 0.484719 2.21712 -0.0623237 0 1.1217C0.0641159 1.26597 0.127042 1.4121 0.190331 1.55907L0.190339 1.55909ZM29.5691 1.35767H27.9421V10.1165H29.5691V1.35767ZM15.3681 1.47461H9.10791V10.117H15.5116V8.69828H10.7349V6.38136H13.8194V4.96262H10.7349V2.89335H15.3681V1.47461ZM16.7263 3.97266H15.0605L17.4157 10.1158H18.9126L21.1513 3.97266H19.5373L18.1839 8.25474L16.7263 3.97266ZM20.8965 7.05702C20.8965 5.18303 22.1982 3.85547 24.0592 3.85547C25.9073 3.85547 27.209 5.18303 27.209 7.05702C27.209 8.90514 25.8815 10.2327 24.0204 10.2327C22.1717 10.2327 20.8965 8.93101 20.8965 7.05702ZM25.5685 7.09583V7.04408C25.5685 5.873 24.9956 5.17009 24.0586 5.17009C23.1087 5.17009 22.5358 5.873 22.5358 7.04408V7.09583C22.5358 8.24105 23.0951 8.91807 24.0327 8.91807C24.9827 8.91807 25.5685 8.24166 25.5685 7.09583ZM30.498 7.65595V3.97266H32.1121V7.56478C32.1121 8.38473 32.5026 8.86647 33.2314 8.86647C34.0772 8.86647 34.429 8.15063 34.429 7.09659V3.97327H36.043V10.1164H34.429V9.24472C34.1037 9.88232 33.5438 10.2341 32.7503 10.2341C31.3568 10.2328 30.498 9.24349 30.498 7.65595ZM37.5173 5.27478V8.48927C37.5432 9.5045 37.8032 10.0509 38.9878 10.1162H40.2371V8.77573H39.5213C39.2219 8.76279 39.079 8.6328 39.079 8.33341V5.27478H40.3024V3.97309H39.0919V1.92969L37.5173 2.81493V3.97309H36.645V5.27478H37.5173ZM41.0352 1.5H42.7139V3.07459H41.0352V1.5ZM41.0616 3.97278H42.6886V10.1159H41.0616V3.97278ZM46.5846 3.85547C44.7236 3.85547 43.4219 5.18303 43.4219 7.05702C43.4219 8.93101 44.6977 10.2327 46.5458 10.2327C48.4069 10.2327 49.7344 8.90514 49.7344 7.05702C49.7344 5.18303 48.4327 3.85547 46.5846 3.85547ZM48.0945 7.04408V7.09583C48.0945 8.24166 47.5087 8.91807 46.5581 8.91807C45.6211 8.91807 45.0618 8.24105 45.0618 7.09583V7.04408C45.0618 5.873 45.6347 5.17009 46.5846 5.17009C47.5216 5.17009 48.0945 5.873 48.0945 7.04408ZM50.4551 3.97373H52.0691V4.97603C52.3944 4.26019 52.9932 3.84375 53.8655 3.84375C55.206 3.84375 56 4.74193 56 6.43358V10.1169H54.386V6.52475C54.386 5.66599 54.0608 5.22306 53.3061 5.22306C52.5379 5.22306 52.0697 5.84772 52.0697 6.99294V10.1163H50.4557L50.4551 3.97373ZM6.31368 10.748C6.31368 11.0252 6.53792 11.2501 6.81514 11.2501C7.09236 11.2501 7.31659 11.0252 7.31721 10.748C7.31659 10.4702 7.09297 10.2459 6.81514 10.2459C6.53854 10.2459 6.3143 10.4702 6.31368 10.748ZM6.18555 10.748C6.18555 10.3999 6.46769 10.1172 6.81514 10.1172C7.1632 10.1172 7.44535 10.3999 7.44535 10.748C7.44535 11.0961 7.1632 11.3782 6.81514 11.3782C6.46769 11.3782 6.18555 11.0961 6.18555 10.748ZM5.57577 5.84116C3.25 5.9993 1.97722 6.63293 1.04603 8.06075C0.693541 8.60124 0.440261 9.18919 0.192506 9.76432L0.192487 9.76436C0.128494 9.91291 0.0648702 10.0606 0 10.2064C3.11716 11.8709 7.14235 10.1159 7.44483 5.87812C6.75117 5.82329 6.13205 5.81344 5.57577 5.84116ZM6.57375 10.6462H6.47949V10.584H6.74685V10.6462H6.65322V10.9129H6.57375V10.6462ZM6.90619 10.5823H6.78052V10.9112H6.84828V10.647L6.92837 10.9112H6.99059L7.07375 10.6457V10.9112H7.15199V10.5823H7.0294L6.96656 10.7923L6.90619 10.5823Z"
        fill="white"/>
</svg>
