<svg width="61" height="16" fill="none" xmlns="http://www.w3.org/2000/svg">
  <path
    d="M5.252 6.74c-.202-.463-.898-.524-1.2-.151-.172.262-.08.594-.1.877.1-.004.2-.001.3.001.231.006.462.012.687-.052.283-.07.394-.423.313-.675ZM4.399 8.432c-.15.003-.3.008-.448 0v1.422c.373.19.807.161 1.2.11.575-.2.615-1.199.04-1.43-.252-.104-.522-.108-.792-.102Z"
    fill="#fff"/>
  <path fill-rule="evenodd" clip-rule="evenodd"
        d="M15.166 6.015C14.178 2.417 10.708.14 7.088.705A7.193 7.193 0 0 0 3.9 2.054C.673 4.463-.023 9.088 2.347 12.373c.979-.434 2.058-.574 3.107-.544.978.026 1.943.175 2.907.323.874.134 1.747.268 2.63.312 1.11.05 2.269-.03 3.298-.504 1.13-1.723 1.422-3.96.877-5.945Zm-7.433-3.8c.151-.463.293-.916.444-1.37.068.22.14.441.212.664l.232.717c.474 0 .948-.01 1.422 0l-.266.2-.318.238-.55.407-.016.011c.07.227.144.457.217.686l.217.685-1.15-.847-1.15.847c.076-.25.156-.498.235-.745L7.36 3.4l.051-.16.05-.158a64.33 64.33 0 0 0-.766-.573l-.384-.283c.357-.015.713-.013 1.07-.011h.352Zm-2.948.924.028-.163c.02-.116.04-.231.066-.347.1.221.202.433.302.615l.696-.091c-.161.161-.333.332-.504.494l.154.328.149.317a5.47 5.47 0 0 1-.279-.145 12.791 12.791 0 0 1-.17-.094l-.167-.094c-.11.11-.222.217-.332.322l-.182.172.08-.452.041-.244-.615-.342.696-.091a6.17 6.17 0 0 0 .037-.185Zm5.691.044.696.09.011-.023c.098-.203.195-.407.292-.601.025.11.045.226.065.342l.008.043c.017.104.036.208.058.31l.696.091c-.212.111-.414.232-.615.342l.04.246c.024.154.048.31.08.46-.17-.161-.342-.332-.514-.494l-.615.333.075-.16L10.83 4l.152-.322a21.503 21.503 0 0 1-.486-.476l-.019-.018ZM2.7 4.715l-.03-.423c.09.1.182.211.262.322l.394-.161-.222.362.262.323-.403-.09c-.081.11-.152.231-.222.352l-.03-.423-.404-.101.393-.161Zm10.328-.262.383.16.273-.321-.03.423.383.161-.404.1-.03.424-.222-.353-.403.09c.046-.056.092-.109.138-.163l.01-.01.124-.149-.222-.362ZM2.65 6.166c.222-.413.646-.696 1.09-.816.473-.132.967-.132 1.441-.081.737.08 1.402.756 1.392 1.531.02.434-.252.817-.605 1.038.353.162.686.423.837.797.283.664.121 1.5-.413 1.974-.343.323-.817.444-1.281.474-.308.02-.616.04-.92.016a2.925 2.925 0 0 1-.462-.076 3.402 3.402 0 0 1-1.09-.494c.005-.627.004-1.251.003-1.875-.002-.83-.003-1.66.008-2.488Zm4.135.262a2.374 2.374 0 0 0-.364-.677 1.554 1.554 0 0 0-.685-.512c1.674 0 3.359.01 5.043 0-.605.201-1.1.655-1.452 1.189H8.67v4.665h-1.19V6.428h-.696Zm2.673.292A2.597 2.597 0 0 1 10.93 5.4c.908-.302 2.007-.222 2.733.453-.12.22-.23.438-.34.657l-.08.157-.094.184c-.434-.373-1.029-.625-1.604-.474-.23.046-.438.157-.611.313-.176.158-.316.36-.407.584a2.731 2.731 0 0 0-.121 1.532c.1.504.433.987.917 1.179.444.161.969.161 1.362-.111V8.806h-.756V7.738h1.936v2.79c-.514.424-1.19.605-1.835.656-.636.05-1.322-.08-1.846-.494-.555-.433-.898-1.088-.999-1.783-.11-.736-.06-1.512.273-2.187Z"
        fill="#fff"/>
  <path
    d="M8.156 12.433c-.642-.099-1.283-.197-1.926-.262.476.109.938.263 1.4.418.222.074.444.148.668.217 1.089.363 2.178.715 3.318.867.383.04.777.08 1.17.01.336-.254.626-.554.894-.876.126-.151.248-.307.367-.465a5.494 5.494 0 0 1-1.483.363c-1.48.175-2.945-.048-4.408-.272ZM7.257 13.163c-.79-.26-1.583-.52-2.408-.538.716.17 1.381.514 2.027.886.897.535 1.755 1.109 2.652 1.613.029.01.056.024.084.038.06.031.12.063.189.042.726-.161 1.401-.453 2.047-.816-1.234-.098-2.4-.492-3.566-.885-.264-.09-.527-.178-.791-.264l-.234-.076ZM5.575 14.247c-.575-.282-1.22-.373-1.856-.413a7.511 7.511 0 0 0 3.671 1.531l-.222-.154c-.51-.354-1.02-.709-1.593-.964Z"
    fill="#fff"/>
  <path fill-rule="evenodd" clip-rule="evenodd"
        d="M16.003 7.314C15.63 2.911 11.828-.344 7.501.03a7.84 7.84 0 0 0-5.517 3.063C-.678 6.59-.053 11.617 3.376 14.328a7.745 7.745 0 0 0 9.823-.172c1.977-1.673 3.026-4.232 2.804-6.842Zm-15.4 1.31C.27 4.372 3.386.644 7.562.301a7.472 7.472 0 0 1 4.67 1.179 7.783 7.783 0 0 1 3.499 5.905c.333 4.262-2.774 7.98-6.96 8.323C4.597 16.05.936 12.877.604 8.624ZM24.85 7.55l-.153-.135-.303.353c-.645-.282-1.512-.222-1.966.373-.414.524-.222 1.38.353 1.702-.144.082-.3.194-.385.339a.446.446 0 0 0-.06.306c.01.12.065.216.145.288.11.099.265.154.41.166.211.036.423.013.636-.01.103-.012.206-.024.31-.028.152-.007.305.002.457.048.06.02.11.07.14.12a.259.259 0 0 1 .004.227.23.23 0 0 1-.104.106c-.514.283-1.17.171-1.604-.211-.171.191-.343.393-.514.594.776.524 1.866.615 2.662.101.474-.292.535-1.078.071-1.41-.383-.243-.877-.232-1.311-.152l-.096.015c-.06.01-.12.021-.18.023a.403.403 0 0 1-.178-.028c-.13-.06-.01-.181.07-.211.124-.075.256-.063.389-.05.062.006.125.012.187.01.173 0 .346-.035.507-.1a1.2 1.2 0 0 0 .602-.515 1.373 1.373 0 0 0-.05-1.31c.06-.046.123-.088.186-.131a5.06 5.06 0 0 0 .187-.131l-.138-.116a27.69 27.69 0 0 1-.274-.234Zm-1.646 1.74c-.282-.273-.222-.857.172-1.008a.74.74 0 0 1 .367-.042c.16.023.308.101.4.243.2.292.11.806-.243.937-.232.07-.514.05-.696-.13ZM60.269 7.415l-.313.343c-.635-.283-1.503-.212-1.977.383-.413.524-.222 1.39.353 1.702-.202.121-.454.303-.444.575 0 .232.152.433.374.483.278.099.567.07.856.043.213-.021.427-.042.636-.012.162.01.323.181.252.352a.418.418 0 0 1-.172.162c-.121.065-.27.085-.405.103h-.004l-.054.007c-.393.03-.787-.1-1.09-.362-.11.139-.227.273-.345.41l-.158.184c.393.272.857.423 1.33.444.505.02 1.03-.081 1.433-.413.403-.333.393-1.089-.07-1.36-.404-.233-.888-.213-1.322-.122l-.07.01-.005.002c-.133.023-.277.048-.379-.062.01-.14.147-.181.262-.216l.051-.016c.212 0 .424.04.635 0a1.18 1.18 0 0 0 .918-.715 1.349 1.349 0 0 0-.1-1.18l.083-.06.1-.068.078-.054.062-.043.05-.036c-.104-.088-.208-.175-.31-.263a15.886 15.886 0 0 1-.255-.221ZM58.887 9.37c-.394-.212-.383-.917.05-1.088.232-.091.535-.07.706.11.212.212.212.565.071.817-.172.271-.565.302-.827.16Z"
        fill="#fff"/>
  <path
    d="M33.602 7.94c-.534-.434-1.391-.485-1.906 0l-.14-.273H31v3.275h.807a162 162 0 0 0-.002-.766c-.002-.505-.005-1.008.002-1.511a.25.25 0 0 1 .083-.18c.05-.05.115-.09.173-.127l.018-.01.039-.026c.323-.192.877-.02.867.413.005.296.005.592.005.888l-.002.577c-.002.247-.003.494-.003.742h.807c.01-.796-.01-1.582.01-2.378.192-.323.676-.423.978-.192.162.131.192.363.192.565v2.005h.807V8.735c0-.353-.141-.725-.444-.927-.524-.333-1.26-.262-1.735.131Z"
    fill="#fff"/>
  <path fill-rule="evenodd" clip-rule="evenodd"
        d="M38.938 7.969c-.716-.554-1.836-.483-2.43.212-.445.484-.515 1.22-.314 1.824.182.544.716.927 1.261.977.555.05 1.15.02 1.624-.302-.07-.139-.144-.277-.216-.412l-.023-.045-.074-.138c-.373.302-.897.343-1.32.192a.684.684 0 0 1-.319-.228.967.967 0 0 1-.196-.508h2.47c.172-.554 0-1.21-.463-1.572Zm-1.977.988c.07-.283.232-.564.514-.655.293-.09.646-.081.898.1.181.131.232.343.282.555h-1.694ZM46.29 7.738a2.616 2.616 0 0 0-1.815.05 8.46 8.46 0 0 0 .171.594c.19-.075.398-.128.607-.143a1.44 1.44 0 0 1 .624.083c.119.041.196.132.245.241.034.076.055.16.067.242a2.68 2.68 0 0 0-.693-.025 2.658 2.658 0 0 0-.527.106 1.715 1.715 0 0 0-.43.221 1.168 1.168 0 0 0-.2.188.893.893 0 0 0-.167.307c-.11.362-.07.806.202 1.078.262.262.635.332.988.322.123-.007.25-.027.372-.061.2-.057.388-.155.526-.312l.005.009c.046.07.094.146.154.21a.461.461 0 0 0 .214.134c.232.05.494.01.635-.201a.808.808 0 0 1-.252-.514c-.025-.24-.024-.48-.023-.718 0-.146.001-.29-.004-.436a3.33 3.33 0 0 0-.063-.57c-.061-.352-.293-.685-.636-.805Zm-1.12 2.61c-.332-.122-.312-.646-.03-.817.303-.191.696-.181 1.05-.13l-.002.064v.097c0 .237.002.483-.17.654-.232.202-.575.212-.847.131Z"
        fill="#fff"/>
  <path
    d="M50.133 7.94c-.525-.434-1.392-.485-1.896 0-.05-.092-.111-.182-.192-.273h-.555v3.275h.807V8.665c0-.147.14-.234.256-.307.02-.013.04-.024.057-.036.323-.192.877-.02.877.413.012.418.01.835.008 1.252v.152c-.001.267-.001.535.002.803h.807c.01-.796-.01-1.582.01-2.378.202-.323.686-.423.989-.192.161.141.191.373.191.575v2.005h.807c0-.746.01-1.481 0-2.217.01-.353-.141-.725-.444-.927-.514-.333-1.25-.262-1.724.131ZM56.739 7.687c-.505-.161-1.13-.121-1.523.272l-.03-.059a2.41 2.41 0 0 1-.068-.163 1.554 1.554 0 0 1-.023-.07h-.585v3.275h.807c0-.796-.01-1.592 0-2.388.282-.283.736-.404 1.109-.212.121.068.196.18.239.308a.986.986 0 0 1 .045.21c.006.053.008.106.008.157v1.935h.807c-.004-.311-.003-.622-.002-.933.002-.415.004-.829-.008-1.244-.02-.483-.322-.937-.776-1.088ZM21.873 7.667h-1.26c0 .07 0 .141.002.212.002.14.004.279-.003.413h.444v2.65h.817V7.667ZM30.385 7.667h-1.26v.625h.443v2.65h.817V7.667ZM53.885 7.667h-1.261v.212c.001.137.003.273.01.413h.444v2.65h.806V7.667ZM42.66 6.397c-.606-.04-1.251.081-1.735.454a2.133 2.133 0 0 0-.807 1.4c-.111.746.02 1.562.544 2.116.394.454 1.019.655 1.604.645.595 0 1.22-.13 1.725-.483V8.513h-1.493V9.2h.656v.886c-.616.424-1.564.252-1.957-.393-.272-.443-.293-.997-.182-1.491.111-.514.525-.967 1.05-1.058.483-.121.968.06 1.37.332.122-.211.233-.433.354-.644a2.054 2.054 0 0 0-1.13-.434Z"
    fill="#fff"/>
  <path fill-rule="evenodd" clip-rule="evenodd"
        d="M17.854 6.439c-.186.007-.372.015-.56.019l-.02 4.474c.168 0 .336 0 .506.002.204.001.41.003.614.002.135 0 .27-.002.403-.004.494 0 1.018-.151 1.372-.534.342-.363.373-.927.181-1.37a.948.948 0 0 0-.25-.343 1.471 1.471 0 0 0-.304-.202 1.791 1.791 0 0 0-.192-.08c.103-.059.206-.125.295-.204a.887.887 0 0 0 .18-.214.696.696 0 0 0 .07-.157c.11-.383-.01-.826-.323-1.078-.323-.252-.747-.322-1.15-.333-.276 0-.549.011-.822.022Zm.277 1.732V7.103c.074 0 .148-.003.223-.006.1-.004.201-.008.3-.005.17.006.336.032.486.111.322.182.272.726-.06.877-.199.096-.42.108-.64.102a6.18 6.18 0 0 1-.149-.005l-.16-.006Zm0 2.106V8.805c.363-.01.737-.04 1.07.081.554.171.534 1.149-.02 1.32-.334.121-.697.09-1.05.07Z"
        fill="#fff"/>
  <path
    d="M21.873 6.468h-1.25c0 .116-.003.234-.006.352-.002.119-.005.237-.005.353h1.261v-.705ZM28.862 6.458h-3.348v.715h1.503v3.769h.847V7.173h.998v-.715ZM30.375 6.468h-1.25v.705h1.25v-.705ZM53.895 6.468h-1.261c0 .232 0 .473.01.705h1.25v-.705Z"
    fill="#fff"/>
</svg>
