<svg width="120" height="32" viewBox="0 0 120 32" fill="none" xmlns="http://www.w3.org/2000/svg">
<path d="M84.989 10.9326H83.8205C83.6407 10.9326 83.5508 10.9326 83.5508 10.7528C83.4609 10.3034 83.371 9.85388 83.1913 9.40447C82.7418 8.41572 81.9328 7.87639 80.9441 7.7865C80.3149 7.69662 79.7756 7.7865 79.1463 7.96628C78.3373 8.23594 77.7081 8.77526 77.4385 9.58425C77.2587 9.9438 77.1688 10.3033 77.1688 10.7528V10.8427C77.1688 10.8876 77.1688 10.9101 77.1576 10.9213C77.1463 10.9326 77.1239 10.9326 77.0789 10.9326H74.4722C74.4272 10.9326 74.4048 10.9326 74.3935 10.9213C74.3823 10.9101 74.3823 10.8876 74.3823 10.8427C74.3823 10.6629 74.3823 10.573 74.2924 10.3932C74.2025 9.85391 74.0228 9.40447 73.6632 8.95504C73.1239 8.14605 72.4048 7.7865 71.416 7.69662C71.0565 7.69662 70.607 7.69662 70.2475 7.7865C69.2587 8.05617 68.5396 8.68538 68.1801 9.58425C68.0003 9.9438 67.9104 10.3033 67.9104 10.6629C67.9104 10.7977 67.9104 10.8651 67.8767 10.8988C67.843 10.9326 67.7756 10.9326 67.6408 10.9326H65.3037C65.1239 10.9326 65.1239 10.9326 65.1239 10.7528C65.1239 10.573 65.1239 10.3932 65.2138 10.3033C65.3936 9.31459 65.7531 8.32583 66.2924 7.42695C67.1014 6.16853 68.3599 5.35955 69.8879 5.08989C70.2475 5 70.6969 5 71.2362 5C72.4048 5 73.4834 5.35955 74.3823 6.07865C74.8317 6.4382 75.1913 6.79774 75.5508 7.24718C75.5958 7.29212 75.6183 7.33707 75.6407 7.38201C75.6632 7.42695 75.6857 7.4719 75.7306 7.51684C75.7306 7.60673 75.8205 7.60673 75.8205 7.51684C75.9104 7.42696 76.0003 7.33707 76.0003 7.24718C76.3598 6.79774 76.7194 6.4382 77.1688 6.07865C78.0677 5.35955 79.1463 5 80.3149 5C81.034 5 81.7531 5.08989 82.4722 5.26966C83.6407 5.62921 84.5396 6.4382 85.1688 7.42695C85.7081 8.23594 86.0676 9.13481 86.2474 10.1236C86.2474 10.2135 86.2699 10.3033 86.2924 10.3932C86.3148 10.4831 86.3373 10.573 86.3373 10.6629C86.3373 10.8427 86.3373 10.8427 86.1575 10.8427H85.5283C85.2587 10.9326 85.0789 10.9326 84.989 10.9326Z" fill="white"/>
<path d="M30.517 11.7415H31.6855C31.7754 11.7415 31.8203 11.7415 31.8428 11.764C31.8653 11.7864 31.8653 11.8314 31.8653 11.9213V12.5505C31.8653 13.0898 31.9552 13.5392 32.1349 13.9887C32.4945 14.7977 33.0338 15.4269 33.7529 15.8763C34.2023 16.146 34.7417 16.3258 35.281 16.3258C35.9102 16.4156 36.5394 16.4156 37.1686 16.2359C38.6967 15.8763 39.5956 14.9774 40.045 13.4494C40.1349 13.1797 40.1349 12.91 40.1349 12.5505V11.8314C40.1349 11.7415 40.1349 11.6516 40.2248 11.6516H42.7416C42.8315 11.6516 42.8315 11.6516 42.8315 11.8314C42.8315 12.6404 42.8315 13.4494 42.6517 14.2583C42.3821 15.1572 42.0225 15.9662 41.4832 16.7752C40.7641 17.7639 39.7753 18.3932 38.6068 18.7527C37.8877 19.0224 37.0787 19.1123 36.2697 19.1123C35.4608 19.1123 34.6518 19.1123 33.8428 18.8426C31.8653 18.3033 30.4271 17.1347 29.6181 15.1572C29.3484 14.4381 29.0788 13.719 29.0788 12.9999V11.7415C29.0788 11.6516 29.1686 11.6516 29.1686 11.6516H29.708C30.0675 11.7415 30.3372 11.7415 30.517 11.7415Z" fill="white"/>
<path d="M40.315 10.6629C40.315 10.7528 40.315 10.8427 40.4049 10.9326C40.4049 10.9326 40.4948 10.9326 40.5847 11.0224H42.9218C43.1015 11.0224 43.1015 10.9326 43.1015 10.8427V10.573C43.0117 10.2135 42.9218 9.85391 42.8319 9.58425C42.4723 8.59549 42.0229 7.7865 41.3038 6.97752C40.4948 6.16853 39.5061 5.53932 38.3375 5.26966C37.4386 5 36.5398 5 35.6409 5C35.2451 5 34.8494 5.07112 34.4313 5.14626C34.1846 5.19059 33.9302 5.23631 33.6634 5.26966C32.3151 5.62921 31.2364 6.4382 30.4274 7.51684C29.8881 8.23594 29.4387 9.13481 29.2589 10.1236C29.2589 10.272 29.2317 10.3932 29.2072 10.5022C29.1872 10.5912 29.169 10.672 29.169 10.7528C29.169 10.8427 29.169 10.8876 29.1915 10.9101C29.214 10.9326 29.2589 10.9326 29.3488 10.9326H31.7757C31.8656 10.9326 31.9106 10.9326 31.9331 10.9101C31.9555 10.8876 31.9555 10.8427 31.9555 10.7528C32.0454 10.3034 32.1353 9.85391 32.405 9.49436C32.8544 8.68538 33.5735 8.23594 34.4724 7.96628C35.1915 7.7865 35.8207 7.7865 36.5398 7.7865C37.0791 7.7865 37.6184 7.87639 38.0679 8.05617C39.3263 8.59549 40.0454 9.40447 40.315 10.6629Z" fill="white"/>
<path d="M20.2701 5.08988C20.7409 5.08988 21.1432 5.15838 21.5966 5.23558C21.6626 5.24681 21.7298 5.25825 21.7982 5.26965C22.6971 5.53931 23.506 5.89886 24.2251 6.43819C25.3038 7.24717 25.933 8.32582 26.2027 9.67413C26.2925 9.94379 26.2925 10.3033 26.2925 10.573V10.7528C26.2925 10.9325 26.2925 10.9326 26.1128 10.9326H23.5959C23.551 10.9326 23.5285 10.9326 23.5173 10.9213C23.506 10.9101 23.506 10.8876 23.506 10.8427C23.506 10.6629 23.506 10.3932 23.4162 10.2135C23.3263 9.76401 23.1465 9.31458 22.8768 8.86514C22.4274 8.23593 21.7982 7.96627 21.0791 7.7865H17.933C17.8431 7.7865 17.8431 7.87638 17.8431 7.87638V10.6629C17.8431 10.7977 17.8431 10.8651 17.8094 10.8988C17.7757 10.9326 17.7083 10.9326 17.5735 10.9326H15.1465C15.1016 10.9326 15.0791 10.9326 15.0679 10.9213C15.0566 10.9101 15.0566 10.8876 15.0566 10.8427V5.35954C15.0566 5.0719 15.0566 5.0719 15.2407 5.08341C15.2867 5.08628 15.3443 5.08988 15.4162 5.08988H20.2701Z" fill="white"/>
<path d="M50.4723 19.2022C51.8206 19.2022 53.1689 19.2022 54.4273 19.2921H54.697C54.7869 19.2921 54.7869 19.2921 54.7869 19.2022V16.8652C54.7869 16.6854 54.7869 16.5955 54.7419 16.5506C54.697 16.5056 54.6071 16.5056 54.4273 16.5056H49.3038C49.124 16.5056 49.0341 16.5056 48.9892 16.4607C48.9442 16.4157 48.9442 16.3258 48.9442 16.1461V11.9214C48.9442 11.8764 48.9442 11.8539 48.933 11.8427C48.9217 11.8315 48.8993 11.8315 48.8543 11.8315H46.6071C46.4274 11.8315 46.3375 11.8315 46.2925 11.8764C46.2476 11.9214 46.2476 12.0112 46.2476 12.191V19.1123C46.2476 19.1573 46.2476 19.1798 46.2588 19.191C46.2701 19.2022 46.2925 19.2022 46.3375 19.2022H50.4723Z" fill="white"/>
<path d="M100.36 5H104.854C104.899 5 104.921 5 104.933 5.01124C104.944 5.02247 104.944 5.04494 104.944 5.08989V7.60673C104.944 7.65167 104.944 7.67415 104.933 7.68538C104.921 7.69662 104.899 7.69662 104.854 7.69662H102.068C101.933 7.69662 101.865 7.69662 101.832 7.73032C101.798 7.76403 101.798 7.83145 101.798 7.96628V10.7528C101.798 10.8427 101.798 10.9326 101.618 10.9326H99.1013C99.0564 10.9326 99.0339 10.9326 99.0226 10.9213C99.0114 10.9101 99.0114 10.8876 99.0114 10.8427V8.05617C99.0114 7.87639 99.0114 7.87639 98.8316 7.87639H96.2249C96.1459 7.87639 96.0804 7.87832 96.0262 7.87992C95.8952 7.88377 95.8297 7.8857 95.7979 7.85392C95.7662 7.82214 95.7681 7.75665 95.7719 7.62568C95.7735 7.57142 95.7755 7.50594 95.7755 7.42695V5.17977C95.7755 5.13483 95.7755 5.11236 95.7867 5.10112C95.7979 5.08989 95.8204 5.08989 95.8654 5.08989H96.135C97.4833 5 98.9215 5 100.36 5Z" fill="white"/>
<path d="M89.7526 11.9213V18.8426C89.7526 19.0224 89.8425 19.0224 89.9324 19.0224H92.2695C92.4043 19.0224 92.4717 19.0224 92.5054 18.9887C92.5392 18.955 92.5392 18.8875 92.5392 18.7527V11.7415C92.5392 11.7415 92.5392 11.6516 92.4493 11.6516H90.0223C89.7526 11.6516 89.7526 11.6516 89.7526 11.9213Z" fill="white"/>
<path d="M83.5504 15.4269V12.0112C83.5504 11.8764 83.5504 11.809 83.5841 11.7752C83.6179 11.7415 83.6853 11.7415 83.8201 11.7415H86.1572C86.2021 11.7415 86.2246 11.7415 86.2358 11.7528C86.247 11.764 86.247 11.7865 86.247 11.8314V19.0224C86.247 19.0572 86.247 19.0785 86.2367 19.0915C86.2202 19.1123 86.1776 19.1123 86.0673 19.1123H83.5504C83.5055 19.1123 83.483 19.1123 83.4718 19.1011C83.4605 19.0898 83.4605 19.0674 83.4605 19.0224V18.7527C83.5504 17.6741 83.5504 16.5955 83.5504 15.4269Z" fill="white"/>
<path d="M77.0788 18.8426V11.8314C77.0788 11.7865 77.0788 11.764 77.0676 11.7528C77.0564 11.7415 77.0339 11.7415 76.9889 11.7415H74.6519C74.3822 11.7415 74.3822 11.7415 74.3822 12.1011V19.1123C74.3822 19.1572 74.3822 19.1797 74.3934 19.1909C74.4047 19.2022 74.4272 19.2022 74.4721 19.2022H76.8092C76.9311 19.2022 76.9979 19.2022 77.0345 19.1689C77.0788 19.1287 77.0788 19.0396 77.0788 18.8426Z" fill="white"/>
<path d="M58.4723 15.4269V11.9213C58.4723 11.7864 58.4723 11.719 58.506 11.6853C58.5397 11.6516 58.6071 11.6516 58.7419 11.6516H61.079C61.1689 11.6516 61.1689 11.7415 61.1689 11.7415V18.9325C61.1689 19.0224 61.1689 19.0673 61.1464 19.0898C61.1239 19.1123 61.079 19.1123 60.9891 19.1123H58.5621C58.4723 19.1123 58.3824 19.1123 58.3824 18.9325V18.6628C58.4723 17.6741 58.4723 16.5954 58.4723 15.4269Z" fill="white"/>
<path d="M17.6635 19.0224C17.6635 19.0224 17.7533 19.1123 17.8432 19.0224C17.8432 18.9325 17.8432 18.8426 18.023 18.7527V11.8314C18.023 11.7865 18.023 11.764 18.0118 11.7528C18.0005 11.7415 17.9781 11.7415 17.9331 11.7415H15.4163C15.2365 11.7415 15.2365 11.8314 15.2365 11.9213V18.9325C15.2365 18.9775 15.2365 18.9999 15.2477 19.0112C15.259 19.0224 15.2814 19.0224 15.3264 19.0224H17.6635Z" fill="white"/>
<path d="M26.3824 18.9325C26.3824 19.1123 26.3824 19.1123 26.2027 19.1123H23.6858C23.6409 19.1123 23.6184 19.1123 23.6072 19.1011C23.5959 19.0898 23.5959 19.0674 23.5959 19.0224V12.0112C23.5959 11.8764 23.5959 11.809 23.6296 11.7753C23.6633 11.7415 23.7308 11.7415 23.8656 11.7415H26.2027C26.2925 11.7415 26.3824 11.7415 26.3824 11.9213V18.9325Z" fill="white"/>
<path d="M65.0337 15.4269C65.0337 16.5955 65.0337 17.6741 65.1236 18.6629V18.9325C65.1236 19.0224 65.1236 19.0674 65.146 19.0898C65.1685 19.1123 65.2134 19.1123 65.3033 19.1123H67.7303C67.8202 19.1123 67.8202 19.1123 67.8202 19.0224V11.8314C67.7685 11.7798 67.7465 11.7578 67.7201 11.7484C67.7006 11.7415 67.6786 11.7415 67.6404 11.7415H65.1236C65.0337 11.7415 65.0337 11.7415 65.0337 11.8314V15.4269Z" fill="white"/>
<path d="M101.798 18.8426C101.798 19.2022 101.798 19.2022 101.528 19.2022H99.1911C99.1461 19.2022 99.1237 19.2022 99.1124 19.1909C99.1012 19.1797 99.1012 19.1572 99.1012 19.1123V12.191C99.1012 11.9681 99.1012 11.8779 99.145 11.8435C99.1749 11.8201 99.225 11.8226 99.3093 11.8268C99.3509 11.8289 99.4008 11.8314 99.4607 11.8314H101.708C101.753 11.8314 101.775 11.8314 101.787 11.8426C101.798 11.8539 101.798 11.8764 101.798 11.9213V18.8426Z" fill="white"/>
<path d="M92.5392 5.17977C92.5392 5.08989 92.5392 5.04494 92.5167 5.02247C92.4942 5 92.4493 5 92.3594 5H89.9324C89.7526 5 89.7526 5.08989 89.7526 5.17977V10.7528C89.7526 10.9326 89.7526 10.9326 89.9324 10.9326H92.3594C92.4493 10.9326 92.4942 10.9326 92.5167 10.9101C92.5392 10.8876 92.5392 10.8427 92.5392 10.7528V5.17977Z" fill="white"/>
<path d="M58.4721 7.96628V5.26966C58.4721 5.13486 58.4721 5.06741 58.5058 5.03371C58.5395 5 58.6069 5 58.7418 5H61.1687C61.2586 5 61.2586 5 61.2586 5.08989V10.573C61.2586 10.77 61.2586 10.859 61.2143 10.8993C61.1777 10.9326 61.1109 10.9326 60.9889 10.9326H58.6519C58.6069 10.9326 58.5845 10.9326 58.5732 10.9213C58.562 10.9101 58.562 10.8876 58.562 10.8427V10.573C58.4721 9.76402 58.4721 8.86515 58.4721 7.96628Z" fill="white"/>
<path d="M49.0341 10.6629V7.96628C49.0341 7.15729 49.0341 6.25842 48.9442 5.35955V5.08989C48.9442 5.08989 48.9442 5 48.8543 5H46.6071C46.4274 5 46.3375 5 46.2925 5.04494C46.2476 5.08988 46.2476 5.17976 46.2476 5.35951V10.8427C46.2476 10.8427 46.2476 10.9326 46.3375 10.9326H48.7644C48.8993 10.9326 48.9667 10.9326 49.0004 10.8989C49.0341 10.8651 49.0341 10.7977 49.0341 10.6629Z" fill="white"/>
<path d="M35.641 25.2247C35.8208 24.9551 36.1804 24.7753 36.5399 24.7753C36.7197 24.7753 36.8995 24.7753 37.1691 24.8652L37.7084 25.1348L38.068 24.3259C37.6185 24.0562 37.0792 23.9663 36.6298 23.9663C36.0905 23.9663 35.7309 24.0562 35.3714 24.236C35.0118 24.4158 34.7422 24.7753 34.5624 25.1348C34.3826 25.4944 34.2927 25.9438 34.2927 26.4832C34.2927 27.2921 34.4725 27.9214 34.832 28.3708C35.1916 28.8202 35.7309 29 36.45 29C36.9893 29 37.4388 28.9101 37.7983 28.7303V27.8315C37.259 28.0112 36.8995 28.1011 36.5399 28.1011C35.7309 28.1011 35.2815 27.5618 35.2815 26.4832C35.2815 25.9438 35.4613 25.4944 35.641 25.2247Z" fill="white"/>
<path d="M50.8323 24.0562V28.9102H51.9109V24.0562H50.8323Z" fill="white"/>
<path d="M66.8316 28.9101H65.8429V24.8652H64.4945V23.9663H68.1799V24.8652H66.8316V28.9101Z" fill="white"/>
<path d="M83.5508 24.0562L82.5621 26.0337L81.5733 23.9663H80.4048L82.0228 27.0225V28.9101H83.0115V27.0225L84.6295 24.0562H83.5508Z" fill="white"/>
</svg>
