<svg width="72" height="32" viewBox="0 0 72 32" fill="none" xmlns="http://www.w3.org/2000/svg">
<path d="M56.4968 8.91845C54.6584 9.06414 52.9337 9.62154 51.4238 10.5083C50.8931 8.98813 49.5854 5.96675 47.2163 4.73793C48.3977 4.33888 50.95 5.80206 51.9987 7.89232C51.1521 4.69359 51.19 1.0388 51.2343 0.00633412L51.2659 0C51.8408 0.880444 53.7739 4.03484 54.6963 7.21457C54.5194 4.90261 55.9788 2.42597 57.217 2.21694C55.8714 4.2692 56.1809 7.26524 56.4968 8.91845Z" fill="white"/>
<path d="M56.9959 13.213C57.514 11.9905 59.365 11.6041 61.1339 12.3579C62.9029 13.1116 63.9137 14.7142 63.3956 15.9367C62.8776 17.1592 61.0265 17.5455 59.2576 16.7918C57.4887 16.038 56.4779 14.4355 56.9959 13.213Z" fill="white"/>
<path fill-rule="evenodd" clip-rule="evenodd" d="M50.3189 18.2042C50.938 18.2042 51.3866 18.2612 51.6582 18.3752C51.9299 18.4955 52.1447 18.6792 52.2963 18.9326C52.4542 19.1923 52.5364 19.4963 52.5364 19.8574C52.5364 20.2501 52.4353 20.5795 52.2268 20.8455C52.0246 21.1115 51.7403 21.2952 51.3866 21.3966C51.1781 21.4536 50.799 21.4852 50.2494 21.4852V23.8922H49.1691V18.2042H50.3189ZM51.1591 20.3704C51.2602 20.3324 51.3423 20.2691 51.4055 20.1804C51.4687 20.0917 51.494 19.9841 51.5003 19.8574C51.5003 19.6357 51.4181 19.4773 51.2476 19.376C51.1212 19.3 50.8938 19.262 50.5589 19.262H50.2557V20.4274H50.5969C50.8685 20.4274 51.0517 20.4084 51.1591 20.3704Z" fill="white"/>
<path d="M53.5977 18.2042H54.678V22.8597H56.2511V23.8922H53.5977V18.2042Z" fill="white"/>
<path fill-rule="evenodd" clip-rule="evenodd" d="M58.1337 23.8922H57.0092L59.1951 18.2042H60.2943L62.4739 23.8922H61.3494L60.9072 22.7204H58.5949L58.1337 23.8922ZM59.751 19.7117L58.9929 21.6626H60.5092L59.751 19.7117Z" fill="white"/>
<path d="M62.8846 18.2042L63.9396 20.2501L65.001 18.2042H66.1444L64.4829 21.4282V23.8922H63.3963V21.4282L61.7284 18.2042H62.8846Z" fill="white"/>
<path fill-rule="evenodd" clip-rule="evenodd" d="M46.376 20.8836C46.376 14.7458 51.3417 9.76722 57.4634 9.76722C63.5852 9.76722 68.5508 14.7458 68.5508 20.8836C68.5508 27.0214 63.5852 32 57.4634 32C51.3417 32 46.376 27.0214 46.376 20.8836ZM47.6017 20.8836C47.6017 26.3436 52.0177 30.7712 57.4634 30.7712C62.9092 30.7712 67.3252 26.3436 67.3252 20.8836C67.3252 15.4236 62.9092 10.996 57.4634 10.996C52.0177 10.996 47.6017 15.4236 47.6017 20.8836Z" fill="white"/>
<path fill-rule="evenodd" clip-rule="evenodd" d="M1.30071 18.2042C1.91983 18.2042 2.36838 18.2612 2.64004 18.3752C2.9117 18.4955 3.13281 18.6792 3.28443 18.9326C3.44237 19.1923 3.5245 19.4963 3.5245 19.8574C3.5245 20.2501 3.42342 20.5795 3.21494 20.8455C3.01278 21.1115 2.72849 21.2952 2.3747 21.3966C2.16622 21.4536 1.78716 21.4852 1.23753 21.4852V23.8922H0.157227V18.2042H1.30071ZM2.14095 20.3704C2.24203 20.3324 2.32416 20.2691 2.38734 20.1804C2.45051 20.0917 2.4821 19.9841 2.4821 19.8574C2.4821 19.6357 2.39997 19.4773 2.2294 19.376C2.10304 19.3 1.87561 19.262 1.54078 19.262H1.23753V20.4274H1.57868C1.85034 20.4274 2.03355 20.4084 2.14095 20.3704Z" fill="white"/>
<path fill-rule="evenodd" clip-rule="evenodd" d="M8.01631 19.8574C8.01631 20.2311 7.92786 20.5415 7.75097 20.7948C7.57408 21.0482 7.30874 21.2382 6.94863 21.3649L8.29428 23.8922H7.11289L5.83674 21.4852H5.73566V23.8922H4.65535V18.2042H5.79252C6.41796 18.2042 6.86651 18.2612 7.13184 18.3752C7.4035 18.4892 7.61198 18.6729 7.77624 18.9326C7.93418 19.1923 8.01631 19.5027 8.01631 19.8574ZM6.07681 20.4274C6.41796 20.4274 6.65803 20.3831 6.78438 20.2944C6.91073 20.1994 6.9739 20.0537 6.98022 19.8384C6.98022 19.718 6.94863 19.604 6.88546 19.5153C6.82228 19.4266 6.73384 19.357 6.62644 19.319C6.51904 19.281 6.31688 19.262 6.03258 19.262H5.73566V20.4274H6.07681Z" fill="white"/>
<path fill-rule="evenodd" clip-rule="evenodd" d="M8.70492 23.8922L10.8908 18.2042H11.9901L14.1696 23.8922H13.0451L12.6029 22.7204H10.2906L9.82946 23.8922H8.70492ZM11.4468 19.7117L10.6886 21.6626H12.2049L11.4468 19.7117Z" fill="white"/>
<path d="M17.7833 22.03V21.0165H20.6325L20.6388 21.2572C20.6388 21.7513 20.5125 22.2263 20.2535 22.6697C19.9945 23.1131 19.6659 23.4552 19.2553 23.6895C18.8447 23.9239 18.3645 24.0442 17.8149 24.0442C17.2274 24.0442 16.703 23.9112 16.2418 23.6578C15.7806 23.4045 15.4205 23.0371 15.1489 22.562C14.8772 22.087 14.7445 21.5802 14.7445 21.0292C14.7445 20.2754 14.9909 19.623 15.49 19.0656C16.0775 18.4005 16.8483 18.0711 17.7896 18.0711C18.2824 18.0711 18.7436 18.1598 19.1732 18.3435C19.5333 18.5019 19.8871 18.7679 20.2345 19.1416L19.4764 19.8954C18.9963 19.3823 18.434 19.1289 17.7959 19.1289C17.24 19.1289 16.7725 19.3126 16.3934 19.6863C16.0207 20.0601 15.8312 20.5098 15.8312 21.0418C15.8312 21.5866 16.027 22.0553 16.4187 22.4354C16.8104 22.8154 17.2905 23.0054 17.8654 23.0054C18.2382 23.0054 18.5477 22.9294 18.8067 22.7711C19.0595 22.6127 19.2679 22.3657 19.4259 22.03H17.7833Z" fill="white"/>
<path d="M24.5558 22.1693L25.8824 18.2042H26.9312L27.8851 23.8922H26.8427L26.2362 20.3008L25.0296 23.8922H24.0756L22.8816 20.3008L22.2562 23.8922H21.2074L22.1867 18.2042H23.2417L24.5558 22.1693Z" fill="white"/>
<path fill-rule="evenodd" clip-rule="evenodd" d="M28.2894 23.8922L30.4753 18.2042H31.5746L33.7542 23.8922H32.6296L32.1874 22.7204H29.8752L29.414 23.8922H28.2894ZM31.025 19.7117L30.2669 21.6626H31.7831L31.025 19.7117Z" fill="white"/>
<path d="M35.0303 19.2746H34.0258V18.2105H37.1593V19.2746H36.1233V23.8922H35.0303V19.2746Z" fill="white"/>
<path d="M38.8967 23.8922H37.8227V18.2042H38.8967V23.8922Z" fill="white"/>
<path d="M44.5636 19.927C44.0518 19.3823 43.4769 19.1099 42.8325 19.1099C42.2955 19.1099 41.8344 19.2936 41.4679 19.6737C41.0952 20.0474 40.912 20.5035 40.912 21.0482C40.912 21.4219 40.9941 21.7639 41.1584 22.0553C41.3226 22.3467 41.5501 22.5747 41.8533 22.7457C42.1566 22.9167 42.4914 22.9991 42.8578 22.9991C43.1737 22.9991 43.458 22.9421 43.717 22.8217C43.976 22.7077 44.2603 22.4924 44.5699 22.182L45.2964 22.9421C44.8794 23.3538 44.4814 23.6388 44.1087 23.7972C43.736 23.9555 43.3127 24.0379 42.8325 24.0379C41.9481 24.0379 41.2279 23.7592 40.6656 23.1955C40.1033 22.638 39.8254 21.916 39.8254 21.0418C39.8254 20.4718 39.958 19.9714 40.2107 19.528C40.4698 19.0846 40.8362 18.7299 41.31 18.4639C41.7901 18.1978 42.3019 18.0648 42.8515 18.0648C43.319 18.0648 43.7675 18.1662 44.2035 18.3625C44.6331 18.5589 45.0058 18.8376 45.3217 19.205L44.5636 19.927Z" fill="white"/>
<path d="M68.9494 18.5209H68.6273V18.1852H69.6254V18.5209H69.2969V19.9841H68.9494V18.5209Z" fill="white"/>
<path d="M71.2048 18.1788H71.5397L71.8429 19.9841H71.5144L71.3186 18.8439L70.9332 19.9841H70.6299L70.2509 18.8439L70.055 19.9841H69.7202L70.0298 18.1788H70.3646L70.7816 19.4393L71.2048 18.1788Z" fill="white"/>
</svg>
