<svg width="94" height="23" viewBox="0 0 94 23" fill="none" xmlns="http://www.w3.org/2000/svg">
<path d="M51.5406 0.68318C51.4983 0.679017 51.4513 0.674389 51.4298 0.632812H51.0306C51.0306 0.6679 50.9943 0.6679 50.9943 0.6679C50.5587 0.738076 50.2683 0.948602 50.0143 1.29948C49.0705 2.59793 48.1176 3.90516 47.1646 5.21239L47.1635 5.21391C46.2113 6.52021 45.2591 7.82651 44.3159 9.12404C43.6626 10.0012 43.0456 10.8433 42.4286 11.7205C42.0656 12.2118 42.1019 12.8784 42.4649 13.3346C42.8278 13.8258 43.4811 14.0012 44.0619 13.7907C44.3885 13.6854 44.6063 13.4749 44.7878 13.2293C45.9128 11.6855 47.0379 10.133 48.163 8.5805C49.288 7.02801 50.4136 5.47477 51.5387 3.93106C51.829 3.54514 52.1194 3.15909 52.3735 2.77316C52.8816 2.00123 52.5187 0.98369 51.6113 0.702988C51.5965 0.688689 51.5696 0.686044 51.5406 0.68318Z" fill="white"/>
<path d="M93.3868 18.5627C93.3868 18.5802 93.3777 18.589 93.3686 18.5978C93.3595 18.6065 93.3505 18.6153 93.3505 18.6328C93.2416 19.2644 92.8423 19.6855 92.1527 19.7907C91.572 19.896 90.955 19.5802 90.7009 19.0539L90.1565 18.0013C88.8871 15.4594 87.6269 12.9175 86.3666 10.3757L86.3636 10.3696C85.1024 7.8258 83.8411 5.28195 82.5708 2.7381C82.3893 2.35214 82.3167 1.96617 82.4982 1.58021C82.716 1.05389 83.1515 0.738103 83.7685 0.703016C84.3492 0.667928 84.7848 0.94863 85.0751 1.43986C85.3292 1.896 85.547 2.35214 85.7648 2.80828C86.9988 5.29951 88.2328 7.79073 89.4669 10.2469C90.0657 11.4749 90.6736 12.6941 91.2815 13.9133C91.8895 15.1327 92.4975 16.352 93.0964 17.5802C93.1097 17.6103 93.1231 17.6399 93.1363 17.6691L93.138 17.6728L93.1388 17.6746L93.1394 17.6759C93.2328 17.8826 93.319 18.0734 93.3505 18.3171C93.3868 18.3872 93.3868 18.4574 93.3868 18.5627Z" fill="white"/>
<path d="M0.362305 14.8434C0.434895 14.8083 0.434895 14.7381 0.434895 14.6679C0.616371 14.0714 1.1971 13.6855 1.81411 13.6855C2.46743 13.6855 3.01186 14.1416 3.15704 14.7381C3.19333 14.8785 3.19333 15.0188 3.19333 15.1592C3.22963 16.0013 3.91924 16.9486 5.04439 17.0188C6.09695 17.1241 7.04063 16.4223 7.2584 15.4399C7.29469 15.2995 7.29469 15.1592 7.29469 15.0539C7.29469 14.3171 7.87542 13.7557 8.63762 13.6855C9.36352 13.6504 9.98054 14.1416 10.1257 14.8083C10.162 15.0188 10.162 15.2293 10.1257 15.475C10.0168 16.4925 9.61759 17.4048 8.92798 18.1767C8.85539 18.2469 8.85539 18.3171 8.92798 18.3872C9.29093 19.0188 9.65388 19.6504 9.98054 20.2469C10.2709 20.7381 10.1983 21.3346 9.83536 21.7557C9.65388 21.9662 9.43611 22.1065 9.14575 22.1767C9.11392 22.1921 9.0821 22.2007 9.05333 22.2085C9.01648 22.2185 8.98466 22.2272 8.96428 22.2469H8.56503C7.9843 22.1767 7.62135 21.8258 7.36728 21.3346C7.24025 21.089 7.10414 20.8522 6.96804 20.6153C6.83193 20.3785 6.69582 20.1416 6.56879 19.896C6.42361 19.6504 6.42361 19.6504 6.13325 19.6855C4.39108 19.9311 2.90297 19.4399 1.66893 18.2118C1.05191 17.5802 0.652667 16.8083 0.47119 15.9311C0.456672 15.8609 0.453769 15.7907 0.450865 15.7206C0.44651 15.6153 0.442154 15.51 0.3986 15.4048C0.362305 15.2644 0.362305 15.0539 0.362305 14.8434Z" fill="white"/>
<path d="M0.362467 5.01878C0.398762 4.94861 0.435058 4.87843 0.435058 4.80826C0.725419 2.80826 2.21352 1.22931 4.20976 0.808257C6.9319 0.246853 9.47257 1.96615 10.017 4.42229C10.0896 4.73808 10.1259 5.05387 10.1259 5.36966C10.1622 6.14159 9.50887 6.77317 8.74667 6.77317C7.94817 6.77317 7.33115 6.17668 7.29486 5.40475C7.29486 4.87843 7.11338 4.42229 6.71413 4.03633C6.09711 3.43984 5.33491 3.2644 4.53642 3.5451C3.70163 3.8258 3.26609 4.45738 3.1935 5.29949C3.1935 5.43984 3.1935 5.61527 3.1209 5.75563C2.93943 6.35212 2.395 6.77317 1.77798 6.77317C1.12467 6.77317 0.580238 6.3872 0.398762 5.79071C0.380615 5.75562 0.371541 5.72054 0.362467 5.68545C0.353393 5.65036 0.344319 5.61527 0.326172 5.58019C0.362467 5.40475 0.362467 5.22931 0.362467 5.01878Z" fill="white"/>
<path d="M92.5163 14.563C92.8066 15.1506 93.0969 15.7382 93.3872 16.317V16.314C93.3872 11.4729 93.3872 6.63179 93.3509 1.72054C93.3328 1.68545 93.3237 1.64159 93.3146 1.59773C93.3055 1.55387 93.2965 1.51001 93.2783 1.47492C92.9517 0.77317 92.0443 0.422293 91.3184 0.808258C90.8102 1.08896 90.5562 1.5451 90.5562 2.1065V10.5276C90.5562 10.6108 90.5789 10.6722 90.6063 10.7463C90.6136 10.7658 90.6212 10.7863 90.6287 10.8083C90.9917 11.4749 91.3184 12.1416 91.645 12.8083C91.9354 13.3872 92.2259 13.9753 92.5163 14.563Z" fill="white"/>
<path d="M0.362467 7.05389C0.435058 7.05389 0.471353 7.08898 0.507648 7.12407C1.30614 7.68547 2.28611 7.65039 3.08461 7.12407C3.10276 7.10653 3.1209 7.09775 3.13905 7.08898C3.1572 7.08021 3.17535 7.07144 3.19349 7.05389V13.3697C3.17172 13.3907 3.14994 13.3739 3.12816 13.3571C3.11365 13.3458 3.09913 13.3346 3.08461 13.3346C2.24982 12.7732 1.30614 12.7732 0.471353 13.3346C0.435058 13.3697 0.398762 13.4048 0.326172 13.3697C0.362467 11.2995 0.362467 9.19425 0.362467 7.05389Z" fill="white"/>
<path d="M67.0731 11.8609H69.033C69.5774 11.8609 70.0856 11.8609 70.7026 11.896C71.0292 11.896 71.3922 11.8609 71.7188 11.7907C73.8966 11.2995 75.421 9.54511 75.5661 7.40476C75.5903 7.0085 75.5823 6.62772 75.5743 6.24186V6.23382C75.5702 6.04163 75.5661 5.8477 75.5661 5.65037C75.5661 5.36967 75.5299 5.05388 75.4936 4.73809C75.2395 3.29949 74.4773 2.17669 73.207 1.40476C72.4085 0.913529 71.5374 0.703003 70.5937 0.703003H67.1819C67.0731 0.703003 66.9642 0.703003 66.8553 0.738091C66.0931 0.843354 65.6213 1.54511 65.6938 2.21177C65.7664 2.94862 66.456 3.43984 67.1457 3.43984H70.7389C71.6463 3.47493 72.4085 4.07142 72.6625 4.91353C72.7351 5.15914 72.7351 5.43984 72.7351 5.68546C72.7714 6.21177 72.7714 6.703 72.7351 7.22932C72.6988 7.72055 72.5173 8.1416 72.1907 8.49248C71.7551 8.94862 71.247 9.15914 70.63 9.15914H67.0005C65.9842 9.19423 65.3672 10.2118 65.8027 11.089C66.0568 11.5802 66.4923 11.8609 67.0731 11.8609Z" fill="white"/>
<path d="M25.0791 10.2469V2.07142C25.0791 1.43984 25.5146 0.913524 26.168 0.738086C27.0027 0.527559 27.8738 1.12405 27.9101 1.96616V18.2819C27.9101 18.5627 27.8738 18.8083 27.7649 19.0539C27.4746 19.6153 26.8213 19.896 26.168 19.7556C25.5509 19.6153 25.1154 19.0539 25.1154 18.4574C25.0791 15.7205 25.0791 12.9837 25.0791 10.2469Z" fill="white"/>
<path d="M80.1754 18.317V10.2469C80.1754 7.58018 80.1754 4.91352 80.1391 2.21176V1.89597C80.0666 1.33457 79.5584 0.667901 78.6873 0.702989C77.8162 0.738077 77.3081 1.43983 77.3081 2.1065V18.4223C77.3081 18.4925 77.3081 18.5977 77.3444 18.703C77.4896 19.2644 77.9614 19.7205 78.5784 19.7907C79.1229 19.896 79.7036 19.5802 79.994 19.089C80.1391 18.8433 80.1754 18.5977 80.1754 18.317Z" fill="white"/>
<path d="M35.3873 0.667969C37.9279 0.703056 39.779 2.45744 40.1783 4.45744C40.2508 4.73814 40.2871 5.01885 40.2871 5.33464C40.3234 6.17674 39.6338 6.80832 38.7627 6.77323C38.0731 6.73815 37.4561 6.17674 37.4561 5.47499C37.4561 5.26446 37.4198 5.05393 37.3472 4.84341C37.0932 4.0013 36.2584 3.36972 35.2784 3.4399C34.2621 3.47499 33.4999 4.17674 33.3548 5.12411C33.3548 5.17674 33.3457 5.22937 33.3366 5.28201C33.3275 5.33461 33.3185 5.38729 33.3185 5.4399C33.2822 6.14165 32.7377 6.70306 32.0481 6.77323C31.2859 6.80832 30.6326 6.35218 30.5237 5.61534C30.4511 5.26447 30.5237 4.91359 30.5963 4.56272C31.0318 2.6329 32.2296 1.40481 34.1532 0.843407C34.2984 0.80832 34.4436 0.773232 34.6251 0.738144C34.7521 0.720601 34.8792 0.711829 35.0062 0.703057C35.1332 0.694285 35.2603 0.685513 35.3873 0.667969Z" fill="white"/>
<path d="M63.1891 4.56271C62.7899 2.38727 60.8662 0.703056 58.3618 0.667969C58.1441 0.703056 57.89 0.703057 57.5996 0.703057C57.5271 0.7206 57.4454 0.738144 57.3637 0.755688C57.2821 0.773232 57.2004 0.790776 57.1278 0.80832C55.1679 1.36972 53.9701 2.63288 53.5346 4.56271C53.462 4.8785 53.4257 5.22937 53.462 5.58025C53.5709 6.282 54.1879 6.77323 54.9501 6.73814C55.6397 6.70306 56.2204 6.14165 56.2567 5.4399C56.2567 5.38727 56.2658 5.33463 56.2749 5.282C56.2839 5.22939 56.293 5.17672 56.293 5.12411C56.4382 4.282 57.0552 3.61534 57.9263 3.4399C58.7611 3.26446 59.6322 3.65042 60.104 4.35218C60.3218 4.70306 60.4307 5.08902 60.4307 5.47499C60.4307 6.14165 61.0114 6.73814 61.701 6.77323C62.4632 6.84341 63.1165 6.35218 63.2254 5.68551C63.298 5.29955 63.2617 4.91358 63.1891 4.56271Z" fill="white"/>
<path d="M17.5664 19.7907C15.2072 19.7907 13.1746 18.1416 12.7391 15.8609C12.6665 15.5451 12.6665 15.2294 12.6665 14.9136C12.7391 14.2118 13.3561 13.6855 14.082 13.6855C14.8079 13.6855 15.4249 14.2469 15.4612 14.9837C15.4612 15.3697 15.5338 15.7206 15.7516 16.0715C16.1871 16.7732 16.9856 17.1592 17.8204 17.0188C18.7278 16.8785 19.3811 16.2469 19.5263 15.3697C19.5626 15.2644 19.5626 15.1241 19.5626 15.0188C19.5989 14.282 20.2159 13.6855 20.9781 13.6855C21.7403 13.6855 22.3573 14.282 22.3936 15.0539C22.4299 17.1943 20.8692 19.1241 18.7278 19.6504C18.3649 19.7557 17.9656 19.7907 17.5664 19.7907Z" fill="white"/>
<path d="M30.5961 15.896C31.0317 18.1767 33.0279 19.7908 35.4234 19.7908C35.7137 19.7908 36.0404 19.7557 36.2945 19.7206C38.2544 19.2995 39.7425 17.8609 40.1418 15.9311C40.2143 15.5451 40.2506 15.1943 40.2143 14.8434C40.1418 14.2118 39.561 13.6504 38.7625 13.6855C38.0003 13.7206 37.4196 14.3171 37.4196 15.0188C37.4196 15.1241 37.4196 15.2644 37.3833 15.4048C37.2018 16.4223 36.2219 17.1592 35.0967 17.0188C34.0804 16.9136 33.3545 16.0715 33.3182 15.0539C33.3182 14.9136 33.3182 14.8083 33.282 14.703C33.1368 14.1065 32.5198 13.6504 31.8664 13.6855C31.2131 13.7206 30.6324 14.1767 30.5235 14.8083C30.4872 15.1592 30.5235 15.5451 30.5961 15.896Z" fill="white"/>
<path d="M58.3985 19.7908C56.0393 19.7908 53.9705 18.1416 53.5712 15.896C53.4986 15.5451 53.4623 15.1943 53.4986 14.8434C53.6075 14.2118 54.1519 13.7206 54.8415 13.6855C55.4949 13.6504 56.1119 14.1065 56.2571 14.7381C56.2752 14.8434 56.2843 14.9486 56.2933 15.0539C56.3024 15.1592 56.3115 15.2644 56.3296 15.3697C56.4748 16.3171 57.3459 17.0539 58.3259 17.0539C59.3784 17.0539 60.2132 16.3522 60.3947 15.3697C60.3947 15.3171 60.4038 15.2644 60.4129 15.2118C60.4219 15.1592 60.431 15.1065 60.431 15.0539C60.431 14.3522 61.0117 13.7557 61.7739 13.7206C62.5724 13.6855 63.1531 14.2469 63.262 14.8785C63.2983 15.2293 63.262 15.5802 63.1894 15.9311C62.7539 17.8258 61.5924 19.089 59.6688 19.6504C59.2696 19.7557 58.834 19.7908 58.3985 19.7908Z" fill="white"/>
<path d="M82.7161 4.70302C82.6073 4.52758 82.5347 4.38723 82.4621 4.21179L82.4258 4.24688V18.4925C82.4621 19.4048 83.3695 20.0013 84.2406 19.7557C84.8576 19.5802 85.2568 19.0539 85.2568 18.4223V10.0013C85.2568 9.91797 85.2341 9.85665 85.2066 9.78253C85.1994 9.76297 85.1918 9.74253 85.1842 9.72056C84.5817 8.44978 83.9586 7.19897 83.3304 5.93799L83.3268 5.93087L83.3143 5.90569C83.1152 5.50617 82.9157 5.1056 82.7161 4.70302Z" fill="white"/>
<path d="M22.4297 13.4047C21.486 12.7732 20.5423 12.7732 19.5986 13.4047V2.14158C19.5986 1.72053 19.7075 1.36965 20.0342 1.05387C20.4697 0.632812 20.9779 0.527549 21.5586 0.738076C22.1393 0.948602 22.4297 1.36965 22.466 1.96615V13.1942C22.4297 13.2644 22.4297 13.3346 22.4297 13.4047Z" fill="white"/>
<path d="M12.7028 13.4048C13.6102 12.7732 14.5539 12.7732 15.4975 13.4048C15.4975 13.2995 15.4975 13.2293 15.4612 13.2293V2.00125C15.4612 1.40476 14.9531 0.703003 14.0457 0.703003C13.2835 0.703003 12.6665 1.29949 12.6665 2.07142V13.2644C12.6665 13.2995 12.6665 13.3697 12.7028 13.4048Z" fill="white"/>
<path d="M48.4171 9.5802C48.5623 9.8609 48.6712 10.1065 48.7801 10.3521C49.3789 11.5802 49.9869 12.817 50.5948 14.0538C51.2028 15.2907 51.8107 16.5276 52.4096 17.7556C52.7 18.3521 52.5911 18.9486 52.2281 19.3346C51.5748 20.0363 50.3408 19.896 49.9052 19.0188C49.6149 18.4223 49.3245 17.8258 48.9978 17.1942C48.1993 15.5451 47.4008 13.9311 46.6023 12.317C46.5298 12.1767 46.5298 12.1065 46.6386 11.9662C46.9109 11.5977 47.1831 11.2205 47.4553 10.8433C47.7275 10.4661 47.9997 10.0889 48.2719 9.72055C48.2829 9.70993 48.2939 9.69608 48.3059 9.68097C48.3335 9.64618 48.3665 9.60466 48.4171 9.5802Z" fill="white"/>
<path d="M59.7413 14.4925C60.1406 13.4398 60.9028 12.9135 62.0642 12.9135C60.3946 10.6328 58.7251 8.35211 57.0918 6.03632C56.9103 6.52754 56.6199 6.91351 56.1844 7.19421C55.7489 7.47491 55.2407 7.58018 54.6963 7.54509C55.3218 8.40711 55.9424 9.2597 56.56 10.108C57.6266 11.5733 58.684 13.0258 59.7413 14.4925Z" fill="white"/>
<path d="M42.1745 10.6679C42.1382 10.5977 42.1382 10.5276 42.1382 10.4925V2.1065C42.1382 1.47492 42.5374 0.948605 43.0819 0.773166C43.9892 0.457377 44.9692 1.12404 44.9692 2.03632V6.70299C44.9692 6.77317 44.9692 6.84334 44.8966 6.91352C43.9892 8.14159 43.0819 9.36966 42.2108 10.6328C42.2108 10.6153 42.2108 10.6153 42.2062 10.624C42.2017 10.6328 42.1926 10.6504 42.1745 10.6679Z" fill="white"/>
<path d="M66.3831 12.5276C66.1291 12.4574 65.9113 12.317 65.6935 12.1767C65.6572 12.2469 65.6572 12.282 65.6572 12.282V18.3521C65.6572 18.4925 65.6572 18.5977 65.6935 18.7381C65.875 19.4048 66.5283 19.8258 67.2179 19.7556C67.9438 19.6855 68.4883 19.089 68.4883 18.3872V12.8083C68.4883 12.7833 68.489 12.7619 68.4896 12.7436C68.4912 12.6978 68.4921 12.6707 68.4794 12.655C68.4614 12.6328 68.4161 12.6328 68.3068 12.6328H67.109C66.855 12.6328 66.6009 12.5977 66.3831 12.5276Z" fill="white"/>
<path d="M30.5234 13.4048V7.08899C31.4671 7.72057 32.3745 7.72057 33.3182 7.08899C33.3545 7.22934 33.3908 12.9486 33.3545 13.4048C32.4108 12.7732 31.4671 12.7732 30.5234 13.4048Z" fill="white"/>
<path d="M7.33105 7.05389V13.4048C7.7666 13.089 8.23844 12.9135 8.71027 12.9135C9.2547 12.9135 9.69024 13.089 10.1258 13.4048V7.05389C9.69024 7.36968 9.21841 7.54512 8.71027 7.54512C8.20214 7.54512 7.7666 7.36968 7.33105 7.05389Z" fill="white"/>
<path d="M44.9691 14.1416C45.0054 14.1767 45.0054 14.2469 45.0054 14.282V18.4223C45.0054 19.0188 44.6061 19.5451 43.9891 19.7206C43.118 19.9662 42.1743 19.3346 42.1743 18.4574V14.1416C43.0817 14.7732 44.0254 14.7732 44.9691 14.1416Z" fill="white"/>
<path d="M66.2018 4.03637C66.0203 3.96619 65.8389 3.86093 65.6574 3.72058C65.6574 5.43988 65.6574 7.12409 65.6211 8.84339C65.6636 8.84339 65.6812 8.83135 65.6958 8.82137C65.7061 8.81432 65.715 8.8083 65.73 8.8083C66.1292 8.5276 66.6011 8.38725 67.1092 8.38725H68.2706C68.3624 8.38725 68.4078 8.38725 68.4302 8.36457C68.4521 8.34239 68.4521 8.29854 68.4521 8.21181V4.38725C68.4521 4.294 68.4521 4.25032 68.4303 4.22985C68.4111 4.21181 68.375 4.21181 68.3069 4.21181H67.0729C66.7825 4.21181 66.4922 4.14163 66.2018 4.03637Z" fill="white"/>
</svg>
