<svg width="126" height="30" viewBox="0 0 126 30" fill="none" xmlns="http://www.w3.org/2000/svg">
<path d="M29.816 19.4103C30.1866 18.2491 30.3997 17.0697 30.4739 15.8811C28.5374 15.808 26.6843 15.4423 24.9517 14.8297C26.4805 13.5771 28.2594 12.5989 30.1959 11.9863C29.955 10.8251 29.5844 9.68229 29.0748 8.60343C26.1932 9.51771 23.5989 11.0811 21.4772 13.1291C20.1893 12.3154 19.0126 11.3554 17.9748 10.2583C21.5328 9.64572 24.683 7.872 27.0086 5.34857C26.2581 4.45257 25.3872 3.62972 24.405 2.89829C23.0338 4.40686 21.2919 5.568 19.3183 6.25372C20.0225 4.56229 20.5136 2.77029 20.7637 0.896C19.6148 0.448 18.4381 0.155429 17.2429 0C16.9927 2.32229 16.2978 4.50743 15.2323 6.47314C14.1668 4.50743 13.4719 2.32229 13.2217 0C12.0172 0.155429 10.8405 0.457144 9.70086 0.886858C9.95103 2.76114 10.4421 4.56229 11.1463 6.24457C9.17273 5.55886 7.43084 4.39771 6.05956 2.88914C5.11449 3.59314 4.23428 4.416 3.45599 5.34857C5.7816 7.872 8.93183 9.63657 12.4897 10.2491C11.452 11.3463 10.2753 12.3154 8.98742 13.12C6.87492 11.0811 4.28061 9.50857 1.38981 8.59429C0.870946 9.69143 0.50033 10.8251 0.268696 11.9771C2.20516 12.5897 3.98412 13.568 5.5129 14.8206C3.78028 15.4423 1.9272 15.8171 0 15.8811C0.0741231 17.0789 0.296492 18.2674 0.657842 19.4103C6.41165 19.072 11.5632 16.5029 15.2323 12.5714C18.9107 16.5029 24.0529 19.072 29.816 19.4103Z" fill="white"/>
<path d="M17.039 24.8411V29.8971C15.8438 30.0343 14.6393 30.0343 13.4441 29.8971V24.8411L8.26472 18.1851C9.37657 17.7006 10.4514 17.1246 11.4705 16.4663L15.2416 21.312L19.0126 16.4663C20.0318 17.1246 21.1065 17.7006 22.2184 18.1851L17.039 24.8411Z" fill="white"/>
<path d="M120.932 8.63998H118.541V19.4103H126V17.2526H120.932V8.63998Z" fill="white"/>
<path d="M116.549 19.4103H114.159V8.63998H116.549V19.4103Z" fill="white"/>
<path d="M108.359 19.4834C106.709 19.4834 105.051 18.9166 103.744 17.7646L105.162 16.0823C106.135 16.8777 107.163 17.3897 108.405 17.3897C109.378 17.3897 109.971 17.0057 109.971 16.3748V16.3474C109.971 15.744 109.6 15.4331 107.784 14.976C105.588 14.4274 104.18 13.824 104.18 11.6846V11.6571C104.18 9.70055 105.764 8.41141 107.988 8.41141C109.572 8.41141 110.925 8.90512 112.028 9.78284L110.786 11.5657C109.823 10.9074 108.877 10.5051 107.96 10.5051C107.043 10.5051 106.561 10.9257 106.561 11.4468V11.4743C106.561 12.1874 107.024 12.416 108.905 12.8914C111.11 13.4583 112.352 14.2446 112.352 16.1188V16.1463C112.352 18.2857 110.703 19.4834 108.359 19.4834Z" fill="white"/>
<path d="M98.6022 8.60341L103.263 19.4468H100.742L99.7418 17.0057H96.119L96.9714 14.9211H98.8894L97.4625 11.4468L94.1733 19.4468H91.7365L96.397 8.60341H98.6022Z" fill="white"/>
<path fill-rule="evenodd" clip-rule="evenodd" d="M80.4235 13.9977C80.4235 10.9623 78.07 8.63998 74.6511 8.63998H70.9172V19.4103H74.6511C78.0608 19.4103 80.4235 17.0514 80.4235 14.0251V13.9977ZM74.6511 10.7794C76.6154 10.7794 77.9311 12.1143 77.9311 14.0251V14.0526C77.9311 15.9634 76.6061 17.2708 74.6511 17.2708H73.3076V10.7794H74.6511Z" fill="white"/>
<path d="M65.5803 15.6617V13.7874H69.027V17.8743C67.9059 18.816 66.3679 19.584 64.3851 19.584C60.9939 19.584 58.6683 17.2251 58.6683 14.0434V14.016C58.6683 10.9531 61.0773 8.44798 64.3665 8.44798C66.3215 8.44798 67.5075 8.97826 68.6379 9.92912L67.1276 11.7303C66.2845 11.0446 65.5432 10.6423 64.2831 10.6423C62.5413 10.6423 61.1607 12.1691 61.1607 13.9977V14.0343C61.1607 16.0091 62.5227 17.4537 64.4499 17.4537C65.3209 17.4537 66.0992 17.2343 66.7014 16.8046V15.6617H65.5803Z" fill="white"/>
<path d="M53.6372 15.6617V13.7874H57.0932V17.8743C55.9721 18.816 54.434 19.584 52.4512 19.584C49.0601 19.584 46.7345 17.2251 46.7345 14.0434V14.016C46.7345 10.9531 49.1435 8.44798 52.4327 8.44798C54.3877 8.44798 55.5737 8.97826 56.7041 9.92912L55.1938 11.7303C54.3507 11.0446 53.6094 10.6423 52.3493 10.6423C50.6074 10.6423 49.2269 12.1691 49.2269 13.9977V14.0343C49.2269 16.0091 50.5889 17.4537 52.5161 17.4537C53.3871 17.4537 54.1653 17.2343 54.7676 16.8046V15.6617H53.6372Z" fill="white"/>
<path d="M42.806 19.4103H40.4155V15.9817L36.2368 8.63998H39.035L41.6293 13.4308L44.2699 8.63998H46.9847L42.806 15.936V19.4103Z" fill="white"/>
<path d="M90.671 12.224C90.671 13.9611 89.7259 15.0491 88.3454 15.5611L90.9953 19.4194H88.1971L85.8715 15.9726H85.2415V13.8788H86.4182C87.5856 13.8788 88.2527 13.2571 88.2527 12.352V12.3246C88.2527 11.3097 87.5393 10.7886 86.3718 10.7886H84.352V19.4194H81.9615V8.64912H86.5664C87.947 8.64912 89.0217 9.03312 89.7352 9.73712C90.3467 10.3314 90.671 11.1817 90.671 12.1966V12.224Z" fill="white"/>
</svg>
