<svg width="24" height="24" fill="none" xmlns="http://www.w3.org/2000/svg">
  <path
    d="M8.085 20.019c-.027 0-.063.018-.09.018a9.005 9.005 0 0 1-4.04-4.041c0-.027.017-.063.017-.09 1.098.324 2.232.567 3.357.756.198 1.134.432 2.259.756 3.357ZM20.046 16.005a9.084 9.084 0 0 1-4.185 4.113c.342-1.143.63-2.295.819-3.456a28.153 28.153 0 0 0 3.348-.756c-.01.036.018.072.018.099ZM20.118 8.14a28.48 28.48 0 0 0-3.438-.82 25.123 25.123 0 0 0-.82-3.438 9.047 9.047 0 0 1 4.258 4.257ZM8.085 3.981a28.123 28.123 0 0 0-.747 3.348c-1.161.18-2.313.468-3.456.81a9.084 9.084 0 0 1 4.113-4.185c.027 0 .063.027.09.027ZM15.14 7.131a28.196 28.196 0 0 0-6.281 0c.225-1.233.513-2.466.918-3.654.018-.072.009-.126.018-.198A9.365 9.365 0 0 1 12 3a9.29 9.29 0 0 1 2.196.279c.009.072.009.126.027.198.405 1.197.693 2.421.918 3.654ZM7.131 15.14c-1.242-.224-2.466-.512-3.654-.917-.072-.018-.126-.01-.198-.018A9.365 9.365 0 0 1 3 12c0-.756.108-1.494.279-2.196.072-.01.126-.01.198-.027a26.793 26.793 0 0 1 3.654-.918 29.317 29.317 0 0 0 0 6.282ZM21 12c0 .765-.108 1.494-.279 2.205-.072.009-.126 0-.198.018a27.129 27.129 0 0 1-3.654.918 28.196 28.196 0 0 0 0-6.282c1.233.225 2.466.513 3.654.918a.75.75 0 0 0 .198.027 9.35 9.35 0 0 1 .28 2.196ZM15.14 16.87c-.224 1.241-.512 2.465-.917 3.653-.018.072-.018.126-.027.198a9.29 9.29 0 0 1-2.196.28 9.365 9.365 0 0 1-2.205-.28c-.01-.072 0-.126-.018-.198a26.793 26.793 0 0 1-.918-3.654c1.044.117 2.088.198 3.14.198 1.054 0 2.107-.08 3.142-.198ZM15.387 15.387a27.036 27.036 0 0 1-6.774 0 27.036 27.036 0 0 1 0-6.774 27.036 27.036 0 0 1 6.774 0 27.036 27.036 0 0 1 0 6.774Z"
    fill="#fff"/>
</svg>
