<svg width="110" height="40" viewBox="0 0 110 40" fill="none" xmlns="http://www.w3.org/2000/svg">
<path d="M36.1993 27.5475V15.2907L35.043 12.4104H41.3501C43.046 12.4104 44.2794 12.7538 45.0503 13.4406C45.8212 14.1134 46.2066 15.0244 46.2066 16.1737C46.2066 16.9165 46.0664 17.5893 45.7861 18.1919C45.5058 18.7946 44.9732 19.2992 44.1883 19.7057V19.7477C45.1414 20.056 45.8142 20.5116 46.2066 21.1142C46.6131 21.7169 46.8163 22.5088 46.8163 23.4899C46.8163 24.7934 46.3397 25.7955 45.3867 26.4963C44.4336 27.1971 42.983 27.5475 41.0348 27.5475H36.1993ZM40.2989 18.6334H40.4882C41.1189 18.6334 41.5744 18.5143 41.8547 18.276C42.149 18.0238 42.2962 17.5893 42.2962 16.9726C42.2962 16.3419 42.149 15.9074 41.8547 15.6691C41.5744 15.4168 41.1189 15.2907 40.4882 15.2907H40.2989V18.6334ZM40.2989 24.7724H40.5092C41.21 24.7724 41.7215 24.6462 42.0439 24.3939C42.3803 24.1276 42.5485 23.6651 42.5485 23.0064C42.5485 22.3336 42.3803 21.8711 42.0439 21.6188C41.7215 21.3525 41.21 21.2194 40.5092 21.2194H40.2989V24.7724Z" fill="#FAFBFB"/>
<path d="M47.8461 12.4104H51.9457V27.5475H47.8461V12.4104Z" fill="#FAFBFB"/>
<path d="M57.9828 12.4104L60.9471 21.0512V12.4104H64.9416V27.5475H60.0221L57.3311 19.6846V27.5475H53.3366V14.5759L52.4746 12.4104H57.9828Z" fill="#FAFBFB"/>
<path d="M71.6208 27.7577C70.2472 27.7577 69.14 27.5265 68.299 27.0639C67.4581 26.5874 66.8414 25.7885 66.4489 24.6672C66.0705 23.532 65.8813 21.9762 65.8813 20C65.8813 18.0238 66.0705 16.475 66.4489 15.3538C66.8414 14.2185 67.4581 13.4196 68.299 12.9571C69.14 12.4805 70.2472 12.2422 71.6208 12.2422C72.9943 12.2422 74.1016 12.4805 74.9425 12.9571C75.7835 13.4196 76.3931 14.2185 76.7716 15.3538C77.164 16.475 77.3602 18.0238 77.3602 20C77.3602 21.9762 77.164 23.532 76.7716 24.6672C76.3931 25.7885 75.7835 26.5874 74.9425 27.0639C74.1016 27.5265 72.9943 27.7577 71.6208 27.7577ZM72.9453 19.9579C72.9453 18.7526 72.9032 17.8345 72.8191 17.2038C72.749 16.5591 72.6159 16.1176 72.4197 15.8793C72.2375 15.6271 71.9712 15.5009 71.6208 15.5009C71.2844 15.5009 71.0181 15.6271 70.8219 15.8793C70.6256 16.1176 70.4855 16.5591 70.4014 17.2038C70.3313 17.8345 70.2963 18.7526 70.2963 19.9579C70.2963 21.1493 70.3313 22.0743 70.4014 22.7331C70.4855 23.3918 70.6256 23.8543 70.8219 24.1206C71.0181 24.3729 71.2844 24.499 71.6208 24.499C71.9712 24.499 72.2375 24.3729 72.4197 24.1206C72.6159 23.8543 72.749 23.3918 72.8191 22.7331C72.9032 22.0743 72.9453 21.1493 72.9453 19.9579Z" fill="#FAFBFB"/>
<path d="M78.351 27.5475V15.2907L77.1947 12.4104H83.5018C85.1977 12.4104 86.4311 12.7538 87.2019 13.4406C87.9728 14.1134 88.3582 15.0244 88.3582 16.1737C88.3582 16.9165 88.2181 17.5893 87.9378 18.1919C87.6574 18.7946 87.1248 19.2992 86.34 19.7057V19.7477C87.293 20.056 87.9658 20.5116 88.3582 21.1142C88.7647 21.7169 88.9679 22.5088 88.9679 23.4899C88.9679 24.7934 88.4914 25.7955 87.5383 26.4963C86.5852 27.1971 85.1346 27.5475 83.1864 27.5475H78.351ZM82.4506 18.6334H82.6398C83.2705 18.6334 83.726 18.5143 84.0063 18.276C84.3007 18.0238 84.4478 17.5893 84.4478 16.9726C84.4478 16.3419 84.3007 15.9074 84.0063 15.6691C83.726 15.4168 83.2705 15.2907 82.6398 15.2907H82.4506V18.6334ZM82.4506 24.7724H82.6608C83.3616 24.7724 83.8732 24.6462 84.1955 24.3939C84.5319 24.1276 84.7001 23.6651 84.7001 23.0064C84.7001 22.3336 84.5319 21.8711 84.1955 21.6188C83.8732 21.3525 83.3616 21.2194 82.6608 21.2194H82.4506V24.7724Z" fill="#FAFBFB"/>
<path d="M88.8464 12.4104H98.9167L98.286 15.7742H94.1023V18.0868H98.0337L97.403 21.4506H94.1023V24.1837H99.0639L98.4332 27.5475H90.0027V15.2907L88.8464 12.4104Z" fill="#FAFBFB"/>
<path d="M108.928 15.7742H106.153V27.5475H102.033V15.7742H98.9632V12.4104H109.559L108.928 15.7742Z" fill="#FAFBFB"/>
<path d="M18.5839 3.00784C19.178 2.96224 19.8825 3.11878 20.4094 3.39396C20.6156 3.50166 20.8258 3.66093 21.0466 3.73227C21.1942 3.77993 21.3863 3.77814 21.5415 3.79967C21.8314 3.8398 22.1198 3.8898 22.41 3.9287C22.6025 3.95451 22.7963 3.98544 22.9909 3.98723C23.5676 3.9925 24.1677 3.86597 24.7438 3.8151C24.9377 3.79771 25.132 3.78696 25.3266 3.78286C25.5212 3.77877 25.7158 3.78133 25.9103 3.79055C26.1048 3.79978 26.2987 3.81564 26.4921 3.83814C26.6854 3.86063 26.8778 3.88971 27.0693 3.92537C28.4099 4.17688 29.6063 4.88104 30.3764 6.0182C30.5276 6.24152 30.6722 6.47534 30.7847 6.72067C31.1379 7.49133 31.4571 8.74867 31.2861 9.59269C31.2604 9.71961 31.2195 9.84408 31.1573 9.95803C31.0241 10.2024 30.6485 10.6594 30.4438 10.852C30.2973 10.9898 30.1319 11.1067 29.9858 11.2452C29.8624 11.3621 29.7556 11.5122 29.6122 11.6045C29.3354 11.7825 28.9991 11.8769 28.7391 12.0749L28.7379 12.1001C28.8677 12.1812 29.0259 12.2005 29.1552 12.2854C29.4639 12.4881 29.5578 12.8359 29.632 13.1726C29.7289 13.2097 29.819 13.2561 29.9033 13.3169C30.0586 13.429 30.1729 13.582 30.1977 13.7756C30.2859 14.4652 29.65 15.5723 29.2347 16.1056C28.6226 16.8918 27.7944 17.3713 26.8021 17.4937C27.6351 17.6218 28.464 17.8685 29.2738 18.1009C30.2684 18.3862 31.2559 18.6739 32.2203 19.0528C32.447 19.1419 32.6955 19.2167 32.9072 19.3355C32.6442 19.6503 32.4637 20.0053 32.261 20.3593C32.0716 20.6903 31.8746 21.0211 31.6757 21.3464C31.5637 21.5297 31.4308 21.6984 31.3093 21.8753C30.9469 22.4027 30.5866 22.9197 30.1963 23.4279C29.8007 23.9459 29.3935 24.4546 28.9747 24.9541C28.556 25.4536 28.1262 25.9433 27.6852 26.4233C27.2443 26.9032 26.7926 27.3729 26.3304 27.8324C25.8681 28.2919 25.3956 28.7406 24.9129 29.1786C24.521 29.5343 24.1315 29.8972 23.7215 30.232C23.1064 30.7344 22.4605 31.198 21.8153 31.6602C20.8918 32.3218 19.963 32.9599 19.0042 33.5692C18.5423 33.8604 18.0765 34.1451 17.6067 34.4235C17.2324 34.6502 16.8177 34.9418 16.4036 35.0848C16.1089 34.9663 15.7183 34.6531 15.4427 34.4697C15.0092 34.181 14.5664 33.908 14.1356 33.6153C13.9287 33.7187 13.7413 33.853 13.5291 33.9474C12.8903 34.2315 12.2854 34.2298 11.6356 33.9787C11.2751 33.8316 10.8952 33.5858 10.6479 33.2812C10.5588 33.1714 10.5101 33.0277 10.408 32.9282C10.275 32.7987 10.0662 32.7317 9.91386 32.6237C9.31152 32.1968 9.13951 31.8219 8.83772 31.1864C8.70017 31.5149 8.39359 31.8446 8.34625 32.1388C8.23356 31.9987 8.07971 31.8944 7.94751 31.7733C7.59636 31.4516 7.4376 30.9688 7.36932 30.5086C7.21904 29.4956 7.53276 28.5076 8.13154 27.6947C7.57106 27.1418 7.07915 26.4933 6.60199 25.868C5.31336 24.1793 4.19722 22.375 3.10042 20.5578C2.88274 20.1971 2.68532 19.8249 2.46628 19.4645C2.86577 19.151 3.55808 18.8827 4.03183 18.6747C4.43072 18.4996 4.82847 18.3199 5.23061 18.1525C5.45948 18.0572 5.72161 17.9985 5.93616 17.8748C5.57605 17.5771 5.25817 17.2329 4.91736 16.9143C4.66827 16.6844 4.40873 16.4671 4.13873 16.2622C3.86873 16.0573 3.58954 15.8658 3.30114 15.6878C3.0555 15.5393 2.7825 15.3803 2.51977 15.2661C2.24864 15.1513 1.97572 15.041 1.70101 14.9351C1.28416 14.7785 0.296116 14.4713 0 14.1919C0.113462 14.0804 0.229823 13.9904 0.370755 13.9157C1.83698 13.1378 4.44088 13.2904 6.03093 13.6362C6.24576 13.6829 6.46265 13.7308 6.67284 13.7955C6.99537 13.8948 7.30524 14.0184 7.63903 14.0801C7.83693 14.1167 8.05326 14.0937 8.25465 14.1031C8.76021 14.1266 9.30529 14.1799 9.78967 14.3303C9.7863 13.9359 10.1077 12.9656 10.3053 12.6063C9.95652 12.705 9.60914 12.8024 9.25252 12.8686C9.36049 12.2376 9.79463 11.3023 10.1161 10.744C10.2341 10.5391 10.3771 10.349 10.4869 10.1396L10.5002 10.1141C10.1239 10.1269 9.74062 10.2168 9.36207 10.2451C9.40454 9.98186 9.54209 9.77889 9.67298 9.55268C10.1807 8.67516 10.6967 8.10303 11.4632 7.44676C11.0132 7.37309 10.5544 7.39609 10.1048 7.33272L10.0871 7.3035C10.0925 7.27479 10.0998 7.24993 10.1146 7.22443C10.2085 7.06266 10.3814 6.92919 10.5183 6.80342C11.1681 6.20603 11.6643 5.87118 12.4699 5.50571C12.6486 5.42462 12.8368 5.32248 13.0262 5.27316C12.8858 5.17958 12.7222 5.07204 12.6033 4.95273C12.5593 4.9086 12.508 4.85368 12.5146 4.78636C12.522 4.7109 12.5907 4.64857 12.6485 4.6069C12.8352 4.47228 13.0798 4.40071 13.2925 4.3176C13.5295 4.22493 13.7708 4.11792 14.0164 4.05083C14.8203 3.83132 15.7644 3.85102 16.5846 3.972C16.7049 3.84682 16.8079 3.7128 16.9427 3.60102C17.3796 3.23865 18.0271 3.05268 18.5839 3.00784Z" fill="#FEFEFE"/>
<path d="M16.6659 4.57875C16.8413 4.45214 16.9892 4.28096 17.1525 4.13842C17.541 3.79928 18.1351 3.62557 18.6391 3.57569C19.4993 3.4906 20.193 3.77922 20.8483 4.32137C21.5456 4.22692 22.2162 4.5046 22.9044 4.52034C23.3318 4.53013 23.7725 4.45733 24.1974 4.4136C25.425 4.28715 26.6378 4.24246 27.817 4.67569C28.9367 5.08704 29.7591 5.82645 30.2539 6.91956C30.489 7.43879 30.9605 8.98531 30.747 9.51894C30.6871 9.66854 30.585 9.80137 30.491 9.93095C30.2255 10.2969 29.9858 10.5965 29.564 10.7837C29.532 10.8882 29.4873 11.0038 29.4321 11.0982C29.3848 11.1791 29.3407 11.2443 29.2469 11.2702C29.0984 11.2532 28.9958 11.0767 28.8992 10.9715C28.7909 11.2138 28.6984 11.4567 28.4891 11.632C28.3722 11.4801 28.2412 11.3445 28.1065 11.2088C28.0038 11.4444 27.8886 11.6573 27.7203 11.8525C27.5154 11.7174 27.3655 11.5496 27.2302 11.346C27.1712 11.5059 27.1106 11.7132 26.9931 11.8395C26.9595 11.892 26.9132 11.942 26.8741 11.9909C26.7195 11.8464 26.6126 11.6719 26.4881 11.5023C26.4377 11.6278 26.382 11.7492 26.3002 11.8579C26.2681 11.9012 26.2362 11.9463 26.1991 11.9856C26.1574 12.0297 26.1068 12.0647 26.0428 12.0605C25.8816 12.0497 25.717 11.712 25.6266 11.5888C25.2943 11.8164 25.1109 11.8947 24.6963 11.8563C24.9167 11.983 25.1234 12.1345 25.3409 12.2665C25.671 12.4669 26.312 12.7849 26.6958 12.7274C26.8802 12.6997 27.0621 12.6026 27.2462 12.5568C27.391 12.673 27.4865 12.8261 27.5897 12.9777C27.6135 12.8852 27.6395 12.7745 27.7032 12.7002C27.735 12.6631 27.7803 12.6337 27.8309 12.6345C27.9945 12.6372 28.1665 12.8996 28.2625 13.0167C28.4391 12.8742 28.5696 12.7244 28.7839 12.6331C28.8312 12.6679 28.8795 12.7031 28.9199 12.746C29.157 12.9975 29.1837 13.3165 29.1737 13.6422C29.2397 13.6417 29.3104 13.6378 29.3758 13.6473C29.4516 13.6583 29.5242 13.7051 29.5696 13.7661C29.6452 13.8677 29.6414 14.0023 29.6175 14.1206C29.527 14.5692 29.1677 15.1873 28.9068 15.5668C28.783 15.7468 28.6559 15.9267 28.5012 16.0818C27.3272 17.2585 25.5608 16.9694 24.0733 16.7964C23.6234 16.744 23.1247 16.6558 22.6776 16.7522C22.3445 16.824 22.0574 17.0195 21.7779 17.2049C23.3752 17.316 24.9775 17.6363 26.5381 17.9835C26.9993 18.086 27.4673 18.1653 27.9265 18.2736C28.4989 18.4086 29.071 18.5797 29.6373 18.7396C30.0927 18.8682 30.542 19.0043 30.99 19.1571C31.3726 19.2877 31.7561 19.4421 32.1511 19.5295C31.6231 20.3001 31.1922 21.1275 30.6459 21.8878C30.4717 22.1329 30.2949 22.3759 30.1154 22.6171C29.936 22.8583 29.7539 23.0975 29.5693 23.3347C29.3846 23.5719 29.1973 23.807 29.0075 24.0401C28.8178 24.2733 28.6254 24.5043 28.4306 24.7332C28.2358 24.9622 28.0385 25.1889 27.8387 25.4136C27.639 25.6382 27.4368 25.8607 27.2322 26.0809C27.0276 26.3011 26.8206 26.5191 26.6112 26.7348C26.4019 26.9506 26.1902 27.164 25.9762 27.3751C25.7622 27.5862 25.5459 27.795 25.3274 28.0014C25.1088 28.2078 24.8881 28.4118 24.6651 28.6134C24.4421 28.815 24.2169 29.0142 23.9896 29.2109C23.7623 29.4076 23.5328 29.6018 23.3013 29.7935C23.0697 29.9852 22.8361 30.1743 22.6004 30.361C22.3648 30.5476 22.1271 30.7316 21.8874 30.913C21.6477 31.0945 21.4061 31.2733 21.1625 31.4495C20.9189 31.6256 20.6734 31.7991 20.4261 31.97C19.5862 32.5608 18.743 33.1193 17.8632 33.6492C17.4113 33.9212 16.9443 34.2087 16.4626 34.4233C15.7639 34.1295 14.9361 33.5492 14.3114 33.1076C14.1274 32.9775 13.9329 32.8616 13.7589 32.7181C13.7998 32.8095 13.8293 32.8928 13.8108 32.9942C13.7798 33.1636 13.6535 33.2928 13.5117 33.38C13.0839 33.6429 12.4775 33.6626 12.002 33.5413C11.6415 33.4494 11.2389 33.188 11.0214 32.8842C10.9232 32.747 10.852 32.5829 10.7653 32.437C10.5499 32.3477 10.3475 32.252 10.1604 32.1112C9.71712 31.7777 9.30764 31.2329 9.27997 30.6599C9.27105 30.4749 9.31851 30.2873 9.29214 30.103L9.26641 30.0852C9.19028 30.0778 9.12469 30.0778 9.05213 30.1057C8.60336 30.2781 8.37052 30.9185 8.19253 31.3153C8.0459 31.0288 7.94082 30.6949 7.89764 30.3759C7.7616 29.3712 8.16362 28.4389 8.75962 27.6501C8.64551 27.4884 8.48068 27.3454 8.34436 27.2009C8.17941 27.0238 8.02085 26.841 7.8687 26.6528C7.12167 25.7454 6.41848 24.8053 5.75913 23.8324C5.5217 23.4817 5.30374 23.1219 5.07705 22.7647C4.7056 22.1794 4.3324 21.5959 3.9818 20.9976C3.73374 20.5743 3.46289 19.9548 3.16487 19.5899C3.47787 19.4801 3.77046 19.3144 4.07927 19.192L5.73784 18.5499C6.06425 18.4236 6.45319 18.3195 6.74058 18.1194C5.67753 16.7963 4.41345 15.5275 2.85674 14.795C2.32751 14.546 1.77656 14.3777 1.23441 14.1654C3.30678 13.6286 5.69466 13.902 7.66327 14.6975C8.40082 14.4485 10.2139 14.9516 11.014 15.1043C11.0631 14.7928 11.0784 14.4904 11.1584 14.182C10.8544 14.2269 10.5485 14.3283 10.2533 14.4123C10.3952 14.0952 10.4502 13.7239 10.5511 13.3912C10.7443 12.7541 11.0736 12.1961 11.4345 11.6417C10.9403 11.7551 10.4871 11.9871 10.0018 12.1305C10.1566 11.8855 10.2632 11.5901 10.3983 11.3312C10.6804 10.791 11.0031 10.2529 11.4326 9.81589C11.6058 9.63972 11.7996 9.48523 11.9813 9.31806C11.3772 9.36981 10.8082 9.466 10.2166 9.59614C10.3684 9.39463 10.5029 9.18095 10.6617 8.9844C11.3361 8.15006 12.1251 7.56524 13.0869 7.10112C12.5173 6.87392 11.7789 6.84886 11.1724 6.86123C11.8361 6.3263 12.7072 5.87245 13.5353 5.66043C13.7838 5.59683 14.6886 5.50567 14.8194 5.41356C14.7895 5.36693 14.7566 5.35421 14.7058 5.33121C14.5543 5.26269 14.3868 5.22467 14.2316 5.16384C13.9583 5.0567 13.6928 4.93192 13.4179 4.82752C13.6918 4.7389 13.956 4.62633 14.2359 4.55468C14.9848 4.36296 15.9265 4.34286 16.6659 4.57875Z" fill="#071939"/>
<path d="M15.5621 4.77399C15.7074 4.80531 15.8342 4.84734 15.9662 4.91709L15.7127 4.93806C15.6149 4.91483 15.5162 4.89619 15.4253 4.85222L15.4384 4.81078C15.4778 4.79131 15.5196 4.7841 15.5621 4.77399Z" fill="#1052A4"/>
<path d="M28.0309 9.63163C28.1553 9.59073 28.2786 9.54659 28.4007 9.49921C28.3907 9.58039 28.3799 9.66146 28.3684 9.74243C28.2842 9.74827 28.2542 9.74902 28.1826 9.70549C28.1449 9.66296 28.0831 9.65003 28.0309 9.63163Z" fill="#F6F4E8"/>
<path d="M28.4271 10.6519L28.4515 10.6519C28.4849 10.6516 28.5322 10.6459 28.5639 10.6548C28.6147 10.669 28.6202 10.69 28.641 10.7329C28.6385 10.8111 28.6105 10.8711 28.5803 10.9425L28.5324 10.9515C28.4893 10.9299 28.4691 10.9067 28.4489 10.8638C28.4164 10.7949 28.404 10.7245 28.4271 10.6519Z" fill="#2F4161"/>
<path d="M27.8176 10.9457L27.8793 10.9629C27.9073 11.0876 27.8077 11.2132 27.747 11.3181C27.6998 11.2359 27.6373 11.1496 27.6579 11.0512C27.694 10.9879 27.7538 10.9722 27.8176 10.9457Z" fill="#2F4161"/>
<path d="M28.1824 9.70496C28.2538 9.74837 28.2837 9.74762 28.3677 9.74179C28.311 9.92054 28.2503 10.113 28.1275 10.2588C28.102 10.0958 28.2027 9.89956 28.1824 9.70496Z" fill="#E2EAD5"/>
<path d="M12.7197 32.4801C12.8291 32.4722 13.0299 32.4276 13.1147 32.505C13.153 32.54 13.1538 32.6077 13.1591 32.6568C13.0939 32.6271 13.0293 32.6089 12.9575 32.6184C12.9052 32.6253 12.8591 32.6259 12.8066 32.6228C12.7438 32.5853 12.7441 32.5475 12.7197 32.4801Z" fill="#243F31"/>
<path d="M22.996 10.4349L23.0308 10.437C23.0522 10.5706 22.9127 10.803 22.8362 10.9105C22.8022 10.9583 22.7626 11.0015 22.7224 11.0443C22.708 10.8133 22.8748 10.6189 22.996 10.4349Z" fill="#E2EAD5"/>
<path d="M11.3101 12.5083C11.2963 12.6763 11.2619 12.8295 11.215 12.991C11.1626 13.0541 11.1092 13.1404 11.0268 13.1571L10.992 13.13C11.0916 12.9198 11.1857 12.7053 11.3101 12.5083Z" fill="#286DBA"/>
<path d="M25.11 10.3454L25.1827 10.3411C25.2121 10.3826 25.2147 10.4051 25.2075 10.456C25.1796 10.6529 25.0473 10.9244 24.9137 11.0709C24.9127 10.8658 25.0505 10.5525 25.11 10.3454Z" fill="#B9B8B6"/>
<path d="M26.1431 11.4679C26.2564 11.4605 26.3932 11.4339 26.4883 11.5023C26.4379 11.6278 26.3822 11.7491 26.3004 11.8579C26.2192 11.7384 26.1858 11.6046 26.1431 11.4679Z" fill="#2F4161"/>
<path d="M11.215 12.991C11.1969 13.1346 11.1759 13.3817 11.042 13.4648C10.9963 13.4931 10.9751 13.4864 10.9283 13.4732C10.8981 13.4356 10.8794 13.4158 10.8833 13.3632C10.8878 13.3033 10.952 13.1776 10.992 13.13L11.0268 13.1571C11.1092 13.1404 11.1626 13.0541 11.215 12.991Z" fill="#1052A4"/>
<path d="M26.8607 24.1682C26.9455 24.355 27.1538 24.7509 27.0642 24.9568C27.0548 24.9785 27.0471 24.9886 27.0347 25.0072C27.0209 24.8597 26.9883 24.7485 26.9155 24.6192C26.8667 24.5284 26.8072 24.442 26.7521 24.3548C26.8017 24.2952 26.8311 24.2397 26.8607 24.1682Z" fill="#B9B8B6"/>
<path d="M23.4071 10.473C23.6327 10.4446 23.8714 10.4547 24.0991 10.4508C24.0439 10.7478 23.9953 10.9955 23.7644 11.2101C23.8069 10.9648 23.9281 10.7165 23.9906 10.4715C23.7989 10.4878 23.5989 10.4901 23.4071 10.473Z" fill="#F6F4E8"/>
<path d="M17.6178 32.4264C17.6722 32.5208 17.6141 32.6806 17.5877 32.7779L17.5805 32.8039C17.6446 32.7733 17.7086 32.7377 17.7768 32.7179L17.7912 32.7318C17.6864 32.8432 17.2739 33.0174 17.1137 33.0951C17.3126 32.8817 17.473 32.6823 17.6178 32.4264Z" fill="#7D68D1"/>
<path d="M20.9454 12.387C21.0253 12.3473 21.1205 12.2935 21.2118 12.3321C21.2609 12.3529 21.2855 12.3953 21.3012 12.4437C21.3232 12.5116 21.3142 12.6149 21.2766 12.6756C21.2548 12.7109 21.2676 12.6995 21.2242 12.7088C21.1047 12.6489 21.0063 12.524 20.9142 12.4278L20.9454 12.387Z" fill="#F6F4E8"/>
<path d="M26.9155 24.6191C26.9882 24.7484 27.0209 24.8597 27.0346 25.0071C26.9343 25.1299 26.824 25.2437 26.715 25.3588C26.6833 25.2529 26.8721 24.7455 26.9155 24.6191Z" fill="#5B7E98"/>
<path d="M26.9171 11.713C26.9114 11.6415 26.905 11.5708 26.8962 11.4997C26.8854 11.4128 26.8671 11.3142 26.9361 11.2443C26.9749 11.205 27.023 11.2015 27.0743 11.1953C27.1525 11.2147 27.1886 11.2829 27.2304 11.346C27.1714 11.5059 27.1109 11.7132 26.9933 11.8395C26.9928 11.8244 26.9914 11.8041 26.9948 11.7897C27.0074 11.7351 27.0203 11.7235 27.0117 11.6637C27.003 11.6034 27.0017 11.547 27.0024 11.4862L27.0201 11.4724C27.0272 11.498 27.0323 11.521 27.0351 11.5477C27.039 11.5837 27.0515 11.5863 27.0761 11.6116L27.0993 11.6024C27.0875 11.5206 27.0358 11.4766 27.0096 11.4046C27.0055 11.3932 27.0046 11.3809 27.0021 11.369L26.9883 11.3783L26.9728 11.3722C26.9435 11.4871 26.9261 11.5947 26.9171 11.713Z" fill="#2F4161"/>
<path d="M10.0197 16.3612C10.0862 16.4286 10.145 16.4993 10.2039 16.5731L10.2214 16.6033C10.3131 16.7605 10.5462 17.0408 10.5395 17.2245C10.5008 17.2419 10.5207 17.2391 10.48 17.234C10.3563 17.1186 10.2023 17.021 10.0652 16.9212C9.93303 16.8128 9.80504 16.7032 9.68164 16.5849C9.82375 16.621 9.91273 16.7492 10.0202 16.8407C10.0887 16.899 10.1532 16.927 10.2435 16.9203C10.2794 16.9177 10.2951 16.9163 10.332 16.9264C10.3412 16.9289 10.35 16.9327 10.359 16.9359C10.3823 16.7917 10.0872 16.5423 10.0324 16.3974C10.0279 16.3855 10.024 16.3733 10.0197 16.3612Z" fill="#2B1C1E"/>
<path d="M28.0612 14.545C28.2029 14.4874 28.3991 14.4709 28.5509 14.4361C28.6884 14.4046 28.8196 14.3509 28.9506 14.2994L28.9639 14.3241L28.9312 14.4285C28.6227 14.488 28.3629 14.6684 28.0507 14.7156C28.0804 14.6633 28.1083 14.6332 28.106 14.5723L28.0612 14.545Z" fill="#538230"/>
<path d="M24.5795 12.5482C24.9127 12.652 25.2397 12.7963 25.5531 12.9493L25.3453 12.9301C25.056 12.843 24.7656 12.956 24.5009 12.7522C24.5779 12.7643 24.6931 12.7954 24.768 12.7846C24.8241 12.7765 24.8267 12.7608 24.8547 12.7163L24.842 12.6903C24.7379 12.6709 24.6718 12.6341 24.5941 12.5621C24.5892 12.5575 24.5843 12.5528 24.5795 12.5482Z" fill="#FB5709"/>
<path d="M14.7437 10.6201C14.7429 10.6857 14.7397 10.7489 14.7319 10.8141L14.7512 10.8544C14.7881 10.8622 14.8133 10.8636 14.8506 10.8581C14.8199 10.9462 14.7801 11.0346 14.7826 11.1291C14.6514 11.3139 14.55 11.5193 14.4483 11.7212C14.4894 11.3795 14.5967 10.9288 14.7437 10.6201Z" fill="#7DB962"/>
<path d="M28.6476 13.1969C28.6846 13.2124 28.7064 13.2308 28.7263 13.2666C28.7919 13.3841 28.8183 13.5595 28.7738 13.6891C28.7513 13.7545 28.7162 13.775 28.6592 13.8059C28.6106 13.8222 28.5957 13.8397 28.5473 13.8157C28.5369 13.7917 28.5278 13.7701 28.523 13.7441C28.4904 13.5657 28.5438 13.3418 28.6476 13.1969Z" fill="#F6F4E8"/>
<path d="M11.6336 8.75182C11.7891 8.5764 12.2505 8.29678 12.4653 8.15332C12.4456 8.27366 12.3714 8.35986 12.3026 8.45677C12.212 8.58417 12.066 8.70677 11.9067 8.73001C11.8161 8.74293 11.7251 8.7502 11.6336 8.75182Z" fill="#1052A4"/>
<path d="M14.1512 5.97789C14.1943 5.97484 14.2424 5.96243 14.2815 5.98134C13.8506 6.2878 13.4973 6.17111 13.0239 6.3045C12.9664 6.32008 12.9095 6.33146 12.8508 6.34157L12.8503 6.32452C13.0314 6.16243 13.8823 6.02896 14.1512 5.97789Z" fill="#1052A4"/>
<path d="M29.7002 9.46399C29.8217 9.4626 29.9386 9.47342 30.0592 9.48714C29.9903 9.65078 29.9199 9.80753 29.8357 9.96411C29.8019 10.0202 29.7779 10.0747 29.7198 10.106L29.6931 10.0779C29.6568 9.88822 29.6924 9.65875 29.7002 9.46399Z" fill="#F6F4E8"/>
<path d="M14.6429 4.83822C14.9579 4.68401 15.2312 4.72783 15.562 4.77402C15.5195 4.78413 15.4777 4.79135 15.4383 4.81082L15.4252 4.85225C15.5161 4.89623 15.6148 4.91486 15.7126 4.9381C15.3484 5.01348 14.983 4.9816 14.6429 4.83822Z" fill="#1052A4"/>
<path d="M15.3698 10.1905L15.4916 10.1845C15.28 10.3485 15.3444 10.5634 15.2438 10.7706C15.0648 10.8759 14.9256 10.9783 14.7825 11.1291C14.7801 11.0346 14.8198 10.9463 14.8506 10.8581C14.9838 10.6123 15.1579 10.374 15.3698 10.1905Z" fill="#6EA143"/>
<path d="M22.1767 12.5286L22.217 12.5438C22.3037 12.7241 22.2662 13.0179 22.2396 13.2111C22.1375 13.1644 22.0374 13.112 21.9369 13.062L21.7047 12.9509C21.858 12.8063 22.0083 12.6557 22.1767 12.5286Z" fill="#FEFEFE"/>
<path d="M11.7494 10.0358L11.7755 10.0517C11.7726 10.187 11.5651 10.6031 11.4925 10.7327C11.3529 10.9817 11.22 11.0114 10.9542 11.0853L10.9389 11.0595L10.9843 10.9929L10.9524 10.963L10.9865 10.9792C11.2235 10.6551 11.4997 10.3515 11.7494 10.0358Z" fill="#1052A4"/>
<path d="M21.3771 10.2733C21.579 10.2799 21.7787 10.3188 21.9775 10.3524C21.9372 10.4853 21.8812 10.5796 21.7903 10.6846C21.7104 10.7728 21.6264 10.8528 21.5384 10.9328C21.4472 10.715 21.4101 10.5064 21.3771 10.2733Z" fill="#FEFEFE"/>
<path d="M24.0854 13.1081C24.2049 13.2681 24.2097 13.6439 24.1975 13.8349L23.8916 13.7594L23.6328 13.6889C23.7584 13.4698 23.8993 13.2782 24.0854 13.1081Z" fill="#FEFEFE"/>
<path d="M27.7241 9.72185C27.8241 9.68593 27.9288 9.66023 28.031 9.63129C28.083 9.64965 28.1447 9.66253 28.1822 9.70496C28.2026 9.89957 28.1019 10.0958 28.1274 10.2588C28.0953 10.3278 28.0448 10.3959 28.0048 10.4612C27.866 10.2351 27.793 9.97586 27.7241 9.72185Z" fill="#FEFEFE"/>
<path d="M27.9051 13.2584C28.087 13.4148 28.1416 13.7289 28.1804 13.9524L27.9409 13.9974L27.652 14.0277C27.7041 13.7483 27.7927 13.5171 27.9051 13.2584Z" fill="#F6F4E8"/>
<path d="M28.803 9.4414C28.9701 9.41027 29.1532 9.41412 29.3228 9.42221C29.2733 9.66916 29.1916 9.85948 29.0479 10.0661C29.0363 10.0897 29.0215 10.1089 29.006 10.1301C29.0003 10.1251 28.994 10.1206 28.9888 10.1151C28.8789 9.99799 28.7823 9.61844 28.7766 9.46257L28.803 9.4414Z" fill="#FEFEFE"/>
<path d="M28.8032 9.4414C28.9703 9.41027 29.1534 9.41412 29.323 9.42221C29.2735 9.66916 29.1917 9.85948 29.0481 10.0661C29.042 10.0463 29.0396 10.0404 29.0356 10.0213C29.0193 9.94394 28.9857 9.57752 29.0224 9.51836C29.0581 9.5188 29.0883 9.52312 29.121 9.50817C29.1485 9.49564 29.1668 9.49568 29.197 9.49378C29.2381 9.49116 29.245 9.49251 29.2819 9.47078L29.2445 9.47447L29.2521 9.41995L29.2335 9.46349C29.0905 9.45064 28.9465 9.45346 28.8032 9.4414Z" fill="#F6F4E8"/>
<path d="M25.0756 13.3232C25.206 13.4485 25.2474 13.846 25.2552 14.0225L24.9084 13.9627C24.8178 13.9504 24.728 13.9318 24.6382 13.915C24.7452 13.685 24.8979 13.502 25.0756 13.3232Z" fill="#FEFEFE"/>
<path d="M23.1677 12.8089L23.1995 12.8267C23.2799 13.0217 23.2415 13.3503 23.2212 13.5577C23.1044 13.5209 22.9908 13.4744 22.8766 13.4302L22.6561 13.3489C22.7987 13.1302 22.957 12.9628 23.1677 12.8089Z" fill="#FEFEFE"/>
<path d="M12.8559 7.67773C12.7583 7.85042 12.5955 8.00434 12.4651 8.15339C12.2503 8.29685 11.789 8.57647 11.6334 8.75189L11.3788 8.81236C11.6179 8.61037 11.8241 8.36434 12.0715 8.17449C12.3176 7.98559 12.5988 7.85057 12.8559 7.67773Z" fill="#1052A4"/>
<path d="M22.3754 10.4174C22.5838 10.3998 22.7881 10.4182 22.996 10.435C22.8748 10.619 22.708 10.8134 22.7224 11.0444L22.5729 11.2183C22.4528 10.9779 22.3906 10.6845 22.3754 10.4174Z" fill="#FEFEFE"/>
<path d="M26.0754 13.3608L26.1008 13.3737C26.1953 13.5343 26.3552 13.8875 26.3072 14.0731C26.2131 14.1071 26.0386 14.0827 25.936 14.0806C25.8474 14.0797 25.7589 14.0712 25.6706 14.0645C25.7625 13.7977 25.9057 13.5847 26.0754 13.3608Z" fill="#FEFEFE"/>
<path d="M27.004 13.3015C27.0122 13.3069 27.0216 13.311 27.0287 13.3178C27.1442 13.4286 27.2715 13.8901 27.3037 14.0499L27.0437 14.0801L26.672 14.0857C26.7518 13.803 26.8504 13.5527 27.004 13.3015Z" fill="#FEFEFE"/>
<path d="M23.4071 10.473C23.5989 10.4902 23.7989 10.4878 23.9906 10.4715C23.9281 10.7165 23.8069 10.9649 23.7644 11.2101L23.6464 11.3288C23.5386 11.0546 23.4448 10.7659 23.4071 10.473Z" fill="#FEFEFE"/>
<path d="M20.1315 11.8342C20.1938 11.8064 20.2528 11.7859 20.3192 11.7697C20.4216 11.8374 20.629 11.8024 20.7485 11.7945C20.9537 11.8446 21.1525 11.9075 21.3525 11.9749C21.1653 11.9822 20.9948 12.0364 20.8655 12.1823C20.8267 12.2259 20.8099 12.2524 20.8027 12.3102C20.8401 12.3582 20.8859 12.3769 20.9454 12.387L20.9142 12.4277C20.6333 12.2882 20.3904 12.0175 20.1315 11.8342Z" fill="#721807"/>
<path d="M24.513 10.4342C24.7092 10.3953 24.9117 10.374 25.1099 10.3455C25.0504 10.5526 24.9126 10.8658 24.9137 11.071C24.8837 11.1347 24.8251 11.1946 24.7813 11.2504C24.6535 10.986 24.558 10.7252 24.513 10.4342Z" fill="#FEFEFE"/>
<path d="M23.3141 12.3782C23.6555 12.3913 24.1204 12.6517 24.5009 12.7522C24.7656 12.956 25.056 12.843 25.3453 12.9301C25.1011 12.9278 24.8345 12.9855 24.5956 12.9382C24.4348 12.9063 24.2652 12.7728 24.1092 12.7661C23.9436 12.759 23.8127 12.9096 23.6991 13.0106C23.5602 12.7925 23.5341 12.5378 23.3141 12.3782Z" fill="#A62E03"/>
<path d="M26.2466 10.1192C26.2636 10.1312 26.2689 10.1426 26.2737 10.1638C26.3072 10.3137 26.184 10.6413 26.1107 10.7775C26.0514 10.8878 25.9872 10.9882 25.8626 11.0254C25.8029 11.0052 25.8033 10.9773 25.776 10.9223C25.6887 10.7192 25.6248 10.508 25.5638 10.2959C25.7951 10.2451 26.021 10.1924 26.2466 10.1192Z" fill="#FEFEFE"/>
<path d="M27.2009 9.84238C27.2526 9.81795 27.2715 9.79769 27.3281 9.81228C27.3543 9.87192 27.3424 9.93267 27.3371 9.99571C27.2965 10.2335 27.2139 10.5441 27.0566 10.7329C27.0447 10.7614 27.0539 10.7449 27.0222 10.7779C26.8441 10.6831 26.6935 10.2124 26.6325 10.0285C26.8196 9.96149 27.0127 9.90721 27.2009 9.84238Z" fill="#FEFEFE"/>
<path d="M27.2007 9.84238C27.2525 9.81795 27.2713 9.79769 27.328 9.81228C27.3541 9.87192 27.3422 9.93267 27.337 9.99571L27.282 9.97632C27.2317 10.0019 27.2223 10.0312 27.2067 10.085C27.1645 10.2317 27.1794 10.4089 27.0956 10.5378C27.0938 10.3034 27.1947 10.0756 27.2007 9.84238Z" fill="#B9B8B6"/>
<path d="M13.8569 25.0307C14.0636 25.0214 14.2236 25.0121 14.4008 25.1373C14.4337 25.2226 14.4584 25.3106 14.4636 25.4023C14.4706 25.5252 14.4568 25.6584 14.368 25.7515C14.3118 25.8105 14.2671 25.8216 14.1876 25.826C14.0109 25.8115 13.8399 25.7748 13.67 25.7248C13.5846 25.5315 13.5574 25.3198 13.5219 25.1131C13.6333 25.0796 13.7425 25.0522 13.8569 25.0307Z" fill="#7059C9"/>
<path d="M20.319 11.7698C20.6713 11.6465 21.177 11.5975 21.5436 11.6618C21.4776 11.6659 20.9704 11.6714 20.9575 11.6856C21.1275 11.7103 21.2666 11.7252 21.4117 11.8242C21.7376 11.9112 22.072 11.9598 22.3996 12.0401C22.6508 12.095 23.0457 12.2371 23.2687 12.3718C23.1271 12.5375 22.8815 12.6358 22.6904 12.7358C22.6301 12.584 22.5779 12.4292 22.5161 12.2777C22.4771 12.2421 22.4328 12.1962 22.3815 12.1799C22.2097 12.1254 21.9554 12.3011 21.8068 12.3792C21.7541 12.297 21.7022 12.2048 21.6291 12.1391C21.6227 12.1333 21.616 12.1278 21.6095 12.1222C21.5314 12.0544 21.4455 12.0169 21.3523 11.9749C21.1523 11.9076 20.9535 11.8447 20.7483 11.7946C20.6288 11.8025 20.4214 11.8375 20.319 11.7698Z" fill="#A62E03"/>
<path d="M16.5909 8.55005C16.6481 8.62162 16.635 8.76084 16.6246 8.84878C16.5905 9.13871 16.3772 9.38047 16.1516 9.54902C15.873 9.75711 15.6113 9.93447 15.3699 10.1906C15.158 10.374 14.984 10.6124 14.8507 10.8582C14.8133 10.8637 14.7882 10.8623 14.7512 10.8545L14.7319 10.8142C14.7398 10.7489 14.7429 10.6858 14.7437 10.6202C15.0283 10.0503 15.3807 9.67052 15.9131 9.32769C16.0722 9.22527 16.2646 9.12424 16.39 8.98094C16.4953 8.86072 16.4827 8.70076 16.5693 8.57903C16.5762 8.5692 16.5837 8.55972 16.5909 8.55005Z" fill="#FEFEFE"/>
<path d="M24.5491 22.9177C25.0337 22.7666 25.2638 22.6807 25.7437 22.9315C26.2361 23.1889 26.6345 23.6641 26.8606 24.1681C26.831 24.2397 26.8016 24.2951 26.752 24.3548C26.692 24.2639 26.6282 24.1757 26.5605 24.0904C26.109 23.5227 25.4057 23.0273 24.6678 22.9458C24.6347 22.9421 24.6062 22.9393 24.5747 22.9277C24.5661 22.9246 24.5576 22.921 24.5491 22.9177Z" fill="#FEFEFE"/>
<path d="M6.1874 19.4404L6.18339 19.4545C5.80373 19.765 5.31816 20.4971 5.02058 20.9104C4.95178 20.8171 4.89683 20.7128 4.83862 20.6126C4.73993 20.4092 4.64254 20.2062 4.52982 20.01C5.09021 19.8765 5.63549 19.6161 6.1874 19.4404Z" fill="#9B82FF"/>
<path d="M21.5438 11.6617C22.4023 11.6864 23.4097 12.0784 24.1972 12.4007C24.3171 12.4498 24.4684 12.4857 24.5794 12.5481C24.5843 12.5528 24.5891 12.5575 24.5941 12.5621C24.6717 12.6341 24.7379 12.6709 24.842 12.6903L24.8546 12.7163C24.8267 12.7608 24.8241 12.7765 24.7679 12.7846C24.6931 12.7954 24.5779 12.7643 24.5009 12.7522C24.1204 12.6518 23.6555 12.3913 23.3142 12.3782L23.2689 12.3718C23.0458 12.2371 22.651 12.0949 22.3997 12.0401C22.0722 11.9597 21.7378 11.9112 21.4119 11.8241C21.2668 11.7251 21.1277 11.7102 20.9576 11.6856C20.9705 11.6714 21.4777 11.6658 21.5438 11.6617Z" fill="#F66710"/>
<path d="M8.6767 15.2321C9.12725 15.295 9.59557 15.3569 10.0362 15.4697C10.3788 15.5574 10.7176 15.6848 11.0509 15.8032C11.0394 15.9051 11.0232 16.0085 11.0227 16.1111C10.8905 16.0946 10.7697 16.033 10.6484 15.9808C10.6387 15.9818 10.629 15.9831 10.6193 15.9838C10.4579 15.9944 10.2981 15.8167 10.1246 15.8434C10.1064 15.8919 10.0892 15.938 10.0793 15.989C10.0617 16.0799 9.98721 16.1792 9.99859 16.27C10.0731 16.3574 10.1616 16.446 10.2194 16.5451L10.204 16.5732C10.1451 16.4993 10.0863 16.4286 10.0198 16.3612C9.85577 16.0701 9.31655 15.6976 9.03943 15.4767C8.90901 15.4111 8.79577 15.3155 8.6767 15.2321Z" fill="#FEFEFE"/>
<path d="M9.03922 15.4767C9.21618 15.4695 10.4662 15.8907 10.6482 15.9809C10.6385 15.9819 10.6288 15.9832 10.6191 15.9838C10.4577 15.9945 10.2979 15.8167 10.1244 15.8434C10.1062 15.8919 10.089 15.9381 10.0791 15.989C10.0615 16.08 9.987 16.1793 9.99838 16.2701C10.0729 16.3574 10.1613 16.4461 10.2192 16.5452L10.2038 16.5732C10.1449 16.4994 10.0861 16.4287 10.0196 16.3613C9.85555 16.0702 9.31634 15.6977 9.03922 15.4767Z" fill="#8E77E7"/>
<path d="M10.28 31.4294C10.1647 31.2949 10.0579 31.1287 9.98768 30.9656C9.86651 30.684 9.84743 30.2612 9.96793 29.9768C10.0158 29.8639 10.0934 29.8047 10.1976 29.745C10.751 29.4281 11.3738 29.2363 11.9386 28.937C12.3063 28.7422 12.6285 28.4162 13.0149 28.2702C13.2582 28.1783 13.4498 28.2615 13.6733 28.3621L13.9051 28.4738C13.6484 28.4753 13.3197 28.4377 13.0789 28.5256C12.7653 28.6401 12.5619 28.9133 12.2834 29.0799C11.7486 29.3999 10.8583 29.655 10.4293 30.0801C10.2162 30.2913 10.1194 30.5891 10.1266 30.8849C10.1278 30.9367 10.133 30.9859 10.1423 31.0368C10.188 31.1604 10.2568 31.3009 10.28 31.4294Z" fill="#FEFEFE"/>
<path d="M17.9297 31.4266C17.9461 31.3888 17.9736 31.3054 18.0144 31.2915C18.1603 31.2422 19.3891 31.5319 19.6828 31.547C19.5442 31.6881 19.3471 31.7879 19.1816 31.8967C18.7343 32.1908 18.2863 32.5197 17.7914 32.7318L17.777 32.718C17.7088 32.7377 17.6448 32.7734 17.5807 32.804L17.5879 32.7779C17.6143 32.6806 17.6724 32.5208 17.618 32.4264C17.7705 32.0876 17.883 31.797 17.9297 31.4266Z" fill="#7059C9"/>
<path d="M10.1422 31.0368C10.3544 30.6335 10.5876 30.4233 10.9777 30.1895C11.2838 30.0061 12.7113 29.4794 13.0485 29.5817C13.1298 29.6064 13.1504 29.6497 13.1893 29.7185C13.134 29.6833 13.0857 29.6438 13.0177 29.6426C12.5221 29.8399 11.1523 30.6437 10.7694 30.994C10.765 31.2725 10.6911 31.5214 10.6454 31.7935C10.5321 31.7065 10.3302 31.5833 10.281 31.4421C10.2796 31.4381 10.2802 31.4336 10.2799 31.4293C10.2566 31.3009 10.1879 31.1603 10.1422 31.0368Z" fill="#234C36"/>
<path d="M17.8369 30.1264C18.2031 30.3251 18.5696 30.4831 18.9586 30.6314C19.2142 30.7288 19.483 30.8151 19.7291 30.9339C19.7583 31.0927 19.8232 31.3471 19.7326 31.4908C19.7199 31.511 19.6991 31.5302 19.6827 31.547C19.389 31.532 18.1602 31.2422 18.0142 31.2916C17.9734 31.3054 17.946 31.3888 17.9296 31.4266C17.9256 30.9822 17.9027 30.5658 17.8369 30.1264Z" fill="#FEFEFE"/>
<path d="M7.4283 19.1835C7.55947 19.3738 7.76002 19.5372 7.87041 19.7339L7.85174 19.745C7.70007 19.8342 7.53496 19.8971 7.38445 19.9881C6.78436 20.3507 6.33547 20.7413 5.88285 21.2731C5.73257 21.4497 5.58682 21.6205 5.47433 21.8244C5.40882 21.7 5.35077 21.5705 5.28995 21.4437C5.46885 21.2276 5.59399 20.9542 5.75958 20.7253C6.2411 20.0594 6.75645 19.6417 7.4283 19.1835Z" fill="#FEFEFE"/>
<path d="M3.52673 14.4401C5.04946 14.4735 6.73397 14.824 8.09198 15.5287C8.36522 15.6704 8.61625 15.8405 8.87303 16.009C9.10658 16.1622 9.34425 16.3107 9.55706 16.4925C9.53747 16.5194 9.53327 16.5423 9.49782 16.5466C9.43382 16.5542 9.37783 16.5242 9.31388 16.5329C8.31649 16.0405 7.31644 15.5506 6.26168 15.1908C5.73448 15.011 5.20783 14.856 4.66469 14.7329C4.37769 14.6678 4.08122 14.6317 3.79767 14.5535C3.70282 14.5273 3.60413 14.5031 3.52673 14.4401Z" fill="#FEFEFE"/>
<path d="M16.0141 7.41645C16.288 6.67564 16.3827 5.67623 16.9317 5.07825C17.43 4.53554 18.0608 4.17706 18.8048 4.14783C19.8121 4.1083 20.4748 4.69256 21.1717 5.33067L21.1465 5.38289C21.0136 5.37036 20.7037 5.1363 20.5734 5.05795C20.4919 5.0089 20.4052 4.9729 20.3221 4.92738C20.197 4.85878 20.0807 4.77226 19.9526 4.70937C19.921 4.69391 19.8892 4.67917 19.857 4.66516C19.8248 4.65115 19.7922 4.63788 19.7594 4.62535C19.7266 4.61282 19.6936 4.60105 19.6602 4.59002C19.6269 4.57897 19.5933 4.5687 19.5595 4.55921C19.5257 4.54972 19.4917 4.541 19.4575 4.53304C19.4232 4.52509 19.3888 4.51791 19.3543 4.51151C19.3198 4.50512 19.2851 4.49951 19.2503 4.4947C19.2155 4.48989 19.1806 4.48587 19.1457 4.48265C19.1107 4.47942 19.0757 4.477 19.0406 4.47539C19.0055 4.47375 18.9704 4.47291 18.9353 4.47285C18.9002 4.47283 18.8651 4.47359 18.83 4.47515C18.7949 4.47671 18.7599 4.47908 18.7249 4.48225C18.6899 4.4854 18.655 4.48934 18.6202 4.49407C18.5854 4.49883 18.5507 4.50436 18.5162 4.51068C18.4816 4.517 18.4472 4.5241 18.413 4.53197C18.3788 4.53985 18.3448 4.54851 18.3109 4.55795C18.0322 4.63435 17.7809 4.74676 17.5579 4.93277C17.0082 5.39106 16.7067 6.08761 16.4241 6.72699C16.3206 6.96109 16.2222 7.22997 16.0481 7.4214C16.0367 7.42029 16.024 7.42227 16.0141 7.41645Z" fill="#FEFEFE"/>
<path d="M20.2324 18.8441C20.2472 18.9024 20.244 18.9379 20.3024 18.9692C20.4007 19.0218 20.8106 19.0338 20.9482 19.0553C21.4794 19.1383 22.0019 19.2764 22.5376 19.3317C22.7502 19.3537 22.9599 19.353 23.1731 19.3423L23.1662 19.3396L23.1423 19.3579C23.0312 19.3656 22.9196 19.3761 22.8082 19.3773C22.8262 19.4421 22.8378 19.5273 22.8939 19.5685C23.0665 19.5999 23.2125 19.3812 23.445 19.4073C22.8763 19.6052 21.941 20.1264 21.4923 20.5205C21.1993 20.0739 20.7444 19.7539 20.4207 19.3236C20.3074 19.1729 20.2047 19.0401 20.2324 18.8441Z" fill="#7059C9"/>
<path d="M21.278 4.89069C21.7628 4.98652 22.2784 5.07372 22.7725 5.07193C23.3265 5.06995 23.8737 4.98724 24.425 4.94537C25.9737 4.82776 27.8746 4.8479 28.9779 6.11928C28.9186 6.10778 28.8678 6.06988 28.816 6.03938C27.1833 5.10262 25.8516 5.10353 24.0371 5.31967C23.44 5.39081 22.7581 5.52003 22.1599 5.43335C21.9807 5.40738 21.824 5.3443 21.6514 5.30472L21.6268 5.29925C21.5151 5.16075 21.4051 5.01539 21.278 4.89069Z" fill="#FEFEFE"/>
<path d="M8.81304 21.3777L9.05538 21.8019C8.96502 21.9348 8.89424 22.0586 8.84254 22.2112C8.60732 22.9058 8.49884 24.4847 8.55863 25.2235C8.57521 25.4281 8.70209 26.0873 8.66331 26.2308C8.53742 26.0759 8.41363 25.9173 8.28127 25.7679C8.10249 25.5659 7.89202 25.3873 7.7739 25.1413C7.98837 24.8207 7.97885 24.3317 8.03389 23.9556C8.07778 23.6556 8.13849 23.3591 8.19888 23.062C8.32596 22.4371 8.45606 21.9197 8.81304 21.3777Z" fill="#FEFEFE"/>
<path d="M7.78113 20.4461C7.9201 20.46 8.07867 20.3338 8.22966 20.3107C8.27328 20.492 8.28228 20.6468 8.23521 20.8284C8.17356 21.0662 8.04275 21.3002 7.94314 21.5247C7.77875 21.8954 7.61035 22.2959 7.48549 22.6814C7.32823 23.167 7.32617 23.6843 7.1862 24.1684C7.15107 24.2 7.15063 24.1956 7.10265 24.1945C7.06149 24.1732 7.03338 24.1528 7.00309 24.1173C6.90908 24.0071 6.84234 23.8718 6.75658 23.7548C6.61363 23.5598 6.42628 23.3706 6.32596 23.1475C6.32243 23.1397 6.32117 23.131 6.31879 23.1228C6.6764 22.5923 6.88838 22.0787 7.16546 21.5185C7.2628 21.3217 7.37811 21.1305 7.48656 20.9395C7.57922 20.7763 7.66713 20.5948 7.78113 20.4461Z" fill="url(#paint0_linear_20841_23240)"/>
<path d="M14.9396 11.9189C15.3694 12.922 15.8606 14.0347 16.6533 14.8053C16.732 14.8818 16.8176 14.9781 16.908 15.0387C17.1449 15.2599 17.4888 15.4745 17.79 15.5994C18.191 15.7951 18.6926 15.9183 19.1356 15.9575C19.3015 15.9722 20.4054 15.9657 20.4381 15.99L20.4401 15.9972C20.2176 16.0222 19.9991 16.1037 19.7789 16.1474C19.2264 16.2572 18.671 16.2093 18.1261 16.0844C16.9642 15.8179 16.0515 15.1641 15.4212 14.1507C14.9949 13.4653 14.752 12.7206 14.9396 11.9189Z" fill="#FEFEFE"/>
<path d="M7.87042 19.7338C7.92938 19.8391 7.97102 19.9399 7.99524 20.0582C7.93113 20.1929 7.859 20.3189 7.78105 20.446C7.66705 20.5948 7.57914 20.7762 7.48648 20.9394C7.37803 21.1305 7.26273 21.3216 7.16538 21.5185C6.8883 22.0787 6.67632 22.5923 6.31871 23.1227C6.05967 22.6783 5.70951 22.2871 5.47433 21.8244C5.58683 21.6205 5.73258 21.4497 5.88286 21.2731C6.33548 20.7413 6.78437 20.3506 7.38446 19.988C7.53497 19.8971 7.70008 19.8342 7.85175 19.745L7.87042 19.7338Z" fill="#6EA143"/>
<path d="M28.8158 6.03937C28.8676 6.06986 28.9185 6.10777 28.9778 6.11926C29.4365 6.45444 29.8954 7.50892 30.0337 8.05905C30.1086 8.35671 30.1335 8.66396 30.2046 8.96151C28.8956 8.60857 27.3824 9.26912 26.1282 9.6169C25.615 9.75925 25.074 9.86603 24.5437 9.91457C23.7712 9.9853 23.005 9.90588 22.2358 9.83733C21.8304 9.8012 21.3948 9.73308 20.9905 9.78332C21.1824 9.62376 21.8598 9.82674 22.1411 9.78685L22.1436 9.73538L22.1394 9.78586L22.1534 9.75985L22.1383 9.78062C22.1647 9.71964 22.1701 9.67951 22.1544 9.6127C22.1073 9.41353 21.8497 9.52091 21.7266 9.44065L21.7657 9.43459C22.2178 9.46619 22.6493 9.56397 23.1065 9.56254C23.1878 9.56663 23.2763 9.56397 23.3557 9.58098C24.1775 9.59981 25.0816 9.53233 25.8809 9.32864C26.3468 9.20988 26.8087 9.04077 27.2668 8.89366L27.2709 8.80037C27.3517 8.74196 27.4501 8.70929 27.5164 8.63276C27.5169 8.64077 27.5176 8.64878 27.5178 8.65683C27.5187 8.69239 27.5133 8.72416 27.5074 8.75901C27.5349 8.79783 27.5178 8.78427 27.5561 8.80259C27.8456 8.72816 28.1346 8.63446 28.426 8.57043C28.5561 8.54184 28.6944 8.54053 28.8262 8.51955C28.9482 8.50013 29.0632 8.4686 29.1872 8.46039L29.1841 8.43288C29.1797 8.42459 29.1751 8.41642 29.171 8.40802C29.0538 8.16959 29.1088 7.81785 29.1914 7.57748C29.2216 7.47855 29.2707 7.36808 29.28 7.26519C29.308 6.95591 29.0449 6.51526 28.9118 6.24599C28.8768 6.17529 28.8187 6.12105 28.8158 6.03937Z" fill="#234C36"/>
<path d="M27.5171 8.63281C27.5176 8.64084 27.5183 8.64887 27.5185 8.65694C27.5194 8.6926 27.514 8.72445 27.5081 8.75939C27.5356 8.79831 27.5185 8.78471 27.5569 8.80308C27.4612 8.8325 27.3596 8.85707 27.2668 8.8944L27.271 8.80086C27.352 8.7423 27.4507 8.70954 27.5171 8.63281Z" fill="#6EA143"/>
<path d="M29.1914 7.57745C29.2404 7.67539 29.384 8.21957 29.3781 8.32651C29.3194 8.37964 29.2498 8.39336 29.1841 8.43285C29.1798 8.42456 29.1752 8.4164 29.171 8.40799C29.0539 8.16957 29.1088 7.81782 29.1914 7.57745Z" fill="#132725"/>
<path d="M20.4146 18.0286C21.3793 17.9354 22.4949 18.1512 23.4535 18.2955C23.7646 18.3423 24.0805 18.369 24.3901 18.4224C24.6663 18.4701 24.9403 18.549 25.2134 18.6125C25.3836 18.6521 25.5587 18.6808 25.7256 18.7329C25.4942 18.7877 25.2591 18.8329 25.0292 18.893C24.8342 18.944 24.6448 19.0167 24.4528 19.0778C24.1134 19.1858 23.7801 19.2838 23.4449 19.4072C23.2125 19.3811 23.0664 19.5999 22.8938 19.5685C22.8378 19.5273 22.8262 19.442 22.8081 19.3772C22.9196 19.3761 23.0312 19.3656 23.1423 19.3579L23.1662 19.3396L23.1731 19.3423C22.9599 19.353 22.7502 19.3536 22.5376 19.3317C22.0019 19.2764 21.4793 19.1383 20.9481 19.0553C20.8105 19.0338 20.4007 19.0218 20.3024 18.9692C20.244 18.9379 20.2472 18.9023 20.2324 18.8441C20.3078 18.5758 20.3617 18.302 20.4146 18.0286Z" fill="url(#paint1_linear_20841_23240)"/>
<path d="M8.49508 29.8609C8.45328 29.8987 8.39341 29.97 8.33984 29.9795C8.33128 29.9499 8.33223 29.9359 8.33473 29.9059L8.33243 29.911C8.3655 29.6638 8.44635 29.4085 8.5406 29.1785C8.66526 28.8741 9.08231 28.1035 9.33695 27.9135C9.4339 27.8412 9.56764 27.8136 9.68557 27.801C10.3257 27.7327 11.0388 27.7619 11.6943 27.7206C12.0539 27.6979 12.6903 27.5531 13.0057 27.5975C13.3127 27.6408 13.8891 28.1253 14.1836 28.3047C14.4662 28.4768 14.7625 28.627 15.0476 28.7953C15.3521 28.9749 17.0136 29.9803 17.1514 30.1901C17.1573 30.1989 17.1627 30.2081 17.1684 30.2171L17.1349 30.2292C16.7461 30.1414 16.2481 29.7742 15.8988 29.5617C15.5241 29.3301 15.1454 29.1053 14.7625 28.8875C14.4161 28.6938 14.0403 28.5445 13.703 28.3385C13.4601 28.2043 13.2363 28.0234 12.9713 27.9364C12.7059 27.9754 12.4928 28.0151 12.2392 28.1105L11.9899 28.2325C11.612 28.6551 10.597 28.7445 10.0633 28.9351C9.80523 29.0273 9.58299 29.185 9.34476 29.3165C9.17034 29.4129 8.98612 29.4883 8.82668 29.6089C8.79583 29.6323 8.76411 29.6546 8.73295 29.6775C8.65272 29.7374 8.57343 29.7985 8.49508 29.8609Z" fill="#FEFEFE"/>
<path d="M11.1951 28.0162C11.344 27.9936 11.4972 27.9852 11.6471 27.9658C12.1049 27.9063 12.5126 27.8407 12.9713 27.9365C12.7059 27.9754 12.4927 28.0152 12.2392 28.1105C12.173 28.0865 12.1144 28.1017 12.047 28.1078C11.7875 28.1311 11.4512 28.0673 11.1951 28.0162Z" fill="#B0D658"/>
<path d="M8.49503 29.8609C8.5051 29.5904 9.10938 28.6687 9.28425 28.4649C9.63857 28.0518 9.88734 28.0895 10.3912 28.0539L10.3982 28.0902C10.1576 28.2377 9.62287 28.2619 9.54301 28.5884C9.53738 28.5936 9.53187 28.5991 9.52612 28.6042C9.23924 28.861 8.99079 29.0344 8.82477 29.3973C8.78234 29.49 8.74197 29.5746 8.73289 29.6775C8.65267 29.7374 8.57338 29.7985 8.49503 29.8609Z" fill="url(#paint2_linear_20841_23240)"/>
<path d="M10.3911 28.0539C10.5948 27.9872 10.9749 28.0165 11.195 28.0161C11.4511 28.0673 11.7874 28.1311 12.0469 28.1078C12.1143 28.1017 12.1729 28.0865 12.2391 28.1105L11.9898 28.2325C11.1589 28.2742 10.3086 28.2024 9.54294 28.5884C9.6228 28.2619 10.1576 28.2377 10.3981 28.0902L10.3911 28.0539Z" fill="#7DB962"/>
<path d="M9.54306 28.5884C10.3087 28.2024 11.159 28.2743 11.9899 28.2325C11.612 28.6552 10.5969 28.7445 10.0633 28.9352C9.80523 29.0274 9.58298 29.185 9.34476 29.3166C9.17033 29.4129 8.98611 29.4884 8.82668 29.609C8.79583 29.6324 8.76411 29.6546 8.73294 29.6776C8.74202 29.5747 8.78239 29.4901 8.82481 29.3973C8.99083 29.0345 9.23929 28.8611 9.52616 28.6042C9.53191 28.5991 9.53743 28.5937 9.54306 28.5884Z" fill="#234C36"/>
<path d="M29.9808 21.2481L29.9937 21.2613C29.9689 21.421 29.7251 21.6788 29.6261 21.8165C29.4236 22.0982 29.2405 22.3949 29.0265 22.6681C28.7477 23.0243 28.4615 23.3737 28.1857 23.7327C28.024 23.9432 27.8562 24.1497 27.7267 24.3823C27.5779 23.9846 27.3646 23.564 27.1002 23.2288C26.8771 22.9683 26.6482 22.7167 26.3794 22.5017C26.2355 22.3867 26.0793 22.2887 25.9337 22.1756C26.5693 22.0048 27.1977 21.7963 27.8375 21.6428C28.5475 21.4724 29.2615 21.366 29.9808 21.2481Z" fill="#5C45B5"/>
<path d="M11.9554 32.8691C12.0005 32.7697 11.7034 32.6564 11.6766 32.5192C11.729 32.2429 12.1371 31.7533 12.3537 31.5621C12.6795 31.2745 13.2026 30.9089 13.653 30.8893C14.0893 30.8703 15.1172 31.3981 15.5717 31.5624C16.0746 31.7443 16.5516 31.8673 17.0879 31.9022C16.9887 32.2658 16.5712 32.7856 16.2446 32.9642C16.0509 33.0701 15.7809 32.9938 15.5819 32.931C15.1533 32.7956 14.7126 32.3943 14.3318 32.1413C14.0499 31.954 13.7656 31.8153 13.5048 31.5945C13.1131 31.7805 12.7161 31.9384 12.4205 32.27C12.5142 32.3557 12.6108 32.4157 12.7198 32.4801C12.7441 32.5475 12.7439 32.5853 12.8066 32.6228C12.8592 32.6259 12.9052 32.6253 12.9575 32.6184C13.0293 32.6089 13.0939 32.6271 13.1591 32.6568C13.1769 32.7585 13.1946 32.8579 13.1981 32.9615C12.8852 33.0277 12.232 33.1032 11.9662 32.8814C11.962 32.8779 11.959 32.8732 11.9554 32.8691Z" fill="#234C36"/>
<path d="M15.0272 25.7483C15.0417 25.725 15.0555 25.7014 15.0742 25.6812C15.1325 25.618 15.2412 25.5902 15.3207 25.5678C15.5657 25.4987 15.8283 25.4882 16.0772 25.4326C16.6013 25.3155 17.1366 25.1231 17.6284 24.9097C18.0919 24.7098 18.5489 24.4961 18.9996 24.2688C19.4503 24.0416 19.8938 23.801 20.3301 23.5472C20.647 23.367 20.9517 23.1668 21.2663 22.9829C21.6051 22.785 21.9582 22.5987 22.3065 22.4176C23.2539 21.9248 24.2538 21.555 25.2427 21.1577C26.2526 20.752 27.2779 20.3666 28.3656 20.2327C28.8256 20.1761 29.3054 20.1337 29.7688 20.1562C30.0451 20.1696 30.3227 20.2321 30.5984 20.2274C30.6068 20.2273 30.6151 20.2269 30.6235 20.2266C30.4864 20.4041 30.4151 20.6141 30.2646 20.7847C30.0154 20.7808 29.7606 20.7671 29.512 20.7855C28.2968 20.8756 26.6635 21.2934 25.5255 21.7255C25.2077 21.8462 24.9058 22.008 24.5905 22.1355C24.1268 22.323 23.6552 22.4899 23.2035 22.7077C22.1111 23.2347 21.0545 23.8337 19.9566 24.3503C19.2306 24.692 18.3397 25.0347 17.575 25.2772C16.7462 25.5401 15.8852 25.6401 15.0272 25.7483Z" fill="#7059C9"/>
<path d="M10.204 16.5732L10.2194 16.5452C10.1615 16.446 10.0731 16.3574 9.99854 16.27C9.98716 16.1793 10.0616 16.0799 10.0793 15.989C10.0891 15.9381 10.1063 15.8919 10.1246 15.8434C10.298 15.8167 10.4579 15.9944 10.6192 15.9838C10.629 15.9831 10.6386 15.9818 10.6483 15.9808C10.7697 16.033 10.8905 16.0946 11.0227 16.1111C11.0506 16.5358 11.0567 17.3771 10.9766 17.7799C10.9338 17.995 10.8505 18.2046 10.7859 18.4141C10.5708 19.1112 10.3644 19.8053 10.4122 20.5436C10.4897 21.7442 11.413 23.17 12.1379 24.0989C12.5043 24.5685 12.7929 24.7153 12.9766 25.3247C12.3517 25.0187 11.1221 23.9156 10.8321 23.2737L11.0337 23.4333C10.8345 22.9579 10.4816 22.561 10.2892 22.0826C10.0075 21.3821 9.76487 20.6619 9.50948 19.9519C9.42126 19.7066 9.31277 19.4679 9.2228 19.2226C8.97086 18.536 8.71911 17.8426 8.39389 17.1865C8.43687 17.1029 8.4948 17.075 8.51392 16.9783C8.64865 17.0242 8.78005 17.0601 8.91943 17.0888C9.34148 17.1855 9.77078 17.2783 10.1958 17.3603C10.338 17.3877 10.4748 17.3905 10.6158 17.4292C10.5705 17.3707 10.5035 17.3038 10.4801 17.2341C10.5207 17.2391 10.5008 17.242 10.5396 17.2245C10.5462 17.0409 10.3132 16.7605 10.2214 16.6033L10.204 16.5732Z" fill="#7059C9"/>
<path d="M3.21631 14.4162C3.3221 14.4178 3.42194 14.4254 3.5267 14.4401C3.6041 14.503 3.70279 14.5273 3.79764 14.5534C4.08118 14.6317 4.37766 14.6678 4.66465 14.7329C5.20779 14.856 5.73444 15.0109 6.26165 15.1907C7.31641 15.5505 8.31645 16.0404 9.31384 16.5328C9.3778 16.5241 9.43379 16.5542 9.49778 16.5465C9.53323 16.5423 9.53744 16.5194 9.55702 16.4925L9.68161 16.585C9.805 16.7032 9.933 16.8129 10.0652 16.9212C10.2023 17.0211 10.3563 17.1186 10.48 17.2341C10.5034 17.3038 10.5704 17.3707 10.6158 17.4292C10.4748 17.3905 10.3379 17.3877 10.1957 17.3603C9.7707 17.2783 9.3414 17.1855 8.91935 17.0888C8.77998 17.0601 8.64857 17.0242 8.51384 16.9783C8.49473 17.075 8.43679 17.1029 8.39381 17.1865C8.71903 17.8426 8.97078 18.536 9.22272 19.2226C9.31269 19.4678 9.42118 19.7066 9.5094 19.9519C9.7648 20.6619 10.0075 21.3821 10.2891 22.0826C10.4815 22.561 10.8344 22.9579 11.0336 23.4333L10.832 23.2737C10.7133 23.0456 10.5147 22.8339 10.3613 22.6258C10.0964 22.2661 9.83268 21.8879 9.58894 21.5135C9.40599 21.2324 9.24727 20.9355 9.06638 20.653C7.56415 18.3066 5.81934 15.6371 3.21631 14.4162Z" fill="#8E77E7"/>
<path d="M8.01767 16.5732C8.1055 16.6575 8.198 16.7296 8.29543 16.8023C8.36779 16.859 8.43912 16.92 8.51549 16.9711C8.49638 17.0677 8.43845 17.0956 8.39547 17.1792L8.01767 16.5732Z" fill="#7059C9"/>
<path d="M9.55712 16.4924L9.6817 16.5849C9.80509 16.7032 9.93309 16.8129 10.0652 16.9212C10.0865 16.9623 10.0948 16.9748 10.0943 17.0223L10.0576 17.0362C9.85601 16.9861 9.47698 16.6751 9.31393 16.5328C9.37789 16.5241 9.43388 16.5541 9.49788 16.5465C9.53333 16.5422 9.53753 16.5194 9.55712 16.4924Z" fill="#FEFEFE"/>
<path d="M13.7031 28.3385C14.0403 28.5445 14.4162 28.6938 14.7626 28.8875C15.1454 29.1054 15.5242 29.3301 15.8989 29.5617C16.2481 29.7742 16.7461 30.1414 17.135 30.2293L17.1684 30.2172C17.3715 30.5181 17.3315 30.9799 17.2656 31.3197C17.2263 31.5219 17.1636 31.711 17.0881 31.9022C16.5517 31.8674 16.0747 31.7443 15.5718 31.5625C15.1174 31.3981 14.0894 30.8704 13.6531 30.8893C13.2027 30.909 12.6796 31.2745 12.3538 31.5622C12.1372 31.7534 11.7291 32.2429 11.6767 32.5192C11.7035 32.6565 12.0006 32.7698 11.9555 32.8692C11.8312 32.7972 11.7151 32.7227 11.617 32.6159C11.3222 32.2857 11.2665 31.8862 11.2859 31.4606C11.6106 31.0971 12.1737 30.7824 12.5771 30.5004C12.8008 30.3441 13.0114 30.172 13.2403 30.0226C13.187 29.9385 13.1954 29.816 13.1894 29.7186C13.1505 29.6498 13.1299 29.6064 13.0486 29.5818C12.7114 29.4794 11.2839 30.0061 10.9778 30.1895C10.5877 30.4233 10.3545 30.6335 10.1423 31.0368C10.133 30.9859 10.1278 30.9367 10.1266 30.8849C10.1193 30.5891 10.2161 30.2913 10.4292 30.0801C10.8582 29.655 11.7485 29.3999 12.2834 29.0799C12.5619 28.9132 12.7653 28.64 13.0788 28.5256C13.3197 28.4377 13.6484 28.4753 13.9051 28.4738L13.6733 28.3621L13.7031 28.3385Z" fill="#6EA143"/>
<path d="M13.098 28.9501C13.3998 28.9982 13.8303 29.1753 14.0569 29.3817C14.0854 29.4076 14.0855 29.4007 14.0878 29.4413C14.0216 29.4517 13.9598 29.4287 13.8963 29.4118C13.5106 29.2815 13.184 29.2308 12.7779 29.264C12.8757 29.1493 12.9822 29.0464 13.098 28.9501Z" fill="#FEFEFE"/>
<path d="M13.2403 30.0226C13.4344 29.976 13.5681 30.0499 13.7289 30.149C13.7579 30.1666 13.7865 30.1848 13.8147 30.2037C13.6709 30.2025 13.5219 30.193 13.3858 30.2485C13.0908 30.3692 12.0196 31.2266 11.7719 31.4694C11.647 31.5917 11.5875 31.6856 11.5864 31.8645C11.5853 32.0423 11.6908 32.4803 11.6171 32.6158C11.3222 32.2856 11.2666 31.8862 11.286 31.4606C11.6106 31.097 12.1738 30.7823 12.5771 30.5004C12.8008 30.3441 13.0115 30.1719 13.2403 30.0226Z" fill="#FEFEFE"/>
<path d="M9.59181 22.7049L9.6043 22.72C9.81616 22.979 9.97021 23.2762 10.166 23.5463C10.9789 24.6668 11.6728 25.3473 12.8984 26.0187C13.2626 26.2182 13.6013 26.4345 14.0227 26.478C14.4836 26.5255 14.9841 26.4264 15.4421 26.3689C16.8386 26.1933 18.2163 25.8467 19.4971 25.2547C19.9251 25.0568 20.3322 24.819 20.7525 24.6072C20.9594 24.503 21.1767 24.4146 21.3894 24.3226C21.2258 24.8632 21.0648 25.4527 21.0022 26.0135C20.9692 26.3092 20.9709 26.6105 20.9726 26.9077C20.9742 27.1779 21.0907 27.5629 21.0383 27.8106C20.9399 28.2753 19.7523 29.7387 19.3191 29.9679C19.2672 29.996 19.2134 30.0199 19.1577 30.0397C18.6003 29.7633 18.1373 29.5597 17.5253 29.4141C17.6366 29.4052 17.7195 29.3838 17.8124 29.3189C18.9438 28.5299 19.7605 27.395 20.2823 26.1297C20.3806 25.8912 20.5043 25.6315 20.5497 25.377C20.2948 25.4903 20.0594 25.653 19.8096 25.7785C19.6531 25.8583 19.4947 25.9342 19.3345 26.0061C19.1743 26.0781 19.0125 26.1462 18.8489 26.2103C18.6854 26.2743 18.5204 26.3344 18.3539 26.3904C18.1874 26.4463 18.0196 26.4982 17.8506 26.546C17.6816 26.5938 17.5115 26.6374 17.3403 26.6768C17.1692 26.7162 16.9972 26.7515 16.8243 26.7824C16.6514 26.8134 16.4778 26.8402 16.3037 26.8627C16.1295 26.8852 15.9548 26.9034 15.7797 26.9174C15.3726 26.9536 14.9656 26.9817 14.5569 26.9556C14.2508 26.9361 13.9571 26.8738 13.6566 26.8184C13.3781 26.767 13.0922 26.7242 12.8232 26.6333C12.25 26.4396 11.8288 26.1195 11.3892 25.7164C10.6964 25.0811 10.1561 24.3724 9.7233 23.5368C9.64887 23.393 9.60367 23.235 9.53075 23.091L9.51731 23.0648C9.5158 22.9765 9.4894 22.8961 9.48376 22.8082C9.51327 22.7479 9.5363 22.7402 9.59181 22.7049Z" fill="#0DA54A"/>
<path d="M19.0967 23.1098C19.0982 23.1081 19.0996 23.1063 19.1014 23.1049C19.3586 22.8955 19.6242 22.6964 19.8786 22.4833C20.1981 22.2157 20.506 21.9354 20.8355 21.6796C22.3362 20.5147 23.7237 19.8258 25.5815 19.4361C26.2579 19.2943 26.9748 19.1709 27.669 19.2159C28.5306 19.2138 29.4091 19.603 30.2052 19.895C30.3876 19.9619 30.5812 20.0006 30.7604 20.0751C30.7161 20.1264 30.6733 20.1808 30.6234 20.2266C30.615 20.2269 30.6067 20.2272 30.5983 20.2274C30.3226 20.2321 30.045 20.1696 29.7687 20.1562C29.3053 20.1337 28.8255 20.1761 28.3655 20.2327C27.2778 20.3665 26.2525 20.752 25.2426 21.1577C24.2537 21.555 23.2538 21.9248 22.3064 22.4176C21.9581 22.5987 21.605 22.785 21.2662 22.9829C20.9516 23.1667 20.6469 23.3669 20.33 23.5472C19.8937 23.801 19.4502 24.0415 18.9995 24.2688C18.5488 24.4961 18.0918 24.7097 17.6283 24.9097C17.1365 25.1231 16.6012 25.3155 16.0771 25.4326C15.8282 25.4882 15.5656 25.4986 15.3206 25.5677C15.2411 25.5901 15.1324 25.6179 15.0741 25.6811C15.0554 25.7014 15.0416 25.725 15.0271 25.7482C14.9826 25.7562 14.9678 25.762 14.9242 25.7461C14.9295 25.7063 14.9339 25.6678 14.9458 25.6294C14.976 25.5311 14.99 25.4332 15.0049 25.3318C15.2993 25.1562 15.8799 24.9853 16.2231 24.8428C16.6175 24.6792 16.9878 24.4719 17.3706 24.2843C17.6368 24.1407 17.8894 23.9726 18.1438 23.8094C18.4788 23.5977 18.7786 23.3444 19.0967 23.1098Z" fill="url(#paint3_linear_20841_23240)"/>
<path d="M18.1438 23.8094L18.2287 23.886C18.0121 24.0524 17.6948 24.2616 17.4203 24.3069L17.3706 24.2843C17.6368 24.1407 17.8894 23.9726 18.1438 23.8094Z" fill="#FEFEFE"/>
<path d="M19.0967 23.1098C19.091 23.1204 19.0854 23.1311 19.0796 23.1416C19.0391 23.2146 19.0102 23.2539 18.93 23.2818C18.8959 23.3314 18.8611 23.3797 18.8242 23.4273L18.8662 23.4557C18.9774 23.411 19.0939 23.318 19.2119 23.3077C18.894 23.5233 18.56 23.6944 18.2287 23.8861L18.1438 23.8094C18.4788 23.5977 18.7786 23.3445 19.0967 23.1098Z" fill="#FEFEFE"/>
<path d="M19.0967 23.1098C19.0982 23.1081 19.0996 23.1063 19.1014 23.1049C19.3586 22.8955 19.6242 22.6964 19.8786 22.4833C20.1981 22.2157 20.506 21.9354 20.8355 21.6796C22.3362 20.5147 23.7237 19.8258 25.5816 19.4361C26.2579 19.2943 26.9748 19.1709 27.669 19.2159C27.7905 19.2648 27.9255 19.2727 28.0545 19.2892L28.027 19.298C27.4716 19.4726 26.8761 19.4917 26.3132 19.6299C24.7856 20.005 23.4476 20.6478 22.0914 21.4264C21.5543 21.7325 21.0339 22.0646 20.5301 22.4229C20.1538 22.6868 19.6165 23.1292 19.2119 23.3077C19.0939 23.3179 18.9774 23.411 18.8662 23.4557L18.8242 23.4272C18.8611 23.3797 18.8959 23.3314 18.93 23.2818C19.0102 23.2538 19.0391 23.2146 19.0796 23.1416C19.0854 23.1311 19.091 23.1203 19.0967 23.1098Z" fill="#FEFEFE"/>
<path d="M22.6013 29.37C22.4901 29.0027 22.4693 28.6175 22.3578 28.2497C22.3408 28.2691 22.3492 28.2564 22.3392 28.2958C22.3364 28.3071 22.3337 28.3186 22.331 28.3301L22.3033 28.3212C22.2404 28.1826 22.1456 28.0673 22.0712 27.9358C21.9269 27.681 21.9122 27.3404 21.8957 27.0533C21.8473 26.2169 21.8634 24.6011 22.4636 23.9731C22.6605 23.7671 22.8885 23.8808 23.104 23.7824C23.225 23.7271 23.367 23.5456 23.4689 23.4529C23.7014 23.2415 24.2301 22.9167 24.5491 22.9177C24.5577 22.921 24.5661 22.9245 24.5747 22.9277C24.6062 22.9393 24.6348 22.9421 24.6678 22.9458C25.4058 23.0273 26.109 23.5227 26.5605 24.0904C26.6282 24.1757 26.6921 24.2638 26.752 24.3548C26.8072 24.4419 26.8666 24.5283 26.9154 24.6191C26.8721 24.7455 26.6832 25.2529 26.715 25.3588C26.0002 26.2999 25.0501 27.126 24.1864 27.9305C23.6739 28.4079 23.1433 28.933 22.6013 29.37Z" fill="url(#paint4_linear_20841_23240)"/>
<path d="M9.05547 21.8019C9.16047 21.9603 9.27165 22.1367 9.354 22.3077C9.43405 22.4396 9.5133 22.572 9.59175 22.7049C9.53624 22.7402 9.5132 22.7479 9.4837 22.8082C9.48933 22.8962 9.51574 22.9766 9.51725 23.0648L9.53069 23.091C9.60361 23.235 9.64881 23.3931 9.72324 23.5368C10.156 24.3724 10.6963 25.0811 11.3892 25.7165C11.8287 26.1196 12.2499 26.4396 12.8231 26.6333C13.0921 26.7242 13.3781 26.767 13.6566 26.8184C13.957 26.8738 14.2507 26.9361 14.5568 26.9556C14.9655 26.9817 15.3726 26.9536 15.7797 26.9174C15.9548 26.9035 16.1294 26.8852 16.3036 26.8627C16.4778 26.8402 16.6513 26.8135 16.8242 26.7825C16.9971 26.7515 17.1691 26.7163 17.3403 26.6768C17.5114 26.6374 17.6815 26.5938 17.8506 26.546C18.0196 26.4983 18.1873 26.4464 18.3538 26.3904C18.5203 26.3344 18.6853 26.2744 18.8489 26.2103C19.0124 26.1462 19.1743 26.0782 19.3345 26.0062C19.4947 25.9342 19.653 25.8583 19.8095 25.7785C20.0594 25.653 20.2948 25.4903 20.5497 25.377C20.5043 25.6315 20.3805 25.8912 20.2822 26.1297C19.7604 27.3951 18.9437 28.5299 17.8124 29.319C17.7194 29.3838 17.6365 29.4052 17.5253 29.4141C17.3867 29.3932 17.2481 29.3775 17.1088 29.3629C16.9356 29.2508 16.7914 29.0965 16.6215 28.979C16.0186 28.5619 15.341 28.2307 14.7088 27.8596C14.3414 27.6439 13.9949 27.3754 13.6218 27.1753C13.4877 27.1034 13.3213 27.0246 13.1688 27.0073C12.6662 26.9502 12.0817 27.1461 11.554 27.149C10.8982 27.1525 10.2224 27.0763 9.57367 27.197C9.29385 26.8526 8.93707 26.5887 8.6634 26.2308C8.70218 26.0873 8.57529 25.4281 8.55872 25.2235C8.49892 24.4847 8.60741 22.9058 8.84262 22.2112C8.89433 22.0586 8.9651 21.9348 9.05547 21.8019Z" fill="#2BC368"/>
<path d="M9.35419 22.3077C9.43423 22.4396 9.51348 22.572 9.59194 22.7049C9.53642 22.7402 9.51339 22.7479 9.48389 22.8082C9.48952 22.8961 9.51592 22.9765 9.51743 23.0647C9.41374 22.8169 9.35569 22.5754 9.35419 22.3077Z" fill="#0DA54A"/>
<path d="M15.2499 11.5942C15.9984 11.2237 17.5989 11.3254 18.3579 11.5836C19.2389 11.8833 19.9584 12.5103 20.745 12.9889C22.3081 13.9399 24.5035 14.5673 26.3321 14.6294C26.5986 14.6384 26.8679 14.6391 27.134 14.6213C27.3708 14.6054 27.6099 14.5733 27.8471 14.5736C27.9174 14.5605 27.9902 14.5542 28.0613 14.545L28.1061 14.5723C28.1083 14.6333 28.0805 14.6633 28.0507 14.7156C28.3629 14.6684 28.6228 14.488 28.9312 14.4285C28.723 15.0408 28.1189 15.8248 27.5353 16.1098C26.5713 16.5804 25.4313 16.3756 24.415 16.2318C23.9188 16.1617 23.4186 16.0943 22.9258 16.0032C22.621 15.9468 22.3261 15.8439 22.0155 15.8229C21.649 15.798 21.2861 15.8597 20.9269 15.9252C20.7669 15.9544 20.603 15.9937 20.4401 15.9974L20.4381 15.9901C20.4054 15.9658 19.3015 15.9723 19.1356 15.9576C18.6926 15.9184 18.191 15.7952 17.7899 15.5995C17.4888 15.4746 17.1449 15.26 16.908 15.0388C16.8176 14.9782 16.732 14.8819 16.6533 14.8054C15.8606 14.0349 15.3694 12.9221 14.9396 11.9191C14.9469 11.8909 14.9443 11.8944 14.9552 11.8718C15.0138 11.7511 15.1239 11.6418 15.2499 11.5942Z" fill="#6EA143"/>
<path d="M16.8139 13.6938C17.0551 13.961 17.2013 14.2602 17.4939 14.4869L17.5273 14.5581C17.5149 14.5855 17.5145 14.6091 17.4834 14.6189C17.4147 14.6403 17.3363 14.6094 17.2722 14.5857C17.2065 14.5333 17.1589 14.456 17.1093 14.3888C17.0146 14.191 16.8906 13.9851 16.8352 13.7729L16.8139 13.6938Z" fill="#0C2331"/>
<path d="M17.1094 14.3887C17.159 14.456 17.2066 14.5333 17.2722 14.5857C17.3316 14.6339 17.367 14.6649 17.3918 14.7379C17.3942 14.7448 17.3969 14.7516 17.3991 14.7585C17.4553 14.9303 17.3725 15.1028 17.4728 15.273C17.5631 15.4264 17.7416 15.4 17.7899 15.5994C17.4888 15.4745 17.1448 15.2599 16.908 15.0387C17.0702 15.0488 17.2024 15.3078 17.3622 15.3053C17.3549 15.3 17.3475 15.2947 17.3403 15.2892C17.2705 15.2357 17.1767 15.1334 17.1649 15.0445C17.1529 14.9549 17.0935 14.889 17.0779 14.8049C17.0684 14.7539 17.118 14.5111 17.1094 14.3887Z" fill="url(#paint5_linear_20841_23240)"/>
<path d="M15.2498 11.5942C15.9982 11.2237 17.5988 11.3254 18.3578 11.5836C19.2388 11.8833 19.9583 12.5103 20.7448 12.9889C22.308 13.9399 24.5033 14.5673 26.332 14.6294C26.5985 14.6384 26.8678 14.6391 27.1339 14.6213C27.3706 14.6054 27.6097 14.5733 27.8469 14.5736C27.9023 14.5733 27.941 14.5684 27.9924 14.5924L27.9815 14.6327C27.637 14.8574 26.8324 14.8584 26.4113 14.8543C24.6919 14.8372 22.9344 14.3565 21.3933 13.6101C20.9244 13.388 20.4722 13.1361 20.0366 12.8542C19.8074 12.7047 19.5935 12.5289 19.3591 12.3881C18.4476 11.8406 17.5056 11.6637 16.4568 11.6305C16.1051 11.6193 15.7006 11.5408 15.3553 11.6016C15.3113 11.6093 15.2925 11.6141 15.2498 11.5942Z" fill="#FEFEFE"/>
<path d="M20.2176 15.1255C19.7648 14.9187 19.2656 14.2886 18.8887 13.9432C18.563 13.6449 18.2017 13.3631 17.8354 13.1161C17.5868 12.9485 17.3247 12.805 17.0601 12.6648C16.8592 12.5582 16.1993 12.2887 16.0874 12.1598L16.1156 12.1478C16.6729 12.2142 17.2665 12.3773 17.7681 12.6357C17.8855 12.6962 17.9942 12.7808 18.1085 12.8486C18.5887 13.0985 18.9966 13.4227 19.4484 13.7153C19.8109 13.9501 20.1766 14.1313 20.5635 14.3187C20.724 14.3658 21.578 14.7397 21.7159 14.8379C22.0428 14.9668 22.3758 15.0636 22.7097 15.1721C23.602 15.462 24.6187 15.7911 25.5597 15.8345C25.8309 15.8471 26.1139 15.8153 26.3783 15.7552C26.9625 15.6226 27.3546 15.3061 27.669 14.8107C27.7954 14.7833 27.9301 14.762 28.0508 14.7156C28.363 14.6684 28.6228 14.488 28.9313 14.4284C28.7231 15.0407 28.119 15.8248 27.5354 16.1097C26.5714 16.5804 25.4314 16.3755 24.4151 16.2318C23.9189 16.1616 23.4187 16.0943 22.9259 16.0032C22.6211 15.9468 22.3261 15.8439 22.0156 15.8228C21.6491 15.7979 21.2862 15.8596 20.927 15.9252C20.767 15.9544 20.6031 15.9936 20.4402 15.9973L20.4381 15.99C20.4055 15.9658 19.3015 15.9722 19.1356 15.9575C18.6927 15.9183 18.1911 15.7951 17.79 15.5995C17.7417 15.4 17.5632 15.4264 17.4729 15.2731C17.3726 15.1028 17.4554 14.9304 17.3992 14.7585C17.397 14.7516 17.3943 14.7448 17.3919 14.7379C17.3671 14.665 17.3317 14.6339 17.2723 14.5857C17.3365 14.6094 17.4149 14.6403 17.4836 14.6189C17.5147 14.6091 17.515 14.5855 17.5275 14.5581L17.4941 14.4869C18.5524 15.0603 18.974 15.2833 20.2176 15.1255Z" fill="url(#paint6_linear_20841_23240)"/>
<path d="M18.1085 12.8485C18.5888 13.0985 18.9966 13.4226 19.4485 13.7152C19.8109 13.95 20.1766 14.1312 20.5636 14.3186C20.7241 14.3658 21.578 14.7396 21.7159 14.8378C21.3545 14.8397 20.1652 14.2954 19.8715 14.0845C19.8652 14.0823 19.8586 14.0808 19.8526 14.0779C19.6839 13.9988 19.5264 13.871 19.3659 13.7744C19.0473 13.5827 18.2407 13.1846 18.1085 12.8485Z" fill="#2C5A34"/>
<path d="M14.1115 13.5659C14.1672 13.44 14.1258 13.2834 14.1712 13.1618C14.191 13.1088 14.2216 13.0878 14.2677 13.0609C14.3025 13.0406 14.3367 13.0194 14.3711 12.9986L14.3361 12.9403L14.356 12.9269C14.3186 12.8967 14.33 12.9121 14.3094 12.8748C14.2047 12.6845 14.0572 12.5071 13.9783 12.3039C13.9642 12.2677 13.9718 12.2696 13.986 12.236C14.089 12.4786 14.2724 12.6698 14.3718 12.9061C14.4476 13.0859 14.47 13.294 14.5119 13.4841C14.5451 13.6348 14.5958 13.7828 14.6492 13.9275C14.6635 13.9653 14.6783 14.003 14.6936 14.0406C14.7089 14.0781 14.7247 14.1154 14.741 14.1525C14.7573 14.1896 14.774 14.2265 14.7912 14.2632C14.8084 14.2998 14.8261 14.3363 14.8443 14.3725C14.8624 14.4088 14.881 14.4447 14.9001 14.4805C14.9191 14.5162 14.9386 14.5518 14.9586 14.587C14.9786 14.6223 14.999 14.6572 15.0199 14.6919C15.0407 14.7267 15.0621 14.7611 15.0838 14.7953C15.1056 14.8295 15.1277 14.8634 15.1503 14.897C15.173 14.9306 15.196 14.964 15.2195 14.997C15.2429 15.03 15.2668 15.0627 15.2911 15.0952C15.3154 15.1276 15.3402 15.1597 15.3653 15.1915C15.3904 15.2232 15.4159 15.2547 15.4419 15.2858C15.4678 15.317 15.4941 15.3478 15.5208 15.3782C15.5475 15.4087 15.5746 15.4388 15.6021 15.4686C15.6296 15.4983 15.6575 15.5277 15.6857 15.5568C15.714 15.5858 15.7426 15.6145 15.7716 15.6429C15.8005 15.6712 15.8299 15.6991 15.8595 15.7267C15.8892 15.7543 15.9193 15.7814 15.9496 15.8082C15.98 15.8351 16.0107 15.8615 16.0418 15.8875C16.0728 15.9135 16.1042 15.9391 16.136 15.9643C16.1677 15.9895 16.1997 16.0143 16.2321 16.0387C16.2644 16.0631 16.297 16.0871 16.33 16.1107C16.363 16.1342 16.3962 16.1573 16.4298 16.1801C16.4633 16.2028 16.4972 16.225 16.5313 16.2469C16.5654 16.2687 16.5998 16.2901 16.6345 16.3111C16.6692 16.3321 16.7041 16.3526 16.7393 16.3726C16.7745 16.3927 16.8099 16.4124 16.8456 16.4315C16.8813 16.4507 16.9173 16.4694 16.9534 16.4876C16.9896 16.5059 17.026 16.5236 17.0626 16.541C17.0993 16.5583 17.1361 16.5751 17.1732 16.5915C17.2103 16.6079 17.2475 16.6238 17.285 16.6392C18.3559 17.068 19.7798 17.0643 20.9054 16.9034C20.4083 17.3819 19.7744 17.6514 19.1953 18.0106C18.1146 18.6809 17.2749 19.703 16.6944 20.8246C16.4798 21.2391 16.2964 21.6796 16.1079 22.107C16.0572 22.222 16.0107 22.3431 15.9519 22.4541C15.8514 22.6438 15.5086 23.1006 15.5161 23.2957C15.5176 23.3326 15.5262 23.3308 15.5507 23.3552C15.6973 23.3777 15.8945 23.2289 16.0097 23.145C16.3202 22.9187 16.5836 22.6339 16.8433 22.3528C17.2356 21.9282 17.6202 21.4791 17.9723 21.0199C18.2791 20.6199 18.5656 20.1978 18.8667 19.792C19.0746 19.512 19.2618 19.2151 19.4945 18.9545C19.1173 19.7277 18.8539 20.5562 18.5009 21.3401C18.2707 21.8513 17.9674 22.3423 17.6758 22.8203C17.4729 23.1529 17.2408 23.5427 16.9396 23.7929C16.6373 24.0439 16.2442 24.1814 15.877 24.3081C14.9962 24.6119 14.7305 24.604 13.8354 24.3959C13.6496 24.3527 13.4395 24.3368 13.267 24.2548C12.6291 23.9513 11.8515 22.7383 11.5405 22.1168C11.3752 21.7867 11.232 21.4229 11.1144 21.0724C10.9318 20.5281 11.0487 20.1626 11.1715 19.6193C11.2044 19.4735 11.2108 19.2953 11.2762 19.1603C11.2959 19.1196 11.3174 19.0844 11.3608 19.0666C11.3997 19.0865 11.436 19.1078 11.4727 19.1315L11.5403 19.1134L11.5437 18.9722C11.5357 18.7754 11.5331 18.5785 11.536 18.3815C11.617 18.3824 11.6956 18.3762 11.7735 18.3534L11.7991 18.113C11.9418 18.5409 12.0153 18.9925 12.1396 19.4266C12.2112 19.6743 12.2857 19.921 12.3633 20.1668C12.406 20.3006 12.4713 20.4489 12.4943 20.5866C12.7359 21.2293 13.0263 21.8348 13.3382 22.4455C13.4938 22.5454 13.522 22.7953 13.6812 22.8833L13.6848 22.8687C13.652 22.8279 13.6226 22.7935 13.6051 22.7435C13.5691 22.6409 13.4394 22.5317 13.4512 22.4194C13.4522 22.4094 13.4542 22.3995 13.4557 22.3895C13.6053 22.6879 13.8323 22.9414 13.9669 23.2442C13.9939 23.0563 13.872 22.8283 13.8588 22.6324C13.847 22.458 13.8882 22.2822 13.8733 22.1076C13.7963 21.2061 13.6717 20.3284 13.6476 19.4199C13.6283 18.6901 13.6286 17.943 13.6814 17.2149C13.7075 16.8554 13.7838 16.5104 13.8225 16.154L14.1115 13.5659Z" fill="#234C36"/>
<path d="M12.2328 21.8112C12.3215 22.1407 12.4366 22.4724 12.5112 22.8043C12.3223 22.515 12.1518 22.1987 11.9916 21.8924C12.0796 21.9033 12.1566 21.9886 12.2227 22.0444L12.253 22.0109L12.2295 22.0092C12.2287 21.9432 12.2298 21.8771 12.2328 21.8112Z" fill="url(#paint7_linear_20841_23240)"/>
<path d="M13.4557 22.3895C13.6053 22.6879 13.8323 22.9414 13.967 23.2442C14.0413 23.4622 14.148 23.6683 14.232 23.8828C14.0759 23.6863 13.9536 23.4641 13.8224 23.2507C13.6586 22.9842 13.489 22.7196 13.3383 22.4455C13.4939 22.5454 13.522 22.7952 13.6812 22.8832L13.6848 22.8686C13.652 22.8278 13.6226 22.7935 13.6051 22.7434C13.5692 22.6409 13.4395 22.5316 13.4512 22.4194C13.4523 22.4093 13.4542 22.3994 13.4557 22.3895Z" fill="#F4F9AF"/>
<path d="M11.5438 18.9722C11.6049 19.288 11.565 19.6042 11.6796 19.9112C11.6892 19.9371 11.6986 19.9629 11.7086 19.9887C11.7014 20.4993 11.7152 20.9767 11.7867 21.4822C11.4194 20.7466 11.565 19.9034 11.5403 19.1134L11.5438 18.9722Z" fill="url(#paint8_linear_20841_23240)"/>
<path d="M11.7087 19.9887L11.7362 19.9778C11.7175 19.9377 11.6998 19.9094 11.7037 19.8641C11.7422 19.8756 11.7712 19.8871 11.8118 19.8826C11.8192 19.8818 11.8264 19.8797 11.8338 19.8783L11.8643 19.9201C11.8886 20.0994 11.9009 20.2989 11.9618 20.4696C12.0079 20.7512 12.0611 21.0315 12.1215 21.3104C12.157 21.4719 12.2173 21.6479 12.233 21.8111C12.2301 21.8771 12.229 21.9431 12.2297 22.0092L12.2533 22.0109L12.223 22.0444C12.1569 21.9885 12.0798 21.9033 11.9918 21.8924C11.9132 21.7598 11.85 21.6226 11.7868 21.4822C11.7153 20.9767 11.7015 20.4993 11.7087 19.9887Z" fill="url(#paint9_linear_20841_23240)"/>
<path d="M11.7991 18.1129C11.9417 18.5408 12.0152 18.9924 12.1396 19.4266C12.2111 19.6742 12.2857 19.9209 12.3633 20.1667C12.4059 20.3006 12.4712 20.4488 12.4943 20.5865C12.2903 20.4599 12.3025 19.7161 12.096 19.5826C12.0252 19.5369 11.95 19.5447 11.8706 19.5545L11.8613 19.5778C11.9138 19.8224 11.9578 20.1916 11.9614 20.4407L11.9616 20.4696C11.9007 20.2989 11.8884 20.0994 11.8641 19.9201L11.8336 19.8783C11.8262 19.8797 11.819 19.8818 11.8116 19.8826C11.771 19.8871 11.742 19.8756 11.7036 19.8641C11.6996 19.9094 11.7174 19.9377 11.736 19.9778L11.7085 19.9887C11.6985 19.9629 11.6891 19.9371 11.6794 19.9112C11.5649 19.6042 11.6047 19.288 11.5437 18.9722C11.5356 18.7753 11.5331 18.5784 11.5359 18.3814C11.617 18.3823 11.6955 18.3762 11.7734 18.3533L11.7991 18.1129Z" fill="#6EA143"/>
<path d="M11.5359 18.3815C11.617 18.3824 11.6955 18.3762 11.7734 18.3534C11.7185 18.7434 11.8219 19.4994 11.8641 19.9201L11.8336 19.8784C11.8262 19.8798 11.819 19.8818 11.8116 19.8827C11.771 19.8871 11.742 19.8756 11.7036 19.8641C11.6996 19.9094 11.7174 19.9378 11.736 19.9779L11.7085 19.9888C11.6985 19.963 11.6891 19.9371 11.6794 19.9113C11.5649 19.6042 11.6047 19.2881 11.5437 18.9722C11.5356 18.7754 11.5331 18.5785 11.5359 18.3815Z" fill="url(#paint10_linear_20841_23240)"/>
<path d="M14.7174 22.1747C14.6562 21.9722 14.6246 21.762 14.5694 21.5578C14.4109 20.9715 14.2511 20.3858 14.1751 19.7805C14.115 19.3018 14.1358 18.8026 14.1304 18.3202C14.1215 17.5176 14.0871 16.6766 14.1876 15.8789C14.2077 15.7123 14.2384 15.5477 14.2798 15.385C14.3211 15.2224 14.3728 15.0631 14.4348 14.9072C14.6382 15.3591 14.6269 15.7389 14.735 16.1962C14.8382 17.5661 14.6997 18.9105 14.6673 20.278C14.6553 20.7884 14.7294 21.3011 14.7348 21.8109L14.7174 22.1747Z" fill="#071939"/>
<path d="M14.7348 16.1962C14.7575 16.1438 14.7582 16.1185 14.7498 16.0615C14.7434 16.0179 14.7386 15.9886 14.7489 15.9448L14.8039 15.955C14.9107 16.0505 14.9954 16.1768 15.0825 16.2903C15.5708 16.7913 16.2855 17.3306 16.9229 17.618C17.2387 17.7603 17.5716 17.8585 17.8845 18.0088C17.4724 18.3994 17.0126 18.792 16.6542 19.2316C16.0607 19.9597 15.7243 20.8351 15.3516 21.687C15.2627 21.8902 15.157 22.0836 15.0653 22.285C14.9474 22.5438 14.8426 22.8086 14.7248 23.0675C14.785 22.7308 14.8124 22.1498 14.7347 21.8109C14.7293 21.3011 14.6551 20.7884 14.6672 20.278C14.6996 18.9105 14.8381 17.5661 14.7348 16.1962Z" fill="#6EA143"/>
<path d="M14.804 15.9551C14.9107 16.0506 14.9955 16.1768 15.0825 16.2903C15.0152 16.2742 14.9593 16.2503 14.8971 16.2202C14.8777 16.3022 14.8645 16.3963 14.8239 16.4703C14.7865 16.3133 14.8594 16.1264 14.8124 15.9793C14.8099 15.9711 14.8068 15.9631 14.804 15.9551Z" fill="#538230"/>
<path d="M16.0139 7.41643C16.0238 7.42226 16.0365 7.42028 16.0479 7.42139C16.222 7.22995 16.3204 6.96108 16.4239 6.72698C16.7065 6.0876 17.008 5.39104 17.5577 4.93276C17.7807 4.74675 18.0319 4.63434 18.3107 4.55793C18.3446 4.54849 18.3786 4.53984 18.4128 4.53196C18.447 4.52408 18.4814 4.51699 18.516 4.51067C18.5505 4.50435 18.5852 4.49881 18.62 4.49405C18.6548 4.48932 18.6897 4.48538 18.7247 4.48224C18.7597 4.47907 18.7947 4.4767 18.8298 4.47514C18.8648 4.47358 18.8999 4.47281 18.9351 4.47284C18.9702 4.47289 19.0053 4.47374 19.0404 4.47538C19.0755 4.47699 19.1105 4.47941 19.1455 4.48263C19.1804 4.48586 19.2153 4.48988 19.2501 4.49469C19.2849 4.4995 19.3196 4.5051 19.3541 4.5115C19.3886 4.5179 19.423 4.52507 19.4572 4.53303C19.4914 4.54099 19.5255 4.54971 19.5593 4.5592C19.5931 4.56869 19.6266 4.57896 19.66 4.59001C19.6933 4.60103 19.7264 4.61281 19.7592 4.62534C19.792 4.63787 19.8245 4.65114 19.8568 4.66515C19.889 4.67916 19.9208 4.6939 19.9524 4.70936C20.0805 4.77225 20.1968 4.85877 20.3219 4.92736C20.405 4.97288 20.4917 5.00889 20.5732 5.05793C20.7035 5.13629 21.0134 5.37035 21.1463 5.38288L21.1715 5.33066C21.1959 5.34719 21.2262 5.37055 21.2542 5.37967C21.3425 5.40845 21.5388 5.33343 21.6266 5.29921L21.6512 5.30468C21.8238 5.34426 21.9804 5.40734 22.1597 5.43331C22.7579 5.51999 23.4398 5.39077 24.0369 5.31963C25.8514 5.10349 27.1831 5.10258 28.8157 6.03934C28.8186 6.12102 28.8768 6.17527 28.9117 6.24597C29.0449 6.51524 29.308 6.95588 29.2799 7.26516C29.2706 7.36806 29.2215 7.47853 29.1913 7.57746C29.1087 7.81782 29.0538 8.16957 29.1709 8.40799C29.1751 8.4164 29.1797 8.42457 29.184 8.43285L29.1871 8.46037C29.0632 8.46858 28.9481 8.5001 28.8262 8.51953C28.6944 8.54051 28.556 8.54181 28.426 8.5704C28.1346 8.63444 27.8456 8.72814 27.5561 8.80256C27.5178 8.78424 27.5348 8.7978 27.5074 8.75898C27.5133 8.72413 27.5186 8.69237 27.5177 8.6568C27.5175 8.64875 27.5168 8.64074 27.5164 8.63273C27.4501 8.70926 27.3517 8.74193 27.2709 8.80034L27.2668 8.89364C26.8087 9.04075 26.3468 9.20986 25.8808 9.32861C25.0816 9.5323 24.1775 9.59979 23.3556 9.58095C23.2762 9.56394 23.1877 9.5666 23.1065 9.56252C22.6493 9.56394 22.2177 9.46616 21.7656 9.43456L21.7265 9.44063C21.8496 9.52088 22.1073 9.41351 22.1543 9.61268C22.1701 9.67949 22.1647 9.71962 22.1383 9.7806L22.1534 9.75982L22.1393 9.78583L22.1436 9.73536L22.1411 9.78682C21.8598 9.82671 21.1824 9.62374 20.9904 9.7833C20.7882 9.85181 20.5794 9.90185 20.381 9.98127C19.8516 10.1932 19.1418 10.5815 18.5897 10.6298C17.2872 10.744 17.1081 9.73373 15.7134 10.4684C15.5449 10.5572 15.403 10.6698 15.2437 10.7706C15.3444 10.5634 15.28 10.3484 15.4916 10.1845L15.3697 10.1905C15.6111 9.93441 15.8728 9.75705 16.1514 9.54896C16.377 9.3804 16.5903 9.13865 16.6244 8.84872C16.6348 8.76077 16.6479 8.62155 16.5907 8.54998C16.2777 8.55688 15.6488 8.89277 15.3667 9.05248C14.2911 9.91795 14.0941 10.2939 13.9506 11.6665C13.9302 11.8615 13.9424 12.0448 13.9858 12.2359C13.9717 12.2695 13.9641 12.2676 13.9781 12.3038C14.0571 12.507 14.2045 12.6844 14.3093 12.8747C14.3298 12.912 14.3184 12.8966 14.3558 12.9268L14.336 12.9403L14.371 12.9985C14.3365 13.0193 14.3023 13.0405 14.2675 13.0608C14.2214 13.0877 14.1909 13.1087 14.1711 13.1617C14.1256 13.2833 14.167 13.4399 14.1114 13.5658L13.8224 16.1539C13.7836 16.5103 13.7074 16.8553 13.6813 17.2148C13.6284 17.9429 13.6281 18.69 13.6475 19.4198C13.6716 20.3283 13.7961 21.206 13.8731 22.1075C13.8881 22.2821 13.8468 22.4579 13.8586 22.6323C13.8718 22.8282 13.9937 23.0562 13.9668 23.2442C13.8321 22.9413 13.6051 22.6878 13.4555 22.3894C13.454 22.3994 13.4521 22.4093 13.451 22.4193C13.4393 22.5316 13.569 22.6408 13.6049 22.7434C13.6224 22.7934 13.6519 22.8278 13.6846 22.8686L13.681 22.8832C13.5218 22.7952 13.4937 22.5453 13.3381 22.4454C13.0262 21.8347 12.7357 21.2292 12.4942 20.5865C12.4712 20.4488 12.4059 20.3005 12.3632 20.1667C12.2856 19.9209 12.211 19.6742 12.1395 19.4265C12.0151 18.9924 11.9416 18.5408 11.799 18.1129L11.7733 18.3533C11.6954 18.3761 11.6169 18.3823 11.5358 18.3814C11.551 17.9406 11.5932 17.5019 11.5989 17.0605C11.6065 16.4737 11.5672 15.8881 11.5741 15.3024C11.5972 13.3496 11.8143 11.3178 12.5248 9.48666C13.1279 7.93249 14.4824 6.07777 16.045 5.38878C15.9237 5.71293 15.8342 6.03831 15.7464 6.37281C15.6295 6.92495 15.5758 7.44343 15.7043 7.99935C15.8398 7.81969 15.8854 7.58991 16.0139 7.41643Z" fill="url(#paint11_linear_20841_23240)"/>
<path d="M23.1144 9.41473C23.1916 9.42809 23.2682 9.44217 23.3447 9.45922C23.341 9.50526 23.3327 9.53972 23.3565 9.58142C23.2768 9.56437 23.1881 9.56703 23.1067 9.56294C23.113 9.51412 23.1126 9.46399 23.1144 9.41473Z" fill="#538230"/>
<path d="M26.4332 8.46161C26.4652 8.50671 26.4966 8.55219 26.5274 8.59805L26.5267 8.58857C26.5664 8.71074 26.6073 8.84516 26.5442 8.96728C26.5174 9.01911 26.4588 9.06958 26.402 9.08421C26.3937 9.08631 26.385 9.08703 26.3765 9.08846C26.4206 9.03814 26.4732 8.98687 26.4855 8.91871C26.4869 8.91121 26.4876 8.90364 26.4887 8.89615C26.5094 8.75681 26.4614 8.59868 26.4332 8.46161Z" fill="#6EA143"/>
<path d="M28.2769 7.8894C28.2841 7.89658 28.2925 7.90269 28.2985 7.91086C28.3794 8.02148 28.4089 8.43532 28.378 8.55935C28.3348 8.52537 28.2953 8.49294 28.2717 8.44167C28.1987 8.28298 28.217 8.04995 28.2769 7.8894Z" fill="#132725"/>
<path d="M14.2799 8.40302C14.3785 8.49009 14.3865 8.61285 14.3937 8.73898C14.4024 8.89271 14.4001 9.04719 14.4065 9.20108C14.3172 9.05373 14.2514 8.94314 14.2343 8.76741C14.2425 8.64409 14.2596 8.52486 14.2799 8.40302Z" fill="#538230"/>
<path d="M27.4377 6.04285C27.6424 6.05847 27.8272 6.2329 27.9555 6.38416C28.1069 6.5626 28.2351 6.77306 28.3098 6.99511L28.2934 7.02009L28.2108 7.03603C28.1356 6.67211 27.7249 6.26489 27.4377 6.04285Z" fill="#2C5A34"/>
<path d="M22.2748 8.42218C22.3008 8.45307 22.3081 8.45473 22.3153 8.49676C22.3391 8.63471 22.3427 9.30886 22.2764 9.40173L22.0986 9.40347C22.0781 9.37429 22.0675 9.3528 22.06 9.31719C22.0129 9.09316 22.1401 8.60196 22.2748 8.42218Z" fill="#0C2331"/>
<path d="M25.2664 8.24615C25.4044 8.37637 25.4591 8.77891 25.4902 8.96622C25.5101 9.08625 25.5228 9.16408 25.4484 9.26702C25.412 9.28863 25.3754 9.31615 25.3317 9.3163C25.3079 9.31638 25.2862 9.30009 25.2723 9.28173C25.1641 9.13954 25.25 8.44334 25.2664 8.24615Z" fill="#0C2331"/>
<path d="M23.1143 9.41471C23.066 9.28188 23.1958 8.65321 23.2644 8.51677C23.2756 8.49448 23.2894 8.47803 23.3057 8.45935L23.3357 8.4653C23.4133 8.63659 23.401 9.27918 23.344 9.45908C23.2677 9.44207 23.1913 9.42803 23.1143 9.41471Z" fill="#132725"/>
<path d="M12.9196 10.6149C12.9756 10.6313 13.019 10.6416 13.0587 10.6882C13.2072 10.8624 13.2101 11.4944 13.2038 11.7175C13.1438 11.6866 13.083 11.6586 13.0441 11.6009C12.9066 11.3973 12.8824 10.8597 12.9196 10.6149Z" fill="#132725"/>
<path d="M12.5724 12.0359C12.8134 12.3505 12.9546 13.0665 12.9482 13.4592C12.9263 13.4485 12.9107 13.4372 12.8938 13.4195C12.607 13.1189 12.5726 12.4377 12.5724 12.0359Z" fill="#010608"/>
<path d="M24.283 8.31714L24.3434 8.35782C24.4621 8.54513 24.4803 9.10017 24.469 9.32159C24.4652 9.39589 24.4632 9.42932 24.4068 9.47932C24.3343 9.46853 24.2482 9.45922 24.1956 9.40434C24.1622 9.13407 24.233 8.59248 24.283 8.31714Z" fill="#132725"/>
<path d="M27.1111 7.66229C27.3418 7.94045 27.4506 8.28252 27.5163 8.63276C27.4501 8.70928 27.3516 8.74196 27.2708 8.80036C27.1065 8.58038 27.1131 7.94183 27.1111 7.66229Z" fill="#0C2331"/>
<path d="M12.2761 14.7163C12.5753 15.1543 12.9302 16.1404 13.0821 16.6664C13.0455 16.6456 13.0107 16.6222 12.9776 16.5963C12.9444 16.5703 12.9134 16.5421 12.8844 16.5116C12.4186 16.0307 12.2689 15.3669 12.2761 14.7163Z" fill="#FEFEFE"/>
<path d="M26.6284 6.61236C26.5798 6.48658 26.5252 6.34899 26.5633 6.21338C26.5887 6.1227 26.6479 6.05878 26.7321 6.0181C26.947 5.91418 27.2213 5.97223 27.4377 6.04273C27.7248 6.26477 28.1356 6.67199 28.2108 7.03591C27.7372 6.8852 27.3361 6.60669 26.832 6.53091L26.6284 6.61236Z" fill="#071939"/>
<path d="M14.1114 13.5659C14.1041 13.5419 14.0907 13.5213 14.0787 13.4994C14.0043 13.46 13.9354 13.4232 13.8769 13.3613C13.8267 13.3082 13.7819 13.2459 13.7604 13.1753C13.6615 12.8512 13.5526 11.7349 13.5664 11.3742C13.589 10.7898 13.8117 10.4993 14.1586 10.0518C14.3211 9.84214 14.4805 9.63417 14.6759 9.45384C14.8318 9.3099 15.1423 9.04357 15.3667 9.05253C14.2911 9.918 14.0941 10.294 13.9507 11.6665C13.9302 11.8616 13.9424 12.0448 13.9859 12.236C13.9717 12.2695 13.9641 12.2676 13.9782 12.3039C14.0571 12.507 14.2046 12.6845 14.3093 12.8748C14.3299 12.9121 14.3185 12.8966 14.3559 12.9269L14.336 12.9403L14.371 12.9985C14.3366 13.0194 14.3024 13.0406 14.2676 13.0609C14.2215 13.0877 14.1909 13.1088 14.1711 13.1617C14.1256 13.2834 14.1671 13.4399 14.1114 13.5659Z" fill="#2C5A34"/>
<path d="M21.158 9.37266C21.1695 9.25898 21.1742 9.14502 21.2166 9.03796L21.2375 9.04185C21.2647 9.15291 21.2588 9.26433 21.2579 9.37793C21.4262 9.38313 21.6019 9.39371 21.7657 9.4346L21.7266 9.44066C21.8497 9.52092 22.1073 9.41354 22.1544 9.61271C22.1701 9.67952 22.1647 9.71965 22.1383 9.78063L22.1534 9.75985L22.1394 9.78587L22.1436 9.73539L22.1411 9.78686C21.8598 9.82675 21.1824 9.62377 20.9905 9.78333C20.7883 9.85185 20.5795 9.90189 20.381 9.98131C19.8516 10.1932 19.1418 10.5815 18.5897 10.6299C17.2873 10.744 17.1081 9.73376 15.7135 10.4684C15.545 10.5572 15.4031 10.6699 15.2438 10.7706C15.3444 10.5634 15.28 10.3485 15.4916 10.1845C15.517 10.1597 15.5398 10.1404 15.5687 10.12C15.7104 10.0195 15.8757 9.96668 16.0386 9.91108C17.0757 9.55732 17.6188 10.2854 18.5835 10.1899C19.2788 10.1211 19.9336 9.7482 20.5871 9.51953C20.7729 9.45446 20.9659 9.41441 21.158 9.37266Z" fill="#2C5A34"/>
<path d="M19.1739 8.7435C18.8519 8.81258 18.3069 8.90853 18.0011 8.74953C17.564 8.52229 17.2747 7.93521 17.1366 7.48711C17.1265 7.45479 17.1172 7.42222 17.1086 7.38941C17.1001 7.35664 17.0924 7.32366 17.0855 7.29048C17.0786 7.25731 17.0725 7.22399 17.0672 7.19052C17.0619 7.15706 17.0575 7.12349 17.0539 7.08981C17.0502 7.0561 17.0475 7.02235 17.0455 6.98854C17.0435 6.9547 17.0424 6.92084 17.0421 6.88695C17.0418 6.85309 17.0424 6.81923 17.0438 6.78537C17.0451 6.7515 17.0473 6.71771 17.0504 6.68398C17.0534 6.65022 17.0572 6.61657 17.062 6.58303C17.0666 6.54945 17.0721 6.51603 17.0785 6.48275C17.0848 6.44947 17.0919 6.41636 17.0999 6.38342C17.1079 6.35048 17.1166 6.31777 17.1262 6.28528C17.1358 6.25277 17.1461 6.22052 17.1573 6.18854C17.1684 6.15652 17.1804 6.12482 17.1931 6.09341C17.2058 6.06201 17.2193 6.03093 17.2335 6.00019C17.2478 5.96945 17.2628 5.93908 17.2785 5.90907C17.4979 5.49912 17.8421 5.17434 18.2946 5.04174C18.6154 4.94773 19.0248 4.90403 19.3557 4.96121C19.7787 5.03429 20.032 5.29765 20.4004 5.48179C20.7513 5.65713 21.1666 5.73893 21.5516 5.80638C22.0571 5.89496 22.4757 5.82362 22.9744 5.79979C23.5778 5.77097 24.2678 5.88834 24.8013 6.17529C24.8468 6.22339 24.8921 6.26657 24.9435 6.3084L24.9488 6.3243C24.889 6.29094 24.8285 6.25863 24.7675 6.22735C24.7845 6.2745 24.8191 6.32858 24.7992 6.37509C24.7158 6.36594 24.5353 6.22807 24.4716 6.27608C24.1082 6.17577 23.7348 6.07485 23.3549 6.07743C23.1456 6.07886 22.9332 6.12731 22.7269 6.1609C22.2707 6.2352 21.7798 6.30055 21.3191 6.23766C21.1964 6.22022 21.0756 6.19378 20.9569 6.15836C20.8381 6.12297 20.7225 6.07899 20.6103 6.02644C20.3544 5.90943 20.1218 5.749 19.8698 5.62469C19.3617 5.37406 18.7333 5.25237 18.215 5.54293C17.8798 5.73084 17.5913 6.07287 17.4923 6.44643C17.3807 6.8674 17.3177 7.40301 17.5557 7.79318C17.8409 8.26067 18.339 8.50909 18.8587 8.62257C19.0111 8.6558 19.1685 8.66059 19.3187 8.69465C19.2656 8.70714 19.2206 8.71412 19.1739 8.7435Z" fill="#2C5A34"/>
<path d="M11.5358 18.3815C11.551 17.9407 11.5932 17.502 11.5989 17.0606C11.6065 16.4738 11.5672 15.8882 11.5741 15.3024C11.5972 13.3496 11.8143 11.3179 12.5248 9.48673C13.1279 7.93256 14.4824 6.07784 16.045 5.38885C15.9237 5.713 15.8342 6.03838 15.7464 6.37288C15.3119 6.47578 14.9015 6.9485 14.6789 7.31273C14.4948 7.61412 14.2923 8.04402 14.2797 8.40303C14.2594 8.52487 14.2423 8.64411 14.234 8.76742L14.2068 8.91722L14.1886 8.92381C14.0052 8.55973 14.0838 8.06722 14.1409 7.68022C13.989 7.9424 13.8017 8.17856 13.6408 8.43427C13.5034 8.65251 13.386 8.90227 13.2775 9.13622C13.0544 9.61699 12.8871 10.128 12.7269 10.6325C12.6403 10.9054 12.545 11.1789 12.4745 11.4563C12.2698 12.2616 12.1758 13.0773 12.1068 13.9027C12.0798 14.2264 12.0423 14.551 12.0321 14.8756C11.9725 16.7876 12.2982 18.683 12.7896 20.5237C12.8693 20.8222 12.9799 21.11 13.0811 21.4015C13.141 21.5741 13.1893 21.751 13.2552 21.9213C13.3162 22.0787 13.3998 22.2315 13.4555 22.3895C13.454 22.3994 13.4521 22.4094 13.451 22.4194C13.4393 22.5316 13.569 22.6409 13.6049 22.7435C13.6224 22.7935 13.6519 22.8278 13.6846 22.8686L13.681 22.8833C13.5218 22.7952 13.4937 22.5454 13.3381 22.4455C13.0262 21.8347 12.7357 21.2292 12.4942 20.5866C12.4712 20.4488 12.4059 20.3006 12.3632 20.1668C12.2856 19.921 12.211 19.6742 12.1395 19.4266C12.0151 18.9925 11.9416 18.5408 11.799 18.1129L11.7733 18.3534C11.6954 18.3762 11.6169 18.3823 11.5358 18.3815Z" fill="#FEFEFE"/>
<path d="M19.3186 8.69464C19.1684 8.66058 19.0109 8.65578 18.8586 8.62256C18.3388 8.50907 17.8408 8.26066 17.5556 7.79317C17.3176 7.403 17.3806 6.86739 17.4922 6.44642C17.5912 6.07286 17.8797 5.73083 18.2149 5.54292C18.7331 5.25236 19.3616 5.37405 19.8697 5.62468C20.1216 5.74899 20.3543 5.90942 20.6102 6.02643C20.7224 6.07898 20.8379 6.12295 20.9567 6.15835C21.0755 6.19377 21.1963 6.22021 21.319 6.23765C21.7797 6.30054 22.2706 6.23519 22.7268 6.16089C22.9331 6.1273 23.1455 6.07885 23.3548 6.07742C23.7347 6.07484 24.1081 6.17576 24.4715 6.27607C24.5352 6.22806 24.7157 6.36592 24.7991 6.37508C24.819 6.32857 24.7844 6.27449 24.7674 6.22734C24.8284 6.25861 24.8888 6.29093 24.9487 6.32429L24.9434 6.30839C24.892 6.26656 24.8467 6.22338 24.8012 6.17528C25.3972 6.49178 25.8324 6.85399 26.1417 7.45328C26.1996 7.56549 26.2686 7.68599 26.3043 7.80756C26.3178 7.85368 26.3202 7.89924 26.3216 7.94698C26.3128 7.96185 26.3061 7.97719 26.293 7.98861C26.3373 8.14701 26.3841 8.30466 26.4333 8.46157C26.4615 8.59865 26.5094 8.75678 26.4888 8.89611C26.4877 8.90361 26.4869 8.91118 26.4856 8.91867C26.4732 8.98683 26.4206 9.0381 26.3766 9.08842C26.3169 9.06201 26.281 9.03568 26.2533 8.9745C26.199 8.85471 26.2013 8.70471 26.1674 8.57696C26.093 8.2975 25.9259 8.05265 25.7733 7.81097L25.6877 7.83873C25.5812 7.76379 25.4959 7.66327 25.3886 7.59154C25.2341 7.48825 25.0536 7.41537 24.8823 7.34527C24.3043 7.10883 23.9504 7.06605 23.3259 7.1754C23.1006 7.21486 22.072 7.42057 21.9163 7.50328C21.7949 7.56787 21.6836 7.66438 21.5789 7.75269C21.1351 8.12719 20.8134 8.54147 20.2236 8.68834C20.0124 8.74092 19.8247 8.76237 19.6063 8.72656L19.6059 8.70991L19.6607 8.6785C19.5619 8.6925 19.2476 8.78307 19.1737 8.74349C19.2205 8.71411 19.2655 8.70713 19.3186 8.69464Z" fill="#071939"/>
<path d="M19.3352 6.1687C19.3671 6.17128 19.3999 6.17397 19.4311 6.18179C19.5133 6.20248 19.5858 6.26355 19.6296 6.33484C19.677 6.4118 19.6896 6.5026 19.6624 6.58936C19.6309 6.68988 19.5566 6.72267 19.4682 6.76537C19.4604 6.76545 19.4525 6.76593 19.4446 6.76561C19.3552 6.76204 19.2731 6.71851 19.215 6.6505C19.1542 6.57929 19.1406 6.48789 19.1541 6.39713C19.1705 6.28718 19.2541 6.2325 19.3352 6.1687Z" fill="#FEFEFE"/>
<path d="M24.8012 6.17523C25.3972 6.49173 25.8324 6.85394 26.1417 7.45323C26.1996 7.56545 26.2686 7.68595 26.3043 7.80752C26.3178 7.85363 26.3202 7.89919 26.3216 7.94693C26.3128 7.9618 26.3061 7.97714 26.293 7.98856C26.277 7.94698 26.2601 7.90578 26.2423 7.86497C25.9158 7.11961 25.2092 6.57048 24.4715 6.27603C24.5352 6.22801 24.7157 6.36588 24.7991 6.37503C24.819 6.32852 24.7844 6.27444 24.7674 6.22729C24.8284 6.25857 24.8888 6.29088 24.9487 6.32424L24.9434 6.30834C24.892 6.26651 24.8467 6.22333 24.8012 6.17523Z" fill="#538230"/>
<path d="M18.9132 6.0168C19.0316 6.01268 19.1436 6.04214 19.2542 6.08195C19.1065 6.1423 18.968 6.20202 18.8582 6.32331C18.755 6.43731 18.7038 6.58536 18.718 6.73889C18.7326 6.89579 18.8162 7.03386 18.9387 7.13097C19.1648 7.31011 19.5098 7.34853 19.757 7.18921C19.8387 7.13656 19.9443 7.00725 20.0369 6.99453L20.0515 7.02926C20.0413 7.10047 20.0076 7.14346 19.9667 7.20127C19.8354 7.32446 19.699 7.41978 19.5254 7.47621C19.509 7.48147 19.4925 7.48632 19.4758 7.49076C19.4591 7.4952 19.4423 7.49922 19.4255 7.50281C19.4086 7.50644 19.3916 7.50962 19.3746 7.51237C19.3576 7.51512 19.3405 7.51745 19.3233 7.51935C19.3062 7.52125 19.289 7.52272 19.2718 7.52375C19.2546 7.52481 19.2374 7.52543 19.2201 7.52561C19.2029 7.5258 19.1856 7.52555 19.1684 7.52486C19.1511 7.52417 19.1339 7.52306 19.1167 7.52153C19.0995 7.52 19.0824 7.51803 19.0653 7.51562C19.0483 7.51322 19.0313 7.5104 19.0143 7.50718C18.9974 7.50392 18.9805 7.50025 18.9638 7.49615C18.947 7.49208 18.9303 7.48759 18.9138 7.48267C18.8973 7.47776 18.8809 7.47242 18.8646 7.46665C18.8483 7.46092 18.8322 7.45478 18.8162 7.44825C18.8003 7.4417 18.7845 7.43476 18.7689 7.42744C18.7533 7.42012 18.7379 7.4124 18.7226 7.40428C18.5229 7.29897 18.3484 7.11923 18.2879 6.89726C18.2422 6.72993 18.2802 6.55011 18.3662 6.4021C18.4841 6.19892 18.6895 6.07212 18.9132 6.0168Z" fill="#FEFEFE"/>
<path d="M19.8439 8.14928C19.7695 8.20119 19.6868 8.23501 19.6006 8.26189C19.1714 8.39603 18.7438 8.33501 18.3516 8.11796C18.1196 7.98957 17.9916 7.75432 17.9265 7.5038C17.9097 7.43933 17.8922 7.34694 17.9281 7.28857C18.2007 7.43683 18.3012 7.66851 18.6429 7.79972C19.14 7.99056 19.5899 7.91459 20.063 7.70412C20.1247 7.6544 20.1902 7.58679 20.2696 7.57149L20.2972 7.59924C20.2925 7.754 20.1443 7.9134 20.0358 8.01566C19.9767 8.07137 19.918 8.1159 19.8439 8.14928Z" fill="url(#paint12_linear_20841_23240)"/>
<path d="M20.0631 7.70411C20.1247 7.65438 20.1902 7.58678 20.2696 7.57147L20.2972 7.59923C20.2925 7.75399 20.1443 7.91339 20.0359 8.01565C19.9767 8.07136 19.918 8.11588 19.8439 8.14927L19.8465 8.1137L19.8955 8.08496C19.8061 7.99364 19.4565 8.12508 19.3277 8.07247C19.5472 7.97167 19.7445 8.0708 19.971 7.89134C20.0721 7.81128 20.2257 7.74459 20.2714 7.62278L20.2571 7.61628C20.2072 7.64963 20.1591 7.68547 20.0992 7.69764C20.0872 7.7001 20.0751 7.70196 20.0631 7.70411Z" fill="#538230"/>
<path d="M21.4114 6.95076C21.661 6.8506 21.9675 6.83621 22.2326 6.79517C23.0186 6.67348 23.7752 6.49105 24.5417 6.82301C24.9477 6.99882 25.5355 7.44014 25.7732 7.81096L25.6876 7.83871C25.5811 7.76377 25.4958 7.66326 25.3885 7.59153C25.234 7.48824 25.0535 7.41536 24.8822 7.34525C24.3042 7.10881 23.9503 7.06603 23.3258 7.17539C23.1005 7.21484 22.0719 7.42055 21.9162 7.50326C21.7948 7.56786 21.6835 7.66437 21.5788 7.75267C21.135 8.12718 20.8133 8.54145 20.2235 8.68832C20.0123 8.7409 19.8246 8.76235 19.6062 8.72654L19.6058 8.70989L19.6606 8.67849C19.5618 8.69248 19.2475 8.78305 19.1736 8.74348C19.2204 8.71409 19.2654 8.70712 19.3185 8.69463C19.7036 8.63388 20.1104 8.55914 20.4111 8.29086C20.8308 7.91647 20.9044 7.41417 20.9367 6.88391C21.0303 6.88379 21.1486 6.86979 21.2362 6.90358C21.2982 6.93395 21.3428 6.94505 21.4114 6.95076Z" fill="url(#paint13_linear_20841_23240)"/>
<path d="M21.2364 6.90356C21.2984 6.93394 21.3429 6.94504 21.4116 6.95075C21.267 7.12399 21.1793 7.35809 21.0839 7.56126C21.139 7.34266 21.1934 7.12494 21.2364 6.90356Z" fill="#0C2331"/>
<defs>
<linearGradient id="paint0_linear_20841_23240" x1="6.28845" y1="22.3853" x2="8.40085" y2="22.1719" gradientUnits="userSpaceOnUse">
<stop stop-color="#214C36"/>
<stop offset="1" stop-color="#183B6C"/>
</linearGradient>
<linearGradient id="paint1_linear_20841_23240" x1="23.0504" y1="18.1136" x2="22.7064" y2="19.5467" gradientUnits="userSpaceOnUse">
<stop stop-color="#503E93"/>
<stop offset="1" stop-color="#8E77E7"/>
</linearGradient>
<linearGradient id="paint2_linear_20841_23240" x1="9.5306" y1="28.8087" x2="9.25897" y2="28.4784" gradientUnits="userSpaceOnUse">
<stop stop-color="#699633"/>
<stop offset="1" stop-color="#75B146"/>
</linearGradient>
<linearGradient id="paint3_linear_20841_23240" x1="23.0483" y1="19.6567" x2="21.0785" y2="25.3112" gradientUnits="userSpaceOnUse">
<stop offset="1" stop-color="#8E77E7"/>
</linearGradient>
<linearGradient id="paint4_linear_20841_23240" x1="21.588" y1="26.9565" x2="26.8766" y2="24.6521" gradientUnits="userSpaceOnUse">
<stop stop-color="#154139"/>
<stop offset="1" stop-color="#3D557C"/>
</linearGradient>
<linearGradient id="paint5_linear_20841_23240" x1="17.4137" y1="15.0763" x2="17.2251" y2="15.1196" gradientUnits="userSpaceOnUse">
<stop stop-color="#37673E"/>
<stop offset="1" stop-color="#4D7D44"/>
</linearGradient>
<linearGradient id="paint6_linear_20841_23240" x1="22.4469" y1="16.2813" x2="22.5379" y2="12.324" gradientUnits="userSpaceOnUse">
<stop stop-color="#265336"/>
<stop offset="1" stop-color="#05193B"/>
</linearGradient>
<linearGradient id="paint7_linear_20841_23240" x1="12.1622" y1="22.3655" x2="12.2733" y2="22.0626" gradientUnits="userSpaceOnUse">
<stop stop-color="#4B7857"/>
<stop offset="1" stop-color="#649166"/>
</linearGradient>
<linearGradient id="paint8_linear_20841_23240" x1="11.466" y1="20.4111" x2="11.7657" y2="20.3193" gradientUnits="userSpaceOnUse">
<stop stop-color="#5A893B"/>
<stop offset="1" stop-color="#82AA5A"/>
</linearGradient>
<linearGradient id="paint9_linear_20841_23240" x1="11.6736" y1="21.0348" x2="12.1749" y2="20.8531" gradientUnits="userSpaceOnUse">
<stop stop-color="#6F9D54"/>
<stop offset="1" stop-color="#94BD75"/>
</linearGradient>
<linearGradient id="paint10_linear_20841_23240" x1="11.3826" y1="19.6291" x2="12.0067" y2="18.7119" gradientUnits="userSpaceOnUse">
<stop stop-color="#A6BB74"/>
<stop offset="1" stop-color="#E9FAA8"/>
</linearGradient>
<linearGradient id="paint11_linear_20841_23240" x1="22.9211" y1="20.0664" x2="18.2342" y2="4.60599" gradientUnits="userSpaceOnUse">
<stop stop-color="#649948"/>
<stop offset="1" stop-color="#81B145"/>
</linearGradient>
<linearGradient id="paint12_linear_20841_23240" x1="19.0552" y1="8.2977" x2="19.0984" y2="7.39669" gradientUnits="userSpaceOnUse">
<stop stop-color="#387922"/>
<stop offset="1" stop-color="#80B147"/>
</linearGradient>
<linearGradient id="paint13_linear_20841_23240" x1="22.8815" y1="8.69697" x2="23.0236" y2="6.61071" gradientUnits="userSpaceOnUse">
<stop stop-color="#3F7234"/>
<stop offset="1" stop-color="#25523D"/>
</linearGradient>
</defs>
</svg>
