<svg width="24" height="24" fill="none" xmlns="http://www.w3.org/2000/svg"><path d="M17.21 6.143v.666l-3.188-1.846c-1.206-.693-2.89-.693-4.088 0L6.747 6.818v-.675C6.747 4.117 7.854 3 9.88 3h4.196c2.026 0 3.134 1.117 3.134 3.143z" fill="#fff"/><path d="M17.237 8.376l-.126-.063-1.225-.702-2.539-1.468c-.774-.45-1.963-.45-2.737 0L8.07 7.602l-1.224.72-.162.081C5.108 9.466 5 9.663 5 11.366v4.07c0 1.701.108 1.9 1.72 2.989l3.89 2.242c.387.234.873.333 1.369.333.486 0 .981-.108 1.368-.333l3.926-2.269c1.585-1.063 1.684-1.252 1.684-2.963v-4.07c0-1.701-.108-1.9-1.72-2.989zm-2.746 4.98l-.55.675a.652.652 0 00-.144.423l.054.864c.036.532-.342.802-.837.613l-.801-.324a.798.798 0 00-.46 0l-.801.315c-.495.198-.873-.081-.837-.613l.054-.864a.652.652 0 00-.145-.423l-.558-.667c-.342-.405-.189-.855.324-.99l.838-.216a.725.725 0 00.36-.27l.468-.72c.288-.45.748-.45 1.045 0l.468.72a.712.712 0 00.36.27l.838.216c.513.135.666.585.324.99z" fill="#fff"/></svg>