<svg width="24" height="24" fill="none" xmlns="http://www.w3.org/2000/svg"><path d="M15.771 3H8.229C4.953 3 3 4.953 3 8.229v7.533C3 19.047 4.953 21 8.229 21h7.533c3.276 0 5.229-1.953 5.229-5.229V8.229C21 4.953 19.047 3 15.771 3zm-6.948 8.082a.679.679 0 01.954 0l1.548 1.548V7.059A.68.68 0 0112 6.384a.68.68 0 01.675.675v5.571l1.548-1.548a.679.679 0 01.954 0 .679.679 0 010 .954l-2.7 2.7a.698.698 0 01-.477.198.678.678 0 01-.477-.198l-2.7-2.7a.679.679 0 010-.954zm8.793 5.616a17.77 17.77 0 01-5.616.909 17.77 17.77 0 01-5.616-.909.678.678 0 01-.423-.855.667.667 0 01.855-.423 16.5 16.5 0 0010.377 0 .678.678 0 01.855.423.686.686 0 01-.432.855z" fill="url(#paint0_linear_37448_3607)"/><defs><linearGradient id="paint0_linear_37448_3607" x1="11.995" y1="3" x2="11.995" y2="21" gradientUnits="userSpaceOnUse"><stop stop-color="#2BC368"/></linearGradient></defs></svg>