<svg width="24" height="24" fill="none" xmlns="http://www.w3.org/2000/svg"><path d="M19.2 11.999v5.4a3.6 3.6 0 01-3.6 3.6H8.4a3.6 3.6 0 01-3.6-3.6V12c0-.495.404-.9.9-.9h1.772c.495 0 .9.405.9.9v2.826a1.813 1.813 0 001.8 1.81c.343 0 .685-.1.982-.298l.855-.558.792.531a1.774 1.774 0 001.836.1c.594-.316.963-.919.963-1.594V12c0-.495.406-.9.9-.9h1.8c.496 0 .9.405.9.9zm1.351-4.501v.9c0 .99-.477 1.8-1.8 1.8H5.249c-1.377 0-1.8-.81-1.8-1.8v-.9c0-.99.423-1.8 1.8-1.8h13.502c1.323 0 1.8.81 1.8 1.8z" fill="#fff"/><path d="M11.676 5.698H6.707a.843.843 0 01.027-1.17L8.013 3.25a.864.864 0 011.215 0l2.448 2.448zm5.608 0h-4.969l2.448-2.448a.864.864 0 011.216 0l1.278 1.278a.843.843 0 01.027 1.17zm-3.511 5.401c.495 0 .9.405.9.9v2.817c0 .72-.8 1.152-1.395.747l-.81-.54a.9.9 0 00-.99 0l-.846.558c-.594.396-1.386-.036-1.386-.747V12c0-.495.405-.9.9-.9h3.627z" fill="#fff"/></svg>