<svg width="24" height="24" fill="none" xmlns="http://www.w3.org/2000/svg"><path fill-rule="evenodd" clip-rule="evenodd" d="M14.708 16.855a5.96 5.96 0 01-.928 1.772 2 2 0 01-.974-2.39 4.045 4.045 0 000-2.474 2 2 0 01.974-2.39 5.993 5.993 0 01.928 5.482zm-4.47 1.95a2 2 0 012.389.975 5.993 5.993 0 01-7.254 0 2 2 0 012.39-.974 4.045 4.045 0 002.474 0zm-5.044-2.568a2 2 0 01-.974 2.39 6 6 0 01-.928-1.772A5.996 5.996 0 013 15a5.996 5.996 0 011.22-3.627 2 2 0 01.974 2.39A3.996 3.996 0 005 15c0 .435.069.85.194 1.237zm2.569-5.043a2 2 0 01-2.39-.974 6 6 0 011.772-.928A5.995 5.995 0 019 9a5.996 5.996 0 013.627 1.22 2 2 0 01-2.39.974A3.995 3.995 0 009 11c-.435 0-.85.069-1.237.194zM9 18a3 3 0 100-6 3 3 0 000 6zm11.32-6.223A5.96 5.96 0 0021 9a5.994 5.994 0 00-1.22-3.627 2 2 0 00-.974 2.39 4.045 4.045 0 010 2.474 2 2 0 00.974 2.39c.203-.267.384-.551.54-.85zm-1.693 2.003a2 2 0 00-2.39-.974 3.958 3.958 0 01-.545.135c.193.625.3 1.289.307 1.976a5.958 5.958 0 002.628-1.137zm-3.309-1.797a3 3 0 10-3.301-3.301 7.029 7.029 0 013.301 3.301zM9.083 8c.687.008 1.35.115 1.976.308.033-.187.078-.369.135-.545a2 2 0 00-.974-2.39A6.002 6.002 0 009.083 8zm2.29-3.78a2 2 0 002.39.974A3.996 3.996 0 0115 5c.435 0 .85.069 1.237.194a2 2 0 002.39-.974 6 6 0 00-1.772-.928A5.996 5.996 0 0015 3a5.995 5.995 0 00-3.627 1.22z" fill="#fff"/></svg>