<svg width="24" height="24" fill="none" xmlns="http://www.w3.org/2000/svg"><path fill-rule="evenodd" clip-rule="evenodd" d="M15.418 8.373l.107.146v.001l.077-.06c.05-.04.102-.08.156-.118.557-.388 1.301-.296 1.723.22.315.386.358.826.224 1.293a3.59 3.59 0 01-.582 1.152c-.494.666-1.112 1.197-1.793 1.66-.128.086-.181.173-.137.333.274.997.548 1.995.806 2.998.077.3.144.602.211.905.055.25.11.5.171.748.017.07.108.154.18.172.189.048.383.079.577.11l.13.02c.866.143 1.538-.33 1.691-1.197l.927-5.25.463-2.626.165-.93c.123-.685.245-1.371.359-2.059.146-.886-.305-1.52-1.185-1.699a15.29 15.29 0 00-.362-.068 8596.287 8596.287 0 01-4.179-.739c-.69-.123-1.382-.246-2.074-.36-.884-.144-1.54.328-1.692 1.195-.036.207-.013.25.188.301 1.009.26 1.613.915 1.87 1.912.067.258.136.516.206.773l.092.345c.061.23.07.233.3.19.445-.083.837.027 1.155.351.082.084.152.18.226.281zM6.853 20.846c.126.052.262.108.43.087.184-.022.278-.046.427-.09l.893-.24c1.877-.5 3.754-1 5.63-1.508.785-.212 1.2-.934 1.006-1.726-.075-.31-.16-.62-.243-.929-.03-.108-.06-.217-.088-.325l-1.916-7.148-.169-.63c-.155-.581-.31-1.162-.471-1.74-.17-.61-.578-.983-1.206-1.035-.288-.023-.592.057-.879.133l-.012.004c-1.09.288-2.178.58-3.267.872-.944.254-1.888.507-2.832.758-.905.24-1.323.925-1.094 1.835.07.283.147.564.224.846l.092.34a40020.972 40020.972 0 002.553 9.52c.125.462.42.776.86.95l.062.026zm4.343-8.161l.036.079a2.332 2.332 0 00-.03.12 2.545 2.545 0 01-.054.193c-.308.914-.615 1.828-.926 2.742-.127.374-.43.45-.731.185l-.334-.293a369.06 369.06 0 00-1.868-1.633c-.205-.178-.275-.371-.183-.637.172-.497.34-.996.507-1.495.146-.432.291-.864.44-1.294.132-.386.422-.47.73-.206.473.406.94.819 1.408 1.23a333.43 333.43 0 00.62.544c.095.081.19.162.27.256.052.061.085.14.115.209z" fill="#fff"/></svg>