<svg width="24" height="24" fill="none" xmlns="http://www.w3.org/2000/svg"><path fill-rule="evenodd" clip-rule="evenodd" d="M12.926 3.047a9.103 9.103 0 00-3.821.429l1.311.778.006.004.002.001 1.45.861c.05-.047.103-.094.157-.143.128-.115.263-.237.383-.373l.058-.064c.151-.167.31-.342.382-.542.11-.306.094-.63.072-.951zM3.899 8.074a9.038 9.038 0 014.027-4.101 20.041 20.041 0 013.152 1.786l-.344.21c-.25.153-.492.301-.739.442-.89.506-1.873.724-2.87.903-1.089.195-2.177.398-3.226.76zm.585 8.879A8.958 8.958 0 013 12c0-.95.147-1.867.42-2.727.719-.35 1.485-.564 2.266-.726.38-.079.762-.152 1.144-.226l.017-.003c.49-.095.98-.19 1.47-.295 1.198-.259 2.27-.803 3.269-1.503l.187-.134.005-.003.089-.064.72.588.002.002.002.002.003.002.417.34-.409.3c-.283.206-.56.407-.832.614-1.671 1.267-3.223 2.663-4.588 4.256-.975 1.136-1.84 2.345-2.416 3.738-.082.2-.151.405-.22.61l-.062.182zm6.35 3.972A8.984 8.984 0 015.202 17.9c.17-.941.563-1.796 1.049-2.612.91-1.532 2.09-2.848 3.375-4.073a32.153 32.153 0 014.066-3.28l.048-.032 1.19 1.374-.197.223-.008.01-.091.103c-.104.117-.203.23-.299.346-.442.535-.728 1.156-.91 1.814-.291 1.06-.555 2.128-.818 3.196l-.05.198-.127.521c-.388 1.58-.775 3.162-1.36 4.687a6.75 6.75 0 01-.142.337 7.767 7.767 0 00-.094.214zm6.908-1.994a8.964 8.964 0 01-5.906 2.068c.043-.117.085-.232.128-.345v-.002c.163-.438.319-.856.437-1.285.279-1.01.54-2.023.8-3.037l.004-.011c.134-.522.268-1.044.405-1.565l.173-.664v-.002c.202-.78.405-1.56.632-2.332.176-.594.47-1.138.967-1.542a.867.867 0 01.046-.034l.015-.01.017-.013.016.027.017.028.001.002c.023.036.045.072.065.108.842 1.537 1.366 3.183 1.717 4.891a24.49 24.49 0 01.466 3.718zM21 11.98V12c0 2.34-.893 4.471-2.356 6.072-.283-2.914-.895-5.728-2.343-8.355H16.3l.337-.065h.002c.23-.044.45-.087.672-.128.66-.12 1.21.14 1.723.505.72.513 1.297 1.172 1.867 1.839a.341.341 0 01.028.036l.017.023a.249.249 0 00.036.038l.018.015zm-2.428-6.129a8.973 8.973 0 012.29 4.568l-.022-.02a19.5 19.5 0 00-.88-.827c-.553-.478-1.168-.86-1.913-.974-.55-.085-1.084.027-1.616.146-.044.01-.088.021-.132.034l-.125.038a3.117 3.117 0 01-.265.074c-.054.012-.142-.015-.176-.056l-.344-.419-.575-.71-.266-.33.086-.051.112-.067c.14-.084.289-.173.435-.265 1.043-.651 2.192-.972 3.391-1.14zm-4.707-2.658a8.966 8.966 0 013.847 1.852c-1.428.245-2.682.901-3.884 1.69l-.318-.268-.469-.393-.39-.328c.104-.127.212-.252.32-.376v-.001l.002-.001c.246-.284.491-.567.685-.882.233-.379.22-.822.208-1.265l-.001-.028z" fill="#fff"/></svg>