<svg width="24" height="24" fill="none" xmlns="http://www.w3.org/2000/svg"><path d="M16.183 5h-6.069v2.72c0 .35-.288.63-.63.63a.632.632 0 01-.63-.63V5H7.808C4.252 5 3.082 6.062 3.001 9.385a.61.61 0 00.18.45c.117.126.27.19.45.19a2.313 2.313 0 012.296 2.304 2.313 2.313 0 01-2.296 2.305.605.605 0 00-.45.19.611.611 0 00-.18.45c.08 3.322 1.251 4.385 4.808 4.385h1.044v-2.72c0-.35.289-.63.63-.63.343 0 .631.28.631.63v2.72h6.069c3.692 0 4.817-1.126 4.817-4.817V9.816C21 6.126 19.875 5 16.183 5zm1.639 7.24l-.838.81c-.036.027-.045.08-.036.126l.198 1.143a.552.552 0 01-.225.55.55.55 0 01-.585.045l-1.036-.54a.154.154 0 00-.126 0l-1.035.54a.532.532 0 01-.261.063.562.562 0 01-.55-.657l.199-1.144a.161.161 0 00-.036-.126l-.838-.81a.554.554 0 01-.144-.568.532.532 0 01.45-.378l1.153-.171a.18.18 0 00.108-.072l.513-1.045a.564.564 0 01.504-.306.54.54 0 01.496.306l.513 1.045c.018.045.054.072.099.072l1.152.17a.546.546 0 01.45.38.517.517 0 01-.125.566z" fill="#fff"/><path d="M7.656 11.387c.229-.008.458.021.688-.02.3-.055.483-.276.479-.597a.55.55 0 00-.48-.55c-.229-.041-.458-.012-.687-.02-.28-.009-.338-.063-.342-.347-.004-.175 0-.35 0-.525 0-.404-.254-.658-.663-.662h-.02c-.3.016-.526.308-.526.754 0 .158.004.32 0 .48-.008.212-.087.287-.296.295-.2.009-.396-.004-.596.005-.388.008-.625.237-.625.591 0 .35.242.584.617.596.192.005.383-.004.57 0 .238.009.31.084.322.321.012.221-.021.442.02.663.059.33.326.584.622.546.32-.041.533-.208.57-.617.017-.187 0-.383.005-.57.004-.284.067-.338.342-.343zm10.055.458a.938.938 0 001.873 0 .938.938 0 00-.936-.936.935.935 0 00-.937.936zM15.65 9.74a.938.938 0 001.874 0 .938.938 0 00-1.873 0z" fill="#fff"/></svg>