<svg width="22" height="20" fill="none" xmlns="http://www.w3.org/2000/svg"><g clip-path="url(#clip0_37448_3633)" fill="#FBFBFF"><path d="M9.696 18.988c.097-.585.69-.966 1.253-.991-.308.293-.425.574-.38.991-.29.006-.582.001-.873 0zM5.064 11.77c-.398-.198-.893.114-.86-.075.11-.627.746-1.028 1.36-.931.005.092-.426.9-.5 1.005zM5.382 13.442c-.405-.209-.766.039-.85.01-.053-.243.181-.608.345-.77.298-.295.613-.303 1.009-.302-.03.115-.437.972-.504 1.062z"/><path d="M5.565 10.764c.22-.006.441.007.662 0 .008.405.019.807.056 1.212-.434.008-.869 0-1.303 0l.084-.207c.074-.105.505-.914.5-1.005zM11.287 17.21c.152-.205-.327-1.723.434-2.512a1.659 1.659 0 012.342-.029c.652.646.557 1.543.557 2.382l.001.873c0 1.443-.333 1.34-1.732 1.34h-2.32c.001-.09.01-.187 0-.276-.045-.417.072-.699.38-.991.11.008.227 0 .338 0-.001-.217.034-.587.02-.775l-.02-.012zM19.744 10.127c.177-.34.34-.678.462-1.043.067-.2.168-.66.251-.81.163-.29.57-.172.653.115.057.202.007.663-.015.885-.32 3.221-1.8 6.032-4.935 7.29-.01-.157-.001-.32 0-.477v-2.013c-.001-.21-.01-.422 0-.632-.014-.096-.002-.206-.002-.303l.002-.625c1.762.073 2.766-.872 3.584-2.387z"/><path d="M19.744 10.127c.19.132.987.47.734.794-.16.205-.791.317-1.056.398.106.21.51.787.437.995-.116.328-1.022.042-1.271.029.4 1.546.315 1.48-1.047.752-.061.245-.134.722-.238.928-.231.464-.954-.418-1.143-.58-.014-.097-.002-.207-.002-.304l.002-.625c1.762.073 2.766-.872 3.584-2.387z"/><path fill-rule="evenodd" clip-rule="evenodd" d="M5.228.776C2.728 1.126.6 3.35.97 5.956c.172 0 .338.028.506.058l.15.025c.658.104 1.314.15 1.98.1.086-.006.17-.016.253-.026.174-.02.346-.041.525-.027-.228.817-.582 1.349-1.45 1.603.472.19.97.188 1.47.186h1.252c.062 0 .126-.003.19-.006.128-.005.258-.01.38.004.616.018 1.385.028 2 0 .13-.012.258-.01.387-.01.157.002.316.003.49-.018 1.117-.14 1.77-1.035 1.8-2.117.084-3.06-2.7-5.368-5.675-4.952zm-2.5 3.928c.518.025.535.677.06.794-.544-.009-.565-.707-.06-.794zm3.499-1.133c1.502-.15 1.91 1.988.349 2.325-1.572.159-1.807-1.992-.35-2.325z"/><path d="M9.887 9.618c.277-.429 1.194-1.708 1.53-2.003.393.414.864 1.065 1.23 1.537.093.12.173.256.272.37l1.158-1.336c.164-.188.317-.397.495-.57.188.415.55.916.779 1.348.096.183.412.883.526.988.336.505.342 1.941.283 2.561l-.002.625c0 .098-.012.207.002.304-.01.21-.001.422 0 .632l-.001 2.013c0 .157-.01.32 0 .476-.5.203-1.014.362-1.539.488 0-.839.094-1.736-.557-2.382a1.659 1.659 0 00-2.343.03c-.76.788-.28 2.306-.433 2.511-1.426-.248-2.635-.887-3.515-2.058-.462-.544-.642-.927-.963-1.515-.498 0-1 .015-1.497 0l.07-.195c.067-.09.474-.947.503-1.062h.476a8.493 8.493 0 01-.078-.405 16.927 16.927 0 01-.057-1.211v-2.61c-.004-.093 0-.188 0-.282.616.019 1.385.028 2 0v.946c.176-.187.24-.461.401-.664.34.376.917 1.184 1.26 1.464z"/><path d="M6.227 7.873c.615.018 1.384.028 1.998 0v.193c-.024.175-.008.357 0 .532l-1.178.19c-.273.044-.546.097-.82.131 0-.12.024-.709 0-.764-.005-.094 0-.189 0-.282zM8.225 11.899c.45.01.826.147 1.168.444.269.301.445.658.494 1.06.06.345-.052.83-.267 1.108-.447.64-1.122.825-1.848.642-.462-.545-.642-.928-.963-1.515-.498 0-1 .014-1.497 0l.07-.196c.067-.09.474-.947.503-1.062h.476c.047.227.12.446.215.657.17-.372.43-.678.778-.894a1.73 1.73 0 01.871-.244zM9.887 9.618c.277-.429 1.194-1.708 1.53-2.003.393.414.864 1.065 1.23 1.537.093.12.173.256.272.37l1.158-1.336c.164-.188.317-.397.495-.57.188.415.55.916.779 1.348.096.183.412.883.526.988-.416.315-1.062.851-1.424 1.23-.373-.451-1.05-1.034-1.495-1.43-.385.4-1.042 1.104-1.468 1.43-.51-.391-1.036-.994-1.553-1.43-.467.471-.92.958-1.387 1.43-.24-.286-.666-.826-.939-1.056.148-.405.542-.915.614-1.308.177-.187.24-.461.402-.664.34.376.917 1.184 1.26 1.464z"/></g><defs><clipPath id="clip0_37448_3633"><path fill="#fff" transform="translate(.444)" d="M0 0h21.111v20H0z"/></clipPath></defs></svg>