<svg width="24" height="24" fill="none" xmlns="http://www.w3.org/2000/svg"><path d="M16.024 4.3H7.976c-2.414 0-4.024 1.61-4.024 4.025v4.829c0 2.414 1.61 4.023 4.024 4.023v1.715a.8.8 0 001.248.668l3.58-2.383h3.22c2.415 0 4.024-1.61 4.024-4.024V8.325c0-2.415-1.61-4.024-4.024-4.024zM12 14.096a.603.603 0 110-1.206.603.603 0 010 1.205zm1.014-3.34c-.314.21-.41.346-.41.572v.169c0 .33-.274.603-.604.603a.608.608 0 01-.604-.603v-.17c0-.933.685-1.392.942-1.569.298-.2.395-.338.395-.547A.735.735 0 0012 8.478a.735.735 0 00-.732.732c0 .33-.274.604-.604.604a.608.608 0 01-.603-.604 1.94 1.94 0 013.879 0c0 .917-.676 1.376-.926 1.545z" fill="#fff"/></svg>